<svg width="287" height="287" viewBox="0 0 287 287" fill="none" xmlns="http://www.w3.org/2000/svg">
<path d="M221.468 180.249L191.275 172.306C187.8 167.59 182.713 164.318 176.983 163.11V153.574C193.244 144.159 204.812 128.361 208.879 110.015H210.467C218.013 110.05 224.871 105.621 227.944 98.7291C231.02 91.8367 229.736 83.7764 224.668 78.1826C224.752 77.6361 224.801 77.0849 224.817 76.5313V52.6146C224.817 44.6898 218.392 38.2645 210.467 38.2645H203.913C192.868 14.9013 169.341 0 143.5 0C117.656 0 94.1296 14.9013 83.0845 38.2645H76.533C68.6059 38.2645 62.183 44.6898 62.183 52.6146V76.5313C62.197 77.0849 62.2484 77.6361 62.3301 78.1826C57.2642 83.7764 55.9796 91.8367 59.0532 98.7291C62.1293 105.621 68.9843 110.05 76.533 110.015H78.1213C82.1852 128.361 93.7559 144.159 110.017 153.574V163.11C104.278 164.313 99.1839 167.583 95.7038 172.299L65.5299 180.249C38.1938 187.406 19.1305 212.105 19.1328 240.361V282.216C19.1328 284.859 21.2746 286.999 23.9161 286.999H263.084C265.725 286.999 267.867 284.859 267.867 282.216V240.361C267.87 212.105 248.804 187.406 221.468 180.249ZM186.55 186.548V192.152C183.453 191.061 180.078 191.061 176.983 192.152V173.018C182.713 175.053 186.543 180.469 186.55 186.548ZM210.467 100.448V81.3147C215.75 81.3147 220.034 85.5982 220.034 90.8814C220.034 96.1669 215.75 100.448 210.467 100.448ZM210.467 47.8312C213.109 47.8312 215.25 49.973 215.25 52.6146V72.4276C213.69 71.9979 212.083 71.769 210.467 71.748V66.9646C210.462 60.4856 209.512 54.0393 207.643 47.8312H210.467ZM76.533 47.8312H79.3545C77.4883 54.0393 76.5377 60.4856 76.533 66.9646V71.748C74.9145 71.769 73.3075 71.9979 71.7497 72.4276V52.6146C71.7497 49.973 73.8914 47.8312 76.533 47.8312ZM76.533 100.448C71.2499 100.448 66.9663 96.1669 66.9663 90.8814C66.9663 85.5982 71.2499 81.3147 76.533 81.3147V100.448ZM86.0997 95.6647V66.9646C86.0997 35.2656 111.799 9.56437 143.5 9.56437C175.201 9.56437 200.9 35.2656 200.9 66.9646V95.6647C200.9 127.366 175.201 153.065 143.5 153.065C111.799 153.065 86.0997 127.366 86.0997 95.6647ZM143.5 162.632C151.679 162.62 159.789 161.097 167.417 158.14V189.354L143.5 213.27L119.583 189.354V158.14C127.211 161.097 135.318 162.62 143.5 162.632ZM100.45 186.548C100.457 180.469 104.287 175.053 110.017 173.018V192.152C106.919 191.061 103.545 191.061 100.45 192.152V186.548ZM258.3 277.432H215.25V243.949H205.684V277.432H81.3164V243.949H71.7497V277.432H28.6995V240.361C28.6925 216.463 44.806 195.569 67.9216 189.501L91.1797 183.384C91.0092 184.43 90.9111 185.488 90.8831 186.548V205.682C90.8831 208.326 93.0249 210.465 95.6665 210.465C98.308 210.465 100.45 208.326 100.45 205.682C100.45 203.04 102.592 200.899 105.233 200.899C107.875 200.899 110.017 203.04 110.017 205.682C110.017 208.326 112.158 210.465 114.8 210.465C117.441 210.465 119.583 208.326 119.583 205.682V202.879L140.118 223.414C141.987 225.282 145.013 225.282 146.882 223.414L167.417 202.879V205.682C167.417 208.326 169.559 210.465 172.2 210.465C174.842 210.465 176.983 208.326 176.983 205.682C176.983 203.04 179.125 200.899 181.767 200.899C184.408 200.899 186.55 203.04 186.55 205.682C186.55 208.326 188.692 210.465 191.334 210.465C193.975 210.465 196.117 208.326 196.117 205.682V186.548C196.08 185.486 195.972 184.428 195.797 183.379L219.062 189.501C242.182 195.562 258.305 216.458 258.3 240.361V277.432Z" fill="white"/>
<path d="M168.804 73.1353C168.599 73.3642 168.405 73.6024 168.23 73.8547C168.047 74.1209 167.903 74.4105 167.8 74.7142C167.66 74.9851 167.564 75.2771 167.513 75.576C167.456 75.8913 167.424 76.2113 167.417 76.5313C167.424 77.1572 167.555 77.7738 167.8 78.3507C168.04 78.93 168.381 79.4625 168.804 79.9296C169.72 80.8008 170.934 81.2983 172.2 81.3147C172.824 81.3076 173.443 81.1792 174.017 80.9339C175.218 80.4972 176.166 79.5513 176.6 78.3507C176.846 77.7738 176.974 77.1572 176.983 76.5313C176.965 75.2654 176.47 74.0532 175.596 73.1353C175.131 72.7149 174.596 72.3739 174.017 72.131C172.23 71.435 170.203 71.825 168.804 73.1353Z" fill="white"/>
<path d="M111.404 73.1353C109.547 75.0085 109.554 78.0308 111.423 79.8923C113.289 81.7538 116.311 81.7538 118.177 79.8923C120.043 78.0308 120.053 75.0085 118.196 73.1353C116.274 71.3766 113.326 71.3766 111.404 73.1353Z" fill="white"/>
<path d="M176.983 124.365V114.798C176.969 103.438 168.977 93.6491 157.85 91.3602V76.5314H148.283V95.6648C148.283 98.3087 146.142 100.448 143.5 100.448C140.858 100.448 138.717 98.3087 138.717 95.6648V76.5314H129.15V91.3602C118.021 93.6491 110.031 103.438 110.017 114.798V124.365C110.017 127.009 112.158 129.148 114.8 129.148H172.2C174.842 129.148 176.983 127.009 176.983 124.365ZM167.417 119.582H119.583V114.798C119.611 108.333 123.958 102.686 130.201 101.004C132.373 106.446 137.64 110.017 143.5 110.017C149.358 110.017 154.627 106.446 156.797 101.004C163.04 102.686 167.389 108.333 167.417 114.798V119.582Z" fill="white"/>
<path d="M105.233 52.6146H181.767V62.1813H105.233V52.6146Z" fill="white"/>
<path d="M124.367 38.2645H162.633V47.8312H124.367V38.2645Z" fill="white"/>
</svg>
