<svg width="45" height="45" viewBox="0 0 45 45" fill="none" xmlns="http://www.w3.org/2000/svg">
<path d="M15.1694 14.2438C15.5048 14.0852 15.9058 14.2283 16.0648 14.5641L21.6142 26.2896L29.9968 16.8688L26.8156 10.1469C26.6425 9.78197 26.2697 9.54576 25.8656 9.54576H21.9036C21.5322 9.54576 21.2311 9.24467 21.2311 8.87319C21.2311 8.50172 21.5322 8.20062 21.9036 8.20062H25.8656C26.7871 8.20062 27.6371 8.73895 28.0313 9.57185L32.9212 19.9038C33.8963 19.5382 34.952 19.3377 36.0534 19.3377C40.9866 19.3373 45 23.3508 45 28.284C45 33.2172 40.9866 37.2306 36.0534 37.2306C31.1201 37.2306 27.1067 33.2172 27.1067 28.284C27.1067 24.9297 28.9624 22.0012 31.7007 20.4699L30.6216 18.1899L22.5103 27.3055H20.6066L14.8487 15.1395C14.6901 14.8037 14.8336 14.4027 15.1694 14.2438ZM28.4518 28.284C28.4518 32.4753 31.8617 35.8855 36.0534 35.8855C40.245 35.8855 43.6549 32.4756 43.6549 28.284C43.6549 24.0923 40.245 20.6825 36.0534 20.6825C35.1576 20.6825 34.2979 20.8394 33.4994 21.1253L36.751 27.9963C36.9099 28.332 36.7664 28.733 36.431 28.892C36.338 28.9359 36.2398 28.9569 36.1436 28.9569C35.8916 28.9569 35.6499 28.8144 35.5353 28.5717L32.2785 21.6901C29.9944 23.003 28.4518 25.466 28.4518 28.284Z" fill="#838383"/>
<path d="M29.2672 14.0045H32.021C32.3853 14.0045 32.6802 13.7093 32.6802 13.3453C32.6802 12.9811 32.3853 12.6862 32.021 12.6862H29.2672C28.9033 12.6862 28.608 12.9811 28.608 13.3453C28.608 13.7093 28.9033 14.0045 29.2672 14.0045Z" fill="#838383"/>
<path d="M30.8197 17.5788H33.5739C33.9378 17.5788 34.233 17.2835 34.233 16.9196C34.233 16.5554 33.9378 16.2604 33.5739 16.2604H30.8197C30.4558 16.2604 30.1605 16.5554 30.1605 16.9196C30.1605 17.2835 30.4558 17.5788 30.8197 17.5788Z" fill="#838383"/>
<path d="M30.8963 11.9322L33.638 17.8154C33.775 18.1096 34.0703 18.2977 34.3951 18.2977H38.8325C39.2936 18.2977 39.6675 17.9239 39.6675 17.4628V12.099C39.6675 11.6376 39.2936 11.2637 38.8325 11.2637H31.3223C30.9787 11.2637 30.751 11.6208 30.8963 11.9322Z" fill="#E7E7E7"/>
<path d="M31.3223 11.2637H33.1114L35.755 16.9365C35.892 17.231 36.1872 17.4192 36.512 17.4192H39.6675V17.4628C39.6675 17.9239 39.2936 18.2977 38.8322 18.2977H34.3951C34.0703 18.2977 33.775 18.1096 33.638 17.8154L30.8963 11.9322C30.751 11.6208 30.9787 11.2637 31.3223 11.2637Z" fill="#CECECE"/>
<path d="M8.94666 37.2306C13.8799 37.2306 17.8933 33.2171 17.8933 28.2839C17.8933 23.3507 13.8799 19.3373 8.94666 19.3373C4.01345 19.3373 1.14441e-05 23.3507 1.14441e-05 28.2839C1.14441e-05 33.2171 4.01345 37.2306 8.94666 37.2306ZM8.94666 20.6824C13.1379 20.6824 16.5482 24.0923 16.5482 28.2839C16.5482 32.4756 13.1383 35.8854 8.94666 35.8854C4.75503 35.8854 1.34515 32.4756 1.34515 28.2839C1.34515 24.0923 4.75503 20.6824 8.94666 20.6824Z" fill="#838383"/>
<path d="M20.8239 31.4862L8.62842 30.4617C7.66025 30.3803 6.91558 29.5708 6.91558 28.5992C6.91558 27.6313 7.65441 26.8235 8.61846 26.7373L20.8088 25.6497C22.5223 25.4965 23.9983 26.8465 23.9983 28.5672C23.9983 30.2814 22.5323 31.6297 20.8239 31.4862Z" fill="#25A9E8"/>
<path d="M8.61847 26.7373L9.04556 26.6992C8.95836 26.9158 8.90995 27.1517 8.90995 27.3982C8.90995 28.3698 9.65427 29.1793 10.6224 29.2607L22.8183 30.2848C23.0346 30.303 23.2468 30.2972 23.4528 30.2697C22.8743 31.0779 21.8972 31.5764 20.8239 31.4861L8.62842 30.4616C7.66025 30.3803 6.91559 29.5707 6.91559 28.5991C6.91559 27.6313 7.65442 26.8234 8.61847 26.7373Z" fill="#0E5DA4"/>
<path d="M17.4154 16.6758H10.8521C10.6094 16.6758 10.4127 16.4788 10.4127 16.2364V15.3166C10.4127 14.2874 11.2473 13.4524 12.2769 13.4524H17.4154C17.6581 13.4524 17.8549 13.6495 17.8549 13.8918V16.2361C17.8549 16.4788 17.6581 16.6758 17.4154 16.6758Z" fill="#25A9E8"/>
<path d="M12.3147 13.4528H12.806C12.6662 13.7171 12.5862 14.0182 12.5862 14.3385V15.2109C12.5862 15.4588 12.7871 15.6596 13.035 15.6596H17.8549V16.2275C17.8549 16.475 17.654 16.6759 17.4065 16.6759H10.861C10.6135 16.6759 10.4127 16.475 10.4127 16.2275V15.3548C10.4127 14.3042 11.2644 13.4528 12.3147 13.4528Z" fill="#0E5DA4"/>
<path d="M19.1457 29.5519H23.9436C24.3151 29.5519 24.6162 29.2508 24.6162 28.8793C24.6162 28.5078 24.3151 28.2067 23.9436 28.2067H19.1457C18.7742 28.2067 18.4731 28.5078 18.4731 28.8793C18.4731 29.2508 18.7742 29.5519 19.1457 29.5519Z" fill="#5A5A5A"/>
<path d="M25.4049 30.2955H22.1323C21.8079 30.2955 21.5449 30.0322 21.5449 29.7077V28.1428C21.5449 27.8184 21.8079 27.5554 22.1323 27.5554H25.4049C25.7293 27.5554 25.9923 27.8184 25.9923 28.1428V29.7077C25.9927 30.0322 25.7293 30.2955 25.4049 30.2955Z" fill="#838383"/>
<path d="M22.1443 27.5554H23.5193C23.188 27.5554 22.9198 27.8239 22.9198 28.1549V29.6957C22.9198 30.027 23.188 30.2951 23.5193 30.2951H22.1443C21.813 30.2951 21.5448 30.027 21.5448 29.6957V28.1549C21.5448 27.8239 21.813 27.5554 22.1443 27.5554Z" fill="#5A5A5A"/>
<path d="M24.8009 10.012H20.8695C20.2529 10.012 19.7534 9.5121 19.7534 8.89584V8.85052C19.7534 8.23425 20.2529 7.73438 20.8695 7.73438H24.8009C24.9465 7.73438 25.0646 7.85248 25.0646 7.99805V9.74831C25.0646 9.89388 24.9465 10.012 24.8009 10.012Z" fill="#5A5A5A"/>
<path d="M20.8922 7.73438H22.4814C21.8525 7.73438 21.3426 8.24421 21.3426 8.87318C21.3426 9.50214 21.8525 10.012 22.4814 10.012H20.8922C20.2632 10.012 19.7534 9.50214 19.7534 8.87318C19.7534 8.24421 20.2632 7.73438 20.8922 7.73438Z" fill="#444444"/>
<path d="M8.91713 29.2398C9.10253 29.2398 9.28689 29.1636 9.41976 29.0142L17.8549 19.5347L16.9454 18.5333L8.41485 28.1202C8.168 28.3976 8.19272 28.8226 8.47013 29.0695C8.59853 29.1838 8.75817 29.2398 8.91713 29.2398Z" fill="#838383"/>
</svg>
