<?xml version="1.0" encoding="UTF-8" standalone="no"?><!DOCTYPE svg PUBLIC "-//W3C//DTD SVG 1.1//EN" "http://www.w3.org/Graphics/SVG/1.1/DTD/svg11.dtd"><svg width="100%" height="100%" viewBox="0 0 2134 2134" version="1.1" xmlns="http://www.w3.org/2000/svg" xmlns:xlink="http://www.w3.org/1999/xlink" xml:space="preserve" xmlns:serif="http://www.serif.com/" style="fill-rule:evenodd;clip-rule:evenodd;stroke-linejoin:round;stroke-miterlimit:2;"><g><path d="M1973.33,2133.33l-1813.33,0c-88.213,0 -160,-71.786 -160,-160l0,-1813.33c0,-88.213 71.787,-160 160,-160l1813.33,0c88.214,0 160,71.787 160,160l0,1813.33c0,88.214 -71.786,160 -160,160Zm-1813.33,-2062.22c-48.996,0 -88.889,39.893 -88.889,88.889l0,1813.33c0,48.996 39.893,88.889 88.889,88.889l1813.33,0c49.031,0 88.889,-39.893 88.889,-88.889l0,-1813.33c0,-48.996 -39.893,-88.889 -88.889,-88.889l-1813.33,0Z" style="fill:#fff;fill-rule:nonzero;"/><path d="M320,355.556l-142.222,0c-19.627,0 -35.556,-15.929 -35.556,-35.556l0,-142.222c0,-19.627 15.929,-35.556 35.556,-35.556l142.222,0c19.627,0 35.556,15.929 35.556,35.556l0,142.222c0,19.627 -15.929,35.556 -35.556,35.556Zm-106.667,-71.112l71.111,0l0,-71.111l-71.111,0l0,71.111Z" style="fill:#fff;fill-rule:nonzero;"/><path d="M604.444,355.556l-142.222,0c-19.626,0 -35.555,-15.929 -35.555,-35.556l0,-142.222c0,-19.627 15.929,-35.556 35.555,-35.556l142.222,0c19.627,0 35.556,15.929 35.556,35.556l0,142.222c0,19.627 -15.929,35.556 -35.556,35.556Zm-106.666,-71.112l71.111,0l0,-71.111l-71.111,0l0,71.111Z" style="fill:#fff;fill-rule:nonzero;"/><path d="M888.889,355.556l-142.222,0c-19.627,0 -35.556,-15.929 -35.556,-35.556l0,-142.222c0,-19.627 15.929,-35.556 35.556,-35.556l142.222,0c19.627,0 35.555,15.929 35.555,35.556l0,142.222c0,19.627 -15.928,35.556 -35.555,35.556Zm-106.667,-71.112l71.111,0l0,-71.111l-71.111,0l0,71.111Z" style="fill:#fff;fill-rule:nonzero;"/><path d="M2097.78,497.778l-2062.22,0c-19.627,0 -35.556,-15.929 -35.556,-35.556l0,-302.222c0,-88.213 71.787,-160 160,-160l1813.33,0c88.214,0 160,71.787 160,160l0,302.222c0,19.627 -15.929,35.556 -35.555,35.556Zm-2026.67,-71.111l1991.11,0l0,-266.667c0,-48.996 -39.893,-88.889 -88.889,-88.889l-1813.33,0c-48.996,0 -88.889,39.893 -88.889,88.889l0,266.667Z" style="fill:#fff;fill-rule:nonzero;"/><path d="M960,1351.11l-782.222,0c-19.627,0 -35.556,-15.929 -35.556,-35.555l0,-711.112c0,-19.626 15.929,-35.555 35.556,-35.555l782.222,0c19.627,0 35.556,15.929 35.556,35.555l0,711.112c0,19.626 -15.929,35.555 -35.556,35.555Zm-746.667,-71.111l711.111,0l0,-640l-711.111,0l0,640Z" style="fill:#fff;fill-rule:nonzero;"/><path d="M568.889,1351.11c-9.102,0 -18.205,-3.484 -25.138,-10.418l-188.195,-188.195l-152.64,152.64c-13.903,13.902 -36.374,13.902 -50.276,0c-13.902,-13.902 -13.902,-36.374 0,-50.276l177.778,-177.778c13.902,-13.902 36.373,-13.902 50.275,0l213.334,213.334c13.902,13.902 13.902,36.373 0,50.275c-6.934,6.934 -16.036,10.418 -25.138,10.418Z" style="fill:#fff;fill-rule:nonzero;"/><path d="M426.667,995.556c-78.436,0 -142.223,-63.787 -142.223,-142.223c0,-78.435 63.787,-142.222 142.223,-142.222c78.435,0 142.222,63.787 142.222,142.222c0,78.436 -63.787,142.223 -142.222,142.223Zm0,-213.334c-39.218,0 -71.111,31.894 -71.111,71.111c0,39.218 31.893,71.111 71.111,71.111c39.217,0 71.111,-31.893 71.111,-71.111c0,-39.217 -31.894,-71.111 -71.111,-71.111Z" style="fill:#fff;fill-rule:nonzero;"/><path d="M960,1280c-9.102,0 -18.204,-3.484 -25.138,-10.418l-222.649,-222.649l-195.769,213.405c-13.262,14.506 -35.733,15.466 -50.24,2.169c-14.471,-13.263 -15.466,-35.769 -2.168,-50.24l220.835,-240.747c6.542,-7.147 15.751,-11.307 25.422,-11.52c9.814,-0.427 19.058,3.556 25.92,10.418l248.889,248.889c13.902,13.902 13.902,36.373 0,50.275c-6.898,6.934 -16,10.418 -25.102,10.418Z" style="fill:#fff;fill-rule:nonzero;"/><path d="M1955.56,1991.11l-782.223,0c-19.626,0 -35.555,-15.929 -35.555,-35.555l0,-711.112c0,-19.626 15.929,-35.555 35.555,-35.555l782.223,0c19.626,0 35.555,15.929 35.555,35.555l0,711.112c0,19.626 -15.929,35.555 -35.555,35.555Zm-746.667,-71.111l711.111,0l0,-640l-711.111,0l0,640Z" style="fill:#fff;fill-rule:nonzero;"/><path d="M1564.44,1991.11c-9.102,0 -18.204,-3.484 -25.137,-10.418l-188.196,-188.195l-152.64,152.64c-13.902,13.902 -36.373,13.902 -50.275,0c-13.903,-13.902 -13.903,-36.374 0,-50.276l177.777,-177.778c13.903,-13.902 36.374,-13.902 50.276,0l213.333,213.334c13.902,13.902 13.902,36.373 0,50.275c-6.933,6.934 -16.035,10.418 -25.138,10.418Z" style="fill:#fff;fill-rule:nonzero;"/><path d="M1422.22,1635.56c-78.435,0 -142.222,-63.787 -142.222,-142.223c0,-78.435 63.787,-142.222 142.222,-142.222c78.436,0 142.222,63.787 142.222,142.222c0,78.436 -63.786,142.223 -142.222,142.223Zm0,-213.334c-39.218,0 -71.111,31.894 -71.111,71.111c0,39.218 31.893,71.111 71.111,71.111c39.218,0 71.111,-31.893 71.111,-71.111c0,-39.217 -31.893,-71.111 -71.111,-71.111Z" style="fill:#fff;fill-rule:nonzero;"/><path d="M1955.56,1920c-9.103,0 -18.205,-3.484 -25.138,-10.418l-222.649,-222.649l-195.769,213.405c-13.262,14.506 -35.733,15.466 -50.24,2.169c-14.471,-13.263 -15.467,-35.769 -2.169,-50.24l220.836,-240.747c6.542,-7.147 15.751,-11.307 25.422,-11.52c9.493,-0.391 19.058,3.556 25.92,10.418l248.889,248.889c13.902,13.902 13.902,36.373 0,50.275c-6.898,6.934 -16,10.418 -25.102,10.418Z" style="fill:#fff;fill-rule:nonzero;"/><path d="M1742.22,782.222l-568.889,0c-19.626,0 -35.555,-15.929 -35.555,-35.555c0,-19.627 15.929,-35.556 35.555,-35.556l568.889,0c19.627,0 35.556,15.929 35.556,35.556c0,19.626 -15.929,35.555 -35.556,35.555Z" style="fill:#fff;fill-rule:nonzero;"/><path d="M1955.56,782.222l-71.112,0c-19.626,0 -35.555,-15.929 -35.555,-35.555c0,-19.627 15.929,-35.556 35.555,-35.556l71.112,0c19.626,0 35.555,15.929 35.555,35.556c0,19.626 -15.929,35.555 -35.555,35.555Z" style="fill:#fff;fill-rule:nonzero;"/><path d="M1742.22,1066.67l-568.889,0c-19.626,0 -35.555,-15.929 -35.555,-35.556c0,-19.627 15.929,-35.555 35.555,-35.555l568.889,0c19.627,0 35.556,15.928 35.556,35.555c0,19.627 -15.929,35.556 -35.556,35.556Z" style="fill:#fff;fill-rule:nonzero;"/><path d="M1955.56,1066.67l-71.112,0c-19.626,0 -35.555,-15.929 -35.555,-35.556c0,-19.627 15.929,-35.555 35.555,-35.555l71.112,0c19.626,0 35.555,15.928 35.555,35.555c0,19.627 -15.929,35.556 -35.555,35.556Z" style="fill:#fff;fill-rule:nonzero;"/><path d="M1955.56,924.444l-568.889,0c-19.627,0 -35.556,-15.928 -35.556,-35.555c0,-19.627 15.929,-35.556 35.556,-35.556l568.889,0c19.626,0 35.555,15.929 35.555,35.556c0,19.627 -15.929,35.555 -35.555,35.555Z" style="fill:#fff;fill-rule:nonzero;"/><path d="M1244.44,924.444l-71.111,0c-19.626,0 -35.555,-15.928 -35.555,-35.555c0,-19.627 15.929,-35.556 35.555,-35.556l71.111,0c19.627,0 35.556,15.929 35.556,35.556c0,19.627 -15.929,35.555 -35.556,35.555Z" style="fill:#fff;fill-rule:nonzero;"/><path d="M746.667,1564.44l-568.889,0c-19.627,0 -35.556,-15.928 -35.556,-35.555c0,-19.627 15.929,-35.556 35.556,-35.556l568.889,0c19.626,0 35.555,15.929 35.555,35.556c0,19.627 -15.929,35.555 -35.555,35.555Z" style="fill:#fff;fill-rule:nonzero;"/><path d="M960,1564.44l-71.111,0c-19.627,0 -35.556,-15.928 -35.556,-35.555c0,-19.627 15.929,-35.556 35.556,-35.556l71.111,0c19.627,0 35.556,15.929 35.556,35.556c0,19.627 -15.929,35.555 -35.556,35.555Z" style="fill:#fff;fill-rule:nonzero;"/><path d="M746.667,1848.89l-568.889,0c-19.627,0 -35.556,-15.929 -35.556,-35.556c0,-19.626 15.929,-35.555 35.556,-35.555l568.889,0c19.626,0 35.555,15.929 35.555,35.555c0,19.627 -15.929,35.556 -35.555,35.556Z" style="fill:#fff;fill-rule:nonzero;"/><path d="M960,1848.89l-71.111,0c-19.627,0 -35.556,-15.929 -35.556,-35.556c0,-19.626 15.929,-35.555 35.556,-35.555l71.111,0c19.627,0 35.556,15.929 35.556,35.555c0,19.627 -15.929,35.556 -35.556,35.556Z" style="fill:#fff;fill-rule:nonzero;"/><path d="M960,1706.67l-568.889,0c-19.627,0 -35.555,-15.929 -35.555,-35.556c0,-19.627 15.928,-35.555 35.555,-35.555l568.889,0c19.627,0 35.556,15.928 35.556,35.555c0,19.627 -15.929,35.556 -35.556,35.556Z" style="fill:#fff;fill-rule:nonzero;"/><path d="M248.889,1706.67l-71.111,0c-19.627,0 -35.556,-15.929 -35.556,-35.556c0,-19.627 15.929,-35.555 35.556,-35.555l71.111,0c19.627,0 35.555,15.928 35.555,35.555c0,19.627 -15.928,35.556 -35.555,35.556Z" style="fill:#fff;fill-rule:nonzero;"/></g></svg>