<?xml version="1.0" encoding="UTF-8" standalone="no"?><!DOCTYPE svg PUBLIC "-//W3C//DTD SVG 1.1//EN" "http://www.w3.org/Graphics/SVG/1.1/DTD/svg11.dtd"><svg width="100%" height="100%" viewBox="0 0 188 188" version="1.1" xmlns="http://www.w3.org/2000/svg" xmlns:xlink="http://www.w3.org/1999/xlink" xml:space="preserve" xmlns:serif="http://www.serif.com/" style="fill-rule:evenodd;clip-rule:evenodd;stroke-linejoin:round;stroke-miterlimit:2;"><path d="M63.206,59.349c1.397,-0.661 3.068,-0.064 3.731,1.334l23.122,48.857l34.928,-39.253l-13.255,-28.008c-0.722,-1.521 -2.275,-2.505 -3.959,-2.505l-16.508,0c-1.547,0 -2.802,-1.255 -2.802,-2.803c0,-1.547 1.255,-2.802 2.802,-2.802l16.508,0c3.84,0 7.382,2.243 9.024,5.713l20.375,43.05c4.063,-1.523 8.461,-2.359 13.051,-2.359c20.555,-0.001 37.277,16.722 37.277,37.277c0,20.555 -16.722,37.278 -37.277,37.278c-20.556,0 -37.278,-16.723 -37.278,-37.278c0,-13.977 7.732,-26.179 19.141,-32.559l-4.496,-9.5l-33.797,37.981l-7.932,0l-23.991,-50.691c-0.661,-1.399 -0.063,-3.07 1.336,-3.732Zm55.343,58.501c0,17.463 14.208,31.672 31.674,31.672c17.464,0 31.672,-14.207 31.672,-31.672c0,-17.465 -14.208,-31.673 -31.672,-31.673c-3.733,0 -7.315,0.653 -10.642,1.845l13.548,28.629c0.662,1.399 0.064,3.07 -1.333,3.732c-0.388,0.183 -0.797,0.27 -1.198,0.27c-1.05,0 -2.057,-0.593 -2.534,-1.605l-13.57,-28.673c-9.517,5.47 -15.945,15.733 -15.945,27.475Z" style="fill:#1c2b33;fill-rule:nonzero;"/><path d="M121.947,58.352l11.474,0c1.518,0 2.747,-1.231 2.747,-2.747c0,-1.518 -1.229,-2.747 -2.747,-2.747l-11.474,0c-1.517,0 -2.747,1.229 -2.747,2.747c0,1.516 1.23,2.747 2.747,2.747Z" style="fill:#838383;fill-rule:nonzero;"/><path d="M128.415,73.245l11.476,0c1.517,0 2.747,-1.23 2.747,-2.747c0,-1.518 -1.23,-2.746 -2.747,-2.746l-11.476,0c-1.516,0 -2.746,1.228 -2.746,2.746c0,1.517 1.23,2.747 2.746,2.747Z" style="fill:#838383;fill-rule:nonzero;"/><path d="M128.735,49.717l11.424,24.513c0.571,1.226 1.801,2.01 3.154,2.01l18.489,0c1.921,0 3.479,-1.558 3.479,-3.479l0,-22.349c0,-1.922 -1.558,-3.48 -3.479,-3.48l-31.292,0c-1.432,0 -2.38,1.488 -1.775,2.785Z" style="fill:#e7e7e7;fill-rule:nonzero;"/><path d="M130.51,46.932l7.454,0l11.015,23.636c0.571,1.228 1.801,2.012 3.154,2.012l13.148,0l0,0.181c0,1.922 -1.558,3.479 -3.48,3.479l-18.488,0c-1.353,0 -2.583,-0.784 -3.154,-2.01l-11.424,-24.513c-0.605,-1.297 0.343,-2.785 1.775,-2.785Z" style="fill:#cecece;fill-rule:nonzero;"/><path d="M37.278,155.128c20.555,0 37.277,-16.723 37.277,-37.278c0,-20.555 -16.722,-37.278 -37.277,-37.278c-20.555,0 -37.278,16.723 -37.278,37.278c0,20.555 16.723,37.278 37.278,37.278Zm0,-68.951c17.463,0 31.673,14.208 31.673,31.673c0,17.465 -14.208,31.673 -31.673,31.673c-17.465,-0.001 -31.673,-14.208 -31.673,-31.673c0,-17.465 14.208,-31.673 31.673,-31.673Z" style="fill:#1c2b33;fill-rule:nonzero;"/><path d="M86.766,131.193l-50.814,-4.269c-4.034,-0.339 -7.137,-3.712 -7.137,-7.761c0,-4.033 3.078,-7.398 7.095,-7.758l50.793,-4.531c7.14,-0.639 13.29,4.986 13.29,12.156c0,7.142 -6.108,12.76 -13.227,12.163Z" style="fill-rule:nonzero;"/><path d="M35.91,111.405l1.78,-0.158c-0.364,0.903 -0.565,1.885 -0.565,2.912c0,4.049 3.101,7.422 7.135,7.761l50.816,4.267c0.901,0.076 1.785,0.051 2.644,-0.063c-2.411,3.368 -6.482,5.445 -10.954,5.069l-50.814,-4.269c-4.034,-0.339 -7.137,-3.712 -7.137,-7.761c0,-4.033 3.078,-7.398 7.095,-7.758Z" style="fill:#0e5da4;fill-rule:nonzero;"/><path d="M72.564,69.483l-27.347,-0.001c-1.011,0.001 -1.831,-0.82 -1.831,-1.83l0,-3.833c0,-4.288 3.478,-7.767 7.768,-7.767l21.41,0c1.011,0 1.831,0.821 1.831,1.831l0,9.767c0,1.012 -0.82,1.832 -1.831,1.832Z" style="fill-rule:nonzero;"/><path d="M51.311,56.053l2.047,0c-0.582,1.102 -0.915,2.356 -0.915,3.691l0,3.635c0,1.033 0.837,1.869 1.869,1.869l20.083,0l0,2.367c0,1.031 -0.837,1.868 -1.868,1.868l-27.273,0c-1.031,0 -1.868,-0.837 -1.868,-1.868l0,-3.637c0,-4.377 3.549,-7.925 7.925,-7.925Z" style="fill:#0e5da4;fill-rule:nonzero;"/><path d="M79.774,123.133l19.991,0c1.548,0 2.803,-1.255 2.803,-2.803c0,-1.547 -1.255,-2.802 -2.803,-2.802l-19.991,0c-1.548,0 -2.802,1.255 -2.802,2.802c0,1.548 1.254,2.803 2.802,2.803Z" style="fill:#5a5a5a;fill-rule:nonzero;"/><path d="M105.854,126.231l-13.636,0c-1.352,0 -2.448,-1.097 -2.448,-2.449l0,-6.52c0,-1.352 1.096,-2.448 2.448,-2.448l13.636,0c1.351,0 2.447,1.096 2.447,2.448l0,6.52c0.002,1.352 -1.096,2.449 -2.447,2.449Z" style="fill:#838383;fill-rule:nonzero;"/><path d="M92.268,114.814l5.729,0c-1.38,0 -2.497,1.119 -2.497,2.498l0,6.42c0,1.38 1.117,2.498 2.497,2.498l-5.729,0c-1.38,0 -2.498,-1.118 -2.498,-2.498l0,-6.42c0,-1.379 1.118,-2.498 2.498,-2.498Z" style="fill:#5a5a5a;fill-rule:nonzero;"/><path d="M103.338,41.717l-16.381,0c-2.57,0 -4.651,-2.083 -4.651,-4.651l0,-0.189c0,-2.568 2.081,-4.65 4.651,-4.65l16.38,0c0.607,0 1.099,0.492 1.099,1.098l0,7.293c0,0.606 -0.492,1.099 -1.099,1.099Z" style="fill:#5a5a5a;fill-rule:nonzero;"/><path d="M87.051,32.227l6.622,0c-2.621,0 -4.745,2.124 -4.745,4.745c0,2.62 2.124,4.745 4.745,4.745l-6.622,0c-2.621,0 -4.745,-2.125 -4.745,-4.745c0,-2.621 2.124,-4.745 4.745,-4.745Z" style="fill:#444;fill-rule:nonzero;"/><path d="M37.155,121.832c0.772,0 1.54,-0.317 2.094,-0.94l35.146,-39.497l-3.789,-4.173l-35.544,39.945c-1.029,1.156 -0.926,2.927 0.23,3.956c0.535,0.476 1.2,0.709 1.863,0.709Z" style="fill:#1c2b33;fill-rule:nonzero;"/></svg>