<svg width="45" height="45" viewBox="0 0 45 45" fill="none" xmlns="http://www.w3.org/2000/svg">
<g clip-path="url(#clip0)">
<path d="M43.7691 22.8807C43.1022 21.3161 41.6359 20.1448 39.825 19.9375L32.9572 19.1527L29.2935 13.1982C28.3569 11.6755 26.6969 10.7476 24.9094 10.7476H13.0801C9.99768 10.7476 7.29398 12.8068 6.47615 15.7792L6.38366 16.1151C6.12468 17.0585 5.62716 17.8987 4.96025 18.5696C4.29333 19.2413 3.45505 19.7428 2.51455 20.0085C1.49811 20.2948 0.795166 21.2226 0.795166 22.278V28.8871L4.53478 28.0125C4.61364 27.8295 4.70321 27.6513 4.80252 27.478C5.73621 25.8609 7.47409 24.8561 9.33952 24.8561C11.2049 24.8561 12.9419 25.8609 13.8746 27.478C13.9739 27.6513 14.0644 27.8295 14.1423 28.0125H30.0199C30.0968 27.8315 30.1854 27.6552 30.2837 27.4839C31.2164 25.8628 32.9562 24.8561 34.8246 24.8561C36.69 24.8561 38.4269 25.8609 39.3596 27.478C39.4589 27.6513 39.5495 27.8295 39.6274 28.0125H43.7964L43.8226 28.0155L44.1264 25.3478C44.1391 25.2387 44.1478 25.1307 44.1527 25.0226C44.1887 24.2671 44.0495 23.5388 43.7691 22.8807Z" fill="#0E5DA4"/>
<path d="M45 29.1879C45 29.8357 44.4748 30.3609 43.827 30.3609H40.0499C40.0547 30.2713 40.0577 30.1808 40.0577 30.0902C40.0577 29.3727 39.9106 28.6639 39.6273 28.0126L43.8276 28.0149C44.4752 28.0152 45 28.5403 45 29.1879Z" fill="#CCCCCC"/>
<path d="M38.9867 30.0902C38.9867 30.1807 38.9837 30.2713 38.9779 30.3609C38.8387 32.533 37.0326 34.2524 34.8245 34.2524C32.6154 34.2524 30.8094 32.533 30.6701 30.3609C30.6643 30.2713 30.6614 30.1807 30.6614 30.0902C30.6614 29.3357 30.8619 28.6278 31.2124 28.0174C31.931 26.7683 33.2794 25.9271 34.8245 25.9271C36.3667 25.9271 37.7132 26.7663 38.4317 28.0125C38.7851 28.6239 38.9867 29.3337 38.9867 30.0902ZM36.5312 30.0902C36.5312 29.1487 35.766 28.3825 34.8245 28.3825C33.8821 28.3825 33.1168 29.1487 33.1168 30.0902C33.1168 31.0317 33.8821 31.7979 34.8245 31.7979C35.766 31.7979 36.5312 31.0317 36.5312 30.0902Z" fill="#666666"/>
<path d="M34.8245 28.3825C35.766 28.3825 36.5312 29.1487 36.5312 30.0902C36.5312 31.0317 35.766 31.7979 34.8245 31.7979C33.8821 31.7979 33.1168 31.0317 33.1168 30.0902C33.1168 29.1487 33.8821 28.3825 34.8245 28.3825Z" fill="#E6E6E6"/>
<path d="M29.5905 30.0902C29.5905 30.1808 29.5934 30.2723 29.5983 30.3609H14.5649C14.5697 30.2704 14.5727 30.1798 14.5727 30.0902C14.5727 29.3727 14.4257 28.6639 14.1423 28.0126H30.0199C29.7375 28.6659 29.5905 29.3737 29.5905 30.0902Z" fill="#CCCCCC"/>
<path d="M11.2906 13.4737V19.1527H8.03198C8.03198 19.1527 8.41169 17.6115 8.65217 16.7392L8.74466 16.4033C8.79334 16.2251 8.85273 16.0528 8.92186 15.8853C9.37166 14.7929 10.2323 13.9342 11.2906 13.4737Z" fill="#25A9E8"/>
<path d="M19.4747 13.0999V19.1528H12.751V13.1125C12.86 13.1037 12.97 13.0999 13.0801 13.0999H19.4747Z" fill="#25A9E8"/>
<path d="M30.1951 19.1528H20.9352V13.0999H24.9094C25.8723 13.0999 26.7856 13.61 27.2899 14.4308L30.1951 19.1528Z" fill="#25A9E8"/>
<path d="M13.4929 30.3609C13.3537 32.533 11.5477 34.2524 9.33953 34.2524C7.13042 34.2524 5.32438 32.533 5.18515 30.3609C5.17931 30.2713 5.17639 30.1807 5.17639 30.0902C5.17639 29.3337 5.37793 28.6239 5.73037 28.0125C6.44987 26.7663 7.79636 25.9271 9.33953 25.9271C10.8817 25.9271 12.2282 26.7663 12.9467 28.0125C13.3002 28.6239 13.5017 29.3337 13.5017 30.0902C13.5017 30.1807 13.4988 30.2713 13.4929 30.3609ZM11.0472 30.0902C11.0472 29.1487 10.281 28.3825 9.33953 28.3825C8.39708 28.3825 7.63182 29.1487 7.63182 30.0902C7.63182 31.0317 8.39708 31.7979 9.33953 31.7979C10.281 31.7979 11.0472 31.0317 11.0472 30.0902Z" fill="#666666"/>
<path d="M9.33954 28.3825C10.281 28.3825 11.0472 29.1487 11.0472 30.0902C11.0472 31.0317 10.281 31.7979 9.33954 31.7979C8.39709 31.7979 7.63184 31.0317 7.63184 30.0902C7.63184 29.1487 8.39709 28.3825 9.33954 28.3825Z" fill="#E6E6E6"/>
<path d="M4.1054 30.0902C4.1054 30.1808 4.10832 30.2713 4.11319 30.3609H1.17417C0.525649 30.3609 0 29.8353 0 29.1867C0 28.5382 0.525649 28.0126 1.17417 28.0126H4.53476C4.25241 28.6649 4.1054 29.3727 4.1054 30.0902Z" fill="#CCCCCC"/>
<path d="M24.9473 22.357H23.4129C23.0903 22.357 22.8287 22.0955 22.8287 21.7728C22.8287 21.4502 23.0903 21.1887 23.4129 21.1887H24.9473C25.2698 21.1887 25.5314 21.4502 25.5314 21.7728C25.5314 22.0955 25.2699 22.357 24.9473 22.357Z" fill="#CCCCCC"/>
<path d="M14.411 22.357H12.8766C12.5541 22.357 12.2925 22.0955 12.2925 21.7728C12.2925 21.4502 12.5541 21.1887 12.8766 21.1887H14.411C14.7336 21.1887 14.9952 21.4502 14.9952 21.7728C14.9952 22.0955 14.7336 22.357 14.411 22.357Z" fill="#CCCCCC"/>
<path d="M44.1527 25.0226H42.9795C41.7965 25.0226 40.8375 24.0636 40.8375 22.8807H43.7691C44.0913 23.5851 44.2374 24.2788 44.1527 25.0226Z" fill="white"/>
<path d="M19.4747 13.1125V19.1527H18.7902L12.751 13.1125H19.4747Z" fill="#92D4F3"/>
<path d="M30.1951 19.1528H26.9881L20.9352 13.0999H24.9094C25.8723 13.0999 26.7856 13.61 27.2899 14.4308L30.1951 19.1528Z" fill="#92D4F3"/>
<path d="M11.2907 13.4737V18.2541L8.92188 15.8853C9.37168 14.7929 10.2323 13.9342 11.2907 13.4737Z" fill="#92D4F3"/>
</g>
<defs>
<clipPath id="clip0">
<rect width="45" height="45" fill="white"/>
</clipPath>
</defs>
</svg>
