<svg height="464pt" viewBox="0 0 464 464" width="464pt" xmlns="http://www.w3.org/2000/svg"><path d="m424 184v96h24c8.835938 0 16-7.164062 16-16v-64c0-8.835938-7.164062-16-16-16zm0 0" fill="#7c7c7c"/><path d="m0 328v-192c0-8.835938 7.164062-16 16-16h384c17.671875 0 32 14.328125 32 32v160c0 17.671875-14.328125 32-32 32h-384c-8.835938 0-16-7.164062-16-16zm0 0" fill="#ddddd9"/><path d="m400 120h-18.289062c-72.558594 119.28125-202.09375 192.066406-341.710938 192-13.503906 0-26.835938-.667969-40-2v18c0 8.835938 7.164062 16 16 16h384c17.671875 0 32-14.328125 32-32v-160c0-17.671875-14.328125-32-32-32zm0 0" fill="#c6c6c1"/><path d="m32 152h336v160h-336zm0 0" fill="#a2d22f"/><path d="m32 312h8c-2.679688 0-5.328125-.152344-8-.199219zm0 0" fill="#8aaf23"/><path d="m40 312h328v-160h-8c-75.476562 100.800781-194.074219 160.097656-320 160zm0 0" fill="#8aaf23"/><path d="m312 272h32v16h-32zm0 0" fill="#035924"/><path d="m280 272h16v16h-16zm0 0" fill="#035924"/><path d="m296 0h-152l-56 280h88l-24 184 160-280h-88zm0 0" fill="#ffc933"/><path d="m224 184 72-184h-41.894531l-79.984375 204.414062h109.238281l-131.359375 259.585938 160-280zm0 0" fill="#dda722"/></svg>