<svg width="39" height="43" viewBox="0 0 39 43" fill="none" xmlns="http://www.w3.org/2000/svg">
<g clip-path="url(#clip0)">
<path d="M7.63201 41.0658H6.06176C4.75683 41.0658 3.6991 39.8996 3.6991 38.4608V30.9272H9.99438V38.4608C9.99438 39.8996 8.93665 41.0658 7.63201 41.0658V41.0658Z" fill="#545464"/>
<path d="M6.10803 30.9272V41.0658H7.6307C8.93533 41.0658 9.99306 39.8996 9.99306 38.4612V30.9272H6.10803Z" fill="#394856"/>
<path d="M32.9255 41.0658H31.3553C30.0507 41.0658 28.9929 39.8996 28.9929 38.4608V30.9272H35.2882V38.4608C35.2882 39.8996 34.2305 41.0658 32.9255 41.0658Z" fill="#545464"/>
<path d="M31.4019 30.9272V41.0658H32.9245C34.2294 41.0658 35.2872 39.8996 35.2872 38.4612V30.9272H31.4019Z" fill="#394856"/>
<path d="M38.2317 20.4082H35.964C35.5151 20.4082 35.121 20.7378 35.0005 21.2146L34.4487 23.3969H38.2317C38.6485 23.3969 38.9864 23.0243 38.9864 22.5649V21.2402C38.9864 20.7808 38.6485 20.4082 38.2317 20.4082V20.4082Z" fill="#0E5DA4"/>
<path d="M0.754634 20.4082H3.02243C3.47127 20.4082 3.8654 20.7378 3.98588 21.2146L4.53765 23.3969H0.754634C0.337915 23.3969 0 23.0243 0 22.5649V21.2402C0 20.7808 0.337915 20.4082 0.754634 20.4082V20.4082Z" fill="#0E5DA4"/>
<path d="M34.919 22.9946L32.2901 11.7341C32.1363 10.9985 31.542 10.4771 30.857 10.4771H8.12914C7.4441 10.4771 6.8498 10.9982 6.69601 11.7341L4.06713 22.9946C4.00287 23.302 3.83927 23.5729 3.60726 23.7568L2.30025 24.7929C1.54651 25.3901 1.09973 26.351 1.09973 27.3742V32.4061C1.09973 34.0407 2.30175 35.366 3.78455 35.366H35.2015C36.6843 35.366 37.8863 34.0407 37.8863 32.4061V27.3742C37.8863 26.351 37.4395 25.3901 36.6858 24.7929L35.3788 23.7568C35.1468 23.5729 34.9832 23.302 34.9189 22.9946H34.919Z" fill="#25A9E8"/>
<path d="M36.6883 24.7926L35.3813 23.7568C35.1493 23.5725 34.9857 23.302 34.9214 22.9946L32.2925 11.7341C32.1384 10.9982 31.5444 10.4771 30.8594 10.4771H26.9744C27.6591 10.4771 28.2534 10.9982 28.4075 11.7341L31.0361 22.9946C31.1003 23.302 31.2639 23.5725 31.4962 23.7568L32.8033 24.7926C33.5567 25.3901 34.0035 26.3507 34.0035 27.3742V35.366H35.204C36.6868 35.366 37.8888 34.0407 37.8888 32.4058V27.3739C37.8888 26.351 37.442 25.3901 36.6883 24.7926V24.7926Z" fill="#0E5DA4"/>
<path d="M32.4468 23.6177L30.1746 13.9727C30.077 13.5585 29.7382 13.2695 29.3503 13.2695H9.63834C9.25046 13.2695 8.91138 13.5588 8.81381 13.9727L6.54157 23.6177C6.44817 24.4432 7.03207 25.1726 7.7867 25.1726H31.2019C31.9562 25.1726 32.5401 24.4432 32.4467 23.6177H32.4468Z" fill="#D7DEE3"/>
<path d="M32.4451 23.6177L30.1728 13.9727C30.0753 13.5585 29.7365 13.2695 29.3486 13.2695H25.9556L28.3935 23.6177L28.5696 25.1726H31.2002C31.9546 25.1726 32.5385 24.4432 32.4451 23.6177V23.6177Z" fill="#C7CED1"/>
<path d="M8.30853 31.4453H4.9735C4.48003 31.4453 4.07996 31.0042 4.07996 30.4601V28.4481C4.07996 27.904 4.48003 27.4629 4.9735 27.4629H8.30853C8.80201 27.4629 9.2021 27.904 9.2021 28.4481V30.4601C9.2021 31.0042 8.80201 31.4453 8.30853 31.4453Z" fill="#FED15B"/>
<path d="M34.0165 31.4453H30.6815C30.188 31.4453 29.788 31.0042 29.788 30.4601V28.4481C29.788 27.904 30.188 27.4629 30.6815 27.4629H34.0165C34.51 27.4629 34.9101 27.904 34.9101 28.4481V30.4601C34.9101 31.0042 34.51 31.4453 34.0165 31.4453V31.4453Z" fill="#FED15B"/>
<path d="M26.0048 28.5713H12.9806C12.6557 28.5713 12.3922 28.2808 12.3922 27.9226C12.3922 27.5645 12.6557 27.2739 12.9806 27.2739H26.0048C26.33 27.2739 26.5932 27.5645 26.5932 27.9226C26.5932 28.2808 26.33 28.5713 26.0048 28.5713Z" fill="#545464"/>
<path d="M24.3423 31.2798H14.6421C14.3173 31.2798 14.0537 30.9893 14.0537 30.6311C14.0537 30.2727 14.3173 29.9824 14.6421 29.9824H24.3423C24.6674 29.9824 24.9307 30.2727 24.9307 30.6311C24.931 30.9893 24.6674 31.2798 24.3423 31.2798Z" fill="#545464"/>
<path d="M17.2726 17.9413C17.2726 19.3503 16.2366 20.4925 14.9587 20.4925C13.6806 20.4925 12.6445 19.3503 12.6445 17.9413C12.6445 16.5324 13.6806 15.3901 14.9587 15.3901C16.2366 15.3901 17.2726 16.5324 17.2726 17.9413Z" fill="#394856"/>
<path d="M26.4085 17.9413C26.4085 19.3503 25.3724 20.4925 24.0943 20.4925C22.8164 20.4925 21.7804 19.3503 21.7804 17.9413C21.7804 16.5324 22.8164 15.3901 24.0943 15.3901C25.3724 15.3901 26.4085 16.5324 26.4085 17.9413Z" fill="#394856"/>
<path d="M30.4767 25.1707C30.4041 24.0232 29.5374 23.1167 28.4781 23.1167H10.5108C9.45157 23.1167 8.58478 24.0232 8.51221 25.1707H30.4767H30.4767Z" fill="#B2B9BF"/>
<path d="M27.4106 23.0312C27.1027 21.5298 25.8861 20.4082 24.4313 20.4082H23.7695C22.3146 20.4082 21.098 21.5298 20.7902 23.0312H27.4106V23.0312Z" fill="#375779"/>
<path d="M18.2699 23.1152C17.9621 21.6138 16.7455 20.4922 15.2907 20.4922H14.6288C13.174 20.4922 11.9574 21.6138 11.6495 23.1152H18.2699Z" fill="#375779"/>
</g>
<defs>
<clipPath id="clip0">
<rect width="39" height="43" fill="white"/>
</clipPath>
</defs>
</svg>
