<?xml version="1.0" encoding="UTF-8" standalone="no"?><!DOCTYPE svg PUBLIC "-//W3C//DTD SVG 1.1//EN" "http://www.w3.org/Graphics/SVG/1.1/DTD/svg11.dtd"><svg width="100%" height="100%" viewBox="0 0 167 167" version="1.1" xmlns="http://www.w3.org/2000/svg" xmlns:xlink="http://www.w3.org/1999/xlink" xml:space="preserve" xmlns:serif="http://www.serif.com/" style="fill-rule:evenodd;clip-rule:evenodd;stroke-linejoin:round;stroke-miterlimit:2;"><circle cx="83.333" cy="83.333" r="83.333" style="fill:#b6db67;"/><clipPath id="_clip1"><rect x="27.721" y="41.183" width="111.224" height="84.3"/></clipPath><g clip-path="url(#_clip1)"><path d="M134.202,60.935c-0.502,0 -1.017,0.072 -1.531,0.214l-5.402,1.488l-5.71,-13.908c-1.71,-4.168 -6.769,-7.56 -11.275,-7.56l-3.799,0l0,-11.53c0,-2.027 -1.649,-3.676 -3.676,-3.676l-38.951,0c-2.027,0 -3.675,1.649 -3.675,3.676l0,11.53l-3.878,0c-4.506,0 -9.565,3.391 -11.275,7.559l-5.703,13.889l-5.331,-1.469c-0.514,-0.141 -1.029,-0.213 -1.531,-0.213c-2.748,0 -4.744,2.101 -4.744,4.994l0,2.956c0,3.378 2.748,6.125 6.126,6.125l0.393,0l-0.816,1.986c-1.589,3.873 -2.883,10.429 -2.883,14.615l0,27.747c0,3.378 2.748,6.125 6.125,6.125l7.364,0c3.378,0 6.126,-2.747 6.126,-6.125l0,-6.819l66.277,0l0,6.819c0,3.378 2.749,6.125 6.126,6.125l7.362,0c3.378,0 6.126,-2.747 6.126,-6.125l0,-27.747c0,-4.186 -1.294,-10.742 -2.884,-14.615l-0.815,-1.986l0.472,0c3.378,0 6.125,-2.747 6.125,-6.125l0,-2.956c0,-2.893 -1.995,-4.994 -4.743,-4.994Zm-36.105,-30.07c0,-0.081 0.066,-0.147 0.147,-0.147l2.832,0c0.08,0 0.147,0.066 0.147,0.147l0,10.191c0,0.049 -0.028,0.086 -0.065,0.113l-2.996,0c-0.037,-0.027 -0.065,-0.064 -0.065,-0.113l0,-10.191Zm-20.307,-0.147l3.402,0c0.081,0 0.172,0.061 0.202,0.137l4.038,10.151l3.702,-4.579c0.051,-0.063 0.056,-0.17 0.011,-0.237l-3.553,-5.35c-0.045,-0.067 -0.015,-0.122 0.066,-0.122l3.146,0c0.081,0 0.182,0.056 0.224,0.125l1.832,2.97c0.042,0.07 0.111,0.07 0.154,0l1.832,-2.97c0.042,-0.069 0.143,-0.125 0.224,-0.125l3.148,0c0.081,0 0.11,0.055 0.066,0.122l-3.556,5.35c-0.045,0.068 -0.04,0.174 0.011,0.237l3.769,4.662c0.026,0.031 0.032,0.06 0.022,0.08l-3.341,0c-0.044,-0.023 -0.084,-0.053 -0.107,-0.09l-2.068,-3.31c-0.043,-0.069 -0.113,-0.069 -0.156,0l-2.064,3.31c-0.023,0.037 -0.063,0.067 -0.107,0.09l-6.295,0c-0.043,-0.025 -0.081,-0.06 -0.095,-0.105l-0.694,-2.125c-0.025,-0.077 -0.111,-0.139 -0.192,-0.139l-3.857,0c-0.081,0 -0.169,0.062 -0.195,0.138l-0.748,2.127c-0.016,0.044 -0.053,0.079 -0.097,0.104l-3.028,0c-0.024,-0.025 -0.034,-0.059 -0.017,-0.101l4.118,-10.213c0.031,-0.076 0.122,-0.137 0.203,-0.137Zm-9.958,10.338l0,-8.095c0,-0.081 -0.066,-0.147 -0.147,-0.147l-3.403,0c-0.081,0 -0.147,-0.066 -0.147,-0.147l0,-1.803c0,-0.08 0.066,-0.147 0.147,-0.147l10.247,0c0.08,0 0.147,0.067 0.147,0.147l0,1.803c0,0.081 -0.067,0.147 -0.147,0.147l-3.423,0c-0.081,0 -0.147,0.066 -0.147,0.147l0,8.095c0,0.049 -0.028,0.086 -0.065,0.113l-2.997,0c-0.037,-0.027 -0.065,-0.064 -0.065,-0.113Zm-24.177,30.54l8.677,-21.135c1.023,-2.493 4.066,-4.533 6.761,-4.533l48.403,0c2.695,0 5.737,2.04 6.761,4.533l8.676,21.135c1.024,2.493 -0.344,4.533 -3.039,4.533l-73.199,0c-2.696,0 -4.063,-2.04 -3.04,-4.533Zm19.6,27.218c0,1.348 -1.102,2.45 -2.45,2.45l-16.561,0c-1.347,0 -2.45,-1.102 -2.45,-2.45l0,-7.856c0,-1.348 1.103,-2.451 2.45,-2.451l16.561,0c1.348,0 2.45,1.103 2.45,2.451l0,7.856Zm61.381,0c0,1.348 -1.103,2.45 -2.45,2.45l-16.561,0c-1.348,0 -2.45,-1.102 -2.45,-2.45l0,-7.856c0,-1.348 1.102,-2.451 2.45,-2.451l16.561,0c1.347,0 2.45,1.103 2.45,2.451l0,7.856Z" style="fill:#fff;fill-rule:nonzero;"/></g></svg>