<?xml version="1.0" encoding="UTF-8" standalone="no"?><!DOCTYPE svg PUBLIC "-//W3C//DTD SVG 1.1//EN" "http://www.w3.org/Graphics/SVG/1.1/DTD/svg11.dtd"><svg width="100%" height="100%" viewBox="0 0 167 142" version="1.1" xmlns="http://www.w3.org/2000/svg" xmlns:xlink="http://www.w3.org/1999/xlink" xml:space="preserve" xmlns:serif="http://www.serif.com/" style="fill-rule:evenodd;clip-rule:evenodd;stroke-linejoin:round;stroke-miterlimit:2;"><g><path d="M32.627,134.933l-6.713,0c-5.579,0 -10.1,-4.985 -10.1,-11.136l0,-32.206l26.912,0l0,32.206c0,6.151 -4.522,11.136 -10.099,11.136Z" style="fill:#545464;fill-rule:nonzero;"/><path d="M26.112,91.591l0,43.342l6.509,0c5.577,0 10.099,-4.985 10.099,-11.134l0,-32.208l-16.608,0Z" style="fill:#394856;fill-rule:nonzero;"/><path d="M140.756,134.933l-6.712,0c-5.577,0 -10.099,-4.985 -10.099,-11.136l0,-32.206l26.912,0l0,32.206c0,6.151 -4.522,11.136 -10.101,11.136Z" style="fill:#545464;fill-rule:nonzero;"/><path d="M134.243,91.591l0,43.342l6.509,0c5.579,0 10.101,-4.985 10.101,-11.134l0,-32.208l-16.61,0Z" style="fill:#394856;fill-rule:nonzero;"/><path d="M163.44,46.622l-9.694,0c-1.919,0 -3.604,1.409 -4.119,3.447l-2.359,9.33l16.172,0c1.782,0 3.227,-1.593 3.227,-3.557l0,-5.663c0,-1.964 -1.445,-3.557 -3.227,-3.557Z" style="fill:#0e5da4;fill-rule:nonzero;"/><path d="M3.226,46.622l9.695,0c1.919,0 3.604,1.409 4.119,3.447l2.358,9.33l-16.172,0c-1.781,0 -3.226,-1.593 -3.226,-3.557l0,-5.663c0,-1.964 1.445,-3.557 3.226,-3.557Z" style="fill:#0e5da4;fill-rule:nonzero;"/><path d="M149.279,57.679l-11.239,-48.139c-0.657,-3.144 -3.198,-5.373 -6.126,-5.373l-97.162,0c-2.929,0 -5.469,2.227 -6.127,5.373l-11.238,48.139c-0.275,1.314 -0.974,2.472 -1.966,3.258l-5.587,4.43c-3.223,2.553 -5.133,6.661 -5.133,11.035l0,21.511c0,6.988 5.139,12.654 11.478,12.654l134.307,0c6.339,0 11.478,-5.666 11.478,-12.654l0,-21.511c0,-4.374 -1.91,-8.482 -5.132,-11.035l-5.588,-4.43c-0.992,-0.786 -1.691,-1.944 -1.966,-3.258l0.001,0Z" style="fill:#25a9e8;fill-rule:nonzero;"/><path d="M156.842,65.365l-5.587,-4.428c-0.992,-0.788 -1.691,-1.944 -1.966,-3.258l-11.239,-48.139c-0.658,-3.146 -3.198,-5.373 -6.126,-5.373l-16.609,0c2.928,0 5.468,2.227 6.127,5.373l11.237,48.139c0.275,1.314 0.974,2.47 1.967,3.258l5.588,4.428c3.221,2.555 5.131,6.661 5.131,11.037l0,34.165l5.132,0c6.339,0 11.477,-5.666 11.477,-12.655l0,-21.512c0,-4.372 -1.91,-8.48 -5.132,-11.035Z" style="fill:#0e5da4;fill-rule:nonzero;"/><path d="M138.71,60.343l-9.714,-41.233c-0.417,-1.77 -1.865,-3.006 -3.524,-3.006l-84.268,0c-1.658,0 -3.108,1.237 -3.525,3.006l-9.714,41.233c-0.399,3.529 2.097,6.647 5.323,6.647l100.1,0c3.225,0 5.721,-3.118 5.321,-6.647l0.001,0Z" style="fill:#d7dee3;fill-rule:nonzero;"/><path d="M138.703,60.343l-9.714,-41.233c-0.417,-1.77 -1.866,-3.006 -3.524,-3.006l-14.505,0l10.422,44.239l0.753,6.647l11.246,0c3.225,0 5.721,-3.118 5.322,-6.647Z" style="fill:#c7ced1;fill-rule:nonzero;"/><path d="M35.519,93.806l-14.257,0c-2.11,0 -3.82,-1.886 -3.82,-4.212l0,-8.601c0,-2.326 1.71,-4.212 3.82,-4.212l14.257,0c2.11,0 3.82,1.886 3.82,4.212l0,8.601c0,2.326 -1.71,4.212 -3.82,4.212Z" style="fill:#fed15b;fill-rule:nonzero;"/><path d="M145.42,93.806l-14.257,0c-2.109,0 -3.819,-1.886 -3.819,-4.212l0,-8.601c0,-2.326 1.71,-4.212 3.819,-4.212l14.257,0c2.11,0 3.821,1.886 3.821,4.212l0,8.601c0,2.326 -1.711,4.212 -3.821,4.212Z" style="fill:#fed15b;fill-rule:nonzero;"/><path d="M111.17,81.519l-55.678,0c-1.389,0 -2.515,-1.242 -2.515,-2.773c0,-1.531 1.126,-2.773 2.515,-2.773l55.678,0c1.391,0 2.516,1.242 2.516,2.773c0,1.531 -1.125,2.773 -2.516,2.773Z" style="fill:#545464;fill-rule:nonzero;"/><path d="M104.063,93.098l-41.468,0c-1.389,0 -2.516,-1.242 -2.516,-2.773c0,-1.532 1.127,-2.773 2.516,-2.773l41.468,0c1.39,0 2.516,1.241 2.516,2.773c0.001,1.531 -1.126,2.773 -2.516,2.773Z" style="fill:#545464;fill-rule:nonzero;"/><path d="M73.84,36.076c0,6.024 -4.429,10.906 -9.892,10.906c-5.464,0 -9.893,-4.882 -9.893,-10.906c0,-6.023 4.429,-10.906 9.893,-10.906c5.463,0 9.892,4.883 9.892,10.906Z" style="fill:#394856;fill-rule:nonzero;"/><path d="M112.896,36.076c0,6.024 -4.429,10.906 -9.893,10.906c-5.463,0 -9.892,-4.882 -9.892,-10.906c0,-6.023 4.429,-10.906 9.892,-10.906c5.464,0 9.893,4.883 9.893,10.906Z" style="fill:#394856;fill-rule:nonzero;"/><path d="M130.288,66.982c-0.311,-4.906 -4.016,-8.781 -8.544,-8.781l-76.81,0c-4.529,0 -8.234,3.875 -8.544,8.781l93.898,0Z" style="fill:#b2b9bf;fill-rule:nonzero;"/><path d="M117.18,57.835c-1.316,-6.418 -6.517,-11.213 -12.736,-11.213l-2.83,0c-6.219,0 -11.42,4.795 -12.736,11.213l28.302,0Z" style="fill:#375779;fill-rule:nonzero;"/><path d="M78.104,58.194c-1.316,-6.418 -6.517,-11.213 -12.736,-11.213l-2.83,0c-6.219,0 -11.42,4.795 -12.736,11.213l28.302,0Z" style="fill:#375779;fill-rule:nonzero;"/></g></svg>