<?xml version="1.0" encoding="UTF-8" standalone="no"?><!DOCTYPE svg PUBLIC "-//W3C//DTD SVG 1.1//EN" "http://www.w3.org/Graphics/SVG/1.1/DTD/svg11.dtd"><svg width="100%" height="100%" viewBox="0 0 167 167" version="1.1" xmlns="http://www.w3.org/2000/svg" xmlns:xlink="http://www.w3.org/1999/xlink" xml:space="preserve" xmlns:serif="http://www.serif.com/" style="fill-rule:evenodd;clip-rule:evenodd;stroke-linejoin:round;stroke-miterlimit:2;"><circle cx="83.333" cy="83.333" r="83.333" style="fill:#cdff99;"/><clipPath id="_clip1"><circle cx="83.333" cy="83.333" r="83.333"/></clipPath><g clip-path="url(#_clip1)"><g><path d="M36.247,97.311l13.231,26.462l73.653,0l13.231,-26.462l-100.115,0Z" style="fill:#ccc;fill-rule:nonzero;"/><path d="M81.331,37.626l-4.658,0l0,-13.973c0,-1.284 -1.044,-2.329 -2.329,-2.329l-10.867,0c-1.284,0 -2.329,1.045 -2.329,2.329l0,13.973l-4.658,0l0,-13.973c0,-3.852 3.134,-6.986 6.987,-6.986l10.867,0c3.853,0 6.987,3.134 6.987,6.986l0,13.973Z" style="fill:#a45e43;fill-rule:nonzero;"/><path d="M88.317,28.311l-2.329,0l-7.763,16.611l5.434,16.612l4.658,0c2.561,0 4.657,-2.096 4.657,-4.658l0,-23.908c0,-2.562 -2.096,-4.657 -4.657,-4.657Z" style="fill:#a45e43;fill-rule:nonzero;"/><path d="M56.49,28.311l-2.328,5.278l-2.329,-5.278l-2.329,0c-2.562,0 -4.657,2.095 -4.657,4.657l0,23.909c0,2.561 2.095,4.657 4.657,4.657l19.562,9.315l14.593,-9.315l-2.328,-33.223l-24.841,0Z" style="fill:#c27749;fill-rule:nonzero;"/><rect x="51.833" y="28.311" width="4.658" height="39.433" style="fill:#85453d;"/><rect x="81.331" y="28.311" width="4.658" height="39.433" style="fill:#60312c;"/><path d="M25,70.849l0,13.231l33.078,13.231l-19.847,-39.693c-7.277,0 -13.231,5.954 -13.231,13.231Z" style="fill:#7dd9ff;fill-rule:nonzero;"/><g><path d="M75.94,57.618l16.539,39.693l-54.248,0l6.616,-39.693l31.093,0Z" style="fill:#a8e5ff;fill-rule:nonzero;"/><path d="M117.177,62.91c-2.183,-2.91 -6.946,-5.292 -10.585,-5.292l-13.231,0l0,39.693l39.693,-13.231l-15.877,-21.17Z" style="fill:#a8e5ff;fill-rule:nonzero;"/></g><path d="M103.946,62.91l15.877,21.17l-40.575,13.231l3.307,-39.693l10.806,0c3.638,0 8.402,2.382 10.585,5.292Z" style="fill:#dbf4ff;fill-rule:nonzero;"/><path d="M126.439,97.311l0,26.462l26.462,0l0,-13.231l-26.462,-13.231Z" style="fill:#b3b3b3;fill-rule:nonzero;"/><path d="M146.625,88.605l-13.57,-4.525l-13.232,0l19.847,26.462l13.231,0l0,-13.231c0,-3.638 -2.822,-7.555 -6.276,-8.706Z" style="fill:#285680;fill-rule:nonzero;"/><path d="M126.439,110.542l-7.939,13.231l7.939,13.231c7.307,0 13.231,-5.923 13.231,-13.231c0,-7.307 -5.924,-13.231 -13.231,-13.231Z" style="fill:#353535;fill-rule:nonzero;"/><path d="M113.208,123.773c0,7.308 5.924,13.231 13.231,13.231l0,-26.462c-7.307,0 -13.231,5.924 -13.231,13.231Z" style="fill:#4f4f4f;fill-rule:nonzero;"/><path d="M38.231,97.311l-13.231,13.231l0,13.231l26.462,0l0,-26.462l-13.231,0Z" style="fill:#ccc;fill-rule:nonzero;"/><rect x="75.94" y="57.618" width="6.616" height="30.873" style="fill:#3b97d3;"/><g><rect x="38.231" y="57.618" width="6.616" height="30.873" style="fill:#90bae1;"/><path d="M25,110.542l54.028,0l13.231,-13.231l-13.231,-13.231l-54.028,0l0,26.462Z" style="fill:#90bae1;fill-rule:nonzero;"/></g><path d="M133.394,88.605l-13.571,-4.525l-43.868,0l0,26.462l63.715,0l0,-13.231c0,-3.638 -2.822,-7.555 -6.276,-8.706Z" style="fill:#3b97d3;fill-rule:nonzero;"/><path d="M51.462,110.542l-7.939,13.231l7.939,13.231c7.307,0 13.231,-5.923 13.231,-13.231c0,-7.307 -5.923,-13.231 -13.231,-13.231Z" style="fill:#353535;fill-rule:nonzero;"/><path d="M38.231,123.773c0,7.307 5.923,13.231 13.231,13.231l0,-26.462c-7.307,0 -13.231,5.924 -13.231,13.231Z" style="fill:#4f4f4f;fill-rule:nonzero;"/><g><circle cx="51.462" cy="123.773" r="3.308" style="fill:#ccc;"/><circle cx="126.439" cy="123.773" r="3.308" style="fill:#ccc;"/></g></g></g></svg>