<?xml version="1.0" encoding="UTF-8" standalone="no"?><!DOCTYPE svg PUBLIC "-//W3C//DTD SVG 1.1//EN" "http://www.w3.org/Graphics/SVG/1.1/DTD/svg11.dtd"><svg width="100%" height="100%" viewBox="0 0 8684 8684" version="1.1" xmlns="http://www.w3.org/2000/svg" xmlns:xlink="http://www.w3.org/1999/xlink" xml:space="preserve" xmlns:serif="http://www.serif.com/" style="fill-rule:evenodd;clip-rule:evenodd;stroke-linejoin:round;stroke-miterlimit:2;"><path id="Shadow" d="M7206.54,7567.25c-223.821,106.683 -586.634,106.683 -810.438,0c-223.8,-106.65 -223.8,-279.583 0,-386.267c223.804,-106.65 586.617,-106.65 810.438,0c223.8,106.684 223.8,279.617 0,386.267" style="fill:#e6e6e6;fill-rule:nonzero;"/><g id="Device"><path d="M4400.79,4293l-651.075,375.904c-24.167,13.942 -47.604,47.533 -52.363,75.017l-161.787,934.183c-4.775,27.483 10.954,61.059 35.12,75.017l419.809,242.362c24.15,13.959 63.316,13.959 87.466,0l897.275,-518.021c24.146,-13.958 43.713,-46.475 43.713,-72.62c0.017,-26.18 -19.567,-58.7 -43.713,-72.638l-322.85,-186.392c-24.15,-13.958 -46.025,-47.741 -48.837,-75.504l-71.837,-704.946c-2.83,-27.741 -23.509,-60.833 -46.146,-73.925c-22.675,-13.087 -60.609,-12.379 -84.775,1.563" style="fill:#263238;fill-rule:nonzero;"/><path d="M4034.23,5831.21l0.017,174.709c15.833,0 31.65,-3.475 43.733,-10.454l897.275,-518.038c24.15,-13.942 43.713,-46.458 43.713,-72.621c0,-15.312 -6.804,-32.708 -17.204,-47.379l-146.909,0l-820.625,473.783Z" style="fill:#455a64;fill-rule:nonzero;"/><path d="M4482.88,4340.38l-651.075,375.904c-24.15,13.942 -47.604,47.534 -52.362,75.017l-146.875,848.021c-4.759,27.5 10.954,61.075 35.12,75.033l322.83,186.371c24.166,13.958 63.333,13.958 87.483,0l897.258,-518.021c24.167,-13.958 24.167,-36.563 0,-50.5l-322.829,-186.392c-24.167,-13.958 -46.042,-47.741 -48.854,-75.504l-71.842,-704.946c-2.829,-27.741 -24.687,-38.925 -48.854,-24.983" style="fill:#263238;fill-rule:nonzero;"/><path d="M4975.25,5332.17l-322.846,-186.388c-11.892,-6.875 -23.229,-18.596 -32.012,-32.016l-981.65,566.754c6.316,14.133 16.458,26.6 28.92,33.804l322.851,186.387c24.149,13.942 63.316,13.942 87.462,0l897.275,-518.037c24.167,-13.958 24.167,-36.563 0,-50.504" style="fill:#37474f;fill-rule:nonzero;"/><path d="M2331.8,6150.96l-41.667,-24.062c-33.837,-19.534 -61.25,-67.013 -61.25,-106.059l-0.017,-2796.04c0,-39.046 27.467,-86.475 61.338,-105.904l3415.88,-1961.15c33.875,-19.446 88.734,-19.392 122.555,0.137l31.787,18.371c33.821,19.513 61.233,66.996 61.233,106.042l0,2796.04c0,39.046 -27.412,86.525 -61.233,106.059l-3406.16,1966.56c-33.82,19.529 -88.645,19.529 -122.466,0" style="fill:#455a64;fill-rule:nonzero;"/><path d="M2475.06,3296.24l-228.23,-131.755c-11.095,19.167 -17.97,40.784 -17.97,60.33l0.016,2796.03c0,39.062 27.413,86.545 61.25,106.079l41.667,24.062c33.821,19.529 88.646,19.529 122.467,0l20.8,-12.016l-0.001,-2842.72Z" style="fill:#263238;fill-rule:nonzero;"/><path d="M2393.03,6115.62l0,-2796.04c0,-39.045 27.429,-86.525 61.234,-106.058l3406.16,-1966.56c33.817,-19.53 61.25,-3.696 61.25,35.366l0,2796.02c0,39.046 -27.433,86.529 -61.25,106.063l-3406.16,1966.56c-33.804,19.529 -61.233,3.696 -61.233,-35.35" style="fill:#37474f;fill-rule:nonzero;"/><path d="M3992.46,5073.42l322.829,-186.388c24.15,-13.941 43.733,-4.046 43.733,22.133c0,26.163 -19.583,58.684 -43.733,72.621l-322.829,186.392c-24.167,13.942 -43.75,4.025 -43.75,-22.121c0,-26.179 19.583,-58.696 43.75,-72.637" style="fill:#e0e0e0;fill-rule:nonzero;"/><path d="M2549.92,3299.03l3207.9,-1857.31c19.304,-11.18 34.983,-2.155 34.983,20.158l0,2436.89c0,22.325 -15.679,49.462 -35,60.608l-3207.85,1852.05c-19.325,11.162 -35,2.121 -35,-20.192l0,-2431.54c0,-22.329 15.659,-49.479 34.963,-60.662" style="fill:#fff;fill-rule:nonzero;"/></g><g id="Window"><path d="M2781.22,3359.89l3366.53,-1943.85c53.421,-30.851 97.154,-5.626 97.154,56.079l0,2196.44c0,28.646 -20.312,63.804 -45.121,78.125l-3435.96,1983.92c-24.808,14.325 -45.104,2.604 -45.104,-26.041l0,-2236.41c0,-39.708 28.125,-88.404 62.5,-108.266" style="fill:#e0e0e0;fill-rule:nonzero;"/><path d="M6244.88,1522.78l0,-50.675c0,-61.683 -43.712,-86.929 -97.133,-56.079l-3366.53,1943.86c-34.375,19.858 -62.5,68.574 -62.5,108.262l0,90.675l3526.16,-2036.04Z" style="fill:#0e5da4;fill-rule:nonzero;"/><path d="M5837.54,1638.3c-18.471,10.663 -33.454,36.6 -33.454,57.938c-0.001,21.333 14.983,29.979 33.454,19.32c18.475,-10.675 33.454,-36.612 33.454,-57.95c0,-21.337 -14.979,-29.983 -33.454,-19.308" style="fill:#fff;fill-rule:nonzero;"/><path d="M5970.29,1561.65c-18.475,10.675 -33.459,36.613 -33.459,57.934c0,21.337 14.984,30 33.459,19.32c18.47,-10.658 33.454,-36.595 33.454,-57.933c0,-21.337 -14.984,-29.983 -33.454,-19.321" style="fill:#fff;fill-rule:nonzero;"/><path d="M6103.04,1485.01c-18.454,10.675 -33.454,36.612 -33.454,57.95c-0.001,21.32 14.999,29.966 33.454,19.304c18.471,-10.675 33.47,-36.613 33.47,-57.934c0,-21.337 -14.999,-29.983 -33.47,-19.32" style="fill:#fff;fill-rule:nonzero;"/></g><g id="Charts"><path d="M6032.29,1908.71c-2.759,-9.2 -11.442,-12.15 -21.7,-6.25l-2140.95,1236.29c-6.27,3.646 -11.979,9.721 -15.975,16.838l-70.483,-40.796c3.992,-7.121 9.721,-13.196 15.971,-16.842l2140.95,-1236.11c12.5,-7.291 32.638,-7.291 45.138,0l25.35,14.584c10.587,6.079 19.441,19.621 21.7,32.291" style="fill:#ebebeb;fill-rule:nonzero;"/><path d="M6033.17,1915.49l0,925.17c0,14.413 -10.067,31.946 -22.588,39.063l-2140.95,1236.11c-1.042,0.521 -2.083,1.042 -3.125,1.563c-1.387,0.521 -2.775,1.041 -4.167,1.216c-0.171,0 -0.521,0.171 -0.691,0.171c-8.509,1.217 -14.584,-4.858 -14.584,-15.971l0,-925c0,-7.291 2.604,-15.279 6.596,-22.22c3.992,-7.121 9.721,-13.196 15.971,-16.842l2140.95,-1236.28c10.263,-5.905 18.942,-2.955 21.704,6.25c0.192,0.52 0.363,1.041 0.363,1.733c0.329,1.737 0.521,3.3 0.521,5.037" style="fill:#fafafa;fill-rule:nonzero;"/><path d="M3861.65,4118.79c-6.6,2.083 -14.238,2.779 -21.354,1.908c-5.73,-0.521 -11.288,-2.254 -15.8,-4.859l-25.346,-14.583c-12.5,-7.292 -22.571,-24.825 -22.571,-39.062l0,-925.175c0,-7.117 2.429,-15.105 6.596,-22.221l70.487,40.8c-3.991,6.941 -6.596,14.929 -6.596,22.221l0,925c0,11.112 6.075,17.187 14.584,15.97" style="fill:#e0e0e0;fill-rule:nonzero;"/><path d="M5837.58,2641.2c-6.508,3.784 -12.429,4.671 -16.266,2.463c-3.784,-2.188 -5.971,-7.775 -5.971,-15.313c0,-19.337 14.15,-43.871 30.921,-53.558c4.166,-2.413 8.125,-3.646 11.404,-3.646c1.858,0 3.491,0.4 4.862,1.183c3.8,2.205 5.988,7.775 5.988,15.313c0,19.354 -14.167,43.871 -30.938,53.558m-231.837,14.392c-6.563,3.783 -12.45,4.654 -16.271,2.483c-3.8,-2.204 -5.988,-7.796 -5.988,-15.329c0,-19.342 14.167,-43.875 30.938,-53.563c4.167,-2.412 8.092,-3.645 11.387,-3.645c1.842,0 3.492,0.4 4.863,1.183c3.8,2.204 5.987,7.775 5.987,15.313c0,19.358 -14.166,43.887 -30.916,53.558m-246.842,-208.388c-6.512,3.771 -12.45,4.654 -16.267,2.467c-3.804,-2.204 -5.991,-7.779 -5.991,-15.313c0,-19.358 14.166,-43.887 30.937,-53.558c4.184,-2.412 8.125,-3.646 11.392,-3.646c1.837,0 3.487,0.384 4.858,1.163c3.804,2.204 5.992,7.796 5.992,15.329c0,19.342 -14.15,43.871 -30.921,53.558m-183.575,498.213c-6.512,3.787 -12.433,4.671 -16.25,2.483c-3.804,-2.204 -5.992,-7.779 -5.992,-15.312c0,-19.375 14.167,-43.888 30.921,-53.559c4.184,-2.412 8.109,-3.646 11.404,-3.646c1.842,0 3.492,0.384 4.863,1.18c0.608,0.366 1.112,0.937 1.667,1.475l0,0.021c2.725,2.725 4.325,7.516 4.325,13.8c0,19.374 -14.167,43.887 -30.938,53.558m-236.667,-108.817c-6.512,3.767 -12.45,4.65 -16.27,2.463c-0.555,-0.313 -0.971,-0.85 -1.475,-1.3c-0.067,-0.071 -0.138,-0.142 -0.209,-0.192c-2.708,-2.742 -4.304,-7.533 -4.304,-13.821c0,-19.358 14.167,-43.887 30.938,-53.558c4.166,-2.413 8.091,-3.646 11.387,-3.646c1.842,0 3.492,0.4 4.863,1.179c3.8,2.208 5.987,7.779 5.987,15.313c0,19.358 -14.167,43.891 -30.917,53.562m-179.204,470.45c-6.491,3.784 -12.412,4.671 -16.25,2.467c-3.8,-2.188 -5.987,-7.779 -5.987,-15.313c0,-19.341 14.166,-43.875 30.921,-53.562c4.2,-2.413 8.125,-3.646 11.42,-3.646c1.842,0 3.492,0.383 4.846,1.183c3.817,2.205 6.004,7.775 6.004,15.313c0,19.337 -14.183,43.871 -30.954,53.558m-281.996,162.863c-6.508,3.787 -12.445,4.654 -16.266,2.466c-3.804,-2.187 -5.992,-7.779 -5.992,-15.312c0,-19.358 14.167,-43.871 30.938,-53.558c4.166,-2.413 8.108,-3.646 11.391,-3.646c1.859,0 3.504,0.383 4.859,1.179c3.804,2.204 5.991,7.779 5.991,15.312c0,19.342 -14.15,43.871 -30.921,53.559m-211.633,-40.729c-6.508,3.749 -12.429,4.687 -16.267,2.483c-3.783,-2.204 -5.97,-7.775 -5.97,-15.313c0,-19.358 14.15,-43.887 30.92,-53.575c4.167,-2.412 8.109,-3.629 11.388,-3.629c1.842,0 3.492,0.384 4.862,1.163c3.8,2.204 5.988,7.779 5.988,15.312c0,19.358 -14.15,43.892 -30.921,53.559m-211.579,366.458c-6.508,3.771 -12.446,4.654 -16.25,2.466c-3.8,-2.204 -5.988,-7.779 -5.988,-15.312c0,-19.358 14.15,-43.887 30.921,-53.558c4.184,-2.413 8.125,-3.663 11.404,-3.663c1.842,0 3.492,0.4 4.863,1.179c3.8,2.205 5.987,7.796 5.987,15.329c0,19.342 -14.166,43.871 -30.937,53.559m1912.35,-1384.56c-4.271,-2.171 -9.496,-0.471 -11.667,3.817l-75.85,149.808c-2.171,-2.95 -4.687,-5.571 -7.867,-7.412c-9.425,-5.467 -21.37,-4.6 -33.629,2.466c-19.358,11.18 -35.033,35.505 -38.75,58.525l-145.537,-23.75c-1.563,-10.366 -6.284,-18.42 -13.942,-22.85c-9.479,-5.45 -21.371,-4.583 -33.608,2.467c-8.334,4.808 -15.975,12.05 -22.292,20.554l-184.567,-168.279c5.138,-10.679 8.296,-22.1 8.296,-32.779c0,-14.113 -5.208,-24.896 -14.666,-30.363c-9.48,-5.454 -21.392,-4.566 -33.613,2.484c-22.221,12.812 -39.617,42.933 -39.617,68.591c0,13.925 5.105,24.55 14.338,30.071l-130.971,394.65c-8.229,-2.221 -17.658,-0.658 -27.325,4.917c-12.675,7.308 -23.646,20.329 -30.854,34.875l-157.725,-113.558c0.037,-0.746 0.192,-1.525 0.192,-2.275c0,-14.113 -5.209,-24.875 -14.671,-30.346c-9.479,-5.45 -21.388,-4.584 -33.609,2.466c-22.225,12.813 -39.62,42.95 -39.62,68.592c0,8.942 2.308,16.321 6.25,22.083l-127.725,373.871c-5.78,0.367 -11.892,2.329 -18.109,5.904c-20.712,11.963 -37.046,38.959 -39.166,63.35l-196.771,113.646c-2.325,-7.291 -6.421,-13.125 -12.446,-16.612c-9.479,-5.454 -21.408,-4.584 -33.613,2.483c-16.737,9.65 -30.712,29.129 -36.612,49.113l-127.642,-51.684c0.575,-3.471 0.904,-6.908 0.904,-10.279c0,-14.096 -5.208,-24.879 -14.67,-30.346c-9.463,-5.45 -21.371,-4.583 -33.613,2.467c-22.221,12.829 -39.6,42.967 -39.6,68.608c0,5.609 1.042,10.504 2.621,14.934l-145.729,278.591c-8.575,-2.916 -18.559,-1.633 -28.871,4.325c-20.713,11.942 -37.046,38.921 -39.183,63.334l-101.875,58.8c-4.15,2.395 -5.571,7.708 -3.159,11.858c1.579,2.779 4.513,4.342 7.5,4.342c1.475,0 2.967,-0.384 4.338,-1.167l95,-54.842c2.346,7.292 6.425,13.125 12.45,16.613c4.096,2.362 8.662,3.541 13.508,3.541c6.333,0 13.175,-2.012 20.104,-6.004c22.221,-12.829 39.617,-42.954 39.617,-68.596c0,-8.454 -2.083,-15.504 -5.608,-21.129l143.595,-274.529c0.138,0.071 0.209,0.208 0.346,0.279c4.113,2.359 8.663,3.542 13.525,3.542c6.338,0 13.159,-2.017 20.104,-6.025c14.6,-8.421 26.996,-24.342 33.855,-41.546l129.633,52.483c-0.017,0.625 -0.154,1.284 -0.154,1.909c0,14.116 5.208,24.879 14.671,30.346c4.095,2.362 8.662,3.541 13.52,3.541c6.338,0 13.196,-2.012 20.105,-6.004c20.729,-11.962 37.05,-38.958 39.187,-63.333l196.771,-113.663c2.325,7.292 6.387,13.125 12.429,16.596c4.096,2.379 8.663,3.542 13.525,3.542c6.338,0 13.175,-2.013 20.088,-6.009c22.22,-12.829 39.633,-42.95 39.633,-68.591c0,-13.371 -4.825,-23.596 -13.383,-29.288l125.57,-367.537c2.309,0.625 4.742,0.975 7.259,0.975c6.354,0 13.175,-2.017 20.121,-6.009c16.233,-9.375 29.808,-28.02 35.987,-47.379l154.813,111.442c-1.48,5.696 -2.417,11.387 -2.417,16.892c0,14.095 5.208,24.879 14.671,30.345c4.1,2.363 8.662,3.542 13.508,3.542c6.354,0 13.175,-2.012 20.104,-6.004c22.221,-12.829 39.617,-42.954 39.617,-68.613c0,-8.925 -2.308,-16.3 -6.25,-22.066l133.437,-402.046c5.384,-0.575 11.009,-2.188 16.771,-5.504c8.317,-4.809 15.975,-12.05 22.275,-20.575l184.55,168.3c-5.141,10.675 -8.283,22.1 -8.283,32.779c0,14.112 5.208,24.896 14.671,30.362c4.096,2.363 8.662,3.542 13.508,3.542c6.354,0 13.175,-2.012 20.121,-6.025c19.342,-11.162 35.017,-35.467 38.733,-58.525l145.554,23.75c1.563,10.367 6.25,18.421 13.925,22.85c4.113,2.379 8.68,3.542 13.542,3.542c6.338,0 13.175,-2.017 20.088,-6.009c21.491,-12.412 38.366,-41.025 39.425,-66.112l84.72,-167.375c2.171,-4.292 0.471,-9.5 -3.816,-11.667" style="fill-rule:nonzero;"/><path d="M4763.04,3781.63c-2.779,-9.2 -11.634,-12.154 -21.704,-6.25l-871.7,503.296c-6.596,3.821 -12.501,10.417 -16.492,17.883l-70.313,-41.145c4.167,-7.292 9.896,-13.713 16.317,-17.359l871.529,-503.3c12.484,-7.291 32.796,-7.291 45.121,0l25.538,14.584c10.416,6.075 19.254,19.616 21.704,32.291" style="fill:#ebebeb;fill-rule:nonzero;"/><path d="M4763.92,3788.4l-0.175,680.904c0,14.409 -10.067,31.771 -22.396,39.063l-823.784,475.521l-47.916,27.779c-1.042,0.691 -2.258,1.212 -3.471,1.733c-0.175,0 -0.35,0.175 -0.521,0.175c-10.766,3.821 -18.579,-2.258 -18.579,-14.929l0,-680.904c0,-6.771 2.258,-14.409 6.079,-21.18c3.992,-7.466 9.896,-14.062 16.492,-17.883l871.7,-503.3c10.071,-5.9 18.925,-2.95 21.704,6.25c0.171,0.521 0.171,1.042 0.346,1.738c0.346,1.737 0.521,3.3 0.521,5.033" style="fill:#fafafa;fill-rule:nonzero;"/><path d="M3865.64,5013.58c-0.871,0.35 -1.738,0.696 -2.78,1.042c-1.216,0.521 -2.604,0.871 -3.82,1.042c-1.909,0.52 -3.817,0.87 -5.9,1.041c-1.913,0.175 -3.996,0.35 -5.905,0.35c-4.166,0 -8.158,-0.521 -12.154,-1.391c-3.816,-0.867 -7.462,-2.255 -10.587,-3.992l-25.35,-14.758c-12.5,-7.117 -22.567,-24.65 -22.567,-39.063l0,-680.729c0,-7.117 2.429,-14.754 6.25,-21.7l70.313,41.146c-3.821,6.771 -6.08,14.408 -6.08,21.179l0,680.904c0,12.675 7.813,18.75 18.579,14.929" style="fill:#e0e0e0;fill-rule:nonzero;"/><path d="M3917.57,4885.12l-0.017,-453.871c0,-9.583 6.737,-21.25 15.033,-26.041l40.471,-23.35c8.3,-4.792 15.033,-0.921 15.033,8.679l0,453.854c0,9.6 -6.733,21.25 -15.033,26.042l-40.45,23.37c-8.3,4.792 -15.037,0.9 -15.037,-8.683" style="fill:#007ef1;fill-rule:nonzero;"/><path d="M4058.62,4803.62l-0.017,-535.279c0,-9.583 6.737,-21.25 15.037,-26.042l40.467,-23.35c8.3,-4.791 15.033,-0.904 15.033,8.679l0,535.28c0,9.583 -6.733,21.249 -15.033,26.041l-40.45,23.35c-8.3,4.792 -15.037,0.904 -15.037,-8.679" style="fill:#007ef1;fill-rule:nonzero;"/><path d="M4199.67,4722.25l-0.017,-256.892c0,-9.6 6.737,-21.25 15.037,-26.041l40.467,-23.367c8.3,-4.792 15.033,-0.904 15.033,8.679l0,256.892c0,9.604 -6.733,21.25 -15.033,26.042l-40.45,23.37c-8.3,4.792 -15.037,0.9 -15.037,-8.683" style="fill:#007ef1;fill-rule:nonzero;"/><path d="M4340.71,4640.96l-0.016,-333.196c0,-9.6 6.737,-21.25 15.037,-26.041l40.467,-23.367c8.3,-4.775 15.033,-0.904 15.033,8.696l0,333.196c0,9.583 -6.733,21.25 -15.033,26.042l-40.45,23.35c-8.3,4.791 -15.038,0.899 -15.038,-8.684" style="fill:#007ef1;fill-rule:nonzero;"/><path d="M4481.75,4559.5l-0.021,-113.371c0,-9.583 6.738,-21.25 15.038,-26.042l40.45,-23.349c8.316,-4.792 15.054,-0.9 15.054,8.683l0,113.367c0,9.583 -6.738,21.233 -15.038,26.041l-40.45,23.35c-8.3,4.792 -15.033,0.904 -15.033,-8.679" style="fill:#007ef1;fill-rule:nonzero;"/><path d="M4622.79,4478.08l-0.021,-372.466c0,-9.584 6.737,-21.25 15.037,-26.042l40.467,-23.35c8.317,-4.808 15.037,-0.921 15.037,8.679l0,372.467c0,9.583 -6.72,21.25 -15.037,26.041l-40.45,23.35c-8.3,4.792 -15.033,0.905 -15.033,-8.679" style="fill:#007ef1;fill-rule:nonzero;"/><path d="M6032.33,3048.66c-2.779,-9.2 -11.633,-12.151 -21.7,-6.251l-1083.27,625.521c-6.579,3.838 -12.5,10.434 -16.492,17.9l-70.313,-41.145c4.167,-7.292 9.896,-13.717 16.321,-17.363l1083.09,-625.538c12.5,-7.291 32.812,-7.291 45.142,0l25.52,14.584c10.434,6.079 19.271,19.621 21.7,32.291" style="fill:#ebebeb;fill-rule:nonzero;"/><path d="M6033.21,3055.44l-0.175,680.904c0,14.408 -10.07,31.771 -22.395,39.062l-1035.35,597.742l-47.9,27.779c-1.059,0.713 -2.259,1.212 -3.492,1.75c-0.154,0 -0.346,0.158 -0.521,0.158c-10.762,3.838 -18.558,-2.258 -18.558,-14.929l0,-680.904c0,-6.754 2.258,-14.408 6.058,-21.163c3.996,-7.483 9.913,-14.079 16.513,-17.9l1083.25,-625.52c10.07,-5.905 18.925,-2.95 21.7,6.25c0.175,0.52 0.175,1.041 0.366,1.737c0.329,1.733 0.504,3.296 0.504,5.033" style="fill:#fafafa;fill-rule:nonzero;"/><path d="M4923.38,4402.83c-0.867,0.35 -1.737,0.696 -2.779,1.042c-1.196,0.521 -2.604,0.871 -3.817,1.042c-1.912,0.52 -3.821,0.87 -5.904,1.041c-1.908,0.175 -3.992,0.35 -5.904,0.35c-4.167,0 -8.158,-0.521 -12.15,-1.391c-3.804,-0.867 -7.45,-2.255 -10.592,-3.992l-25.346,-14.758c-12.5,-7.117 -22.57,-24.65 -22.57,-39.063l0,-680.729c0,-7.117 2.429,-14.754 6.25,-21.7l70.312,41.146c-3.8,6.771 -6.058,14.408 -6.058,21.179l0,680.904c0,12.675 7.796,18.75 18.558,14.929" style="fill:#e0e0e0;fill-rule:nonzero;"/><path d="M5305.75,3609.41l-56.079,209.2c-3.817,13.892 -14.754,35.071 -23.958,46.184l-181.076,217.533c-23.091,-15.8 -38.02,-40.279 -43.75,-71.179c-12.675,-69.967 23.092,-165.625 93.055,-249.829c11.979,-14.234 24.133,-27.604 36.633,-40.275c53.471,-53.475 113.196,-91.496 175.175,-111.634" style="fill:#ffdb4c;fill-rule:nonzero;"/><path d="M5456.62,3872.6c-80.4,135.242 -233.179,237.325 -347.746,230.208c-17.725,-1.041 -31.941,-4.166 -45.483,-10.07l178.471,-214.409c7.62,-9.2 24.287,-16.666 36.804,-16.666l1.896,0l176.058,10.937Z" style="fill:#ff843d;fill-rule:nonzero;"/><path d="M5441.17,3605.94l-166.321,199.829l54.533,-203.3c45.121,-11.113 81.229,-10.242 111.788,3.47" style="fill:#ffc000;fill-rule:nonzero;"/><path d="M5467.88,3852.12l-185.942,-11.459c-3.975,-0.35 -5.9,-1.391 -6.075,-1.391c0,-0.346 0.346,-1.563 1.563,-3.471c0.537,-0.871 1.041,-1.563 1.562,-2.083l181.075,-217.538c59.725,40.625 62.85,131.6 7.813,235.938" style="fill:#f2a900;fill-rule:nonzero;"/><path d="M5579.04,3463.5c0,12.517 10.104,16.825 22.55,9.638l338.508,-195.471c12.467,-7.188 22.571,-23.159 22.571,-35.679c0,-12.517 -10.088,-16.838 -22.554,-9.634l-338.525,195.471c-12.446,7.188 -22.55,23.158 -22.55,35.675" style="fill:#007ef1;fill-rule:nonzero;"/><path d="M5579.04,3599.64c0,12.516 10.104,16.825 22.55,9.637l338.508,-195.454c12.467,-7.204 22.571,-23.175 22.571,-35.692c0,-12.5 -10.088,-16.825 -22.554,-9.637l-338.525,195.471c-12.446,7.187 -22.55,23.158 -22.55,35.675" style="fill:#e0e0e0;fill-rule:nonzero;"/><path d="M5579.04,3683.62c0,12.516 10.104,16.841 22.55,9.633l338.508,-195.45c12.467,-7.188 22.571,-23.175 22.571,-35.675c0,-12.521 -10.088,-16.842 -22.554,-9.637l-338.525,195.45c-12.446,7.187 -22.55,23.162 -22.55,35.679" style="fill:#e0e0e0;fill-rule:nonzero;"/><path d="M5579.04,3767.6c0,12.517 10.104,16.821 22.55,9.633l338.508,-195.466c12.467,-7.188 22.571,-23.163 22.571,-35.679c0,-12.5 -10.088,-16.838 -22.554,-9.634l-338.525,195.467c-12.446,7.187 -22.55,23.162 -22.55,35.679" style="fill:#e0e0e0;fill-rule:nonzero;"/><path d="M5579.04,3851.57c0,12.521 10.104,16.825 22.55,9.637l338.508,-195.45c12.467,-7.187 22.571,-23.179 22.571,-35.696c0,-12.5 -10.088,-16.825 -22.554,-9.637l-338.525,195.471c-12.446,7.187 -22.55,23.158 -22.55,35.675" style="fill:#e0e0e0;fill-rule:nonzero;"/><path d="M3564.07,3700.31c-2.779,-9.375 -11.458,-12.329 -21.7,-6.25l-589.583,340.275c-6.25,3.646 -11.809,9.896 -15.975,16.842l-70.484,-40.625c4.167,-7.117 9.721,-13.196 15.971,-16.842l589.583,-340.45c12.5,-7.116 32.638,-7.116 45.138,0l25.35,14.759c10.587,6.075 19.441,19.616 21.7,32.291" style="fill:#ebebeb;fill-rule:nonzero;"/><path d="M3564.95,3707.07l0,192.187c0,14.409 -10.071,31.771 -22.571,39.063l-589.583,340.279c-1.217,0.692 -2.604,1.388 -4.167,2.083c-0.362,0 -0.696,0.171 -1.058,0.346c-10.055,2.95 -17.363,-3.125 -17.363,-15.45l0,-192.187c0,-7.292 2.45,-15.104 6.617,-22.225c4.166,-6.942 9.721,-13.192 15.971,-16.838l589.583,-340.279c10.242,-6.075 18.925,-3.125 21.7,6.25c0.175,0.521 0.35,1.042 0.35,1.738c0.346,1.733 0.521,3.47 0.521,5.033" style="fill:#fafafa;fill-rule:nonzero;"/><path d="M2947.58,4281.04c-2.604,1.037 -5.554,1.733 -8.508,2.254c-8.68,1.562 -18.4,0.867 -26.388,-2.258c-1.737,-0.692 -3.471,-1.563 -5.033,-2.43l-25.35,-14.583c-12.484,-7.117 -22.567,-24.654 -22.567,-39.063l0,-192.187c0,-7.292 2.604,-15.104 6.596,-22.221l70.487,40.625c-4.166,7.117 -6.6,14.929 -6.6,22.221l0,192.188c0,12.324 7.292,18.404 17.363,15.449" style="fill:#e0e0e0;fill-rule:nonzero;"/><path d="M3564.07,4066.75c-2.779,-9.375 -11.458,-12.325 -21.7,-6.25l-589.583,340.279c-6.25,3.646 -11.809,9.896 -15.975,16.842l-70.484,-40.625c4.167,-7.121 9.721,-13.196 15.971,-16.842l589.583,-340.45c12.5,-7.121 32.638,-7.121 45.138,0l25.35,14.754c10.587,6.075 19.441,19.617 21.7,32.292" style="fill:#ebebeb;fill-rule:nonzero;"/><path d="M3564.95,4073.51l0,192.187c0,14.408 -10.071,31.771 -22.571,39.063l-589.583,340.279c-1.217,0.691 -2.604,1.387 -4.167,2.1c-0.362,0 -0.696,0.154 -1.058,0.329c-10.055,2.95 -17.363,-3.125 -17.363,-15.45l0,-192.188c0,-7.291 2.45,-15.104 6.617,-22.225c4.166,-6.941 9.721,-13.191 15.971,-16.837l589.583,-340.279c10.242,-6.075 18.925,-3.125 21.7,6.25c0.175,0.521 0.35,1.041 0.35,1.737c0.346,1.734 0.521,3.471 0.521,5.034" style="fill:#fafafa;fill-rule:nonzero;"/><path d="M2947.58,4647.46c-2.604,1.042 -5.554,1.738 -8.508,2.259c-8.68,1.562 -18.4,0.866 -26.388,-2.259c-1.737,-0.695 -3.471,-1.562 -5.033,-2.429l-25.35,-14.583c-12.484,-7.121 -22.567,-24.654 -22.567,-39.063l0,-192.187c0,-7.292 2.604,-15.104 6.596,-22.225l70.487,40.625c-4.166,7.121 -6.6,14.933 -6.6,22.225l0,192.187c0,12.325 7.292,18.4 17.363,15.45" style="fill:#e0e0e0;fill-rule:nonzero;"/><path d="M3564.07,4433.17c-2.779,-9.375 -11.458,-12.325 -21.7,-6.25l-589.583,340.279c-6.25,3.646 -11.809,9.896 -15.975,16.837l-70.484,-40.625c4.167,-7.116 9.721,-13.191 15.971,-16.837l589.583,-340.454c12.5,-7.117 32.638,-7.117 45.138,0l25.35,14.758c10.587,6.075 19.441,19.617 21.7,32.292" style="fill:#ebebeb;fill-rule:nonzero;"/><path d="M3564.95,4439.96l0,192.188c0,14.412 -10.071,31.771 -22.571,39.062l-589.583,340.279c-1.217,0.696 -2.604,1.388 -4.167,2.084c-0.362,0 -0.696,0.175 -1.058,0.346c-10.055,2.954 -17.363,-3.125 -17.363,-15.45l0,-192.188c0,-7.292 2.45,-15.104 6.617,-22.221c4.166,-6.946 9.721,-13.196 15.971,-16.841l589.583,-340.28c10.242,-6.075 18.925,-3.125 21.7,6.25c0.175,0.521 0.35,1.042 0.35,1.738c0.346,1.737 0.521,3.471 0.521,5.033" style="fill:#fafafa;fill-rule:nonzero;"/><path d="M2947.58,5013.92c-2.604,1.041 -5.554,1.733 -8.508,2.254c-8.68,1.562 -18.4,0.871 -26.388,-2.254c-1.737,-0.696 -3.471,-1.563 -5.033,-2.434l-25.35,-14.583c-12.484,-7.117 -22.567,-24.65 -22.567,-39.063l0,-192.187c0,-7.292 2.604,-15.104 6.596,-22.221l70.487,40.625c-4.166,7.117 -6.6,14.929 -6.6,22.242l0,192.166c0,12.33 7.292,18.405 17.363,15.455" style="fill:#e0e0e0;fill-rule:nonzero;"/><path d="M3564.07,4799.62c-2.779,-9.375 -11.458,-12.325 -21.7,-6.25l-589.583,340.279c-6.25,3.646 -11.809,9.896 -15.975,16.842l-70.484,-40.625c4.167,-7.121 9.721,-13.196 15.971,-16.842l589.583,-340.45c12.5,-7.121 32.638,-7.121 45.138,0l25.35,14.754c10.587,6.079 19.441,19.621 21.7,32.292" style="fill:#ebebeb;fill-rule:nonzero;"/><path d="M3564.95,4806.42l0,192.187c0,14.409 -10.071,31.771 -22.571,39.063l-589.583,340.279c-1.217,0.691 -2.604,1.387 -4.167,2.083c-0.362,0 -0.696,0.171 -1.058,0.346c-10.055,2.95 -17.363,-3.125 -17.363,-15.45l0,-192.187c0,-7.292 2.45,-15.105 6.617,-22.225c4.166,-6.942 9.721,-13.192 15.971,-16.838l589.583,-340.279c10.242,-6.079 18.925,-3.125 21.7,6.25c0.175,0.521 0.35,1.042 0.35,1.737c0.346,1.734 0.521,3.471 0.521,5.034" style="fill:#fafafa;fill-rule:nonzero;"/><path d="M2947.58,5380.38c-2.604,1.042 -5.554,1.738 -8.508,2.258c-8.68,1.563 -18.4,0.867 -26.388,-2.258c-1.737,-0.692 -3.471,-1.563 -5.033,-2.429l-25.35,-14.583c-12.484,-7.117 -22.567,-24.655 -22.567,-39.063l0,-192.188c0,-7.291 2.604,-15.104 6.596,-22.22l70.487,40.625c-4.166,7.116 -6.6,14.929 -6.6,22.221l0,192.187c0,12.325 7.292,18.404 17.363,15.45" style="fill:#e0e0e0;fill-rule:nonzero;"/><path d="M3626.05,3396.01c0.679,0.02 1.442,0.208 2.259,0.662l-63.367,-36.375l0,-19.633c0,-1.563 -0.175,-3.3 -0.521,-5.05c0,-0.696 -0.175,-1.2 -0.35,-1.721c-2.254,-12.692 -11.108,-26.217 -21.7,-32.292l-25.346,-14.775c-12.5,-7.1 -32.641,-7.1 -45.141,0l-589.584,340.471c-6.25,3.646 -11.804,9.721 -15.971,16.838c-3.991,7.12 -6.595,14.933 -6.595,22.224l0,192.188c0,14.408 10.066,31.925 22.566,39.062l25.35,14.567c1.542,0.883 3.296,1.75 5.034,2.446c7.987,3.125 17.708,3.821 26.387,2.242c2.954,-0.505 5.904,-1.2 8.492,-2.242c0.362,-0.175 0.691,-0.346 1.058,-0.346c1.563,-0.696 2.95,-1.408 4.167,-2.1l589.583,-340.262c12.5,-7.309 22.571,-24.671 22.571,-39.063l0,-55.433l64.321,-74.254c2.412,-2.796 0.45,-7.1 -3.213,-7.155" style="fill:#007ef1;fill-rule:nonzero;"/><path d="M2947.58,3914.62c-2.604,1.041 -5.554,1.737 -8.508,2.258c-8.68,1.563 -18.4,0.867 -26.388,-2.258c-1.737,-0.696 -3.471,-1.563 -5.033,-2.429l-25.35,-14.584c-12.484,-7.121 -22.567,-24.654 -22.567,-39.062l0,-192.188c0,-7.291 2.604,-15.104 6.596,-22.225l70.487,40.625c-4.166,7.121 -6.6,14.934 -6.6,22.225l0,192.188c0,12.325 7.292,18.4 17.363,15.45" style="fill-opacity:0.1;fill-rule:nonzero;"/><path d="M3564.07,3333.89c-2.779,-9.375 -11.458,-12.325 -21.7,-6.25l-589.583,340.279c-6.25,3.646 -11.809,9.896 -15.975,16.842l-70.484,-40.625c4.167,-7.121 9.721,-13.196 15.971,-16.842l589.583,-340.45c12.5,-7.121 32.638,-7.121 45.138,0l25.35,14.754c10.587,6.075 19.441,19.617 21.7,32.292" style="fill:#fff;fill-opacity:0.4;fill-rule:nonzero;"/><path d="M3626,3396l-61.058,0l0,-35.692l63.387,36.371c-0.871,-0.454 -1.633,-0.662 -2.329,-0.679" style="fill:#fff;fill-opacity:0.4;fill-rule:nonzero;"/></g><g id="Plants"><path d="M1725.53,6498.71l121.75,-69.566c0,0 58.388,-321.804 14.725,-598.438c-61.408,-388.921 -326.216,-523.087 -422.396,-484.425c-96.183,38.663 -118.787,153.871 54.913,378.613c102.483,132.583 234.287,412.862 231.008,773.816" style="fill:#00a320;fill-rule:nonzero;"/><path d="M1725.53,6498.71l121.75,-69.566c0,0 58.388,-321.804 14.725,-598.438c-61.408,-388.921 -326.216,-523.087 -422.396,-484.425c-96.183,38.663 -118.787,153.871 54.913,378.613c102.483,132.583 234.287,412.862 231.008,773.816" style="fill:#00a320;fill-opacity:0.1;fill-rule:nonzero;"/><path d="M1769.66,6344.25c-0.4,0 -0.796,-0.033 -1.196,-0.083c-4.759,-0.663 -8.075,-5.038 -7.413,-9.775c50.313,-364.134 -96.112,-763.075 -260.646,-923.838c-3.416,-3.35 -3.487,-8.854 -0.137,-12.275c3.366,-3.404 8.854,-3.487 12.275,-0.137c167.533,163.712 316.771,569.129 265.696,938.608c-0.592,4.342 -4.325,7.5 -8.58,7.5" style="fill:#fff;fill-rule:nonzero;"/><path d="M1387.73,6693.88c-19.237,11.042 -58.891,-13.108 -74.083,-23.3c-26.004,-17.45 -47.063,-42.154 -61.058,-70.087c-16.284,-32.517 -20.38,-67.363 -15.296,-103.334c2.658,-18.662 7.883,-36.841 13.075,-54.946c5.12,-17.779 10.225,-35.558 15.329,-53.333c5.054,-17.554 10.137,-35.696 7.829,-53.804c-4.671,-36.475 -37.046,-62.029 -66.475,-84.063c-32.55,-24.375 -66.458,-56.545 -66.267,-100.466c0.138,-33.892 17.692,-65.35 38.679,-91.946c21.009,-26.596 45.921,-50.088 64.896,-78.158c13.663,-20.192 24.325,-43.942 22.1,-68.23c-1.37,-15.087 -7.637,-29.308 -14.858,-42.625c-15.504,-28.591 -35.975,-54.791 -46.65,-85.5c-10.713,-30.712 -9.183,-68.925 14.792,-90.904c19.687,-18.037 48.925,-20.575 75.571,-18.804c24.637,1.633 48.716,12.746 70.279,24.742c69.704,38.766 109.496,121.321 183.471,151.162c28.541,11.513 59.812,14.029 89.55,21.875c29.741,7.867 60.07,23.075 73.854,50.575c27.154,54.234 -23.246,121.092 -4.167,178.663c16.892,50.954 66.425,70.45 94.221,116.371c12.15,20.087 14.962,43.3 13,66.7c-3.313,39.6 -9.113,68.683 -28.125,112.708c-15.708,36.408 -61.854,101.546 -61.854,101.546c-1.167,1.146 -334.879,193.454 -337.813,195.158" style="fill:#009e57;fill-rule:nonzero;"/><path d="M1585.37,6588.54l-0.242,0c-4.912,-0.209 -8.629,-4.255 -8.437,-9.046c14.341,-344.633 -148.038,-725.121 -266.13,-835.658c-3.491,-3.284 -3.679,-8.767 -0.416,-12.275c3.3,-3.488 8.766,-3.663 12.275,-0.417c120.466,112.762 286.162,499.583 271.629,849.079c-0.208,4.671 -4.042,8.317 -8.679,8.317" style="fill:#fff;fill-rule:nonzero;"/><path d="M1533.73,6181.38c-0.85,0 -1.721,-0.121 -2.554,-0.383c-110.729,-34.238 -248.75,-40.279 -250.121,-40.33c-4.791,-0.191 -8.504,-4.254 -8.312,-9.029c0.208,-4.791 3.816,-8.558 9.025,-8.333c1.408,0.071 141.616,6.2 254.516,41.096c4.58,1.421 7.167,6.283 5.746,10.85c-1.166,3.733 -4.583,6.129 -8.3,6.129" style="fill:#fff;fill-rule:nonzero;"/></g><g id="Magnifying-Glass" serif:id="Magnifying Glass"><path d="M2835.3,5802.08c0,-17.241 -11.387,-34.462 -34.15,-47.604c-45.537,-26.304 -119.375,-26.304 -164.896,0c-22.779,13.142 -34.166,30.363 -34.166,47.604l-46.217,1213.01l0.142,-0.001c-1.65,25.242 14.046,50.796 47.446,70.067c63.645,36.754 166.841,36.754 230.487,0c33.383,-19.271 49.079,-44.825 47.446,-70.066l0.296,-0.001l-46.388,-1213Z" style="fill:#0e5da4;fill-rule:nonzero;"/><path d="M2636.25,5754.46c-45.537,26.284 -45.537,68.904 0,95.209c45.542,26.283 119.358,26.283 164.896,0c45.542,-26.305 45.542,-68.925 0,-95.209c-45.538,-26.304 -119.354,-26.304 -164.896,0" style="fill-opacity:0.15;fill-rule:nonzero;"/><path d="M2768.55,5415.21c-27.533,-15.904 -72.171,-15.904 -99.704,0c-13.767,7.95 -20.662,18.367 -20.662,28.784l-0.034,0l0,358.075l0.034,0c0,10.416 6.895,20.833 20.662,28.783c27.533,15.904 72.171,15.904 99.704,0c13.767,-7.95 20.642,-18.367 20.642,-28.783l0,-358.075c0,-10.417 -6.875,-20.834 -20.642,-28.784" style="fill:#263238;fill-rule:nonzero;"/><path d="M3101.99,4267.67c15.8,53.82 18.925,109.375 18.925,145.833c0,337.154 -246.7,764.413 -538.717,932.988c-47.396,27.258 -93.575,46.529 -136.629,56.77c-15.625,-53.821 -18.925,-109.375 -18.925,-146.008c0,-337.15 246.7,-764.408 538.716,-932.983c47.396,-27.259 93.575,-46.355 136.63,-56.6m401.562,270.312c-0.171,-7.117 -0.521,-14.062 -1.042,-21.004c-0.345,-6.946 -0.866,-13.717 -1.562,-20.487c-0.346,-4.513 -0.867,-9.03 -1.388,-13.542c-1.216,-11.804 -2.95,-23.438 -4.862,-34.55c-0.867,-5.033 -1.733,-10.242 -2.775,-15.275c-0.871,-4.863 -1.913,-9.55 -2.954,-14.238c-2.95,-12.845 -6.075,-25.345 -9.721,-37.325c-1.908,-5.729 -3.646,-11.458 -5.554,-17.016c-0.35,-0.867 -0.696,-1.734 -0.871,-2.604c-2.083,-5.555 -3.992,-10.938 -6.075,-16.146c-2.429,-6.075 -4.863,-12.15 -7.637,-17.879c-1.913,-4.342 -3.821,-8.509 -6.08,-12.675c-1.212,-3.125 -2.775,-6.075 -4.512,-9.03c-1.738,-3.645 -3.646,-7.291 -5.729,-10.762c-0.521,-0.867 -0.867,-1.738 -1.388,-2.429c-1.737,-3.125 -3.646,-6.25 -5.558,-9.375c-1.213,-2.084 -2.604,-3.996 -3.817,-5.904c-9.204,-14.409 -19.1,-27.605 -29.862,-39.759c-1.909,-2.083 -3.821,-4.166 -5.554,-6.25c-1.563,-1.733 -3.125,-3.296 -4.688,-4.858c-1.912,-2.083 -3.996,-3.996 -6.079,-6.079c-5.9,-5.9 -11.804,-11.284 -18.054,-16.146c-2.95,-2.604 -6.075,-5.033 -9.2,-7.292c-3.125,-2.429 -6.25,-4.687 -9.55,-6.941c-5.034,-3.646 -10.242,-7.121 -15.45,-10.071c-1.392,-0.867 -2.779,-1.738 -4.167,-2.604l-0.871,-0.696l-0.171,0l-246.008,-142.013l-0.346,0l-1.391,-0.866c-45.138,-25.696 -97.221,-39.063 -154.513,-39.063c-80.554,0 -171.529,26.388 -267.883,81.942c-330.9,191.146 -599.304,655.904 -599.304,1038.2c0,190.625 66.666,324.654 174.479,387.5l1.041,0.52l0,0.175l246.18,141.838c0,0.175 0,0.175 0.175,0.175l1.041,0.696l0,-0.175c1.042,0.521 1.909,1.041 2.95,1.562c4.688,2.779 9.375,5.209 14.238,7.467c5.904,2.95 11.979,5.554 18.054,7.983c5.383,2.258 10.937,4.342 16.496,6.079c2.95,1.042 5.9,1.909 8.854,2.605c3.125,1.212 6.25,2.083 9.546,2.775c3.3,1.041 6.425,1.737 9.725,2.433c2.429,0.692 4.687,1.212 7.116,1.562c4.167,0.867 8.68,1.734 13.021,2.255c1.042,0.35 1.909,0.52 2.95,0.52c5.209,0.871 10.417,1.563 15.625,2.084c89.238,9.375 193.059,-15.796 304.167,-79.859c331.079,-191.145 599.479,-656.079 599.479,-1038.19c0,-9.2 -0.171,-18.23 -0.521,-27.259" style="fill:#0e5da4;fill-rule:nonzero;"/><path d="M2472.31,5640.58l-238.921,-137.896c-107.83,-63.02 -174.479,-197.05 -174.479,-387.329c-0.001,-170.483 53.47,-357.291 141.82,-528.816l246.163,141.941c-88.542,171.546 -141.838,358.35 -141.838,528.838c0,186.458 63.438,318.679 167.254,383.262" style="fill-opacity:0.1;fill-rule:nonzero;"/><path d="M2843.83,5498.25c-74.308,42.883 -145.833,65.45 -206.946,65.45c-114.758,0 -167.533,-78.296 -191.32,-160.417c-15.625,-53.816 -18.921,-109.375 -18.921,-146.004c0,-337.154 246.7,-764.412 538.712,-932.987c47.396,-27.259 93.579,-46.354 136.634,-56.596c24.654,-5.904 48.091,-8.854 70.312,-8.854c189.758,0 210.071,214.233 210.071,306.421c0,337.154 -246.529,764.412 -538.542,932.987m659.721,-960.242c-0.175,-7.12 -0.521,-14.062 -1.041,-21.008c-0.346,-6.946 -0.867,-13.717 -1.563,-20.487c-0.346,-4.513 -0.867,-9.025 -1.387,-13.542c-1.217,-11.804 -2.955,-23.438 -4.863,-34.546c-0.867,-5.037 -1.737,-10.246 -2.779,-15.279c-0.867,-4.863 -1.908,-9.55 -2.95,-14.238c-2.95,-12.845 -6.075,-25.345 -9.721,-37.325c-1.912,-5.729 -3.646,-11.458 -5.558,-17.012c-0.346,-0.871 -0.692,-1.738 -0.867,-2.604c-2.083,-5.559 -3.992,-10.938 -6.075,-16.146c-2.433,-6.079 -4.862,-12.154 -7.642,-17.883c-1.908,-4.342 -3.816,-8.509 -6.075,-12.675c-1.216,-3.125 -2.779,-6.075 -4.512,-9.025c-1.738,-3.646 -3.646,-7.292 -5.729,-10.767c-0.521,-0.867 -0.871,-1.733 -1.392,-2.429c-1.733,-3.125 -3.646,-6.25 -5.554,-9.375c-1.217,-2.084 -2.604,-3.992 -3.821,-5.904c-9.2,-14.409 -19.096,-27.605 -29.858,-39.755c-1.913,-2.083 -3.821,-4.166 -5.559,-6.25c-1.562,-1.737 -3.125,-3.3 -4.687,-4.862c-1.908,-2.083 -3.992,-3.992 -6.075,-6.075c-5.904,-5.904 -11.804,-11.288 -18.054,-16.146c-2.954,-2.604 -6.079,-5.037 -9.204,-7.292c-3.125,-2.433 -6.25,-4.687 -9.546,-6.945c-5.038,-3.646 -10.246,-7.117 -15.454,-10.071c-108.855,-66.146 -260.938,-58.334 -428.992,38.716c-331.075,191.146 -599.479,655.905 -599.479,1038.2c0,193.575 68.75,328.817 179.687,390.275c4.688,2.779 9.375,5.209 14.238,7.467c5.9,2.95 11.979,5.554 18.054,7.987c5.383,2.255 10.937,4.338 16.492,6.075c2.954,1.042 5.904,1.909 8.854,2.605c3.125,1.216 6.25,2.083 9.55,2.779c3.3,1.041 6.425,1.733 9.721,2.429c2.433,0.696 4.687,1.217 7.12,1.562c4.167,0.867 8.68,1.738 13.021,2.259c1.042,0.346 1.909,0.521 2.95,0.521c5.209,0.866 10.417,1.562 15.625,2.083c89.238,9.375 193.054,-15.8 304.167,-79.863c331.075,-191.145 599.479,-656.075 599.479,-1038.19c0,-9.2 -0.175,-18.23 -0.521,-27.255" style="fill:#fff;fill-opacity:0.4;fill-rule:nonzero;"/><path d="M3382.38,4565.25c0,337.154 -246.529,764.413 -538.542,932.988c-74.308,42.883 -145.833,65.45 -206.946,65.45c-114.758,0 -167.533,-78.296 -191.32,-160.417c43.058,-10.242 89.237,-29.513 136.633,-56.771c292.013,-168.575 538.717,-595.833 538.717,-932.983c0,-36.459 -3.125,-92.017 -18.925,-145.834c24.654,-5.904 48.091,-8.854 70.312,-8.854c189.759,0 210.071,214.234 210.071,306.421" style="fill-opacity:0.1;fill-rule:nonzero;"/><path d="M3277.51,4506.42c0,337.154 -246.529,764.408 -538.541,932.987c-74.304,42.879 -145.834,65.45 -206.946,65.45c-12.846,0 -25,-1.042 -36.283,-2.95c-23.959,-28.125 -39.759,-62.85 -50.175,-98.612c-15.625,-53.821 -18.921,-109.375 -18.921,-146.009c0,-337.15 246.7,-764.408 538.712,-932.983c47.396,-27.258 93.579,-46.354 136.634,-56.6c24.654,-5.9 48.091,-8.854 70.312,-8.854c13.021,0 25,1.042 36.458,2.954c59.896,70.658 68.75,184.025 68.75,244.617" style="fill:#fff;fill-opacity:0.7;fill-rule:nonzero;"/><path d="M2684.7,5866.38l-31.075,1238.37c-18.058,-4.688 -35.246,-10.938 -50.175,-19.621c-33.333,-19.271 -49.133,-44.792 -47.396,-70.137l-0.175,-0.001l46.183,-1212.85c0,17.362 11.459,34.375 34.2,47.57c14.063,7.984 30.73,13.542 48.438,16.667" style="fill-opacity:0.1;fill-rule:nonzero;"/></g><g id="Character"><path d="M7229.21,5290.12c-0.954,-13.317 -25.904,-155.521 -43.075,-235.054l-167.166,51.233l29.704,146.338l140.85,113.037c44.112,-8.75 40.642,-62.221 39.687,-75.554" style="fill:#ffa8a7;fill-rule:nonzero;"/><path d="M6792.42,4574.1l35.591,0c137.517,0 248.992,-111.475 248.992,-248.996c0,-147.325 -119.442,-266.771 -266.788,-266.771c-147.341,0 -266.787,119.446 -266.787,266.792c0,137.5 111.475,248.975 248.992,248.975" style="fill:#263238;fill-rule:nonzero;"/><path d="M6420.71,4990.33l-79.029,144.863l122.917,105.362l112.604,-178.525l-156.492,-71.7Z" style="fill:#f28f8f;fill-rule:nonzero;"/><path d="M6717.17,4667.47c-78.371,0.796 -164.654,29.287 -194.342,90.745c-29.688,61.459 -122.533,252.83 -122.533,252.83c0,0 69.271,101.408 179.129,94.254l137.746,-437.829Z" style="fill:#e17a00;fill-rule:nonzero;"/><path d="M6717.17,4667.47c-78.371,0.796 -164.654,29.287 -194.342,90.745c-29.688,61.459 -122.533,252.83 -122.533,252.83c0,0 69.271,101.408 179.129,94.254l137.746,-437.829Z" style="fill:#ffe17d;fill-opacity:0.1;fill-rule:nonzero;"/><path d="M6981.54,7242.33l0,-17.15c-6.771,20.121 -38.125,106.717 -85.713,150.138c-37.829,34.496 -89.441,74.358 -102.566,112.829c-13.663,40 71.804,53.437 107.149,47.187c41.063,-7.275 94.205,-30.57 123.125,-66.108c20.334,-24.983 33.284,-54.583 47.796,-74.237c14.534,-19.638 48.004,-41.579 55.85,-64.325c4.309,-12.48 -0.812,-39.842 -6.875,-62.95c-5.554,-21.217 -11.579,-44.53 -18.833,-42.534c-0.021,2.588 0,13.071 0,13.071c-8.7,9.654 -32.779,19.238 -59.95,20.279c-17.55,0.659 -60.121,-2.812 -59.983,-16.2" style="fill:#263238;fill-rule:nonzero;"/><path d="M6861.58,7405.67c11.734,-10.484 23.525,-20.713 34.255,-30.467c33.245,-30.329 58.591,-81.771 73.141,-116.858c8.313,-20.034 12.588,-41.425 12.588,-63.125l0,-68.35l119.929,0l0,114.254l-0.608,0.312c-5.763,24.913 -60.817,91.213 -92.084,134.425c-20.954,28.992 -60.779,65.85 -108.383,72.204c-45.088,6.025 -68.146,-8.191 -38.838,-42.395" style="fill:#ffa8a7;fill-rule:nonzero;"/><path d="M6535.88,7126.71l0,-17.154c-6.771,20.121 -38.142,106.717 -85.712,150.138c-37.846,34.495 -89.463,74.358 -102.588,112.829c-13.646,40 71.825,53.437 107.171,47.187c41.058,-7.27 94.2,-30.57 123.125,-66.108c20.329,-24.983 33.283,-54.6 47.796,-74.237c14.512,-19.655 48.004,-41.58 55.85,-64.321c4.304,-12.484 -0.817,-39.846 -6.875,-62.954c-5.555,-21.213 -11.596,-44.53 -18.838,-42.534c-0.016,2.588 0,13.071 0,13.071c-8.696,9.654 -32.775,19.238 -59.962,20.279c-17.554,0.658 -60.104,-2.812 -59.967,-16.196" style="fill:#263238;fill-rule:nonzero;"/><path d="M6415.92,7290.04c11.737,-10.484 23.525,-20.709 34.254,-30.467c33.246,-30.329 58.579,-81.771 73.142,-116.858c8.3,-20.034 12.57,-41.425 12.57,-63.125l0,-68.35l119.93,0l0,114.254l-0.588,0.312c-5.783,24.913 -60.817,91.213 -92.1,134.425c-20.958,28.996 -60.767,65.85 -108.371,72.204c-45.087,6.025 -68.141,-8.191 -38.837,-42.395" style="fill:#ffa8a7;fill-rule:nonzero;"/><path d="M7077.62,5378.42c92.967,203.071 -3.35,918.454 -3.35,918.454c2.796,32.95 40.467,97.796 54.496,242.846c16.596,171.37 -26.025,601.7 -26.025,601.7c0,0 -55.521,36.304 -121.196,4.812c0,0 -114.292,-648.091 -135.783,-818.492c-18.784,-148.716 -54.775,-498.245 -54.775,-498.245l-102.325,497.445c0,0.001 26.37,90.438 28.35,175.209c2.325,100.679 -58.8,542.258 -58.8,542.258c-11.738,22.588 -101.13,28.004 -124.621,0.471c0,0 -52.742,-620.071 -63.246,-740.696c-6.3,-72.05 75.833,-955.487 75.833,-955.487l531.442,29.725Z" style="fill:#470700;fill-rule:nonzero;"/><path d="M6791,5829.5l-30.192,-166.058c0,0 -127.708,-26.459 -185.641,-80.9c0,0 60.762,75.57 151.041,100.346l33.904,145.208l-59.27,439.721l90.158,-438.317Z" style="fill:#35000d;fill-rule:nonzero;"/><path d="M6913.62,4672.89c70.988,17.083 127.567,65.762 157.396,128.733c22.708,47.933 22.967,103.504 5.642,153.646l-83.092,240.292c0,0 38.925,94.012 84.062,182.85c-208.47,116.354 -468.766,55.191 -531.441,-29.725c-2.654,-18 0.954,-99.184 -4.096,-191.542c-5.4,-98.492 -18.925,-209.708 -3.454,-270.575c28.766,-113.021 82.604,-219.096 189.791,-219.096l185.192,5.417Z" style="fill:#ff9758;fill-rule:nonzero;"/><path d="M6913.62,4672.89c71.146,10.066 181.908,24.15 230.813,197.046c47.691,168.612 58.854,227.395 58.854,227.395c0,0 -58.384,67.938 -176.421,67.38l-36.704,-129.913l-76.542,-361.908Z" style="fill:#ff9758;fill-rule:nonzero;"/><path d="M6643,4193.38c-28.175,16.65 -63.004,87.533 -59.583,236.113c2.916,125.92 43.75,157.029 64.237,165.987c20.488,8.975 60.033,3.508 98.438,-2.883l0,75.575c0,0 -53.092,61.666 -49.759,96.321c3.35,34.67 76.684,42.845 126.392,9.008c49.704,-33.871 81.563,-85.4 81.563,-85.4l0,-182.671c0,0 25.937,34.65 68.366,6.458c42.446,-28.179 44.046,-97.916 19.375,-122.954c-24.654,-25.05 -77.846,-17.116 -87.741,17.484c0,-0.001 -61.288,2.241 -142.9,-42.605c-81.617,-44.825 -112.971,-121.596 -118.388,-170.433" style="fill:#ffa8a7;fill-rule:nonzero;"/><path d="M6724.04,4397.84c-0.45,9.079 6.25,16.771 14.983,17.187c8.733,0.417 16.196,-6.612 16.65,-15.696c0.45,-9.062 -6.25,-16.75 -15,-17.166c-8.733,-0.417 -16.183,6.612 -16.633,15.675" style="fill:#263238;fill-rule:nonzero;"/><path d="M6719.83,4504.58l-36.791,11.738c3.058,10.521 13.771,16.441 23.925,13.196c10.158,-3.23 15.921,-14.413 12.866,-24.934" style="fill:#f28f8f;fill-rule:nonzero;"/><path d="M6594.21,4349.23l32.05,-22.204c-5.85,-9.167 -17.779,-11.596 -26.633,-5.471c-8.817,6.129 -11.267,18.525 -5.417,27.675" style="fill:#263238;fill-rule:nonzero;"/><path d="M6601.58,4386.4c-0.45,9.062 6.25,16.771 14.984,17.171c8.733,0.416 16.183,-6.596 16.633,-15.675c0.467,-9.079 -6.25,-16.754 -14.983,-17.171c-8.734,-0.417 -16.196,6.596 -16.634,15.675" style="fill:#263238;fill-rule:nonzero;"/><path d="M6676.29,4377.33l-2.538,95.329l-50.154,-15.537l52.692,-79.792Z" style="fill:#f28f8f;fill-rule:nonzero;"/><path d="M6746.12,4592.59c40.504,-5.313 123.821,-29.255 136.808,-62.188c0,0 -4.325,20.692 -29.22,42.029c-24.88,21.338 -107.588,45.367 -107.588,45.367l0,-25.208Z" style="fill:#f28f8f;fill-rule:nonzero;"/><path d="M7018.96,5122.25c0,0 -26.354,-69.879 -40.883,-131.896c0,0 6.65,98.125 34.321,150.871l6.562,-18.975Z" style="fill-opacity:0.1;fill-rule:nonzero;"/><path d="M6083.33,4981.42l459.721,121.091l135.713,570.538l-437.084,-126.942l-158.35,-564.687Z" style="fill:#e0e0e0;fill-rule:nonzero;"/><path d="M6283.79,5358.96c-4.254,11.65 -29.409,43.996 -82.934,41.442l-6.616,-23.592l89.55,-17.85Z" style="fill-opacity:0.1;fill-rule:nonzero;"/><path d="M6386.5,5376.79c2.033,15.191 33.3,43.366 86.146,60.987c60.121,20.038 152.396,9.446 152.396,9.446l-8.263,-28.383l-230.279,-42.05Z" style="fill-opacity:0.1;fill-rule:nonzero;"/><path d="M6217.96,5064.04c0,0 -1.704,-7.85 -3.804,-17.538c-2.083,-9.687 24.896,-10.104 60.263,-0.917l67.741,17.551c35.367,9.183 65.746,24.462 67.85,34.149l3.784,17.534l-195.834,-50.779Z" style="fill-opacity:0.1;fill-rule:nonzero;"/><path d="M6186.08,4997.92c-1.316,-6.042 9.6,-7.642 24.413,-3.542l26.821,7.413c0,0 -7.988,-37.917 51.529,-24.671c59.529,13.246 72.533,56.304 72.533,56.304c0,0 12.813,3.646 28.629,8.142c15.817,4.495 30.154,13.02 32.029,19.045l3.388,10.9l-236.804,-62.341c0,0 -1.2,-5.192 -2.538,-11.25" style="fill:#37474f;fill-rule:nonzero;"/><path d="M6218.71,5016.83c21.7,5.242 30.73,8.125 33.959,23.054c3.696,17.05 5.208,29.55 5.208,29.55l104.825,27.688c0,0 -5.067,-21.579 -6.7,-29.996c-1.617,-8.404 1.963,-13.475 18.629,-9.067l1.421,-6.683l-164.233,-41.804l6.891,7.258Z" style="fill:#37474f;fill-rule:nonzero;"/><path d="M6215.08,5065.71c0,0 -1.7,-7.85 -3.783,-17.537c-2.1,-9.688 24.879,-10.104 60.258,-0.917l67.73,17.55c35.362,9.183 65.745,24.463 67.862,34.15l3.767,17.533l-195.834,-50.779Z" style="fill:#37474f;fill-rule:nonzero;"/><path d="M7189.5,5365.67l-140.85,-113.042c0,0 -311.25,55.454 -347.812,58.317c-36.58,2.883 -77.205,-22.95 -91.146,-58.855c-13.942,-35.9 -38.504,-31.441 -38.504,-31.441c0,0 10.833,45.521 14.287,60.037c3.438,14.53 -84.221,26.475 -132.812,10.017c-48.613,-16.458 -118.996,7.429 -75.4,73.629c43.591,66.213 128.35,73.838 187.258,73.888c16.283,0.016 45.208,-1.234 73.625,-4.913c19.062,-2.483 38.021,-4.408 57.187,-5.783c120.542,-8.575 439.375,-44.65 494.167,-61.854" style="fill:#ffa8a7;fill-rule:nonzero;"/><path d="M6130.12,5148.25c0,0 16.479,58.729 20.4,72.758c3.925,14.013 57.379,39.479 91.183,48.767c33.784,9.271 70.746,20.279 54.755,67.538c-14.759,43.558 -70.346,53.504 -98.663,52.27c-28.3,-1.229 -67.067,-28.295 -82.342,-71.908c-19.483,-55.642 -8.979,-115.071 -16.72,-147.571c-7.725,-32.479 14.445,-41.229 31.387,-21.854" style="fill:#ffa8a7;fill-rule:nonzero;"/><path d="M7223.04,4774.33c-92.429,0 -167.38,-74.933 -167.38,-167.362l0.001,-392.846c92.45,0 167.379,74.946 167.379,167.379l0,392.829Z" style="fill:#263238;fill-rule:nonzero;"/><path d="M7050.38,4227.9l69.463,-37.275c-9.842,-19.913 -33.405,-27.688 -52.571,-17.396c-19.184,10.296 -26.734,34.775 -16.892,54.671" style="fill:#263238;fill-rule:nonzero;"/></g><g id="Cloud"></g></svg>