<?xml version="1.0" encoding="UTF-8" standalone="no"?><!DOCTYPE svg PUBLIC "-//W3C//DTD SVG 1.1//EN" "http://www.w3.org/Graphics/SVG/1.1/DTD/svg11.dtd"><svg width="100%" height="100%" viewBox="0 0 3334 1250" version="1.1" xmlns="http://www.w3.org/2000/svg" xmlns:xlink="http://www.w3.org/1999/xlink" xml:space="preserve" xmlns:serif="http://www.serif.com/" style="fill-rule:evenodd;clip-rule:evenodd;stroke-linejoin:round;stroke-miterlimit:2;"><g id="Calque_1-2"><rect x="119.527" y="279.681" width="706.62" height="710.449" style="fill:#fff;"/><rect x="133.622" y="293.775" width="678.486" height="678.486" style="fill:#0071b6;"/><path d="M195.106,555.415c-109.706,11.098 -164.753,28.91 -164.753,28.91c0,0 -1.664,21.309 -6.381,50.386c0,0 73.581,-16.647 117.641,-21.142l44.836,-20.254l8.657,-37.9Z" style="fill:#00aadf;fill-rule:nonzero;"/><path d="M110.982,663.511c-63.204,11.098 -97.165,19.921 -97.165,19.921c5.549,-26.025 10.322,-48.666 10.322,-48.666c0,0 73.469,-16.647 117.585,-21.197l-30.742,49.942Z" style="fill:#fff;fill-rule:nonzero;"/><path d="M110.982,663.511l0,50.885c0,0 -85.623,16.647 -110.982,24.083c5.49,-18.108 10.064,-36.48 13.706,-55.047c3.642,-18.568 34.016,-8.934 97.276,-19.921" style="fill:#de2a1c;fill-rule:nonzero;"/><path d="M189.002,632.491c0,0 -74.968,-2.552 -74.413,-13.04c-0.213,-2.588 1.057,-5.085 3.273,-6.437c5.106,-4.661 31.908,-16.647 82.349,-36.513l-11.209,55.99Z" style="fill:#fff;fill-rule:nonzero;"/><path d="M472.782,930.199c163.409,0 297.874,-134.465 297.874,-297.874c0,-163.409 -134.465,-297.875 -297.874,-297.875c-163.409,0 -297.875,134.466 -297.875,297.875c0,0.018 0,0.037 0,0.055c0,163.379 134.44,297.819 297.819,297.819c0.019,0 0.037,0 0.056,0" style="fill:#ffdf00;fill-rule:nonzero;"/><path d="M108.318,665.619c1.72,8.046 11.098,10.044 44.892,13.041c33.794,2.996 143.277,5.105 275.734,-3.718c155.374,-10.322 327.396,-55.491 461.85,-98.829c-3.385,8.934 -11.819,29.798 -15.038,39.343c-2.164,6.381 -3.773,12.263 -5.549,18.312c-132.29,41.784 -297.597,84.179 -447.201,94.334c-91.837,6.244 -184.005,5.873 -275.789,-1.11c-33.572,-2.996 -43.116,-4.994 -44.892,-13.04l5.993,-48.333Z" style="fill:#fff;fill-rule:nonzero;"/><path d="M114.311,617.453c1.776,7.991 11.098,10.044 44.948,13.041c33.849,2.996 143.221,0.277 275.734,-8.546c163.753,-11.098 346.262,-60.707 483.768,-105.987c-10.632,19.382 -19.903,39.482 -27.745,60.152c-134.843,43.338 -306.864,88.507 -462.072,98.829c-132.457,8.823 -242.106,6.714 -275.734,3.718c-33.627,-2.997 -43.172,-4.995 -44.892,-13.041l5.993,-48.166Z" style="fill:#00aadf;fill-rule:nonzero;"/><path d="M96.277,761.951c1.72,8.047 11.098,10.044 44.892,13.041c91.594,9.514 183.815,11.5 275.734,5.937c146.384,-9.766 307.696,-50.552 438.377,-91.449c3.959,-18.849 8.886,-37.481 14.761,-55.823c-132.346,41.784 -297.598,84.179 -447.201,94.334c-91.837,6.244 -184.005,5.873 -275.789,-1.11c-33.572,-2.996 -43.117,-4.994 -44.892,-13.04l-5.882,48.11Z" style="fill:#de2a1c;fill-rule:nonzero;"/><path d="M472.782,906.949c0.055,0 0.111,0 0.166,0c149.863,0 273.182,-123.319 273.182,-273.181c0,-149.863 -123.319,-273.182 -273.182,-273.182c-149.863,0 -273.181,123.319 -273.181,273.182c0,149.799 123.215,273.09 273.015,273.181" style="fill:#ffdf00;fill-rule:nonzero;"/><path d="M390.489,419.684c-7.228,130.433 -7.228,261.166 0,391.599l-77.243,19.033c-5.549,-89.507 -12.264,-232.784 0,-384.218l77.243,-26.414Z" style="fill:#0071b6;fill-rule:nonzero;"/><path d="M695.189,685.152c0,0 -46.89,113.479 -236.224,200.655l-13.318,-81.572c104.544,-49.386 156.65,-121.247 156.65,-121.247c-32.961,-16.647 -110.981,-31.519 -160.923,-30.742l0,-69.918c80.906,-30.52 119.083,-86.955 119.083,-86.955c-23.861,-13.262 -89.95,-17.923 -133.178,-5.937l0.888,-76.244c72.138,-11.986 175.185,7.824 200.655,23.417c0,0 15.093,75.578 14.871,77.187c0,0 -33.294,46.946 -77.298,74.414c0,0 65.756,8.878 117.196,37.289c0,0 10.599,59.32 11.431,59.653" style="fill:#0071b6;fill-rule:nonzero;"/><path d="M1080.3,643.145l0,33.295l27.746,0c15.704,0 27.745,-2.997 27.745,-16.647c0,-15.649 -14.872,-16.648 -35.181,-16.648l-20.31,0Zm0,-62.316l0,29.743l26.525,0c12.707,0 21.919,-5.16 21.919,-15.593c0,-13.928 -12.43,-14.15 -25.97,-14.15l-22.474,0Zm-63.87,137.007l0,-178.736l93.391,0c43.838,0 78.742,9.434 78.742,44.948c0,18.367 -12.985,31.741 -25.415,38.843c19.167,4.014 32.815,21.38 32.185,40.953c0,40.008 -33.295,53.881 -83.902,53.881l-95.001,0.111Z" style="fill:#0071b6;fill-rule:nonzero;"/><path d="M1272.96,627.497c0,22.807 7.603,51.385 38.178,51.385c27.745,0 38.455,-21.864 38.455,-51.385c0,-24.36 -11.098,-49.942 -38.843,-49.442c-28.967,0 -37.623,26.857 -37.623,49.442m140.503,0c0,61.04 -44.671,95.056 -102.326,95.056c-61.039,0 -102.047,-34.737 -102.047,-95.555c0,-56.102 41.396,-92.615 102.047,-92.615c69.53,0 102.326,45.947 102.326,93.114" style="fill:#0071b6;fill-rule:nonzero;"/><path d="M1433.99,539.1l63.87,0l0,106.987c0,17.646 3.773,32.795 30.02,32.795c23.029,0 29.799,-13.429 29.799,-32.795l0,-106.987l63.87,0l0,101.049c0,57.322 -28.967,82.404 -93.669,82.404c-60.318,0 -93.89,-21.087 -93.89,-82.681l0,-100.772Z" style="fill:#0071b6;fill-rule:nonzero;"/><path d="M1771.99,607.354c-1.886,-18.59 -14.594,-29.299 -34.626,-29.299c-22.196,0 -36.014,17.646 -36.014,52.161c0,25.082 5.938,48.666 38.456,48.666c20.587,0 30.298,-13.152 32.739,-30.298l61.428,0c-5.549,46.168 -41.673,73.969 -93.113,73.969c-64.425,0 -103.38,-36.236 -103.38,-94.335c0,-58.098 42.784,-93.835 97.165,-93.835c59.542,0 92.836,27.08 97.997,72.971l-60.652,0Z" style="fill:#0071b6;fill-rule:nonzero;"/><path d="M1851.84,717.836l0,-178.736l63.869,0l0,60.319l60.374,0l0,-60.319l63.87,0l0,178.736l-63.87,0l0,-69.252l-60.374,0l0,69.252l-63.869,0Z" style="fill:#0071b6;fill-rule:nonzero;"/><path d="M2070.2,717.836l0,-178.736l158.87,0l0,41.674l-95,0l0,25.581l80.406,0l0,41.729l-80.406,0l0,28.079l98.829,0l0,41.673l-162.699,0Z" style="fill:#0071b6;fill-rule:nonzero;"/><path d="M2356.53,590.984c-0.775,-5.376 -4.287,-9.982 -9.266,-12.152c-5.238,-2.307 -10.928,-3.407 -16.648,-3.219c-14.094,0 -20.309,3.718 -20.309,10.155c0,26.802 112.036,10.21 112.036,75.246c0,41.451 -37.623,61.539 -91.172,61.539c-51.44,0 -85.012,-27.746 -86.344,-59.819l61.04,0c1.212,6.056 5.087,11.257 10.544,14.15c5.57,3.01 11.814,4.557 18.145,4.495c15.981,0 26.525,-4.717 26.525,-13.207c0,-27.024 -112.036,-8.435 -112.036,-76.688c0,-38.012 35.736,-57.101 84.457,-57.101c54.103,0 78.741,25.304 83.236,56.601l-60.208,0Z" style="fill:#0071b6;fill-rule:nonzero;"/><path d="M1070.97,924.65l12.319,0c27.024,0 41.784,-14.427 41.784,-48.166c0,-37.234 -12.041,-47.167 -43.061,-47.167l-11.098,0l0.056,95.333Zm-57.988,41.674l0,-178.958l77.687,0c56.989,0 92.392,26.802 92.392,85.678c0,67.255 -37.123,93.058 -93.89,93.058l-76.189,0.222Z" style="fill:#0071b6;fill-rule:nonzero;"/><path d="M1201.93,787.366l57.988,0l0,107.042c0,17.591 3.44,32.739 27.301,32.739c20.921,0 27.024,-13.428 27.024,-32.739l0,-107.042l58.044,0l0,101.049c0,57.377 -26.303,82.404 -85.068,82.404c-54.824,0 -85.289,-21.087 -85.289,-82.682l0,-100.771Z" style="fill:#0071b6;fill-rule:nonzero;"/><path d="M1537.43,864.554l22.862,0c17.979,0 27.745,-4.439 27.745,-16.647c0,-12.208 -9.822,-18.59 -23.361,-18.59l-27.024,0l-0.222,35.237Zm0,39.232l0,62.316l-57.988,0l0,-178.736l83.569,0c58.987,0 78.408,16.148 78.408,50.885c0,20.643 -9.1,38.011 -29.743,43.727c18.701,6.936 30.021,11.431 30.021,47.389c0,23.362 -0.777,31.297 6.104,31.297l0,5.549l-58.765,0c-2.356,-10.238 -3.345,-20.743 -2.941,-31.241c0,-23.362 -3.94,-31.075 -30.964,-31.075l-17.701,-0.111Z" style="fill:#0071b6;fill-rule:nonzero;"/><path d="M1669.16,966.102l0,-178.736l58.043,0l0,60.319l54.825,0l0,-60.319l57.988,0l0,178.736l-57.988,0l0,-69.252l-54.825,0l0,69.252l-58.043,0Z" style="fill:#0071b6;fill-rule:nonzero;"/><path d="M1921.15,875.763c0,22.807 6.88,51.384 34.626,51.384c25.082,0 34.904,-21.863 34.904,-51.384c0,-24.36 -9.822,-49.942 -35.404,-49.387c-25.581,0.555 -34.126,26.802 -34.126,49.387m15.481,-141.502l40.342,0l29.965,36.735l-36.346,0l-13.817,-18.867l-13.762,18.867l-36.125,0l29.743,-36.735Zm112.369,141.502c0,61.04 -40.563,95.056 -92.947,95.056c-55.491,0 -92.669,-34.737 -92.669,-95.555c0,-56.102 37.622,-92.615 92.669,-92.615c63.204,0 92.947,45.947 92.947,93.114" style="fill:#0071b6;fill-rule:nonzero;"/><path d="M2189.28,884.919l-2.219,-40.675l0,-56.878l55.546,0l0,178.736l-54.326,0l-63.148,-97.331l2.219,40.73l0,56.601l-55.546,0l0,-178.736l54.326,0l63.148,97.553Z" style="fill:#0071b6;fill-rule:nonzero;"/><path d="M2274.79,966.102l0,-178.736l144.331,0l0,41.729l-86.288,0l0,25.581l72.97,0l0,41.674l-72.97,0l0,28.078l89.729,0l0,41.674l-147.772,0Z" style="fill:#0071b6;fill-rule:nonzero;"/><path d="M1021.81,412.137l27.246,0c9.72,0.657 19.443,-1.257 28.189,-5.549c16.037,-8.268 20.032,-28.966 20.032,-45.502c0,-17.757 -3.828,-37.124 -20.698,-46.224c-8.768,-3.655 -18.269,-5.213 -27.745,-4.55l-27.246,0l0.222,101.825Zm-11.098,9.767l0,-121.47l41.118,0c13.318,0 25.859,0.833 37.068,9.101c15.871,11.653 20.032,35.292 20.032,51.495c0,16.204 -3.495,33.905 -14.538,46.058c-11.043,12.152 -26.691,14.816 -42.562,14.816l-41.118,0Z" style="fill:#0071b6;fill-rule:nonzero;"/><path d="M1183.79,291.001l18.534,-23.473l12.929,0l-22.918,23.473l-8.545,0Zm-27.746,130.903l0,-121.47l80.018,0l0,9.822l-68.809,0l0,43.838l61.984,0l0,9.766l-61.984,0l0,48.277l70.196,0l0,9.767l-81.405,0Z" style="fill:#0071b6;fill-rule:nonzero;"/><path d="M1319.68,358.644c21.253,0 34.404,-4.384 34.404,-24.971c0,-15.204 -9.656,-23.25 -31.019,-23.25l-29.411,0l0,48.221l26.026,0Zm-37.401,63.26l0,-121.47l43.949,0c31.241,0 39.232,15.704 39.232,33.905c0,27.191 -23.862,33.905 -46.058,33.905l-25.748,0l0,53.66l-11.375,0Z" style="fill:#0071b6;fill-rule:nonzero;"/><path d="M1416.07,374.015l47.112,0l-23.584,-63.759l-23.528,63.759Zm-29.743,47.889l47.278,-121.47l12.874,0l46.224,121.47l-11.653,0l-13.873,-38.123l-54.825,0l-14.15,38.123l-11.875,0Z" style="fill:#0071b6;fill-rule:nonzero;"/><path d="M1580.21,356.979c16.647,0 29.91,-7.102 29.91,-24.138c0,-18.201 -14.04,-22.585 -29.244,-22.585l-36.069,0l0,46.723l35.403,0Zm-35.403,9.767l0,55.158l-11.376,0l0,-121.47l47.112,0c26.358,0 40.897,9.489 40.897,31.907c0,15.371 -5.549,23.418 -19.533,29.688c14.206,4.883 15.038,20.088 15.371,32.906c0.499,18.368 1.998,23.417 4.994,25.803l0,1.166l-12.485,0c-4.717,-8.269 -3.552,-31.02 -5.55,-40.342c-2.663,-13.152 -12.485,-14.816 -23.861,-14.816l-35.569,0Z" style="fill:#0071b6;fill-rule:nonzero;"/><path d="M1656.01,300.434l87.509,0l0,9.822l-38.066,0l0,111.648l-11.32,0l0,-111.648l-38.123,0l0,-9.822Z" style="fill:#0071b6;fill-rule:nonzero;"/><path d="M1784.64,421.904l0,-121.47l79.962,0l0,9.822l-68.642,0l0,43.838l61.984,0l0,9.766l-61.984,0l0,48.277l70.307,0l0,9.767l-81.627,0Z" style="fill:#0071b6;fill-rule:nonzero;"/><path d="M1910.99,421.904l0,-121.47l17.424,0l39.398,107.153l0.333,0l38.733,-107.153l17.202,0l0,121.47l-11.376,0l0,-108.318l-0.333,0l-39.398,108.318l-10.654,0l-39.621,-108.318l-0.333,0l0,108.318l-11.375,0Z" style="fill:#0071b6;fill-rule:nonzero;"/><path d="M2075.52,421.904l0,-121.47l79.962,0l0,9.822l-68.642,0l0,43.838l61.983,0l0,9.766l-61.983,0l0,48.277l70.307,0l0,9.767l-81.627,0Z" style="fill:#0071b6;fill-rule:nonzero;"/><path d="M2213.75,315.972l-0.333,0l0,105.932l-11.32,0l0,-121.47l12.818,0l69.474,106.099l0.333,0l0,-106.099l11.376,0l0,121.47l-13.207,0l-69.141,-105.932Z" style="fill:#0071b6;fill-rule:nonzero;"/><path d="M2337,300.434l87.509,0l0,9.822l-38.067,0l0,111.648l-11.376,0l0,-111.648l-38.066,0l0,-9.822Z" style="fill:#0071b6;fill-rule:nonzero;"/><path d="M1436.21,906.893l-20.698,0l0,-62.038l20.698,0l0,62.038Zm1043.51,-245.657l-20.698,0l0,-61.984l20.698,0l0,61.984Z" style="fill:#0071b6;fill-rule:nonzero;"/><path d="M3011.32,913.552c0,17.258 21.642,53.216 25.803,55.491l4.162,2.442c-2.497,-1.776 0,-5.938 0,-14.04c-2.415,-15.325 -7.766,-30.041 -15.759,-43.338c-7.103,-10.044 -13.484,-19.089 -11.098,-29.299c2.386,-10.21 -3.33,-29.41 -7.825,-38.178c-7.435,-14.427 -7.935,-25.47 -6.936,-41.451c0.999,-15.982 27.745,-55.491 35.015,-64.481c10.343,-10.047 22.639,-17.866 36.124,-22.973c6.659,-1.665 34.072,-1.554 40.453,-3.163c6.382,-1.609 21.42,-18.867 24.361,-23.972c2.941,-5.105 17.868,-31.408 23.583,-35.569c5.716,-4.162 33.295,2.663 38.122,2.164c4.828,-0.5 25.304,-22.696 31.408,-28.412c13.806,-12.936 28.511,-24.878 44.004,-35.736c-8.328,1.986 -16.289,5.283 -23.583,9.767c-17.692,13.585 -34.676,28.069 -50.885,43.393c-6.437,6.548 -17.369,-9.433 -34.183,-8.49c-16.813,0.944 -37.123,40.398 -44.392,48.277c-7.27,7.88 -26.136,14.705 -35.792,16.093c-9.655,1.387 -26.469,1.886 -48.499,4.883c-22.03,2.996 -60.374,55.102 -60.374,55.102c5.649,-17.408 9.371,-35.384 11.098,-53.604c1.69,-20.769 -1.405,-41.653 -9.045,-61.04c-5.853,-14.502 -7.916,-30.259 -5.993,-45.78c1.05,-10.204 5.763,-19.691 13.263,-26.691c4.217,-3.829 40.064,-19.422 56.156,-27.745c10.858,-6.434 20.297,-15.005 27.746,-25.193c10.487,-10.266 7.38,-61.373 10.099,-72.859c2.053,-8.99 12.374,-20.144 29.965,-34.793c7.935,-6.604 -3.995,-46.779 -3.995,-46.779c0,0 -0.5,23.251 0,33.295c0.499,10.043 -8.268,13.872 -17.535,19.588c-9.267,5.715 -13.762,19.089 -18.312,28.966c-4.551,9.877 -2.775,36.513 -5.549,52.716c-2.775,16.204 -27.746,24.86 -35.404,30.243c-7.657,5.382 -33.793,27.024 -49.941,32.406c-16.148,5.383 -23.584,2.775 -25.36,0.888c-1.775,-1.886 -6.603,-25.858 -9.378,-39.398c-3.995,-19.755 -12.873,-14.261 -19.31,-15.649c-6.437,-1.387 -27.024,-18.201 -35.071,-27.745c-9.149,-12.501 -15.8,-26.652 -19.588,-41.674c-1.498,-9.322 -4.55,-61.039 -4.55,-61.039c0,0 -2.275,18.256 -3.108,39.62c-0.832,21.364 1.166,46.612 9.434,61.04c8.268,14.427 33.294,34.349 49.942,42.617c16.647,8.268 14.316,17.812 14.205,28.189c-0.94,13.865 -0.755,27.783 0.555,41.618c2.109,12.486 16.647,50.386 22.197,68.032c3.328,13.237 3.745,27.039 1.22,40.453c-3.107,9.822 -5.549,10.432 -5.549,10.432c0,0 -2.219,-13.873 -3.884,-20.92c-0.404,-2.924 -2.93,-5.125 -5.882,-5.125c-0.74,0 -1.475,0.138 -2.164,0.408c-5.549,-0.388 -5.549,-18.09 -3.885,-23.972c1.665,-5.882 1.776,-13.872 -2.108,-27.745c-3.885,-13.873 -45.225,-25.637 -54.992,-28.411c-9.766,-2.775 -49.22,-14.705 -49.22,-14.705c0,0 -13.04,-22.197 -17.258,-31.852c-4.217,-9.656 -11.098,-23.972 -13.928,-25.526c-8.83,-3.247 -17.856,-5.935 -27.024,-8.046c-6.77,-1.554 -52.106,0 -59.264,-2.886c-7.158,-2.885 -26.691,-39.898 -26.691,-39.898c0,0 0,6.16 7.547,24.638c7.546,18.479 18.312,23.972 24.305,25.915c5.993,1.942 32.85,-1.221 47.444,-1.332c14.594,-0.111 24.805,8.379 33.295,17.868c8.49,9.489 18.478,40.675 18.478,40.675c-6.344,-1.464 -12.776,-2.52 -19.255,-3.163c-13.931,-1.867 -28.069,-1.53 -41.896,0.998c-16.647,3.774 -51.939,29.022 -62.205,36.569c-10.266,7.547 -43.505,56.545 -43.505,56.545c0,0 12.375,-10.432 18.035,-16.647c5.66,-6.215 18.589,-17.147 24.083,-22.696c14.513,-13.149 29.74,-25.487 45.613,-36.957c6.049,-3.163 29.521,-11.098 29.521,-11.098c8.546,-2.386 35.625,-0.943 43.283,0.61c12.916,3.824 25.591,8.419 37.956,13.762c6.437,2.719 33.294,13.928 36.568,15.704c3.274,1.776 16.648,19.755 24.583,31.019c6.344,9.287 9.624,20.331 9.378,31.575c-0.722,5.993 18.978,55.047 13.706,65.756c-5.272,10.71 -7.047,51.551 -4.55,65.757c2.497,14.206 14.76,65.59 10.321,75.079c-4.439,9.489 -24.194,46.057 -34.904,57.71c-10.709,11.653 -68.475,8.768 -80.905,16.648c-12.43,7.879 -46.002,8.434 -62.927,13.206c-13.789,4.045 -28.297,5.029 -42.506,2.886c-14.209,-2.143 66.589,-15.204 74.413,-15.593c7.824,-0.388 15.316,1.776 17.924,-2.83c2.608,-4.606 26.302,-4.939 29.576,-5.549c4.292,-1.127 8.774,-1.335 13.152,-0.61l6.936,-3.885c0.611,-0.777 3.441,0.666 7.436,-5.105c6.659,-9.655 6.104,-5.161 14.261,-7.769c8.157,-2.608 18.7,-3.107 21.087,-6.104c2.941,-5.641 4.519,-11.894 4.605,-18.256c0.888,-8.435 0.888,-12.708 2.386,-23.75c1.499,-11.043 22.197,-61.429 22.197,-61.429c0,0 3.274,34.127 3.496,38.844c0.721,16.647 -2.386,13.54 -8.435,29.355c-2.331,6.048 -10.377,15.315 -11.431,26.08c-0.004,6.432 -3.824,12.282 -9.711,14.872c-3.884,2.83 -3.94,7.88 -13.651,10.044c-6.763,1.252 -13.167,3.98 -18.756,7.99c-4.161,2.83 -6.991,5.55 -8.601,6.604c-4.544,1.442 -8.947,3.3 -13.151,5.549c0.444,-3.33 0.277,1.11 0,1.887c-1.443,4.05 -10.377,4.439 -14.761,5.549c-4.383,1.109 -7.546,9.655 -9.433,13.317c-1.887,3.663 -24.194,4.828 -24.194,4.828c7.444,1.779 15.012,2.985 22.64,3.607c8.046,0 14.539,-12.985 21.142,-16.37c6.604,-3.385 22.197,-4.383 30.354,-6.825c8.157,-2.442 26.025,0.555 34.127,3.163c10.48,2.229 21.205,3.087 31.907,2.552c13.262,0 34.626,-2.441 38.843,-2.719c4.218,-0.277 23.251,5.55 28.19,6.326c4.938,0.777 14.538,-6.381 16.647,-7.269c2.109,-0.888 23.029,3.385 35.681,4.994c12.651,1.609 35.902,-1.221 30.741,-1.387c-7.768,0 -25.248,-2.83 -25.248,-2.83c8.785,-4.071 18.649,-5.219 28.134,-3.274c14.272,3.332 28.78,5.558 43.394,6.659c9.988,0.721 72.471,-2.442 72.471,-2.442c-12.97,-1.885 -26.073,-2.702 -39.177,-2.441c-14.725,0.347 -29.443,-0.918 -43.893,-3.774c-14.45,-2.855 -9.6,-2.053 -27.468,-7.213c-17.868,-5.161 -34.793,5.105 -39.731,5.937c-7.284,0.258 -14.543,-1.008 -21.309,-3.718c-6.766,-2.71 -18.312,-5.549 -22.807,-11.098c-4.591,-4.947 -8.68,-10.338 -12.208,-16.092c-3.884,-6.881 -6.825,-27.746 -8.49,-37.512c-1.664,-9.767 -12.652,-8.157 -15.482,-12.042c-2.83,-3.884 3.829,-15.093 0.611,-26.524c-3.219,-11.431 -16.647,-34.682 -15.649,-38.511c0.999,-3.829 6.992,-6.992 14.428,-17.479c8.879,-12.486 10.266,-16.648 7.88,-21.087c-2.606,-4.899 -6.428,-9.046 -11.098,-12.042c-2.775,-1.553 -24.416,2.886 -24.416,-6.658c0,-5.549 8.434,-31.353 6.492,-35.903c-1.18,-2.817 -1.838,-5.826 -1.942,-8.878l-4.106,-12.153c-0.5,-1.165 -0.444,-1.387 -0.444,-1.387l0.444,1.387c0.61,1.221 1.831,3.551 4.55,7.88c5.16,8.212 6.215,6.437 7.547,14.427c1.331,7.991 5.549,19.2 6.436,23.306c0.888,4.107 9.267,1.721 17.036,10.377c2.882,5.507 5.206,11.288 6.937,17.258c0.78,5.405 0.11,10.921 -1.943,15.981c-1.942,4.495 -13.373,22.197 -14.039,28.245" style="fill:#0071b6;fill-rule:nonzero;"/><path d="M3096.78,358.644c-2.719,-10.044 -1.609,-36.79 7.491,-49.942c6.215,-9.156 3.607,-15.926 6.659,-19.588c3.336,7.24 5.221,15.064 5.549,23.029c0,18.922 -13.262,38.51 -19.755,46.668" style="fill:#0071b6;fill-rule:nonzero;"/><path d="M3107.49,370.02c10.099,-2.164 33.294,-8.435 55.213,-3.607c9.701,2.853 19.018,6.878 27.745,11.986c-8.179,0.94 -16.404,1.421 -24.637,1.443c-19.869,0.209 -39.617,-3.117 -58.321,-9.822" style="fill:#0071b6;fill-rule:nonzero;"/><path d="M3089.78,369.742c-7.769,-5.049 -28.522,-19.754 -33.294,-35.07c-3.274,-10.599 -5.161,-18.09 -6.215,-22.751c6.506,3.031 12.453,7.139 17.59,12.152c12.486,13.263 19.367,35.681 21.808,45.669" style="fill:#0071b6;fill-rule:nonzero;"/><path d="M3125.13,359.809c-6.881,5.549 -15.094,7.325 -18.368,3.385c-3.274,-3.94 -0.333,-11.708 6.548,-17.479c6.881,-5.771 15.094,-7.325 18.368,-3.441c3.274,3.885 0.333,11.764 -6.548,17.535" style="fill:#0071b6;fill-rule:nonzero;"/><path d="M3006.49,390.662c8.602,1.942 28.634,0 41.951,19.866c4.463,6.145 9.241,12.053 14.317,17.702c-3.94,-0.777 -10.432,-2.331 -19.588,-4.884c-13.373,-3.662 -30.576,-24.749 -36.68,-32.684" style="fill:#0071b6;fill-rule:nonzero;"/><path d="M3109.7,406.366c9.545,-2.33 35.736,-7.658 51.218,-0.388c10.655,4.938 17.979,8.767 22.197,11.098c-4.384,1.11 -13.596,-3.662 -24.028,-1.776c-15.26,2.664 -39.953,-3.94 -49.609,-9.1" style="fill:#0071b6;fill-rule:nonzero;"/><path d="M2900.28,439.217c-7.325,0.832 -13.595,-1.554 -14.039,-5.549c-0.444,-3.996 5.105,-7.658 12.374,-8.546c7.27,-0.888 13.54,1.554 13.984,5.549c0.444,3.996 -5.05,7.658 -12.319,8.546" style="fill:#0071b6;fill-rule:nonzero;"/><path d="M2864.33,410.916c6.659,-8.712 25.692,-31.851 44.393,-36.901c12.818,-3.496 22.196,-5.549 27.745,-6.714c-5.049,6.562 -10.988,12.39 -17.646,17.313c-16.368,11.914 -34.726,20.821 -54.215,26.302" style="fill:#0071b6;fill-rule:nonzero;"/><path d="M2854.89,374.792c-3.892,-15.484 -4.44,-31.621 -1.61,-47.334c1.953,-7.623 4.862,-14.969 8.657,-21.863c2.115,6.482 3.602,13.154 4.439,19.921c2.331,20.92 -7.491,39.787 -11.486,49.276" style="fill:#0071b6;fill-rule:nonzero;"/><path d="M2891.07,346.048c-5.55,4.439 -11.931,5.549 -14.484,2.497c-2.552,-3.052 0,-9.212 5.55,-13.706c5.549,-4.495 11.93,-5.55 14.483,-2.498c2.552,3.052 0,9.212 -5.549,13.707" style="fill:#0071b6;fill-rule:nonzero;"/><path d="M2861.99,435.61c7.325,1.387 27.024,5.826 35.292,15.704c5.55,6.77 9.489,11.764 11.709,14.871c-3.385,-0.61 -8.934,-1.72 -16.647,-3.662c-11.098,-2.941 -16.647,-17.646 -30.298,-26.913" style="fill:#0071b6;fill-rule:nonzero;"/><path d="M2793.02,318.802c8.435,5.549 30.409,19.532 38.844,45.336c3.829,12.041 8.878,14.816 11.098,20.087c-3.94,-2.608 -10.321,-7.102 -19.2,-13.872c-12.985,-10.044 -25.859,-40.287 -30.298,-51.551" style="fill:#0071b6;fill-rule:nonzero;"/><path d="M2819.43,395.656c-6.104,-4.106 -9.212,-10.21 -6.881,-13.65c2.331,-3.441 9.156,-2.941 15.26,1.165c6.104,4.106 9.211,10.21 6.881,13.651c-2.331,3.44 -9.156,2.941 -15.26,-1.166" style="fill:#0071b6;fill-rule:nonzero;"/><path d="M2775.43,422.57c7.491,-4.995 23.583,-19.145 48.221,-12.985c10.266,2.497 15.26,-3.552 20.032,-3.108c-3.44,2.331 -9.156,6.049 -17.535,11.098c-12.43,7.159 -40.397,5.882 -50.718,5.105" style="fill:#0071b6;fill-rule:nonzero;"/><path d="M3091.12,391.939c-6.326,2.497 -23.639,8.601 -32.962,3.662c-6.437,-3.385 -11.098,-6.104 -13.428,-7.824c2.885,-1.221 7.713,-3.052 14.538,-5.549c10.1,-3.163 26.081,5.826 31.852,9.489" style="fill:#0071b6;fill-rule:nonzero;"/><path d="M2635.81,479.17c-8.879,-1.332 -15.482,-6.437 -14.761,-11.486c0.722,-5.05 8.546,-8.047 17.424,-6.715c8.879,1.332 15.538,6.382 14.761,11.431c-0.777,5.05 -8.601,8.324 -17.424,6.77" style="fill:#0071b6;fill-rule:nonzero;"/><path d="M3055.93,376.179c-7.103,-1.72 -12.153,-6.159 -11.098,-9.933c1.054,-3.773 7.435,-5.549 14.538,-3.662c7.103,1.887 12.208,6.104 11.098,9.877c-1.109,3.774 -7.38,5.549 -14.538,3.718" style="fill:#0071b6;fill-rule:nonzero;"/><path d="M3124.41,488.715c-7.435,-6.215 -27.357,-21.586 -28.744,-39.843c-1.054,-13.151 -1.776,-18.756 -1.942,-23.528c6.425,3.81 12.074,8.799 16.647,14.705c9.878,14.095 13.485,38.289 14.039,48.666" style="fill:#0071b6;fill-rule:nonzero;"/><path d="M3148.94,446.985c-6.548,-0.388 -24.194,-2.164 -30.964,-10.265c-4.661,-5.549 -7.713,-9.656 -9.488,-12.264c3.052,0 7.99,0.5 14.927,1.387c10.099,1.332 21.53,15.649 25.525,21.142" style="fill:#0071b6;fill-rule:nonzero;"/><path d="M3130.24,465.741c-4.994,-5.549 -6.659,-11.93 -3.773,-14.538c2.885,-2.608 9.156,0 14.094,5.105c4.939,5.105 6.604,11.93 3.774,14.539c-2.83,2.608 -9.156,0.332 -14.095,-5.106" style="fill:#0071b6;fill-rule:nonzero;"/><path d="M2862.94,379.231c5.549,-7.047 22.196,-25.692 37.622,-29.465c10.71,-2.664 18.368,-4.162 23.029,-4.995c-3.7,5.933 -8.285,11.266 -13.595,15.815c-14.483,11.653 -26.525,8.046 -47.056,18.645" style="fill:#0071b6;fill-rule:nonzero;"/><path d="M3053.94,446.985c-5.105,4.717 -12.152,17.036 -29.854,15.205c-5.167,-0.532 -10.275,-1.535 -15.26,-2.997c2.331,-2.219 6.271,-5.549 11.986,-10.321c8.379,-6.659 26.469,-3.44 33.295,-1.887" style="fill:#0071b6;fill-rule:nonzero;"/><path d="M3043.17,442.269c-7.158,-1.499 -12.375,-5.549 -11.598,-9.545c0.777,-3.995 7.214,-5.549 14.428,-4.161c7.214,1.387 12.374,5.549 11.597,9.488c-0.776,3.94 -7.213,5.55 -14.427,4.218" style="fill:#0071b6;fill-rule:nonzero;"/><path d="M3238.72,617.786c8.879,1.665 29.522,0 43.838,19.034c6.493,8.712 12.43,14.094 15.371,17.812c-4.106,-0.666 -11.098,-2.053 -20.365,-4.384c-13.928,-3.607 -32.296,-24.527 -38.844,-32.462" style="fill:#0071b6;fill-rule:nonzero;"/><path d="M3244.66,649.139c-4.273,-5.55 -5.161,-12.097 -1.942,-14.539c3.218,-2.442 9.211,0 13.429,5.549c4.217,5.549 5.16,12.152 1.942,14.594c-3.219,2.442 -9.212,0 -13.429,-5.882" style="fill:#0071b6;fill-rule:nonzero;"/><path d="M3233.34,623.446c1.72,8.046 5.549,29.854 -2.164,39.954c-3.751,5.007 -7.752,9.822 -11.986,14.427c-0.837,-6.176 -1.986,-12.306 -3.441,-18.367c-5.549,-18.645 12.097,-29.854 17.591,-36.014" style="fill:#0071b6;fill-rule:nonzero;"/><path d="M3248.38,593.481c-4.273,-6.492 -15.26,-24.749 -14.816,-38.843c0,-9.6 0.721,-16.648 1.11,-20.532c4.939,4.951 9.467,10.296 13.539,15.981c6.104,11.099 0.833,34.405 0,43.394" style="fill:#0071b6;fill-rule:nonzero;"/><path d="M3237.39,597.92c-6.326,2.498 -23.584,8.602 -32.906,3.663c-4.614,-2.365 -9.097,-4.977 -13.429,-7.824c2.885,-1.221 7.713,-3.052 14.538,-5.272c10.044,-3.163 26.026,5.549 31.797,9.433" style="fill:#0071b6;fill-rule:nonzero;"/><path d="M3199.55,578.332c-7.103,-1.665 -12.153,-6.104 -11.098,-9.877c1.054,-3.774 7.436,-5.549 14.538,-3.718c7.103,1.831 12.208,6.159 11.099,9.933c-1.11,3.773 -7.436,5.549 -14.595,3.662" style="fill:#0071b6;fill-rule:nonzero;"/><path d="M3308.75,598.808c-7.214,1.61 -13.651,0 -14.483,-3.94c-0.833,-3.939 4.273,-8.101 11.486,-9.71c7.214,-1.61 13.596,0 14.428,3.995c0.832,3.995 -4.273,8.102 -11.431,9.655" style="fill:#0071b6;fill-rule:nonzero;"/><path d="M3267.02,592.038c10.225,-16.856 23.557,-31.619 39.287,-43.504c8.254,-4.901 17.476,-7.949 27.024,-8.934c-2.809,6.41 -6.886,12.186 -11.986,16.98c-14.817,16.223 -33.511,28.424 -54.325,35.458" style="fill:#0071b6;fill-rule:nonzero;"/><path d="M3269.68,599.696c8.324,-0.499 24.583,-4.828 37.623,14.039c5.05,7.27 12.264,5.549 14.594,8.768c-3.829,0 -10.099,0.555 -18.922,0.499c-12.93,0 -27.746,-16.647 -33.295,-23.306" style="fill:#0071b6;fill-rule:nonzero;"/><path d="M2636.42,425.233c6.604,4.717 24.916,6.603 27.746,31.963c1.089,6.828 2.703,13.563 4.827,20.143c-3.107,-2.109 -8.046,-5.827 -14.871,-11.098c-9.878,-8.213 -15.871,-31.963 -17.757,-40.786" style="fill:#0071b6;fill-rule:nonzero;"/><path d="M2688.2,460.525c-2.552,6.548 -7.713,10.71 -11.376,9.212c-3.662,-1.499 -4.661,-7.935 -2.053,-14.539c2.608,-6.603 7.714,-10.654 11.431,-9.211c3.718,1.442 4.606,7.99 1.998,14.538" style="fill:#0071b6;fill-rule:nonzero;"/><path d="M2677.82,478.005c4.994,-4.106 18.701,-18.368 30.465,-15.149c5.509,0.941 11.138,0.941 16.647,0c-2.275,1.942 -6.104,5.049 -11.764,9.156c-8.324,5.993 -28.134,6.27 -35.403,6.048" style="fill:#0071b6;fill-rule:nonzero;"/><path d="M2641.7,485.774c3.496,-1.943 13.096,-6.992 18.922,-4.884c4.051,1.443 6.826,2.664 8.49,3.441c-2.991,0.774 -5.751,2.259 -8.046,4.328c-7.88,9.101 -15.648,-1.221 -19.366,-2.885" style="fill:#0071b6;fill-rule:nonzero;"/><path d="M2747.35,519.9c4.828,-5.549 17.924,-25.137 29.91,-19.976c7.214,3.107 13.429,0.444 16.647,0.832c-2.164,2.608 -5.882,6.77 -11.098,12.375c-8.102,8.046 -27.745,7.38 -35.348,6.769" style="fill:#0071b6;fill-rule:nonzero;"/><path d="M2753.68,502.92c-1.332,6.215 -5.216,10.599 -8.767,9.878c-3.552,-0.722 -5.216,-6.382 -3.885,-12.597c1.332,-6.215 5.216,-10.599 8.712,-9.822c3.496,0.777 5.55,6.382 3.94,12.541" style="fill:#0071b6;fill-rule:nonzero;"/><path d="M2716.39,490.213c5.55,2.719 21.031,2.608 21.531,19.755c0.406,4.553 1.28,9.053 2.608,13.428c-2.497,-1.22 -6.492,-3.329 -11.986,-6.603c-7.88,-4.828 -11.098,-20.643 -12.153,-26.58" style="fill:#0071b6;fill-rule:nonzero;"/><path d="M2637.15,555.193c6.27,-4.662 12.707,-19.7 37.9,-17.314c6.892,0.432 13.805,0.432 20.698,0c-2.83,2.165 -7.658,5.55 -14.705,10.322c-10.432,6.77 -34.848,7.269 -43.893,7.214" style="fill:#0071b6;fill-rule:nonzero;"/><path d="M2670.99,520.4c3.995,-0.333 14.816,-0.777 19.2,3.607c3.052,2.996 5.049,5.549 6.27,6.714c-3.049,-0.548 -6.184,-0.377 -9.156,0.5c-11.098,4.883 -13.65,-7.769 -16.314,-11.099" style="fill:#0071b6;fill-rule:nonzero;"/><path d="M2700.29,536.215c5.549,2.719 21.031,2.608 21.531,19.754c0.487,4.592 1.416,9.127 2.774,13.54c-2.442,-1.221 -6.492,-3.329 -11.93,-6.603c-7.936,-4.828 -11.099,-20.643 -12.153,-26.58" style="fill:#0071b6;fill-rule:nonzero;"/><path d="M2698.24,559.465c-1.332,6.215 -5.216,10.599 -8.768,9.878c-3.551,-0.722 -5.216,-6.382 -3.884,-12.597c1.332,-6.215 5.216,-10.598 8.712,-9.822c3.496,0.777 5.272,6.382 3.94,12.541" style="fill:#0071b6;fill-rule:nonzero;"/><path d="M3148.05,638.207c-8.379,-2.053 -31.352,-8.379 -42.616,-19.81c-7.769,-7.825 -12.985,-13.54 -16.148,-17.092c7.715,0.288 15.396,1.179 22.973,2.664c13.318,4.106 28.911,26.636 35.791,34.238" style="fill:#0071b6;fill-rule:nonzero;"/><path d="M3135.9,609.685c-1.276,-7.214 0.777,-13.596 4.606,-14.262c3.829,-0.665 7.879,4.606 9.156,11.875c1.276,7.27 -0.722,13.596 -4.551,14.262c-3.828,0.665 -7.935,-4.606 -9.211,-11.875" style="fill:#0071b6;fill-rule:nonzero;"/><path d="M3179.62,596.478c-0.888,6.77 -3.996,24.804 -12.874,30.52c-4.32,2.853 -8.784,5.483 -13.373,7.879c0.333,-3.107 1.054,-8.212 2.441,-15.26c2.164,-10.321 17.813,-19.865 23.806,-23.139" style="fill:#0071b6;fill-rule:nonzero;"/><path d="M3070.31,520.455c6.714,3.052 29.188,10.1 27.745,23.029c-0.943,7.824 3.385,12.985 3.996,16.37c-3.108,-1.387 -8.213,-3.718 -15.094,-7.38c-10.044,-5.55 -15.038,-24.749 -16.647,-32.019" style="fill:#0071b6;fill-rule:nonzero;"/><path d="M3077.97,517.015c4.661,-3.718 11.098,-18.09 26.857,-11.431c4.307,1.497 8.748,2.575 13.262,3.218c-2.108,1.72 -5.549,4.495 -11.098,8.157c-7.657,5.217 -23.417,1.665 -29.188,0" style="fill:#0071b6;fill-rule:nonzero;"/><path d="M3107.15,525.117c5.549,2.774 9.045,7.657 7.491,11.098c-1.554,3.44 -7.436,3.607 -13.151,0.832c-5.716,-2.774 -9.045,-7.658 -7.492,-11.098c1.554,-3.441 7.436,-3.552 13.152,-0.832" style="fill:#0071b6;fill-rule:nonzero;"/><path d="M2926.7,468.072c2.941,5.216 16.036,13.873 6.88,28.411c-2.243,3.995 -4.101,8.194 -5.549,12.541c-1.387,-2.386 -3.496,-6.381 -6.215,-12.097c-3.884,-8.434 2.22,-23.417 4.717,-28.855" style="fill:#0071b6;fill-rule:nonzero;"/><path d="M2953.61,494.652c-4.329,4.606 -9.989,6.382 -12.597,3.94c-2.608,-2.442 -1.221,-8.157 3.163,-12.818c4.384,-4.662 9.933,-6.382 12.541,-3.94c2.608,2.441 1.221,8.212 -3.107,12.818" style="fill:#0071b6;fill-rule:nonzero;"/><path d="M2935.02,508.469c6.271,-3.884 24.583,-18.7 34.46,-10.266c5.993,5.106 12.707,4.384 15.87,5.55c-2.885,1.886 -7.657,4.772 -14.538,8.49c-10.099,5.549 -28.911,-1.221 -35.792,-3.996" style="fill:#0071b6;fill-rule:nonzero;"/><path d="M3049.05,382.283c-16.413,-1.638 -32.118,-7.529 -45.558,-17.091c-5.968,-5.197 -11.081,-11.302 -15.149,-18.09c7.308,-0.68 14.673,0.405 21.475,3.163c15.222,7.735 28.603,18.655 39.232,32.018" style="fill:#0071b6;fill-rule:nonzero;"/><path d="M3023.81,311.366c5.549,4.661 25.747,17.036 21.031,29.188c-2.83,7.325 0,13.429 0,16.647c-2.664,-2.053 -6.992,-5.549 -12.763,-11.098c-8.324,-7.824 -8.379,-27.745 -8.046,-35.126" style="fill:#0071b6;fill-rule:nonzero;"/><path d="M3002.78,338.723c-4.551,-5.549 -5.55,-12.375 -2.775,-14.761c2.775,-2.386 9.211,0.333 13.762,6.104c4.55,5.771 5.549,12.319 2.719,14.761c-2.83,2.441 -9.156,-0.333 -13.706,-6.104" style="fill:#0071b6;fill-rule:nonzero;"/><path d="M3264.86,586.711c-3.385,-5.882 -11.82,-22.196 -8.213,-32.24c1.828,-4.892 3.903,-9.689 6.215,-14.372c1.609,2.719 4.106,7.214 7.269,13.706c4.551,9.545 -2.219,26.691 -4.994,32.906" style="fill:#0071b6;fill-rule:nonzero;"/><path d="M2759.22,375.902c7.214,-1.72 29.244,-9.933 35.958,1.221c4.051,6.769 10.655,8.212 13.207,10.543c-3.329,0.832 -8.767,2.053 -16.647,3.385c-11.098,1.831 -27.024,-10.322 -32.684,-15.149" style="fill:#0071b6;fill-rule:nonzero;"/><path d="M2676.54,507.581c-15.212,5.325 -31.448,7.072 -47.445,5.106c-7.704,-1.642 -15.165,-4.271 -22.196,-7.825c6.157,-3.28 12.879,-5.37 19.81,-6.159c17.107,-0.91 34.197,2.129 49.942,8.878" style="fill:#0071b6;fill-rule:nonzero;"/><path d="M2691.91,449.261c2.331,-10.155 16.037,-33.295 30.353,-40.509c9.878,-5.105 10.766,-12.319 15.26,-14.039c-0.998,4.661 -2.885,12.319 -6.048,22.862c-4.772,15.371 -29.965,27.746 -39.565,31.686" style="fill:#0071b6;fill-rule:nonzero;"/><path d="M2680.21,396.877c1.499,5.05 9.933,13.096 1.665,27.746c-2.137,4.028 -3.991,8.2 -5.549,12.485c-0.721,-2.331 -1.776,-6.159 -3.107,-11.708c-1.776,-8.158 4.328,-22.974 6.769,-28.412" style="fill:#0071b6;fill-rule:nonzero;"/><path d="M2832.58,333.229c-5.549,-4.051 -19.755,-15.537 -20.476,-26.08c-0.394,-5.17 -0.524,-10.355 -0.388,-15.538c2.552,1.831 6.659,4.939 12.152,9.6c7.991,6.881 8.768,25.193 8.712,32.018" style="fill:#0071b6;fill-rule:nonzero;"/><path d="M2814.55,570.231c-1.832,-6.548 -6.049,-24.416 0,-33.295c4.051,-5.993 7.213,-10.099 9.211,-12.485c0.888,2.996 2.22,7.99 3.718,15.038c2.053,10.321 -8.601,25.248 -12.818,30.575" style="fill:#0071b6;fill-rule:nonzero;"/><path d="M3172.97,709.235c-6.271,2.553 -23.528,8.823 -32.906,3.94c-4.627,-2.333 -9.128,-4.907 -13.484,-7.713c2.885,-1.221 7.657,-3.108 14.538,-5.549c9.988,-3.219 26.081,5.549 31.852,9.211" style="fill:#0071b6;fill-rule:nonzero;"/><path d="M3121.86,749.188c-3.33,-6.547 -3.219,-13.262 0,-14.982c3.218,-1.72 8.934,2.109 12.263,8.656c3.33,6.548 3.163,13.263 -0.277,15.039c-3.441,1.775 -8.934,-2.165 -12.208,-8.713" style="fill:#0071b6;fill-rule:nonzero;"/><path d="M3116.75,715.949c7.324,0.888 26.968,4.218 33.294,13.873c4.328,6.604 7.048,11.431 8.657,14.483c-3.441,-0.333 -4.994,-1.886 -12.708,-3.329c-11.098,-2.275 -25.636,-18.534 -29.188,-25.027" style="fill:#0071b6;fill-rule:nonzero;"/><path d="M3111.7,719.334c1.332,7.381 6.548,20.643 -7.047,38.844c-5.216,6.936 -3.163,12.929 -5.549,16.092c-0.666,-3.385 -1.554,-8.989 -2.497,-16.98c-1.221,-11.708 10.321,-30.797 14.871,-37.734" style="fill:#0071b6;fill-rule:nonzero;"/><path d="M3024.25,698.581c2.831,-6.826 8.99,-29.521 22.197,-28.467c7.88,0.666 12.874,-3.829 16.259,-4.55c-1.277,3.163 -3.441,8.323 -6.881,15.371c-5.105,10.21 -24.139,15.926 -31.353,17.646" style="fill:#0071b6;fill-rule:nonzero;"/><path d="M3024.58,680.491c0.722,6.27 -1.609,11.708 -5.16,12.152c-3.552,0.444 -7.048,-4.383 -7.713,-10.709c-0.666,-6.326 1.553,-11.709 5.16,-12.097c3.607,-0.389 6.992,4.383 7.713,10.654" style="fill:#0071b6;fill-rule:nonzero;"/><path d="M2985.41,680.491c5.937,0.888 20.809,-4.273 26.691,11.875c1.832,4.1 4.043,8.02 6.603,11.708c-2.774,-0.333 -7.213,-1.109 -13.428,-2.441c-9.045,-2.053 -17.258,-15.982 -20.033,-21.309" style="fill:#0071b6;fill-rule:nonzero;"/><path d="M2765.66,605.8c0,0 -16.647,23.195 -25.969,22.529c-5.608,0.237 -11.13,1.458 -16.315,3.607c1.72,-2.497 4.717,-6.603 9.156,-12.208c6.659,-8.101 25.97,-12.541 33.295,-13.928" style="fill:#0071b6;fill-rule:nonzero;"/><path d="M2609.73,749.743c1.72,-8.046 4.495,-31.352 14.65,-43.061c5.584,-5.646 11.575,-10.876 17.923,-15.648c-0.721,3.662 -2.053,9.766 -4.439,18.479c-3.551,12.762 -21.364,32.961 -28.134,40.23" style="fill:#0071b6;fill-rule:nonzero;"/><path d="M2617.5,697.138c-6.77,1.998 -13.207,0.499 -14.317,-3.329c-1.11,-3.829 3.496,-8.546 10.266,-10.544c6.77,-1.997 13.151,-0.444 14.261,3.385c1.11,3.829 -3.44,8.546 -10.21,10.488" style="fill:#0071b6;fill-rule:nonzero;"/><path d="M2594.64,652.745c6.603,1.665 27.745,4.44 30.575,16.648c1.922,5.296 4.842,10.175 8.601,14.372c-3.052,-0.722 -8.046,-2.053 -14.982,-4.273c-10.155,-3.385 -20.588,-20.254 -24.194,-26.636" style="fill:#0071b6;fill-rule:nonzero;"/><path d="M2585.32,630.161c10.266,-2.22 38.233,-7.159 52.605,2.108c9.878,6.382 16.648,11.098 20.643,14.428c-4.717,1.11 -13.207,-4.994 -24.249,-3.274c-16.204,2.331 -40.176,-6.659 -48.999,-13.262" style="fill:#0071b6;fill-rule:nonzero;"/><path d="M2684.53,730.433c-4.495,-7.436 -19.589,-29.91 -15.926,-44.393c1.526,-7.729 1.826,-15.651 0.888,-23.473c2.108,3.33 5.549,9.045 9.988,17.424c6.492,12.319 5.549,40.065 5.05,50.331" style="fill:#0071b6;fill-rule:nonzero;"/><path d="M2719.05,670.447c-6.77,1.498 -25.193,4.772 -33.294,-1.887c-4.063,-3.214 -7.953,-6.641 -11.654,-10.266c3.108,-0.776 8.269,-1.831 15.538,-2.941c10.599,-1.498 24.582,10.377 29.521,15.094" style="fill:#0071b6;fill-rule:nonzero;"/><path d="M2692.47,688.371c-3.718,-4.107 -4.994,-9.045 -2.83,-11.099c2.164,-2.053 6.936,0 10.654,3.885c3.718,3.884 5.05,8.989 2.886,11.098c-2.165,2.109 -6.937,0 -10.71,-3.884" style="fill:#0071b6;fill-rule:nonzero;"/><path d="M2647.47,615.234c3.44,5.549 3.773,11.098 0.777,13.151c-2.997,2.053 -8.213,-0.777 -11.653,-6.104c-3.441,-5.327 -3.829,-11.098 -0.833,-13.151c2.997,-2.054 8.268,0.776 11.709,6.104" style="fill:#0071b6;fill-rule:nonzero;"/><path d="M2660.51,641.647c0,-5.105 -6.048,-14.538 5.05,-26.968c2.853,-3.521 5.467,-7.229 7.824,-11.098l0,11.875c0,8.212 -9.433,21.419 -12.929,26.136" style="fill:#0071b6;fill-rule:nonzero;"/><path d="M2622.94,650.637c3.329,-1.498 12.652,-5.161 18.534,-3.219c4.051,1.332 6.825,2.442 8.545,3.163c-1.553,0.722 2.498,0.999 0,3.496c-7.435,7.048 -23.306,-1.997 -26.968,-3.44" style="fill:#0071b6;fill-rule:nonzero;"/><path d="M2763.44,624.223c0,-6.326 2.719,-11.486 6.326,-11.542c3.607,-0.055 6.548,5.05 6.603,11.098c0,-0.555 -2.608,11.487 -6.326,11.542c-3.718,0.056 -6.603,-4.772 -6.603,-11.098" style="fill:#0071b6;fill-rule:nonzero;"/><path d="M2803.01,625.388c-4.939,-2.053 -17.036,-0.499 -22.53,-16.314c-1.669,-4.195 -3.654,-8.257 -5.937,-12.152c2.33,0.888 6.048,2.497 11.098,4.994c7.602,3.773 14.872,18.09 17.369,23.472" style="fill:#0071b6;fill-rule:nonzero;"/><path d="M2724.6,479.781c5.549,-7.825 21.087,-28.523 36.79,-32.074c10.766,-2.497 18.423,-3.829 23.14,-4.495c-2.865,6.798 -7.318,12.812 -12.985,17.535c-17.868,13.207 -26.58,7.88 -46.945,19.034" style="fill:#0071b6;fill-rule:nonzero;"/><path d="M2608.85,540.543c3.774,-3.607 6.992,-14.872 23.695,-14.261c4.533,-0.013 9.059,-0.365 13.54,-1.054c-1.721,1.72 -4.662,4.439 -8.934,8.157c-6.382,5.549 -22.197,6.825 -28.301,7.158" style="fill:#0071b6;fill-rule:nonzero;"/><path d="M3047.17,638.262c10.71,-3.163 39.898,-10.543 54.159,-0.943c7.055,4.602 13.853,9.585 20.365,14.927c-4.883,1.554 -13.262,-4.772 -24.804,-2.109c-16.647,3.607 -41.008,-5.049 -49.942,-11.875" style="fill:#0071b6;fill-rule:nonzero;"/><path d="M3173.35,661.901c6.826,5.549 24.86,22.197 28.689,38.012c2.664,10.709 4.162,18.312 4.994,22.973c-5.442,-4.197 -10.544,-8.818 -15.26,-13.817c-13.595,-14.373 -7.99,-26.525 -18.423,-47.168" style="fill:#0071b6;fill-rule:nonzero;"/><path d="M2727.15,340.443c9.766,-1.387 32.018,-4.828 51.162,4.994c7.4,3.947 14.405,8.592 20.92,13.873c-4.55,0.721 -13.096,-5.161 -23.75,-4.273c-15.593,1.055 -39.398,-8.323 -48.332,-14.594" style="fill:#0071b6;fill-rule:nonzero;"/><path d="M2769.38,327.458c-3.829,-6.27 -4.106,-13.151 -0.555,-15.315c3.552,-2.164 9.545,1.165 13.374,7.436c3.828,6.27 4.106,13.095 0.554,15.26c-3.551,2.164 -9.544,-1.11 -13.373,-7.381" style="fill:#0071b6;fill-rule:nonzero;"/><path d="M2582.99,479.226c5.271,-1.554 19.699,-5.05 26.802,0c4.883,3.274 8.212,5.549 10.154,7.38c-2.386,0.777 -6.603,-2.386 -12.263,-1.11c-8.677,0.955 -17.42,-1.167 -24.693,-5.993" style="fill:#0071b6;fill-rule:nonzero;"/><path d="M2786.14,478.837c13.703,-6.965 29.071,-10 44.393,-8.767c10.654,1.054 18.035,2.386 22.529,3.163c-3.496,1.442 -9.322,3.662 -17.812,6.548c-12.597,4.106 -39.288,0.61 -49.11,-0.944" style="fill:#0071b6;fill-rule:nonzero;"/><path d="M2838.08,569.509c-5.549,2.83 -11.598,2.553 -13.207,-0.666c-1.609,-3.218 1.665,-8.101 7.325,-11.098c5.66,-2.996 11.542,-2.608 13.151,0.611c1.609,3.218 -1.609,8.101 -7.269,11.098" style="fill:#0071b6;fill-rule:nonzero;"/><path d="M2634.54,453.866c-7.99,-1.997 -26.136,-13.151 -31.796,-24.638c-3.94,-7.879 -9.655,-8.712 -11.098,-12.263c3.718,0.832 9.766,2.442 18.146,5.05c12.097,3.995 21.53,24.194 24.638,31.851" style="fill:#0071b6;fill-rule:nonzero;"/><path d="M3152.82,606.022c-0.444,-6.77 -0.944,-25.137 6.659,-32.462c3.645,-3.677 7.499,-7.142 11.542,-10.377c0,3.108 0.499,8.268 0.555,15.482c0,10.543 -13.54,22.973 -18.756,27.357" style="fill:#0071b6;fill-rule:nonzero;"/><path d="M3168.53,506.361c8.434,3.662 30.797,14.372 34.903,28.022c2.19,6.673 4.042,13.451 5.549,20.31c-3.939,-1.609 -7.935,-6.215 -16.647,-10.71c-12.596,-6.603 -21.586,-28.633 -23.639,-37.622" style="fill:#0071b6;fill-rule:nonzero;"/><path d="M3216.14,534.383c-0.555,-6.825 -1.166,-25.192 6.381,-32.628c3.666,-3.691 7.518,-7.192 11.542,-10.488c0.278,3.108 0.611,8.268 0.722,15.538c0,10.543 -13.429,23.139 -18.645,27.745" style="fill:#0071b6;fill-rule:nonzero;"/><path d="M3196.66,513.297c-1.498,-6.881 0.389,-13.151 4.329,-13.984c3.94,-0.832 8.268,3.996 9.766,11.098c1.498,7.103 -0.444,13.152 -4.328,14.04c-3.885,0.887 -8.268,-4.051 -9.767,-11.099" style="fill:#0071b6;fill-rule:nonzero;"/><path d="M3254.15,708.958c-4.994,-6.16 -20.365,-22.197 -18.09,-34.46c1.625,-6.39 3.797,-12.628 6.492,-18.645c2.386,2.774 2.997,8.49 7.88,15.371c7.047,10.099 5.549,30.02 3.718,37.734" style="fill:#0071b6;fill-rule:nonzero;"/><path d="M2792.41,267.972c0.943,4.883 7.491,12.43 0,27.135c-1.909,4.079 -3.577,8.267 -4.994,12.541c-0.5,-2.22 -1.166,-5.937 -1.942,-11.098c-1.11,-7.935 4.661,-22.918 6.991,-28.356" style="fill:#0071b6;fill-rule:nonzero;"/><path d="M3276.84,505.75c2.608,5.549 15.315,14.705 5.549,28.744c-2.391,3.884 -4.398,7.991 -5.993,12.264c-1.277,-2.442 -3.219,-6.548 -5.549,-12.43c-3.496,-8.601 3.329,-23.251 6.159,-28.578" style="fill:#0071b6;fill-rule:nonzero;"/><path d="M3193.33,395.989c-5.549,2.054 -9.544,13.762 -29.133,2.22c-5.549,-3.274 -9.322,-5.549 -11.597,-7.325c2.608,-0.943 6.881,-2.441 12.985,-4.217c8.989,-2.442 22.751,5.937 27.745,9.322" style="fill:#0071b6;fill-rule:nonzero;"/><path d="M3188.89,455.698c-6.715,-1.61 -19.533,2.164 -34.516,-15.482c-4.282,-4.67 -8.821,-9.097 -13.595,-13.263c3.108,0.666 8.213,1.942 15.482,4.051c10.599,3.219 26.802,18.756 32.573,24.694" style="fill:#0071b6;fill-rule:nonzero;"/><path d="M3183.56,435.055c-7.325,0 -13.207,-3.496 -13.096,-7.38c0.111,-3.885 6.159,-6.826 13.484,-6.604c7.325,0.222 13.207,3.496 13.096,7.325c-0.111,3.829 -6.16,6.825 -13.484,6.659" style="fill:#0071b6;fill-rule:nonzero;"/><path d="M2842.85,550.032c10.654,-2.997 39.62,-10.044 53.882,-0.5c9.821,6.604 16.647,11.598 20.476,14.872c-4.883,1.498 -13.318,-4.828 -24.749,-2.275c-16.647,3.44 -40.897,-5.549 -49.609,-12.097" style="fill:#0071b6;fill-rule:nonzero;"/><path d="M2893.79,522.841c5.16,2.997 20.809,3.774 20.309,20.92c0.162,4.563 0.775,9.098 1.831,13.54c-2.441,-1.332 -6.27,-3.662 -11.542,-7.214c-7.657,-5.549 -10.044,-21.308 -10.598,-27.246" style="fill:#0071b6;fill-rule:nonzero;"/><path d="M2652.91,581.828c10.155,-2.109 36.79,0.611 49.553,10.488c8.768,6.77 15.649,4.55 19.145,7.88c-4.662,1.054 -12.375,2.552 -23.307,4.161c-15.925,2.165 -37.678,-15.537 -45.391,-22.529" style="fill:#0071b6;fill-rule:nonzero;"/><path d="M3059.15,565.569c11.098,-0.499 40.897,-0.499 52.55,12.097c8.046,8.657 13.262,15.094 16.647,19.2c-5.105,0.333 -11.764,-7.769 -23.528,-7.991c-17.091,-0.554 -38.51,-14.649 -45.391,-23.306" style="fill:#0071b6;fill-rule:nonzero;"/><path d="M3134.51,544.927c2.663,5.549 15.315,14.649 5.549,28.689c-2.433,3.974 -4.477,8.174 -6.104,12.54c-1.221,-2.497 -3.163,-6.603 -5.549,-12.43c-3.441,-8.656 3.385,-23.25 6.159,-28.577" style="fill:#0071b6;fill-rule:nonzero;"/><path d="M3146.33,527.281c5.993,0.499 20.421,-5.549 27.468,9.988c2.126,4.036 4.655,7.848 7.547,11.376c-2.775,0 -7.269,-0.555 -13.595,-1.499c-9.156,-1.387 -18.257,-14.76 -21.42,-19.865" style="fill:#0071b6;fill-rule:nonzero;"/><path d="M2969.59,304.319c8.435,-3.774 30.631,-15.593 46.834,-12.264c8.415,2.12 16.697,4.733 24.805,7.824c-3.829,1.832 -11.487,1.721 -20.865,5.549c-13.762,5.106 -40.508,1.721 -50.774,-0.887" style="fill:#0071b6;fill-rule:nonzero;"/><path d="M2945.34,304.596c-14.353,-7.359 -26.654,-18.173 -35.792,-31.463c-3.992,-6.782 -7.177,-14.008 -9.489,-21.531c6.292,2.834 12.263,6.331 17.813,10.433c12.041,9.156 23.528,33.017 27.468,42.561" style="fill:#0071b6;fill-rule:nonzero;"/><path d="M2974.64,294.885c-6.049,6.604 -14.039,9.212 -17.757,5.827c-3.718,-3.385 -1.887,-11.598 4.161,-18.257c6.049,-6.659 13.984,-9.211 17.758,-5.549c3.773,3.663 1.886,11.598 -4.162,18.257" style="fill:#0071b6;fill-rule:nonzero;"/><path d="M2950.67,325.683c-9.436,6.401 -20.851,9.235 -32.185,7.99c-5.154,-0.921 -10.043,-2.967 -14.317,-5.993c2.719,-1.554 7.214,-4.051 13.707,-7.158c9.544,-4.495 26.58,2.331 32.795,5.161" style="fill:#0071b6;fill-rule:nonzero;"/><path d="M2927.42,316.138c-6.825,-1.831 -11.487,-6.437 -10.488,-10.266c0.999,-3.829 7.436,-5.549 14.206,-3.662c6.77,1.887 11.542,6.437 10.488,10.266c-1.055,3.829 -7.381,5.549 -14.206,3.662" style="fill:#0071b6;fill-rule:nonzero;"/><path d="M2933.13,361.53c-6.493,-6.215 -8.879,-14.262 -5.55,-17.924c3.33,-3.662 11.598,-1.554 18.09,4.661c6.493,6.215 8.879,14.206 5.55,17.868c-3.33,3.663 -11.653,1.61 -18.146,-4.605" style="fill:#0071b6;fill-rule:nonzero;"/><path d="M2971.53,319.801c1.609,7.435 11.598,18.589 0.611,41.285c-2.77,6.439 -5.16,13.035 -7.159,19.754c-0.777,-3.385 -1.886,-9.1 -3.218,-17.257c-1.831,-11.986 6.492,-34.959 9.766,-43.394" style="fill:#0071b6;fill-rule:nonzero;"/><path d="M2986.68,376.901c-5.937,3.828 -12.485,4.217 -14.649,0.832c-2.165,-3.385 0.887,-9.156 6.825,-12.985c5.938,-3.829 12.485,-4.217 14.65,-0.888c2.164,3.33 -0.888,9.156 -6.826,13.041" style="fill:#0071b6;fill-rule:nonzero;"/><path d="M2954.5,247.662c2.608,5.55 15.315,14.65 5.549,28.689c-2.405,3.896 -4.413,8.023 -5.993,12.319c-1.277,-2.441 -3.219,-6.548 -5.549,-12.43c-3.496,-8.601 3.329,-23.25 6.159,-28.578" style="fill:#0071b6;fill-rule:nonzero;"/><path d="M2959.33,437.608c8.157,-3.385 29.743,-13.929 45.503,-10.766c8.213,1.989 16.309,4.434 24.249,7.325c-3.718,1.609 -11.098,1.443 -20.309,4.661c-13.374,4.495 -39.399,1.221 -49.443,-1.22" style="fill:#0071b6;fill-rule:nonzero;"/><path d="M2951,450.093c-6.215,-4.883 -22.752,-18.811 -25.082,-32.074c-1.665,-9.045 -2.442,-15.537 -2.83,-19.477c2.941,2.164 7.602,5.937 14.039,11.598c9.267,8.323 12.874,31.352 13.873,39.953" style="fill:#0071b6;fill-rule:nonzero;"/><path d="M2977.03,423.901c-5.05,5.549 -11.709,7.769 -14.816,4.883c-3.108,-2.885 -1.609,-9.655 3.44,-15.204c5.05,-5.549 11.709,-7.713 14.872,-4.883c3.163,2.83 1.553,9.655 -3.496,15.204" style="fill:#0071b6;fill-rule:nonzero;"/><path d="M2949.72,386.389c2.22,4.495 12.819,12.264 4.551,23.973c-1.967,3.266 -3.638,6.702 -4.995,10.265c-1.054,-2.053 -2.663,-5.549 -4.716,-10.376c-2.886,-7.159 2.83,-19.422 5.16,-23.862" style="fill:#0071b6;fill-rule:nonzero;"/><path d="M3018.7,519.124c0.444,-7.436 -0.887,-30.187 11.099,-37.346c5.114,-3.854 9.542,-8.545 13.095,-13.873c0,3.385 -0.555,9.046 -1.442,16.981c-1.499,11.708 -16.648,28.3 -22.696,34.238" style="fill:#0071b6;fill-rule:nonzero;"/><path d="M3010.27,502.532c3.607,5.216 4.162,11.098 1.165,13.151c-2.996,2.053 -8.213,-0.555 -11.819,-5.549c-3.607,-4.994 -4.107,-11.098 -1.166,-13.151c2.941,-2.053 8.268,0.555 11.82,5.549" style="fill:#0071b6;fill-rule:nonzero;"/><path d="M2975.53,521.01c5.549,-2.053 16.258,-13.595 29.077,-2.164c3.6,2.838 7.487,5.293 11.597,7.325c-2.608,0.999 -6.936,2.441 -13.04,4.217c-8.934,2.442 -22.696,-5.993 -27.745,-9.378" style="fill:#0071b6;fill-rule:nonzero;"/><path d="M2830.92,460.137c-6.104,-4.107 -9.156,-10.266 -6.825,-13.706c2.331,-3.441 9.101,-2.941 15.26,1.165c6.16,4.106 9.156,10.21 6.825,13.706c-2.33,3.496 -9.156,2.941 -15.26,-1.165" style="fill:#0071b6;fill-rule:nonzero;"/><path d="M2850.29,480.724c0.277,5.993 8.101,19.588 -6.548,28.467c-3.757,2.614 -7.251,5.587 -10.432,8.878l0,-13.651c0.333,-9.267 12.485,-19.921 17.146,-23.694" style="fill:#0071b6;fill-rule:nonzero;"/><path d="M2785.64,552.418c-4.606,3.829 -10.599,18.367 -26.58,12.097c-4.348,-1.402 -8.83,-2.35 -13.373,-2.83c2.108,-1.831 5.549,-4.661 10.765,-8.49c7.491,-5.549 23.361,-2.22 29.188,-0.777" style="fill:#0071b6;fill-rule:nonzero;"/><path d="M3062.09,604.135c-6.936,-3.995 -23.084,-3.939 -32.517,-28.522c-2.845,-6.599 -6.069,-13.028 -9.656,-19.255c3.163,1.776 8.435,4.883 15.76,9.544c10.654,7.048 22.196,29.688 26.413,38.233" style="fill:#0071b6;fill-rule:nonzero;"/><path d="M3011.71,585.047c0,-6.326 2.386,-11.598 5.937,-11.709c3.551,-0.111 6.714,4.828 6.992,11.098c0.277,6.271 -2.386,11.598 -5.938,11.764c-3.551,0.167 -6.714,-4.883 -6.991,-11.098" style="fill:#0071b6;fill-rule:nonzero;"/><path d="M3014.48,561.685c-2.386,6.048 -7.491,25.359 -19.422,28.078c-5.317,1.789 -10.291,4.473 -14.705,7.936c1.055,-2.831 2.941,-7.381 5.882,-13.762c4.44,-9.323 21.697,-18.978 28.245,-22.197" style="fill:#0071b6;fill-rule:nonzero;"/></g></svg>