<?xml version="1.0" encoding="UTF-8" standalone="no"?><!DOCTYPE svg PUBLIC "-//W3C//DTD SVG 1.1//EN" "http://www.w3.org/Graphics/SVG/1.1/DTD/svg11.dtd"><svg width="100%" height="100%" viewBox="0 0 8892 8267" version="1.1" xmlns="http://www.w3.org/2000/svg" xmlns:xlink="http://www.w3.org/1999/xlink" xml:space="preserve" xmlns:serif="http://www.serif.com/" style="fill-rule:evenodd;clip-rule:evenodd;stroke-linejoin:round;stroke-miterlimit:2;"><g><path d="M7430.04,722.083l-433.875,0c-64.771,0 -105.779,41.025 -105.779,86.355l-0.017,0l0,1403.11c0,58.279 69.079,88.508 140.312,88.508c69.079,0 140.313,-30.208 140.313,-88.508l0,-500.8l241.787,0c284.929,0 507.275,-136.004 507.275,-490.017l0,-12.933c0,-354.029 -215.871,-485.713 -490.021,-485.713l0.005,0Zm209.375,520.242c0,168.371 -86.334,248.246 -226.646,248.246l-241.771,0l0,-522.396l241.771,0c140.312,0 226.646,79.879 226.646,248.25l0,25.9Z" style="fill:#fff;fill-rule:nonzero;"/><path d="M6231.29,4773.42c-54.792,-30.159 -108.855,-63.18 -160.659,-98.18l-837.587,-565.833c-254.2,-171.733 -550.729,-262.5 -857.5,-262.5l-1537.34,0c-408.075,0 -792.033,158.629 -1081.17,446.65c-148.609,148.075 -317.917,271.929 -503.209,368.142c-109.583,56.912 -177.658,168.908 -177.658,292.292c0,181.704 147.812,329.516 329.512,329.516l524.134,0c69.929,0 126.633,-56.704 126.633,-126.633c0,-69.929 -56.704,-126.634 -126.633,-126.634l-524.134,0c-42.045,0 -76.266,-34.216 -76.266,-76.266c0,-28.488 15.746,-54.359 41.112,-67.517c208.175,-108.092 398.367,-247.221 565.242,-413.487c241.321,-240.417 561.808,-372.813 902.412,-372.813l344.188,0l0,930.083l-420.696,0c-69.929,0 -126.633,56.705 -126.633,126.634c0,69.929 56.704,126.633 126.633,126.633l3472.19,0c104.095,0 188.783,-84.687 188.783,-188.787c0,-133.296 -73.333,-256.421 -191.354,-321.3Zm-2795.62,256.841l0,-930.087l939.895,0c256.059,0 503.559,75.762 715.73,219.096l837.587,565.833c58.159,39.288 118.838,76.371 180.4,110.225c15.938,8.767 29.288,20.817 39.321,34.929l-2712.93,0l0,0.004Z" style="fill:#fff;fill-rule:nonzero;"/><path d="M3749.41,5476l-391.146,0c-69.929,0 -126.629,56.7 -126.629,126.629c0,69.934 56.7,126.634 126.63,126.634l391.145,0c69.934,0 126.634,-56.7 126.634,-126.634c0,-69.929 -56.7,-126.629 -126.634,-126.629Z" style="fill:#fff;fill-rule:nonzero;"/><path d="M8779.67,5369.71l-40,-66.387c-150.746,-250.154 -401.492,-426.304 -687.934,-483.279l-326.929,-65.021l0,-1657.06l846.042,0c174.204,0 315.904,-141.721 315.904,-315.904l0,-2466.16c0,-174.205 -141.721,-315.905 -315.904,-315.905l-2466.16,0c-174.2,0 -315.904,141.721 -315.904,315.905l0,935.504c0,69.929 56.684,126.629 126.634,126.629c69.945,0 126.633,-56.7 126.633,-126.629l0,-935.504c0,-34.55 28.104,-62.659 62.654,-62.659l2466.18,0c34.55,0 62.659,28.109 62.659,62.659l0,2466.18c0,34.55 -28.109,62.658 -62.659,62.658l-2466.2,0c-34.55,0 -62.658,-28.108 -62.658,-62.658l0,-707.446c0,-69.933 -56.683,-126.633 -126.629,-126.633c-69.95,0 -126.633,56.7 -126.633,126.633l0,707.446c0,174.2 141.72,315.904 315.904,315.904l959.391,0l0,1525.67l-168.054,-33.421c-231.946,-46.129 -458.075,-186.108 -608.004,-287.412l-837.571,-565.817c-318.662,-215.258 -690.346,-329.046 -1074.9,-329.046l-1537.33,0c-511.545,0 -992.845,198.838 -1355.23,559.863c-229.308,228.454 -517.954,384.27 -834.741,450.625l-181.804,38.075c-270.28,56.595 -466.442,298.125 -466.442,574.27l0,1226.39c0,146.283 86.371,279.217 220.071,338.629l504.375,224.167c30.504,159.496 107.341,311.804 230.571,435.033c163.766,163.767 378.891,245.658 594.029,245.658c215.137,0 430.241,-81.891 594.029,-245.658c105.329,-105.329 176.579,-231.946 214.167,-366.092l4205.5,0c37.587,134.15 108.854,260.763 214.183,366.092c158.683,158.663 369.621,246.058 594.029,246.058c224.392,0 435.367,-87.379 594.046,-246.058c105.329,-105.329 176.579,-231.946 214.167,-366.092l240.225,0c258.908,0 469.55,-210.641 469.55,-469.55l0,-656.804c-0.038,-138.437 -37.813,-274.271 -109.255,-392.85l-0.016,0Zm-1462.35,-2271.75l154.237,0l0,1606.7l-154.237,-30.679l0,-1576.02Zm-5353.33,3977.98c-110.833,110.833 -258.191,171.875 -414.945,171.875c-156.755,0 -304.117,-61.042 -414.95,-171.875c-177.796,-177.796 -217.342,-442.188 -118.838,-658.609c0.8,-1.737 1.563,-3.491 2.363,-5.229c3.004,-6.421 6.179,-12.775 9.429,-19.096c1.525,-2.987 3.054,-5.954 4.65,-8.904c2.933,-5.487 5.991,-10.937 9.116,-16.354c2.15,-3.733 4.359,-7.433 6.596,-11.112c2.9,-4.775 5.834,-9.534 8.888,-14.238c2.762,-4.254 5.608,-8.454 8.491,-12.637c2.846,-4.15 5.676,-8.317 8.63,-12.396c3.383,-4.671 6.908,-9.254 10.45,-13.838c2.762,-3.575 5.45,-7.187 8.3,-10.712c4.166,-5.154 8.525,-10.192 12.862,-15.225c2.483,-2.867 4.863,-5.8 7.396,-8.629c6.458,-7.171 13.108,-14.2 19.95,-21.092c0.587,-0.592 1.129,-1.217 1.717,-1.808c1.304,-1.3 2.675,-2.517 3.995,-3.8c5.796,-5.696 11.63,-11.321 17.584,-16.721c1.546,-1.404 3.179,-2.709 4.741,-4.096c5.938,-5.263 11.909,-10.488 18.021,-15.471c0.571,-0.467 1.179,-0.9 1.754,-1.371c214.634,-173.696 524.2,-173.487 738.575,0.696c0.242,0.208 0.505,0.383 0.763,0.592c6.546,5.329 12.954,10.916 19.325,16.579c1.146,1.004 2.325,1.962 3.454,2.983c7.363,6.65 14.583,13.509 21.667,20.592c7.637,7.637 15,15.504 22.154,23.471c3.142,3.508 6.108,7.104 9.15,10.662c3.713,4.338 7.446,8.696 11.021,13.125c4.012,4.984 7.883,10.05 11.704,15.121c2.15,2.829 4.288,5.675 6.371,8.542c4.633,6.387 9.15,12.846 13.508,19.391c0.746,1.113 1.475,2.242 2.204,3.35c148.959,227.517 123.609,536.513 -76.095,736.234Zm5821.88,0c-110.851,110.833 -258.209,171.875 -414.963,171.875c-156.754,0 -304.1,-61.042 -414.933,-171.875c-199.738,-199.721 -225.084,-508.767 -76.109,-736.267c0.713,-1.096 1.421,-2.188 2.15,-3.262c4.359,-6.563 8.892,-13.042 13.542,-19.463c2.067,-2.85 4.188,-5.663 6.321,-8.454c3.837,-5.104 7.725,-10.192 11.771,-15.209c3.558,-4.391 7.241,-8.7 10.937,-13.004c3.075,-3.596 6.075,-7.241 9.254,-10.762c7.155,-7.971 14.513,-15.817 22.155,-23.459c110.833,-110.833 258.175,-171.875 414.929,-171.875c156.754,0 304.112,61.042 414.946,171.875c7.641,7.642 15,15.505 22.154,23.475c3.158,3.505 6.129,7.117 9.183,10.692c3.717,4.325 7.433,8.667 10.992,13.075c4.025,5 7.9,10.067 11.733,15.154c2.138,2.829 4.271,5.663 6.354,8.525c4.638,6.409 9.167,12.846 13.509,19.392c0.745,1.112 1.475,2.225 2.204,3.333c148.925,227.5 123.579,536.529 -76.129,736.234Zm849.812,-656.58l-0.038,0c0.001,119.271 -97.029,216.305 -216.3,216.305l-208.475,0c-4.962,-183.667 -69.791,-358.892 -186.458,-502.555c-0.779,-0.97 -1.525,-1.979 -2.325,-2.95c-7.221,-8.804 -14.704,-17.433 -22.308,-26.008c-1.946,-2.187 -3.788,-4.446 -5.746,-6.633c-8.058,-8.871 -16.392,-17.567 -24.863,-26.146c-1.441,-1.458 -2.758,-2.983 -4.22,-4.425c-109.096,-109.079 -242.896,-184.479 -388.784,-220.938c-66.321,-16.579 -135.121,-25.104 -205.258,-25.104c-56.096,0 -111.354,5.467 -165.175,16.129c-161.442,32.013 -309.842,110.921 -428.854,229.913c-1.425,1.425 -2.725,2.917 -4.134,4.358c-8.504,8.629 -16.875,17.342 -24.945,26.25c-1.913,2.1 -3.684,4.288 -5.559,6.404c-7.671,8.646 -15.241,17.363 -22.516,26.25c-0.73,0.888 -1.405,1.809 -2.134,2.709c-116.754,143.683 -181.65,319.012 -186.633,502.762l-4141.98,0c-4.984,-183.975 -70.017,-359.516 -187.067,-503.316c-0.537,-0.68 -1.058,-1.355 -1.596,-2.034c-7.637,-9.337 -15.575,-18.487 -23.646,-27.55c-1.491,-1.666 -2.883,-3.387 -4.391,-5.054c-9.463,-10.433 -19.184,-20.708 -29.238,-30.762c-40.937,-40.938 -85.104,-76.771 -131.65,-107.484c-139.687,-92.116 -301.025,-138.175 -462.358,-138.175c-215.125,0 -430.263,81.892 -594.029,245.659c-9.359,9.358 -18.404,18.958 -27.259,28.679c-2.62,2.883 -5.137,5.816 -7.725,8.716c-6.25,7.067 -12.395,14.2 -18.383,21.425c-2.658,3.213 -5.312,6.442 -7.917,9.705c-6.2,7.725 -12.241,15.537 -18.145,23.437c-1.838,2.467 -3.73,4.879 -5.521,7.363c-15.867,21.716 -30.588,44.112 -44.2,67.083c-0.384,0.642 -0.746,1.3 -1.129,1.942c-6.65,11.304 -13.021,22.762 -19.113,34.341c-0.175,0.329 -0.35,0.675 -0.537,1.009c-44.15,84.008 -73.838,174.875 -87.45,269.129l-394.671,-175.417c-42.325,-18.817 -69.671,-60.9 -69.671,-107.204l0,-1226.39c0,-156.962 111.512,-294.237 265.142,-326.425l181.804,-38.07c364.929,-76.442 697.429,-255.938 961.562,-519.084c314.584,-313.416 732.396,-486.021 1176.48,-486.021l1537.33,0c333.834,0 656.492,98.784 933.125,285.642l837.567,565.817c168.075,113.558 423.542,270.883 700.367,325.954l1155.73,229.825c216.7,43.108 406.371,176.354 520.417,365.592l40,66.387c47.691,79.117 72.879,169.775 72.879,262.154l0,656.804l0.004,0.001Z" style="fill:#fff;fill-rule:nonzero;"/><path d="M1820.89,6389.17c-72.642,-72.621 -169.171,-112.605 -271.859,-112.605c-102.692,0 -199.237,40 -271.842,112.605c-72.604,72.604 -112.604,169.15 -112.604,271.841c0,102.692 40,199.234 112.604,271.838c72.605,72.604 169.15,112.604 271.859,112.604c102.691,0 199.233,-39.983 271.837,-112.604c149.9,-149.896 149.9,-393.783 0,-543.679l0.004,0Zm-179.095,364.6c-24.775,24.775 -57.725,38.421 -92.759,38.421c-35.054,-0.001 -67.987,-13.646 -92.762,-38.438c-24.775,-24.775 -38.438,-57.708 -38.438,-92.758c0,-35.055 13.646,-67.988 38.438,-92.763c24.775,-24.775 57.708,-38.437 92.762,-38.437c35.034,0 67.984,13.646 92.759,38.437c51.145,51.163 51.145,134.392 0,185.538Z" style="fill:#fff;fill-rule:nonzero;"/><path d="M7642.75,6389.17c-72.608,-72.621 -169.15,-112.621 -271.858,-112.621c-102.692,0 -199.221,39.983 -271.859,112.604c-149.879,149.896 -149.879,393.783 0,543.679c72.621,72.621 169.167,112.604 271.859,112.604c102.708,0 199.233,-39.983 271.837,-112.587c72.625,-72.604 112.604,-169.146 112.604,-271.838c0,-102.691 -39.983,-199.237 -112.583,-271.841Zm-179.1,364.6c-24.775,24.775 -57.708,38.421 -92.758,38.421c-35.038,-0.001 -67.988,-13.646 -92.763,-38.421c-51.146,-51.146 -51.146,-134.375 0,-185.521c24.775,-24.775 57.725,-38.438 92.763,-38.438c35.05,0 67.983,13.646 92.775,38.438c24.775,24.775 38.421,57.708 38.421,92.762c0,35.017 -13.63,67.967 -38.438,92.759Z" style="fill:#fff;fill-rule:nonzero;"/><clipPath id="_clip1"><rect x="2378.47" y="6791.67" width="3228.8" height="1473.12"/></clipPath><g clip-path="url(#_clip1)"><path d="M2502.66,6526.21l124.184,0l0,869.292c0,205.742 166.812,372.554 372.554,372.554l1005.9,0c59.425,288.934 313.554,496.375 608.492,496.738l496.737,0c68.584,0 124.188,-55.604 124.188,-124.184l0,-124.187l372.554,0l0,-248.367l-372.554,0l0,-248.371l372.554,0l0,-248.366l-372.554,0l0,-124.184c0,-68.583 -55.604,-124.187 -124.188,-124.187l-496.737,0c-294.938,0.367 -549.067,207.804 -608.492,496.737l-1005.9,0c-68.584,0 -124.188,-55.604 -124.188,-124.183l0,-869.292l147.046,0c51.846,148.804 192.159,248.492 349.696,248.492c157.533,0 297.846,-99.688 349.692,-248.492l666.641,0c51.846,148.804 192.159,248.492 349.696,248.492c157.534,0 297.846,-99.688 349.692,-248.492l395.412,0c68.584,0 124.188,-55.604 124.188,-124.183l0,-745.108c0,-56.938 -38.75,-106.6 -93.988,-120.484l-430.704,-107.633l-226.725,-680.404c-16.917,-50.754 -64.396,-84.954 -117.875,-84.954l-1614.4,0c-53.483,0 -100.962,34.2 -117.879,84.954l-220.05,660.154l-282.992,0c-68.583,0 -124.187,55.604 -124.187,124.183l0,869.292c0,68.579 55.604,124.183 124.187,124.183Zm2111.13,745.109l372.554,0l0,745.104l-372.554,0c-205.742,0 -372.554,-166.813 -372.554,-372.55c0,-205.742 166.812,-372.554 372.554,-372.554Zm-1241.84,-745.109c-68.583,0 -124.187,-55.604 -124.187,-124.183c0,-68.579 55.604,-124.183 124.187,-124.183c68.579,0 124.183,55.604 124.183,124.183c0,68.579 -55.604,124.183 -124.183,124.183Zm1366.03,0c-68.583,0 -124.187,-55.604 -124.187,-124.183c0,-68.579 55.604,-124.183 124.187,-124.183c68.579,0 124.184,55.604 124.184,124.183c0,68.579 -55.605,124.183 -124.184,124.183Zm-2111.14,-869.291l248.366,0c53.484,0 100.963,-34.2 117.88,-84.95l220.054,-660.155l1435.28,0l220.05,660.155c13.462,40.262 46.508,70.941 87.683,81.25l402.75,100.658l0,523.967l-271.229,0c-51.846,-148.805 -192.158,-248.492 -349.692,-248.492c-157.537,0 -297.85,99.687 -349.696,248.492l-666.641,0c-51.846,-148.805 -192.159,-248.492 -349.692,-248.492c-157.537,0 -297.85,99.687 -349.696,248.492l-395.412,0l0,-620.925Z" style="fill:#fff;fill-rule:nonzero;"/></g><path d="M4776.5,7368.96l-85.271,-42.566l-177.354,354.733l195.358,0l-114.412,267.042l87.546,37.541l171.4,-399.854l-185.725,0l108.458,-216.896Z" style="fill:#fff;fill-rule:nonzero;"/></g></svg>