<?xml version="1.0" encoding="UTF-8" standalone="no"?><!DOCTYPE svg PUBLIC "-//W3C//DTD SVG 1.1//EN" "http://www.w3.org/Graphics/SVG/1.1/DTD/svg11.dtd"><svg width="100%" height="100%" viewBox="0 0 167 167" version="1.1" xmlns="http://www.w3.org/2000/svg" xmlns:xlink="http://www.w3.org/1999/xlink" xml:space="preserve" xmlns:serif="http://www.serif.com/" style="fill-rule:evenodd;clip-rule:evenodd;stroke-linejoin:round;stroke-miterlimit:2;"><circle cx="83.333" cy="83.333" r="83.333" style="fill:#ffb200;"/><clipPath id="_clip1"><circle cx="83.333" cy="83.333" r="83.333"/></clipPath><g clip-path="url(#_clip1)"><path d="M123.538,65.817l-16.082,0l0,-25.212c0,-4.641 -3.6,-8.404 -8.041,-8.404c-4.44,0 -8.041,3.763 -8.041,8.404l0,25.212l-16.082,0l0,-25.212c0,-4.641 -3.6,-8.404 -8.041,-8.404c-4.44,0 -8.041,3.763 -8.041,8.404l0,25.212l-16.081,0c-4.441,0 -8.041,3.763 -8.041,8.405c0,4.641 3.6,8.404 8.041,8.404l0,16.808c0,20.291 13.836,37.266 32.163,41.171l0,26.062l16.082,0l0,-26.062c18.328,-3.905 32.164,-20.88 32.164,-41.171l0,-16.808c4.441,0 8.041,-3.763 8.041,-8.404c0,-4.642 -3.6,-8.405 -8.041,-8.405Zm-24.123,42.021l-32.164,0l0,-16.808l32.164,0l0,16.808Z" style="fill-rule:nonzero;"/></g></svg>