<?xml version="1.0" encoding="UTF-8" standalone="no"?><!DOCTYPE svg PUBLIC "-//W3C//DTD SVG 1.1//EN" "http://www.w3.org/Graphics/SVG/1.1/DTD/svg11.dtd"><svg width="100%" height="100%" viewBox="0 0 100 100" version="1.1" xmlns="http://www.w3.org/2000/svg" xmlns:xlink="http://www.w3.org/1999/xlink" xml:space="preserve" xmlns:serif="http://www.serif.com/" style="fill-rule:evenodd;clip-rule:evenodd;stroke-linejoin:round;stroke-miterlimit:2;"><g><path d="M96.556,22.783l0,8.079l-5.17,0l0,-8.079c0,-1.487 1.157,-2.693 2.585,-2.693c1.428,0 2.585,1.206 2.585,2.693Z" style="fill:#96c8ef;fill-rule:nonzero;"/><path d="M84.496,22.783l0,8.079l-5.171,0l0,-8.079c0,-1.487 1.157,-2.693 2.585,-2.693c1.429,0 2.586,1.206 2.586,2.693Z" style="fill:#96c8ef;fill-rule:nonzero;"/><path d="M98.286,36.214l0,10.771c0,3.966 -3.086,7.182 -6.894,7.182l-6.894,0c-3.807,0 -6.894,-3.216 -6.894,-7.182l0,-10.771l20.682,0Z" style="fill:#25a9e8;fill-rule:nonzero;"/><path d="M98.277,30.873c0.951,0 1.723,0.804 1.723,1.795l0,1.796c0,0.991 -0.772,1.795 -1.723,1.795l-20.683,0c-0.952,0 -1.724,-0.804 -1.724,-1.795l0,-1.796c0,-0.991 0.772,-1.795 1.724,-1.795l20.683,0Z" style="fill:#0e5da4;fill-rule:nonzero;"/><path d="M74.118,73.051l0,3.591c-0.006,1.98 -1.546,3.585 -3.447,3.591l-3.447,0l0,-14.363l3.447,0c1.901,0.006 3.441,1.61 3.447,3.591l0,3.59Z" style="fill:#1e81ce;fill-rule:nonzero;"/><path d="M67.925,93.835c0.655,0.665 1.022,1.579 1.017,2.532c-0.006,1.98 -1.546,3.584 -3.447,3.591l-62.048,0c-1.898,-0.015 -3.433,-1.615 -3.447,-3.591c0.006,-1.981 1.546,-3.585 3.447,-3.591l62.048,0c0.915,-0.005 1.791,0.377 2.43,1.059Z" style="fill:#0e5da4;fill-rule:nonzero;"/><path d="M12.062,0l44.813,0c5.71,0 10.341,4.616 10.341,10.309l0,72.163c0,5.693 -4.631,10.309 -10.341,10.309l-44.813,0c-5.71,0 -10.341,-4.616 -10.341,-10.309l0,-72.163c0,-5.693 4.631,-10.309 10.341,-10.309Z" style="fill:#25a9e8;fill-rule:nonzero;"/><path d="M13.786,6.616l41.366,0c1.903,0 3.447,1.608 3.447,3.591l0,10.772c0,1.983 -1.544,3.59 -3.447,3.59l-41.366,0c-1.903,0 -3.447,-1.607 -3.447,-3.59l0,-10.772c0,-1.983 1.544,-3.591 3.447,-3.591Z" style="fill:#ffe89e;fill-rule:nonzero;"/><path d="M44.816,64.038l-13.789,17.953l3.448,-16.158l-10.342,-5.386l15.512,-14.362l-5.17,12.567l10.341,5.386Z" style="fill:#ff5023;fill-rule:nonzero;"/><rect x="77.604" y="36.214" width="20.682" height="3.591" style="fill:#3d9ae2;fill-rule:nonzero;"/><rect x="32.751" y="33.522" width="3.447" height="3.591" style="fill:#0e5da4;fill-rule:nonzero;"/><rect x="39.636" y="33.522" width="3.447" height="3.591" style="fill:#0e5da4;fill-rule:nonzero;"/><rect x="46.533" y="33.522" width="3.447" height="3.591" style="fill:#0e5da4;fill-rule:nonzero;"/><rect x="25.855" y="33.522" width="3.447" height="3.591" style="fill:#0e5da4;fill-rule:nonzero;"/><rect x="18.958" y="33.522" width="3.447" height="3.591" style="fill:#0e5da4;fill-rule:nonzero;"/><path d="M84.45,96.349c-2.855,0 -5.17,-2.37 -5.17,-5.292l0,-14.112c0,-0.974 -0.772,-1.763 -1.724,-1.763l-3.447,0l0,-3.529l3.447,0c2.856,0 5.171,2.37 5.171,5.292l0,14.112c0,0.974 0.771,1.764 1.723,1.764c0.952,0 1.724,-0.79 1.724,-1.764l0,-36.89l3.447,0l0,36.89c0,2.922 -2.315,5.292 -5.171,5.292Z" style="fill:#0e5da4;fill-rule:nonzero;"/></g></svg>