<svg width="24" height="26" viewBox="0 0 24 26" fill="none" xmlns="http://www.w3.org/2000/svg">
<g clip-path="url(#clip0)">
<path d="M23.1638 3.36359V5.38013H21.9229V3.36359C21.9229 2.99227 22.2006 2.69141 22.5433 2.69141C22.8861 2.69141 23.1638 2.99227 23.1638 3.36359Z" fill="#96C8EF"/>
<path d="M20.2693 3.36359V5.38013H19.0283V3.36359C19.0283 2.99227 19.306 2.69141 19.6488 2.69141C19.9916 2.69141 20.2693 2.99227 20.2693 3.36359Z" fill="#96C8EF"/>
<path d="M23.579 6.71582V9.40455C23.579 10.3944 22.8382 11.197 21.9244 11.197H20.2698C19.3561 11.197 18.6152 10.3944 18.6152 9.40455V6.71582H23.579V6.71582Z" fill="#25A9E8"/>
<path d="M23.5767 5.38281C23.8051 5.38281 23.9903 5.58346 23.9903 5.83093V6.27906C23.9903 6.52653 23.8051 6.72718 23.5767 6.72718H18.6129C18.3844 6.72718 18.1992 6.52653 18.1992 6.27906V5.83093C18.1992 5.58346 18.3844 5.38281 18.6129 5.38281H23.5767Z" fill="#0E5DA4"/>
<path d="M17.7883 19.2739V20.1702C17.7868 20.6645 17.4172 21.0649 16.961 21.0664H16.1337V17.4814H16.961C17.4172 17.483 17.7868 17.8834 17.7883 18.3777V19.2739V19.2739Z" fill="#1E81CE"/>
<path d="M16.302 24.4616C16.4592 24.6277 16.5472 24.8557 16.546 25.0935C16.5446 25.5878 16.175 25.9882 15.7187 25.9898H0.827305C0.371839 25.9861 0.00343744 25.5869 0 25.0935C0.00141468 24.5992 0.371032 24.1988 0.827305 24.1973H15.7187C15.9383 24.196 16.1487 24.2914 16.302 24.4616V24.4616Z" fill="#0E5DA4"/>
<path d="M2.89499 0H13.6499C15.0205 0 16.1318 1.20389 16.1318 2.68873V21.5098C16.1318 22.9947 15.0205 24.1986 13.6499 24.1986H2.89499C1.52437 24.1986 0.413086 22.9947 0.413086 21.5098V2.68873C0.413086 1.20389 1.52437 0 2.89499 0V0Z" fill="#25A9E8"/>
<path d="M3.30875 2.69141H13.2364C13.6932 2.69141 14.0637 3.0927 14.0637 3.58765V6.27638C14.0637 6.77132 13.6932 7.17262 13.2364 7.17262H3.30875C2.85187 7.17262 2.48145 6.77132 2.48145 6.27638V3.58765C2.48145 3.0927 2.85187 2.69141 3.30875 2.69141V2.69141Z" fill="#FFE89E"/>
<path d="M10.7558 17.0242L7.44659 21.5054L8.27389 17.4723L5.79199 16.1279L9.51485 12.543L8.27389 15.6798L10.7558 17.0242V17.0242Z" fill="#FF5023"/>
<path d="M23.579 6.71582H18.6152V7.61207H23.579V6.71582Z" fill="#3D9AE2"/>
<path d="M8.68766 9.40723H7.86035V10.3035H8.68766V9.40723Z" fill="#0E5DA4"/>
<path d="M10.34 9.40723H9.5127V10.3035H10.34V9.40723Z" fill="#0E5DA4"/>
<path d="M11.9953 9.40723H11.168V10.3035H11.9953V9.40723Z" fill="#0E5DA4"/>
<path d="M7.03238 9.40723H6.20508V10.3035H7.03238V9.40723Z" fill="#0E5DA4"/>
<path d="M5.37711 9.40723H4.5498V10.3035H5.37711V9.40723Z" fill="#0E5DA4"/>
<path d="M20.268 25.089C19.5827 25.089 19.0271 24.4871 19.0271 23.7447V20.1597C19.0271 19.9122 18.8419 19.7116 18.6134 19.7116H17.7861V18.8153H18.6134C19.2988 18.8153 19.8544 19.4173 19.8544 20.1597V23.7447C19.8544 23.9921 20.0396 24.1928 20.268 24.1928C20.4965 24.1928 20.6817 23.9921 20.6817 23.7447V11.1973H21.509V23.7447C21.509 24.4871 20.9534 25.089 20.268 25.089Z" fill="#0E5DA4"/>
</g>
<defs>
<clipPath id="clip0">
<rect width="24" height="26" fill="white"/>
</clipPath>
</defs>
</svg>
