<?xml version="1.0" encoding="UTF-8" standalone="no"?><!DOCTYPE svg PUBLIC "-//W3C//DTD SVG 1.1//EN" "http://www.w3.org/Graphics/SVG/1.1/DTD/svg11.dtd"><svg width="100%" height="100%" viewBox="0 0 2134 2134" version="1.1" xmlns="http://www.w3.org/2000/svg" xmlns:xlink="http://www.w3.org/1999/xlink" xml:space="preserve" xmlns:serif="http://www.serif.com/" style="fill-rule:evenodd;clip-rule:evenodd;stroke-linejoin:round;stroke-miterlimit:2;"><g><path d="M1033.99,1430.08c-60.996,0 -110.38,50.834 -110.38,111.834c0,59.545 47.93,111.833 110.38,111.833c62.45,0 111.833,-52.283 111.833,-111.833c0,-61 -50.829,-111.834 -111.833,-111.834Z" style="fill:#fff;fill-rule:nonzero;"/><path d="M1052.88,583.342c-196.071,0 -286.117,116.187 -286.117,194.616c0,56.646 47.925,82.788 87.142,82.788c78.425,0 46.475,-111.833 194.617,-111.833c72.62,0 130.716,31.954 130.716,98.762c0,78.433 -81.333,123.454 -129.262,164.121c-42.117,36.308 -97.309,95.858 -97.309,220.762c0,75.521 20.33,97.309 79.88,97.309c71.166,0 85.687,-31.95 85.687,-59.546c0,-75.525 1.458,-119.096 81.338,-181.546c39.212,-30.5 162.666,-129.262 162.666,-265.787c0,-136.525 -123.454,-239.646 -309.358,-239.646Z" style="fill:#fff;fill-rule:nonzero;"/><path d="M1066.67,0c-589.517,0 -1066.67,477.071 -1066.67,1066.67l0,983.333c0,46.025 37.308,83.333 83.333,83.333l983.334,0c589.512,0 1066.67,-477.071 1066.67,-1066.67c0,-589.517 -477.071,-1066.67 -1066.67,-1066.67Zm0,1966.67l-900,0l0,-900c0,-497.405 402.529,-900 900,-900c497.404,0 900,402.529 900,900c0,497.404 -402.53,900 -900,900Z" style="fill:#fff;fill-rule:nonzero;"/></g></svg>