<svg width="16" height="16" viewBox="0 0 16 16" fill="none" xmlns="http://www.w3.org/2000/svg">
<circle cx="8" cy="8" r="8" fill="#25A9E8"/>
<g clip-path="url(#clip0)">
<path d="M11.5036 6.73323C11.1576 6.73323 10.8239 6.80738 10.5149 6.93096L10.0947 6.11531V4.81768C10.0947 4.74353 10.0453 4.66937 9.97116 4.64466L8.98249 4.27391C8.88362 4.23683 8.78476 4.28626 8.74768 4.38513C8.71061 4.484 8.76004 4.58287 8.85891 4.61994L9.73635 4.94126V5.99172H6.11534V5.63333H6.56025C6.65911 5.63333 6.74562 5.54682 6.74562 5.44795C6.74562 5.34909 6.65911 5.26258 6.56025 5.26258H5.41092C5.31205 5.26258 5.22554 5.34909 5.22554 5.44795C5.22554 5.54682 5.31205 5.63333 5.41092 5.63333H5.74459V6.14002L5.3862 6.9186C5.11431 6.80738 4.80535 6.74559 4.4964 6.74559C3.12461 6.74559 2 7.85784 2 9.24198C2 10.6261 3.11226 11.7384 4.4964 11.7384C5.80638 11.7384 6.88156 10.7126 6.98043 9.42736H7.78373C7.84552 9.42736 7.89495 9.40264 7.93203 9.35321L9.8723 6.54785L10.1813 7.1287C9.47683 7.54888 9.00721 8.33982 9.00721 9.22962C9.00721 10.6014 10.1195 11.726 11.5036 11.726C12.8877 11.726 14 10.6138 14 9.22962C14 7.84548 12.8877 6.73323 11.5036 6.73323ZM4.4964 11.3553C3.32235 11.3553 2.37075 10.4037 2.37075 9.22962C2.37075 8.05558 3.32235 7.10398 4.4964 7.10398C4.75592 7.10398 5.00309 7.15341 5.22554 7.23992L4.32338 9.15547C4.32338 9.15547 4.32338 9.15547 4.32338 9.16783C4.31102 9.19255 4.31102 9.20491 4.31102 9.22962C4.31102 9.22962 4.31102 9.22962 4.31102 9.24198C4.31102 9.2667 4.31102 9.27906 4.32338 9.30377V9.31613C4.32338 9.32849 4.32338 9.32849 4.33574 9.34085C4.33574 9.35321 4.34809 9.35321 4.36045 9.36557C4.36045 9.36557 4.36045 9.36557 4.36045 9.37792C4.37281 9.39028 4.39753 9.40264 4.40989 9.415H4.42224C4.44696 9.42736 4.45932 9.42736 4.48404 9.42736H6.59732C6.51081 10.5025 5.60865 11.3553 4.4964 11.3553ZM4.78064 9.04425L5.55922 7.40058C6.14006 7.73426 6.54789 8.33982 6.60968 9.04425H4.78064ZM7.68486 9.04425H6.96807C6.90628 8.19152 6.41195 7.46237 5.70752 7.05455L6.04119 6.35012H9.53862L7.68486 9.04425ZM11.4912 11.3553C10.3172 11.3553 9.3656 10.4037 9.3656 9.22962C9.3656 8.47576 9.76107 7.82077 10.3543 7.43766L11.3306 9.31613C11.3677 9.37792 11.4295 9.415 11.4912 9.415C11.516 9.415 11.553 9.40264 11.5778 9.39028C11.6643 9.34085 11.7013 9.22962 11.6519 9.14311L10.6756 7.26464C10.9351 7.16577 11.207 7.10398 11.4912 7.10398C12.6653 7.10398 13.6169 8.05558 13.6169 9.22962C13.6169 10.4037 12.6653 11.3553 11.4912 11.3553Z" fill="white"/>
</g>
<defs>
<clipPath id="clip0">
<rect width="12" height="12" fill="white" transform="translate(2 2)"/>
</clipPath>
</defs>
</svg>

