<svg width="30" height="30" viewBox="0 0 30 30" fill="none" xmlns="http://www.w3.org/2000/svg">
<circle cx="15" cy="15" r="15" fill="#25A9E8"/>
<g clip-path="url(#clip0)">
<path d="M21.5693 12.6248C20.9204 12.6248 20.2948 12.7638 19.7155 12.9956L18.9276 11.4662V9.03316C18.9276 8.89412 18.835 8.75509 18.6959 8.70875L16.8422 8.01359C16.6568 7.94407 16.4714 8.03676 16.4019 8.22214C16.3324 8.40751 16.4251 8.59289 16.6105 8.66241L18.2557 9.26488V11.2345H11.4663V10.5625H12.3005C12.4858 10.5625 12.648 10.4003 12.648 10.2149C12.648 10.0296 12.4858 9.86735 12.3005 9.86735H10.1455C9.96009 9.86735 9.79789 10.0296 9.79789 10.2149C9.79789 10.4003 9.96009 10.5625 10.1455 10.5625H10.7711V11.5126L10.0991 12.9724C9.58934 12.7638 9.01004 12.648 8.43074 12.648C5.85865 12.648 3.75 14.7335 3.75 17.3287C3.75 19.924 5.83548 22.0095 8.43074 22.0095C10.887 22.0095 12.9029 20.0862 13.0883 17.6763H14.5945C14.7103 17.6763 14.803 17.63 14.8726 17.5373L18.5106 12.2772L19.0899 13.3663C17.769 14.1542 16.8885 15.6372 16.8885 17.3056C16.8885 19.8776 18.974 21.9863 21.5693 21.9863C24.1645 21.9863 26.25 19.9008 26.25 17.3056C26.25 14.7103 24.1645 12.6248 21.5693 12.6248ZM8.43074 21.2911C6.2294 21.2911 4.44516 19.5069 4.44516 17.3056C4.44516 15.1042 6.2294 13.32 8.43074 13.32C8.91735 13.32 9.38079 13.4127 9.79789 13.5749L8.10633 17.1665C8.10633 17.1665 8.10633 17.1665 8.10633 17.1897C8.08316 17.236 8.08316 17.2592 8.08316 17.3056C8.08316 17.3056 8.08316 17.3056 8.08316 17.3287C8.08316 17.3751 8.08316 17.3982 8.10633 17.4446V17.4678C8.10633 17.4909 8.10633 17.4909 8.1295 17.5141C8.1295 17.5373 8.15268 17.5373 8.17585 17.5605C8.17585 17.5605 8.17585 17.5604 8.17585 17.5836C8.19902 17.6068 8.24536 17.63 8.26854 17.6531H8.29171C8.33805 17.6763 8.36122 17.6763 8.40757 17.6763H12.37C12.2078 19.6923 10.5162 21.2911 8.43074 21.2911ZM8.9637 16.958L10.4235 13.8761C11.5126 14.5017 12.2773 15.6372 12.3931 16.958H8.9637V16.958ZM14.4091 16.958H13.0651C12.9493 15.3591 12.0224 13.992 10.7016 13.2273L11.3272 11.9065H17.8849L14.4091 16.958ZM21.5461 21.2911C19.3447 21.2911 17.5605 19.5069 17.5605 17.3056C17.5605 15.8921 18.302 14.664 19.4143 13.9456L21.2448 17.4678C21.3144 17.5836 21.4302 17.6531 21.5461 17.6531C21.5924 17.6531 21.6619 17.63 21.7083 17.6068C21.8705 17.5141 21.94 17.3056 21.8473 17.1434L20.0167 13.6212C20.5033 13.4358 21.0131 13.32 21.5461 13.32C23.7474 13.32 25.5317 15.1042 25.5317 17.3056C25.5317 19.5069 23.7474 21.2911 21.5461 21.2911Z" fill="white"/>
</g>
<defs>
<clipPath id="clip0">
<rect width="22.5" height="22.5" fill="white" transform="translate(3.75 3.75)"/>
</clipPath>
</defs>
</svg>
