<svg width="58" height="58" viewBox="0 0 58 58" fill="none" xmlns="http://www.w3.org/2000/svg">
<g clip-path="url(#clip0)">
<path d="M3.21865e-06 41.536L3.21865e-06 16.464C3.21865e-06 15.103 1.103 14 2.464 14L51.536 14C52.897 14 54 15.103 54 16.464L54 41.536C54 42.897 52.897 44 51.536 44L2.464 44C1.103 44 3.21865e-06 42.897 3.21865e-06 41.536Z" fill="#424A60"/>
<path d="M58 34V24H54V34H58Z" fill="#D8A852"/>
<path d="M29.0001 36V32H41.9321C41.9901 32.012 42.0241 31.936 41.9781 31.9L26.0001 22V27L12.0711 27.002C12.0121 26.986 11.9741 27.062 12.0211 27.1L29.0001 36Z" fill="#EFCE4A"/>
<path d="M54 41.536L54 16.464C54 15.103 52.897 14 51.536 14L45 14L45 44H51.536C52.897 44 54 42.897 54 41.536Z" fill="#EA6248"/>
</g>
<defs>
<clipPath id="clip0">
<rect width="58" height="58" fill="white" transform="translate(58) rotate(90)"/>
</clipPath>
</defs>
</svg>
