<svg width="347" height="587" viewBox="0 0 347 587" fill="none" xmlns="http://www.w3.org/2000/svg">
<path d="M32.7439 468.255C25.7214 453.374 7.96597 447.008 -6.91482 454.03C-21.7956 461.053 -28.1658 478.808 -21.1433 493.689L4.29069 547.58C13.9378 568.23 36.4738 579.588 58.8145 575.061V595.917H78.6751V575.487C100.266 578.771 121.431 567.398 130.609 547.58L156.032 493.689C163.054 478.808 156.684 461.053 141.803 454.03C126.922 447.008 109.167 453.374 102.145 468.255L78.6751 517.994V397.288L102.512 415.165L114.428 399.272L96.6726 385.966C98.6333 385.567 100.571 385.055 102.473 384.427C114.67 380.169 124.673 371.237 130.281 359.598L153.759 318.361C161.929 304.273 157.133 286.229 143.045 278.058C128.961 269.888 110.917 274.684 102.746 288.772C102.527 289.147 102.316 289.529 102.117 289.916L98.4693 296.759C98.0709 284.721 90.3337 274.156 78.9758 270.141L78.804 237.888C81.0654 238.212 83.3463 238.376 85.6273 238.384C91.3609 238.365 97.0437 237.357 102.434 235.404C114.631 231.147 124.634 222.214 130.242 210.575L153.72 169.339C161.89 155.255 157.094 137.21 143.006 129.04C128.918 120.869 110.878 125.665 102.707 139.753C102.488 140.128 102.277 140.511 102.074 140.897L98.4302 147.74C98.0318 135.683 90.2751 125.106 78.8938 121.103V118.662C81.1084 118.986 83.3424 119.158 85.5804 119.178C104.984 119.135 122.611 107.878 130.816 90.2987L141.741 63.9312C149.451 49.5777 144.069 31.6973 129.715 23.9874C129.262 23.7414 128.801 23.5109 128.336 23.2922C118.474 18.6522 106.851 19.8942 98.192 26.5105C96.4344 10.2042 81.788 -1.58721 65.4816 0.174271C50.7883 1.75999 39.4968 13.9107 38.993 28.686C27.2251 17.4727 8.5987 17.9258 -2.61071 29.6898C-11.4103 38.9268 -13.2577 52.7726 -7.18822 63.9898L4.25163 90.7362C13.9417 111.472 36.5988 122.837 59.0137 118.217V120.92C47.07 124.923 39.0047 136.089 38.95 148.685V152.443L32.8142 140.909C24.9637 126.649 7.03641 121.455 -7.22337 129.305C-21.4871 137.156 -26.6817 155.083 -18.8312 169.343L4.29069 209.911C12.5161 227.307 30.0372 238.4 49.2807 238.388C52.5185 238.376 55.7446 238.04 58.9161 237.392L59.084 269.868C47.1052 273.852 39.0047 285.034 38.95 297.657V301.411L32.8142 289.881C24.9637 275.621 7.03641 270.423 -7.22337 278.277C-21.4871 286.128 -26.6817 304.055 -18.8312 318.315L4.29069 358.883C11.1413 373.299 24.5184 383.532 40.2233 386.364L23.0616 399.276L34.9779 415.165L58.8145 397.292V523.509L32.7439 468.255ZM22.2492 539.097L-3.17704 485.21C-5.52048 480.25 -3.39576 474.328 1.5645 471.989C2.87682 471.368 4.31022 471.044 5.76315 471.036C6.91143 471.04 8.04799 471.239 9.12988 471.622C11.6061 472.516 13.6293 474.356 14.7502 476.738L52.1709 556.028C39.6179 557.29 27.6313 550.51 22.2492 539.097ZM120.111 476.738C122.302 471.712 128.157 469.411 133.183 471.602C138.214 473.797 140.51 479.648 138.319 484.679C138.241 484.858 138.159 485.034 138.069 485.21L112.643 539.097C107.242 550.502 95.2432 557.263 82.6902 555.981L120.111 476.738ZM119.623 299.216C122.025 294.673 127.579 292.834 132.219 295.044C137.015 297.314 139.065 303.047 136.792 307.847C136.691 308.066 136.577 308.281 136.456 308.492L112.624 350.4C107.324 361.606 95.6494 368.37 83.2956 367.394L119.623 299.216ZM119.623 150.244C122.032 145.713 127.579 143.873 132.219 146.072C137.015 148.346 139.065 154.075 136.792 158.875C136.691 159.094 136.577 159.309 136.456 159.52L112.624 201.432C107.335 212.645 95.6533 219.414 83.2956 218.422L119.623 150.244ZM119.892 41.2546C124.7 43.5238 126.758 49.2574 124.489 54.0654C124.388 54.2841 124.274 54.5028 124.153 54.7137C123.954 55.0691 123.767 55.4363 123.606 55.8034L112.682 82.2529C107.281 93.7201 95.2158 100.512 82.6121 99.1881L107.351 45.4259C109.753 40.9187 115.268 39.083 119.892 41.2546ZM69.0553 19.8942C74.3632 19.8981 78.6673 24.1983 78.679 29.5062V60.1544L67.4071 84.6471L58.8145 66.1926V29.5062C58.9083 24.1007 63.3686 19.7927 68.7741 19.8825C68.8678 19.8864 68.9616 19.8903 69.0553 19.8942ZM22.3781 82.5888L10.9265 55.7136C10.7664 55.366 10.6062 55.0379 10.4188 54.7215C7.79412 50.1011 9.41109 44.2269 14.0316 41.6022C14.2425 41.4811 14.4612 41.3679 14.6799 41.2663C15.9844 40.6453 17.4139 40.3251 18.859 40.3329C22.2257 40.2704 25.3542 42.0436 27.0337 44.9611L52.2685 99.196C39.8093 100.52 27.8539 93.8764 22.4054 82.5888H22.3781ZM58.8145 148.685C58.9083 143.276 63.3686 138.968 68.7741 139.062C68.8678 139.062 68.9616 139.066 69.0553 139.069C74.3632 139.077 78.6673 143.374 78.679 148.685V184.864L67.4462 205.947L58.8145 189.719V148.685ZM21.8977 200.752L-1.56789 159.528C-4.18863 154.899 -2.56384 149.021 2.06834 146.4C3.50955 145.584 5.13823 145.151 6.79426 145.147C10.3446 145.151 13.6058 147.107 15.2736 150.244L51.5733 218.414C38.9657 219.312 27.1235 212.267 21.8977 200.752ZM58.8145 297.653C58.9083 292.248 63.3686 287.94 68.7741 288.034C68.8678 288.034 68.9616 288.037 69.0553 288.041C74.3632 288.045 78.6673 292.345 78.679 297.653V333.836L67.4462 354.919L58.8145 338.691V297.653ZM21.8977 349.724L-1.56789 308.499C-4.18863 303.871 -2.56384 297.993 2.06834 295.368C3.50955 294.552 5.13823 294.123 6.79426 294.119C10.3446 294.123 13.6058 296.079 15.2736 299.216L51.5733 367.382C38.9657 368.269 27.1352 361.231 21.8977 349.724Z" fill="white" fill-opacity=".3"/>
<path d="M228.186 347.311V351.068L222.05 339.546C214.372 325.189 196.507 319.779 182.153 327.458C167.8 335.133 162.387 352.997 170.065 367.351C170.175 367.558 170.288 367.765 170.405 367.968L193.527 408.541C199.124 420.476 209.267 429.674 221.691 434.084C224.202 434.971 226.78 435.654 229.397 436.127L212.294 448.93L224.214 464.822L247.988 446.992L247.762 519.889L236.638 498.04C229.905 483.027 212.274 476.313 197.261 483.046C182.247 489.78 175.533 507.41 182.267 522.424C182.521 522.994 182.798 523.56 183.087 524.111L196.355 547.569C204.576 564.965 222.093 576.061 241.337 576.053C243.422 576.037 245.504 575.889 247.574 575.604L247.512 595.914H267.376L267.446 574.909C270.805 575.635 274.235 576.002 277.676 576.014C296.911 576.022 314.432 564.937 322.666 547.549L334.047 523.447C341.065 508.562 334.691 490.807 319.81 483.784C304.926 476.762 287.17 483.136 280.148 498.021L267.603 524.607L267.841 446.946L291.748 464.822L303.664 448.93L285.975 435.674C300.633 432.494 313.003 422.726 319.494 409.205L342.964 367.96C350.814 353.696 345.619 335.773 331.36 327.919C317.096 320.068 299.173 325.263 291.322 339.527L287.674 346.369C287.272 334.285 279.48 323.689 268.06 319.713L267.583 297.349C270.016 297.735 272.477 297.938 274.942 297.962C293.916 298.071 311.257 287.248 319.494 270.153L342.964 228.909C350.814 214.649 345.619 196.722 331.36 188.871C317.096 181.017 299.173 186.211 291.318 200.475L287.674 207.318C287.272 195.265 279.515 184.692 268.142 180.693V178.24C270.348 178.564 272.579 178.736 274.813 178.755C294.197 178.693 311.808 167.448 320.01 149.884L330.938 123.529C338.663 109.191 333.305 91.3064 318.971 83.5809C318.514 83.3348 318.049 83.1005 317.576 82.8779C307.714 78.2418 296.087 79.4877 287.428 86.1079C285.667 69.8015 271.024 58.0062 254.718 59.7677C240.024 61.3495 228.733 73.5002 228.225 88.2717C216.477 77.0505 197.854 77.4802 186.637 89.2286C177.81 98.4656 175.959 112.347 182.056 123.575L193.484 150.322C203.158 171.053 225.808 182.419 248.207 177.783V180.474C236.24 184.473 228.155 195.663 228.116 208.283V212.036L221.98 200.514C214.301 186.161 196.441 180.747 182.083 188.426C167.73 196.105 162.316 213.965 169.995 228.323C170.104 228.53 170.218 228.737 170.335 228.94L193.457 269.509C203.006 290.08 225.382 301.457 247.633 297.06L248.117 319.553C236.228 323.603 228.221 334.754 228.186 347.311ZM213.973 538.453L200.706 515.007C198.366 510.042 200.491 504.125 205.451 501.786C206.759 501.165 208.185 500.844 209.634 500.844C213.583 500.88 217.156 503.203 218.789 506.801L243.887 556.071C231.198 557.098 219.23 550.049 213.973 538.453ZM211.142 399.413L187.676 358.176C185.048 353.564 186.657 347.693 191.273 345.065C191.484 344.944 191.699 344.834 191.918 344.729C196.554 342.538 202.1 344.374 204.51 348.9L240.809 417.071C228.198 417.934 216.379 410.884 211.142 399.382V399.413ZM298.161 506.531C300.501 501.571 306.422 499.446 311.382 501.786C316.342 504.125 318.467 510.042 316.127 515.003L304.758 539.097C299.352 550.502 287.35 557.266 274.793 555.981L298.161 506.531ZM308.906 348.873C311.304 344.334 316.858 342.491 321.49 344.702C326.294 346.963 328.352 352.693 326.091 357.497C325.985 357.715 325.872 357.934 325.751 358.149L301.918 400.057C296.599 411.251 284.932 418.008 272.579 417.051L308.906 348.873ZM256.729 404.576L248.047 388.348V347.311C248.137 341.909 252.585 337.601 257.987 337.687C258.092 337.691 258.194 337.695 258.299 337.699C263.603 337.71 267.9 342.007 267.911 347.311V383.493L256.729 404.576ZM308.906 209.833C311.312 205.303 316.854 203.463 321.49 205.662C326.294 207.923 328.352 213.653 326.091 218.457C325.985 218.676 325.872 218.895 325.751 219.109L301.918 261.018C296.607 272.215 284.936 278.976 272.579 278.011L308.906 209.833ZM309.187 100.844C313.987 103.109 316.041 108.839 313.772 113.643C313.671 113.862 313.557 114.081 313.436 114.292C313.229 114.651 313.05 115.022 312.89 115.405L301.965 141.842C296.548 153.294 284.479 160.063 271.883 158.723L296.622 104.984C299.032 100.5 304.527 98.6804 309.136 100.844H309.187ZM258.299 79.4799C263.603 79.4916 267.9 83.7918 267.911 89.0958V119.744L256.639 144.225L248.047 125.77V89.0958C248.137 83.6942 252.585 79.3862 257.987 79.4721C258.092 79.4721 258.194 79.476 258.299 79.4799ZM228.362 157.176C221.027 154.587 215.016 149.193 211.649 142.178L200.159 115.303C200.01 114.956 199.842 114.62 199.663 114.311C197.034 109.698 198.643 103.828 203.256 101.2C203.467 101.079 203.682 100.969 203.904 100.864C205.209 100.247 206.638 99.9263 208.083 99.9302C211.45 99.8755 214.579 101.645 216.266 104.559L241.552 158.774C237.091 159.25 232.58 158.703 228.362 157.176ZM248.047 208.271C248.137 202.869 252.585 198.561 257.987 198.647C258.092 198.651 258.194 198.655 258.299 198.659C263.603 198.671 267.9 202.967 267.911 208.271V244.454L256.678 265.537L248.047 249.308V208.271ZM211.142 260.342L187.676 219.105C185.048 214.493 186.657 208.622 191.273 205.998C191.484 205.877 191.699 205.763 191.918 205.662C196.554 203.467 202.1 205.303 204.51 209.829L240.809 278C228.21 278.859 216.395 271.829 211.142 260.342Z" fill="white" fill-opacity=".3"/>
</svg>
