<svg width="355" height="355" viewBox="0 0 355 355" fill="none" xmlns="http://www.w3.org/2000/svg">
<g clip-path="url(#clip0)">
<path d="M150.375 140.858L153.833 130.167C153.833 113.828 140.588 100.583 124.25 100.583H109.695C49.3672 100.419 0.293615 149.123 0 209.45V325.417C0 341.755 13.2452 355 29.5833 355H88.75C124.694 355 153.833 325.861 153.833 289.917V183.21L143.713 191.3L142 289.917C142 319.325 118.16 343.167 88.75 343.167H29.5833C19.7802 343.167 11.8333 335.22 11.8333 325.417V209.45C12.1269 155.659 55.9029 112.252 109.695 112.417H124.25C134.053 112.417 142.761 114.875 142.761 124.678L142.286 147.52L150.375 140.858Z" fill="#FFFFFF" fill-opacity=".3"/>
<path d="M245.305 100.786H230.75C214.412 100.786 201.167 114.031 201.167 130.369L205.576 141.81L212.714 147.246L213 130.369C213 120.566 220.947 112.619 230.75 112.619H245.305C299.097 112.455 342.873 155.861 343.167 209.652V325.619C343.167 335.422 335.22 343.369 325.417 343.369H266.25C236.841 343.369 213 319.528 213 290.119V192.807L200.342 182.937L201.167 290.119C201.167 326.063 230.306 355.202 266.25 355.202H325.417C341.755 355.202 355 341.957 355 325.619V209.652C354.706 149.325 305.633 100.621 245.305 100.786Z" fill="#FFFFFF" fill-opacity=".3"/>
<path d="M194.717 163.123C184.627 155.139 170.372 155.139 160.282 163.123L68.7515 235.365L76.0881 244.654L167.619 172.412C173.401 167.805 181.599 167.805 187.381 172.412L278.911 244.654L286.248 235.365L194.717 163.123Z" fill="#FFFFFF" fill-opacity=".3"/>
<path d="M159.75 0V125.67C159.807 130.521 157.624 135.127 153.833 138.154L54.0781 216.846L61.4148 226.135L161.051 147.443C167.735 142.2 171.622 134.164 171.583 125.67V0H159.75Z" fill="#FFFFFF" fill-opacity=".3"/>
<path d="M201.167 138.154C197.376 135.127 195.193 130.521 195.25 125.67V0H183.417V125.67C183.378 134.164 187.265 142.2 193.948 147.443L293.585 226.135L300.804 216.846L201.167 138.154Z" fill="#FFFFFF" fill-opacity=".3"/>
</g>
<defs>
<clipPath id="clip0">
<rect width="355" height="355" fill="white" opacity=".5"/>
</clipPath>
</defs>
</svg>
