<svg width="36" height="36" viewBox="0 0 36 36" fill="none" xmlns="http://www.w3.org/2000/svg">
<g clip-path="url(#clip0)">
<path d="M16.9469 5.98636C16.0154 3.98499 16.7343 1.67676 18.5532 0.829501C20.372 -0.0177546 23.336 0.752302 23.8063 2.90807C24.2726 5.04983 23.8354 8.3116 21.9242 8.22232C21.3958 8.1973 20.8634 8.15517 20.348 8.07295C20.2808 8.32464 20.2958 8.83701 20.3911 9.3233C20.761 11.1923 18.2143 12.0807 17.8462 10.2087C17.6316 9.11276 18.0407 8.26251 18.2202 7.46434C17.7019 7.11932 17.2577 6.65313 16.9469 5.98636Z" fill="#F3D2A2"/>
<path d="M16.4726 1.71483C17.6247 0.186707 19.2951 -0.520162 22.2882 0.432406C24.9022 1.26362 24.08 3.51572 23.5877 3.03243C22.8037 2.26334 21.826 2.57319 21.826 2.57319L21.1923 4.89447C21.1923 4.89447 20.8383 5.13708 20.6387 4.37311C20.4382 3.60904 19.3964 3.593 19.0936 4.23572C18.6233 5.23341 19.3272 5.37679 19.4255 5.95129C19.7353 7.76618 17.7079 7.81932 17.7079 7.81932C17.7079 7.81932 17.3238 7.99884 16.5688 6.71333C15.8148 5.42781 15.3285 3.23195 16.4726 1.71483Z" fill="#FFE51E"/>
<path d="M13.8095 21.0469C14.364 21.0469 14.8122 20.5987 14.8122 20.0442C14.8122 15.512 19.4857 10.7723 19.5329 10.7251C19.9229 10.3331 19.9229 9.69837 19.5309 9.30735C19.1388 8.91633 18.5052 8.9173 18.114 9.30735C17.8974 9.52494 12.8068 14.6777 12.8068 20.0442C12.8068 20.5987 13.255 21.0469 13.8095 21.0469Z" fill="#E2C196"/>
<path d="M21.831 35.0845C22.9389 35.0845 23.8364 34.1861 23.8364 33.079V26.0602C23.8364 25.7113 23.7452 25.3684 23.5717 25.0655L19.5609 18.0467C19.0124 17.0852 17.7861 16.7492 16.8255 17.3007C15.864 17.8492 15.5301 19.0745 16.0795 20.0361L19.8256 26.5927V33.0791C19.8256 34.186 20.724 35.0845 21.831 35.0845Z" fill="#25A9E8"/>
<path d="M12.8058 32.0764C13.3944 32.0764 13.9769 31.8187 14.372 31.3234L18.3827 26.3099C18.5843 26.0602 18.7206 25.7654 18.7838 25.4516L19.7865 20.4381C20.0041 19.3522 19.3002 18.2944 18.2143 18.0778C17.1234 17.8582 16.0705 18.5652 15.854 19.65L14.9466 24.1862L11.2406 28.8186C10.5487 29.683 10.6891 30.9453 11.5545 31.6372C11.9234 31.9321 12.3656 32.0764 12.8058 32.0764Z" fill="#25A9E8"/>
<path d="M14.8121 19.0414C14.8121 19.0414 14.8121 20.0441 16.8175 20.0441H20.8283C22.8337 14.0279 21.1883 8.01179 18.8229 8.01179C15.8148 8.01179 15.8148 12.0225 14.8121 17.036" fill="#0E5DA4"/>
<path d="M19.8256 12.0226C19.8265 12.0677 19.8918 16.5869 23.4353 19.245L23.4252 19.259C23.6689 19.4415 23.8363 19.7192 23.8363 20.0471C23.8363 20.6016 23.3872 21.0498 22.8336 21.0498C22.608 21.0498 22.4095 20.9616 22.242 20.8352L22.232 20.8492C17.8703 17.5774 17.8201 12.2501 17.8201 12.0256L19.8256 12.0226Z" fill="#F3D2A2"/>
<path d="M9.6162 31.1318C9.3445 30.8601 9.4558 30.454 9.74556 30.1893C10.2098 29.7651 10.4204 29.6137 10.4204 29.6137C10.676 29.4453 11.2957 29.1956 11.5534 29.4523C13.4315 31.3223 14.8663 33.9955 14.9185 34.927C14.9496 35.4765 14.2717 35.7843 13.8867 35.3993C12.7506 34.2632 10.6008 32.1155 9.6162 31.1318Z" fill="#838383"/>
<path d="M19.9098 36C19.5258 36.003 19.3143 35.638 19.3303 35.245C19.3544 34.6174 19.3944 34.3616 19.3944 34.3616C19.4536 34.0608 19.7103 33.4441 20.0753 33.4411C22.7244 33.418 25.6362 34.2744 26.3351 34.891C26.7482 35.256 26.4915 35.9538 25.9471 35.9579C24.3397 35.9678 21.3015 35.9899 19.9098 36Z" fill="#838383"/>
</g>
<defs>
<clipPath id="clip0">
<rect width="36" height="36" fill="white" transform="matrix(-1 0 0 1 36 0)"/>
</clipPath>
</defs>
</svg>
