<?xml version="1.0" encoding="UTF-8" standalone="no"?><!DOCTYPE svg PUBLIC "-//W3C//DTD SVG 1.1//EN" "http://www.w3.org/Graphics/SVG/1.1/DTD/svg11.dtd"><svg width="100%" height="100%" viewBox="0 0 2084 2084" version="1.1" xmlns="http://www.w3.org/2000/svg" xmlns:xlink="http://www.w3.org/1999/xlink" xml:space="preserve" xmlns:serif="http://www.serif.com/" style="fill-rule:evenodd;clip-rule:evenodd;stroke-linejoin:round;stroke-miterlimit:2;"><g id="Floor"><path d="M373.348,1699.92c369.104,158.987 967.542,158.987 1336.64,0c369.104,-158.984 369.104,-416.755 -0.005,-575.742c-369.1,-158.988 -967.541,-158.988 -1336.64,0c-369.104,158.983 -369.1,416.754 0.004,575.742" style="fill:#fafafa;fill-rule:nonzero;"/></g><g id="Shadows"><path d="M640.957,1301.84l-270.379,156.109l-20.3,-11.942l270.375,-155.888l20.304,11.721Z" style="fill:#ebebeb;fill-rule:nonzero;"/><path d="M528.078,1371.07l108.159,-62.446l2.608,1.505l-108.154,62.441l-2.613,-1.5Z" style="fill:#ebebeb;fill-rule:nonzero;"/><path d="M1945.78,1467c18.821,-10.867 18.821,-28.48 0,-39.346l-731.02,-422.054c-18.821,-10.867 -49.334,-10.871 -68.159,-0.009l-325.508,187.821l31.942,18.458l167.883,-96.625l735.192,424.463l-153.917,88.754l34.092,17.217l309.495,-178.679Z" style="fill:#ebebeb;fill-rule:nonzero;"/><path d="M847.721,1376.62l521.567,301.129c5.304,3.062 13.912,3.062 19.217,0l161.041,-92.979c5.309,-3.067 5.309,-8.034 0,-11.096l-521.562,-301.129c-5.309,-3.063 -13.909,-3.063 -19.217,0l-161.046,92.979c-5.304,3.066 -5.304,8.033 0,11.096" style="fill:#ebebeb;fill-rule:nonzero;"/></g><g id="Plants"><path d="M363.828,1374.31c-5.475,-31.466 -9.216,-90.575 -45.266,-140.383c-26.117,-36.092 -67.28,-68.421 -98.746,-59.062c-29.304,8.72 -24.067,55.179 9.987,81.729c34.054,26.55 78,63.808 97.971,132.054l29.534,48.104l6.52,-62.442Z" style="fill:#009e57;fill-rule:nonzero;"/><g opacity="0.1"><path d="M363.828,1374.31c-5.475,-31.466 -9.216,-90.575 -45.266,-140.383c-26.117,-36.092 -67.28,-68.421 -98.746,-59.062c-29.304,8.72 -24.067,55.179 9.987,81.729c34.054,26.55 78,63.808 97.971,132.054l29.534,48.104l6.52,-62.442Z" style="fill-rule:nonzero;"/></g><path d="M356.921,1398.28c-1.096,0 -2.05,-0.813 -2.196,-1.929c-11.845,-90.13 -53.816,-159.396 -121.375,-200.305c-1.045,-0.637 -1.383,-2 -0.745,-3.05c0.633,-1.05 2.004,-1.37 3.045,-0.745c68.755,41.633 111.455,112.012 123.48,203.52c0.154,1.217 -0.7,2.334 -1.913,2.492c-0.1,0.013 -0.196,0.017 -0.296,0.017" style="fill:#fff;fill-rule:nonzero;"/><path d="M354.163,1441.98c0,0 -17.384,20.025 -50.175,29.692c-32.8,9.67 -49.663,-4.417 -49.663,-4.417c0,0 9.088,-33.125 26.954,-44.417c0,0 -31.383,10.779 -55.008,31.421c0,0 -20.408,2.975 -32.613,-27.171c0,0 9.663,-20.358 48.984,-35.804c0,0 -25.538,-3 -59.992,10.738c-2.533,1.412 -19.187,-37.455 -25.058,-55.617c-5.875,-18.167 1.633,-18.95 15.637,-24.717c14.009,-5.766 63.109,-14.65 73.234,-7.854c10.129,6.796 18.304,33.488 18.304,33.488c0,0 6.675,-16.575 2.796,-30.088c0,0 13.929,-6.85 30.97,-3.292c17.046,3.559 20.513,14.63 24.359,25.955c3.841,11.333 5.108,21.691 4.087,36.32c0,0 8.704,-21.37 2.838,-40.362c0,0 17.229,6.362 28.191,21.417c10.963,15.054 14.25,57.75 -3.845,84.708" style="fill:#009e57;fill-rule:nonzero;"/><path d="M354.163,1444.2c-0.725,0 -1.438,-0.355 -1.859,-1.005c-34.296,-52.554 -143.116,-104.612 -179.967,-106.912c-1.22,-0.079 -2.154,-1.133 -2.074,-2.354c0.079,-1.217 1.029,-2.184 2.354,-2.075c37.558,2.346 148.471,55.383 183.404,108.912c0.667,1.025 0.383,2.4 -0.646,3.075c-0.375,0.242 -0.796,0.359 -1.212,0.359" style="fill:#fff;fill-rule:nonzero;"/></g><g id="Bus-Stop" serif:id="Bus Stop"><path d="M869.116,409.009l0,793.591l-16.062,9.275l0,-793.591l16.062,-9.275Z" style="fill:#37474f;fill-rule:nonzero;"/><path d="M853.052,418.284l0,793.592l-31.95,-18.463l0,-793.546l31.95,18.417Z" style="fill:#263238;fill-rule:nonzero;"/><path d="M1636.3,1645.7l-16.105,9.229l0,-793.541l16.063,-9.275l0.042,793.587Z" style="fill:#37474f;fill-rule:nonzero;"/><path d="M1620.19,861.387l0,793.546l-31.955,-18.417l0,-793.591l31.955,18.462Z" style="fill:#263238;fill-rule:nonzero;"/><path d="M1628.49,819.672c-0.129,-0.088 -0.262,-0.175 -0.441,-0.263l-766.342,-442.396l-0.138,0.088c-18.412,-11.092 -69.05,2.487 -128.737,36.967l-87.067,50.279c-75.262,43.491 -136.279,103.487 -136.279,134.062l0,0.009l-0.008,-0.005l0,18.45l0.008,0.009l0.004,-0.005l767.138,442.905l0,0.02l359.629,-207.679l0,-18.462c0,-6.479 -2.75,-11.096 -7.767,-13.979" style="fill:#0068ce;fill-rule:nonzero;"/><g opacity="0.4"><path d="M1628.05,819.407c-19.037,-10.208 -69.183,3.592 -128.07,37.588l-87.021,50.275c-75.309,43.445 -136.329,103.487 -136.329,134.066l-751.163,-433.696l-15.979,-9.233c0,-30.571 61.021,-90.571 136.283,-134.058l87.067,-50.279c59.687,-34.484 110.321,-48.063 128.737,-36.967l0.134,-0.088l766.341,442.392Z" style="fill:#fff;fill-rule:nonzero;"/></g><g opacity="0.1"><path d="M1276.63,1041.34l0,18.438l-767.15,-442.913l0.008,-18.45l767.142,442.925Z" style="fill-rule:nonzero;"/></g><path d="M1134.86,1396.06c1.909,0 3.842,-0.487 5.613,-1.512l121.204,-69.984c13.246,-7.641 21.479,-21.9 21.479,-37.2l0,-139.958c0,-6.212 -5.033,-11.246 -11.246,-11.246c-6.216,0 -11.254,5.034 -11.254,11.246l0,139.958c0,7.292 -3.917,14.08 -10.229,17.721l-121.204,69.984c-5.38,3.108 -7.221,9.983 -4.113,15.362c2.083,3.613 5.859,5.629 9.75,5.629" style="fill:#263238;fill-rule:nonzero;"/><path d="M1382.29,1535.75c1.904,0 3.837,-0.487 5.612,-1.512l121.204,-69.984c13.246,-7.641 21.479,-21.9 21.479,-37.2l0,-139.958c0,-6.212 -5.037,-11.246 -11.25,-11.246c-6.212,0 -11.25,5.034 -11.25,11.246l0,139.958c0,7.292 -3.916,14.08 -10.233,17.721l-121.2,69.984c-5.379,3.108 -7.225,9.983 -4.117,15.362c2.084,3.613 5.863,5.629 9.755,5.629" style="fill:#263238;fill-rule:nonzero;"/><path d="M895.923,1255.31c1.908,0 3.842,-0.487 5.612,-1.512l121.205,-69.975c13.25,-7.659 21.475,-21.913 21.475,-37.205l0,-139.958c0,-6.212 -5.034,-11.246 -11.246,-11.246c-6.213,0 -11.25,5.034 -11.25,11.246l0,139.958c0,7.288 -3.921,14.08 -10.234,17.725l-121.195,69.98c-5.38,3.104 -7.225,9.983 -4.117,15.362c2.083,3.608 5.862,5.625 9.75,5.625" style="fill:#263238;fill-rule:nonzero;"/><path d="M1361.31,1521.8l0,129.525c0,1.891 1.25,3.775 3.742,5.216c4.991,2.88 13.079,2.88 18.066,0c2.496,-1.441 3.746,-3.325 3.746,-5.216l0,-129.525l-25.554,0Z" style="fill:#263238;fill-rule:nonzero;"/><path d="M1468.21,1460.9l0,129.525c0,1.892 1.246,3.775 3.737,5.217c4.996,2.879 13.084,2.879 18.071,0c2.496,-1.442 3.742,-3.325 3.742,-5.217l0,-129.525l-25.55,0Z" style="fill:#263238;fill-rule:nonzero;"/><path d="M875.366,1241.23l0,129.525c0,1.888 1.25,3.775 3.742,5.217c4.992,2.879 13.079,2.879 18.071,0c2.491,-1.442 3.741,-3.329 3.741,-5.217l0,-129.525l-25.554,0Z" style="fill:#263238;fill-rule:nonzero;"/><path d="M982.271,1180.34l0,129.525c0,1.887 1.246,3.775 3.742,5.216c4.992,2.88 13.079,2.88 18.067,0c2.495,-1.441 3.741,-3.329 3.741,-5.216l0,-129.525l-25.55,0Z" style="fill:#263238;fill-rule:nonzero;"/><path d="M1555.63,1318.85l2.246,-1.296c3.584,-2.071 6.492,-7.104 6.492,-11.246l0,-20.175c0,-4.142 -2.908,-9.175 -6.492,-11.246l-534.225,-308.433c-3.587,-2.071 -9.4,-2.071 -12.987,0l-2.242,1.296c-3.583,2.07 -6.496,7.104 -6.496,11.245l0,20.175c0,4.142 2.913,9.175 6.496,11.246l534.225,308.434c3.583,2.07 9.4,2.07 12.983,0" style="fill:#455a64;fill-rule:nonzero;"/><path d="M1533.91,1296.22l28.558,-16.487c1.175,2.033 1.9,4.329 1.9,6.4l0,20.17c0,4.146 -2.908,9.179 -6.491,11.25l-2.246,1.296c-3.583,2.071 -9.4,2.071 -12.983,0l-8.738,-5.046l0,-17.583Z" style="fill:#263238;fill-rule:nonzero;"/><path d="M1542.65,1283.68l-534.225,-308.429c-3.583,-2.075 -6.491,-0.396 -6.491,3.746l0,20.175c0,4.141 2.908,9.175 6.491,11.246l534.225,308.433c3.584,2.071 6.496,0.392 6.496,-3.75l0,-20.175c0,-4.138 -2.912,-9.175 -6.496,-11.246" style="fill:#37474f;fill-rule:nonzero;"/><path d="M1555.63,1380.53l2.246,-1.296c3.584,-2.071 6.492,-7.104 6.492,-11.246l0,-20.175c0,-4.141 -2.908,-9.175 -6.492,-11.246l-534.225,-308.433c-3.587,-2.071 -9.4,-2.071 -12.987,0l-2.242,1.296c-3.583,2.071 -6.496,7.104 -6.496,11.25l0,20.171c0,4.141 2.913,9.175 6.496,11.25l534.225,308.429c3.583,2.071 9.4,2.071 12.983,0" style="fill:#455a64;fill-rule:nonzero;"/><path d="M1533.91,1357.9l28.558,-16.487c1.175,2.037 1.9,4.329 1.9,6.4l0,20.175c0,4.141 -2.908,9.175 -6.491,11.245l-2.246,1.296c-3.583,2.071 -9.4,2.071 -12.983,0l-8.738,-5.046l0,-17.583Z" style="fill:#263238;fill-rule:nonzero;"/><path d="M1542.65,1345.36l-534.225,-308.429c-3.583,-2.075 -6.491,-0.396 -6.491,3.746l0,20.175c0,4.141 2.908,9.175 6.491,11.246l534.225,308.433c3.584,2.071 6.496,0.392 6.496,-3.75l0,-20.175c0,-4.138 -2.912,-9.175 -6.496,-11.246" style="fill:#37474f;fill-rule:nonzero;"/><path d="M1555.63,1442.21l2.246,-1.296c3.584,-2.071 6.492,-7.104 6.492,-11.246l0,-20.175c0,-4.141 -2.908,-9.175 -6.492,-11.246l-534.225,-308.433c-3.587,-2.067 -9.4,-2.067 -12.987,0l-2.242,1.296c-3.583,2.071 -6.496,7.104 -6.496,11.25l0,20.171c0,4.141 2.913,9.175 6.496,11.25l534.225,308.429c3.583,2.071 9.4,2.071 12.983,0" style="fill:#455a64;fill-rule:nonzero;"/><path d="M1533.91,1419.58l28.558,-16.487c1.175,2.037 1.9,4.333 1.9,6.4l0,20.175c0,4.141 -2.908,9.175 -6.491,11.245l-2.246,1.296c-3.583,2.071 -9.4,2.071 -12.983,0l-8.738,-5.041l0,-17.588Z" style="fill:#263238;fill-rule:nonzero;"/><path d="M1542.65,1407.04l-534.225,-308.43c-3.583,-2.075 -6.491,-0.395 -6.491,3.746l0,20.175c0,4.142 2.908,9.175 6.491,11.246l534.225,308.433c3.584,2.071 6.496,0.392 6.496,-3.745l0,-20.176c0,-4.141 -2.912,-9.179 -6.496,-11.25" style="fill:#37474f;fill-rule:nonzero;"/><path d="M1533.91,1479.55l0,2.592c0,4.138 -2.908,9.175 -6.496,11.246l-17.471,10.087c-3.583,2.071 -9.4,2.071 -12.983,0l-534.225,-308.433c-3.587,-2.071 -6.496,-7.104 -6.496,-11.246l0,-2.591c0,-4.142 2.909,-9.176 6.496,-11.246l17.471,-10.088c3.587,-2.071 9.4,-2.071 12.987,0l534.221,308.434c3.588,2.07 6.496,7.104 6.496,11.245" style="fill:#37474f;fill-rule:nonzero;"/><path d="M1503.45,1472.06l0.004,32.975c2.346,0 4.696,-0.516 6.491,-1.554l17.471,-10.087c3.584,-2.071 6.496,-7.105 6.496,-11.246l0,-2.592c0,-4.137 -2.912,-9.175 -6.496,-11.246l-8.737,-5.041l-15.229,8.791Z" style="fill:#263238;fill-rule:nonzero;"/><path d="M1496.96,1485.89l-534.225,-308.429c-3.588,-2.075 -3.588,-5.429 0,-7.5l17.47,-10.088c3.588,-2.071 9.4,-2.071 12.988,0l534.225,308.433c3.583,2.071 3.583,5.43 0,7.496l-17.475,10.088c-3.583,2.071 -9.4,2.071 -12.983,0" style="fill:#455a64;fill-rule:nonzero;"/><path d="M1480.61,1510.33l0,2.588c0,4.141 -2.904,9.179 -6.496,11.245l-17.466,10.088c-3.588,2.071 -9.404,2.071 -12.988,0l-534.225,-308.429c-3.583,-2.071 -6.491,-7.109 -6.491,-11.246l0,-2.592c0,-4.141 2.908,-9.175 6.491,-11.246l17.471,-10.087c3.588,-2.071 9.4,-2.071 12.988,0l534.22,308.429c3.592,2.071 6.496,7.108 6.496,11.25" style="fill:#37474f;fill-rule:nonzero;"/><path d="M1450.15,1502.83l0,32.975c2.345,0 4.7,-0.517 6.495,-1.554l17.467,-10.088c3.588,-2.066 6.496,-7.104 6.496,-11.246l0,-2.587c0,-4.142 -2.908,-9.179 -6.496,-11.25l-8.733,-5.042l-15.229,8.792Z" style="fill:#263238;fill-rule:nonzero;"/><path d="M1443.66,1516.66l-534.22,-308.43c-3.588,-2.075 -3.588,-5.429 0,-7.5l17.466,-10.087c3.588,-2.071 9.4,-2.071 12.988,0l534.225,308.429c3.587,2.071 3.587,5.429 0,7.5l-17.471,10.088c-3.588,2.07 -9.404,2.07 -12.988,0" style="fill:#455a64;fill-rule:nonzero;"/><path d="M1427.31,1541.1l0,2.592c0,4.137 -2.908,9.175 -6.496,11.246l-17.47,10.087c-3.584,2.071 -9.4,2.071 -12.988,0l-534.225,-308.433c-3.583,-2.071 -6.492,-7.104 -6.492,-11.246l0,-2.592c0,-4.137 2.909,-9.175 6.492,-11.245l17.475,-10.088c3.583,-2.071 9.4,-2.071 12.988,0l534.22,308.433c3.588,2.071 6.496,7.104 6.496,11.246" style="fill:#37474f;fill-rule:nonzero;"/><path d="M1396.85,1533.6l0,32.975c2.35,0 4.7,-0.517 6.496,-1.554l17.471,-10.088c3.583,-2.07 6.496,-7.104 6.496,-11.245l0,-2.592c0,-4.138 -2.913,-9.175 -6.496,-11.246l-8.737,-5.042l-15.23,8.792Z" style="fill:#263238;fill-rule:nonzero;"/><path d="M1390.36,1547.44l-534.221,-308.434c-3.587,-2.07 -3.587,-5.429 0,-7.495l17.471,-10.088c3.584,-2.071 9.4,-2.071 12.988,0l534.225,308.429c3.583,2.071 3.583,5.429 0,7.5l-17.475,10.088c-3.584,2.071 -9.4,2.071 -12.988,0" style="fill:#455a64;fill-rule:nonzero;"/><path d="M1519.33,1282.27c2.312,1.334 4.183,4.575 4.183,7.238c0,2.667 -1.871,3.75 -4.183,2.412c-2.309,-1.329 -4.179,-4.57 -4.179,-7.237c0,-2.667 1.87,-3.746 4.179,-2.413" style="fill:#263238;fill-rule:nonzero;"/><path d="M1519.33,1343.82c2.312,1.333 4.183,4.575 4.183,7.242c0,2.662 -1.871,3.745 -4.183,2.412c-2.309,-1.333 -4.179,-4.575 -4.179,-7.242c0,-2.666 1.87,-3.745 4.179,-2.412" style="fill:#263238;fill-rule:nonzero;"/><path d="M1519.33,1405.37c2.312,1.333 4.183,4.575 4.183,7.237c0,2.667 -1.871,3.75 -4.183,2.417c-2.309,-1.333 -4.179,-4.575 -4.179,-7.241c0,-2.667 1.87,-3.746 4.179,-2.413" style="fill:#263238;fill-rule:nonzero;"/><path d="M1032.97,1001.99c2.309,1.333 4.179,4.575 4.179,7.242c0,2.662 -1.87,3.745 -4.179,2.412c-2.308,-1.333 -4.179,-4.575 -4.179,-7.242c0,-2.666 1.871,-3.745 4.179,-2.412" style="fill:#263238;fill-rule:nonzero;"/><path d="M1032.97,1063.54c2.309,1.333 4.179,4.574 4.179,7.241c0,2.663 -1.87,3.746 -4.179,2.413c-2.308,-1.334 -4.179,-4.575 -4.179,-7.238c0,-2.671 1.871,-3.75 4.179,-2.417" style="fill:#263238;fill-rule:nonzero;"/><path d="M1032.97,1125.09c2.309,1.333 4.179,4.575 4.179,7.241c0,2.663 -1.87,3.746 -4.179,2.413c-2.308,-1.334 -4.179,-4.575 -4.179,-7.238c0,-2.671 1.871,-3.75 4.179,-2.416" style="fill:#263238;fill-rule:nonzero;"/><path d="M1484.66,1456.14c2.025,1.171 2.029,3.071 0.004,4.242c-2.021,1.171 -5.312,1.171 -7.346,0c-2.029,-1.171 -2.033,-3.071 -0.004,-4.242c2.029,-1.171 5.317,-1.171 7.346,0" style="fill:#263238;fill-rule:nonzero;"/><path d="M1431.2,1487.17c2.03,1.171 2.03,3.071 0.009,4.242c-2.025,1.171 -5.313,1.171 -7.346,0c-2.033,-1.171 -2.033,-3.071 -0.008,-4.242c2.033,-1.17 5.32,-1.17 7.345,0" style="fill:#263238;fill-rule:nonzero;"/><path d="M1377.76,1518.19c2.025,1.17 2.029,3.07 0.004,4.241c-2.021,1.171 -5.309,1.171 -7.346,0c-2.029,-1.171 -2.033,-3.071 -0.004,-4.241c2.029,-1.171 5.316,-1.171 7.346,0" style="fill:#263238;fill-rule:nonzero;"/><path d="M998.718,1175.75c2.025,1.17 2.03,3.07 0.005,4.241c-2.025,1.171 -5.313,1.171 -7.346,0c-2.029,-1.171 -2.034,-3.071 -0.004,-4.241c2.029,-1.171 5.316,-1.171 7.345,0" style="fill:#263238;fill-rule:nonzero;"/><path d="M945.266,1206.77c2.029,1.171 2.029,3.071 0.004,4.241c-2.021,1.171 -5.308,1.171 -7.342,0c-2.033,-1.17 -2.037,-3.07 -0.008,-4.241c2.029,-1.171 5.317,-1.171 7.346,0" style="fill:#263238;fill-rule:nonzero;"/><path d="M891.813,1237.8c2.03,1.171 2.03,3.071 0.005,4.242c-2.021,1.17 -5.309,1.17 -7.342,0c-2.033,-1.171 -2.038,-3.071 -0.008,-4.242c2.029,-1.171 5.316,-1.171 7.345,0" style="fill:#263238;fill-rule:nonzero;"/><path d="M1271.91,1142.73c2.308,1.333 4.179,4.575 4.179,7.237c0,2.667 -1.871,3.75 -4.179,2.417c-2.313,-1.333 -4.18,-4.575 -4.18,-7.242c0,-2.666 1.867,-3.745 4.18,-2.412" style="fill:#263238;fill-rule:nonzero;"/><path d="M1271.91,1204.28c2.308,1.334 4.179,4.575 4.179,7.242c0,2.663 -1.871,3.746 -4.179,2.413c-2.313,-1.334 -4.18,-4.575 -4.18,-7.242c0,-2.667 1.867,-3.746 4.18,-2.413" style="fill:#263238;fill-rule:nonzero;"/><path d="M1271.91,1265.83c2.308,1.334 4.179,4.575 4.179,7.242c0,2.663 -1.871,3.746 -4.179,2.413c-2.313,-1.334 -4.18,-4.575 -4.18,-7.242c0,-2.667 1.867,-3.746 4.18,-2.413" style="fill:#263238;fill-rule:nonzero;"/><path d="M1237.65,1316.49c2.029,1.17 2.029,3.066 0.008,4.241c-2.025,1.167 -5.313,1.167 -7.346,0c-2.033,-1.175 -2.033,-3.071 -0.008,-4.242c2.033,-1.17 5.321,-1.17 7.346,0" style="fill:#263238;fill-rule:nonzero;"/><path d="M1184.2,1347.51c2.025,1.17 2.029,3.071 0.004,4.241c-2.02,1.171 -5.308,1.171 -7.345,0c-2.03,-1.17 -2.034,-3.071 -0.005,-4.241c2.03,-1.171 5.317,-1.171 7.346,0" style="fill:#263238;fill-rule:nonzero;"/><path d="M1130.75,1378.54c2.029,1.171 2.033,3.067 0.008,4.242c-2.025,1.166 -5.313,1.166 -7.346,0c-2.029,-1.175 -2.033,-3.071 -0.008,-4.242c2.033,-1.171 5.321,-1.171 7.346,0" style="fill:#263238;fill-rule:nonzero;"/></g><g id="Sign"><path d="M369.79,661.07l0,793.058l-16.063,-9.275l0,-793.238l16.063,9.455Z" style="fill:#263238;fill-rule:nonzero;"/><path d="M395.483,646.071l0,793.221l-25.695,14.838l0,-793.059l25.695,-15Z" style="fill:#37474f;fill-rule:nonzero;"/><path d="M395.483,646.071l-25.695,15l-16.063,-9.454l25.696,-14.821l16.062,9.275Z" style="fill:#455a64;fill-rule:nonzero;"/><path d="M306.934,741.085l143.021,-82.571c5.308,-3.067 9.608,-0.583 9.608,5.546l0,206.775c0,6.125 -4.3,13.575 -9.608,16.637l-143.017,82.575c-5.304,3.063 -9.608,0.58 -9.608,-5.55l-0.005,-206.77c0,-6.13 4.305,-13.58 9.609,-16.642" style="fill:#ffc000;fill-rule:nonzero;"/><path d="M353.418,861.735c-1.975,1.138 -3.663,0.779 -4.475,-0.671l59,-34.062c-0.808,2.387 -2.5,4.696 -4.475,5.837l-50.05,28.896Zm-14.908,-18.242c3.091,-1.787 5.6,-0.337 5.6,3.225c0,3.571 -2.509,7.909 -5.6,9.696c-3.088,1.784 -5.592,0.338 -5.592,-3.233c0,-3.567 2.504,-7.904 5.592,-9.688m-1.409,-35.971c0,-6.774 4.759,-15.012 10.625,-18.399l29.025,-16.759l0,37.796l-38.016,21.946c-0.905,0.521 -1.634,0.1 -1.634,-0.938l0,-23.646Zm3.488,-28.529c1.925,-1.112 3.487,-0.212 3.487,2.013c0,2.225 -1.562,4.929 -3.487,6.041c-1.925,1.113 -3.488,0.209 -3.488,-2.016c0,-2.221 1.563,-4.925 3.488,-6.038m10.933,-5.696c0,-0.512 0.358,-1.133 0.804,-1.391l52.234,-30.154c0.445,-0.259 0.804,-0.055 0.804,0.462l0,6.817c0,0.512 -0.359,1.137 -0.804,1.391l-52.234,30.159c-0.446,0.254 -0.804,0.05 -0.804,-0.467l0,-6.817Zm56.938,43.18l-60.034,34.662l0,-2.787l60.034,-34.663l0,2.788Zm0,-9.759l0,3.254l-60.034,34.663l0,-3.254l60.034,-34.663Zm0,16.267l-60.034,34.662l0,-2.791l60.034,-34.663l0,2.792Zm11.325,-63.196l0,23.642c0,1.037 -0.73,2.3 -1.63,2.821l-38.016,21.95l0,-37.792l29.021,-16.758c5.87,-3.388 10.625,-0.642 10.625,6.137m-3.488,-24.508c1.925,-1.109 3.488,-0.209 3.488,2.016c0,2.221 -1.563,4.925 -3.488,6.038c-1.925,1.112 -3.487,0.212 -3.487,-2.013c0,-2.225 1.562,-4.929 3.487,-6.041m7.675,65.333c0,3.567 -2.508,7.909 -5.596,9.692c-3.091,1.783 -5.596,0.337 -5.596,-3.234c0,-3.566 2.505,-7.908 5.596,-9.691c3.088,-1.784 5.596,-0.338 5.596,3.233m14.058,-44.579l-6.504,3.758c-0.504,0.288 -0.908,0.988 -0.908,1.567l0,15.083l-0.004,0l0,6.721l-2.809,1.575l0,-48.296c0,-8.537 -5.995,-11.995 -13.387,-7.725l-71.946,41.538c-7.396,4.267 -13.392,14.65 -13.392,23.187l0,48.292l-2.812,1.671l0,-6.717l0,-15.083c0,-0.579 -0.404,-0.809 -0.904,-0.521l-6.504,3.758c-0.505,0.284 -0.909,0.988 -0.909,1.563l0,13.825c0,2.141 1.504,3.008 3.354,1.937l1.746,-1.008l0,4.104c0,2.008 1.413,2.825 3.154,1.817l2.875,-1.659l0,34.084l-0.383,0.221c-2,1.154 -3.617,3.962 -3.617,6.27l0,1.205c0,5.545 3.888,7.791 8.688,5.02l1.796,-1.037l0,8.808c0,1.5 1.05,2.109 2.35,1.359l11.254,-6.5c1.3,-0.75 2.354,-2.575 2.354,-4.071l0,-8.809l53.842,-31.087l0,8.808c0,1.496 1.054,2.104 2.35,1.354l11.258,-6.5c1.3,-0.745 2.35,-2.57 2.35,-4.07l0,-8.805l1.796,-1.033c4.8,-2.775 8.692,-9.512 8.692,-15.058l0,-1.204c0,-2.309 -1.621,-3.246 -3.621,-2.092l-0.384,0.221l0,-34.084l2.875,-1.658c1.738,-1.004 3.155,-3.45 3.155,-5.458l0,-4.109l1.745,-1.008c1.855,-1.067 3.355,-3.671 3.355,-5.808l0,-13.821c0,-0.579 -0.405,-0.813 -0.905,-0.525" style="fill:#fff;fill-rule:nonzero;"/></g><g id="Character"><path d="M1224.17,1380.98c6.292,-1.584 39.846,-20.688 43.25,-23.005c3.408,-2.325 10.171,-7.125 10.171,-15.408c0,-7.346 -0.771,-76.442 -6.767,-109.837c-2.946,-16.421 -13.596,-37.942 -34.475,-50.884c-20.875,-12.933 -41.846,-22.3 -59.537,-14.962c-17.696,7.337 -33.821,20.858 -40.775,37.166c-6.95,16.313 -11.725,48.971 -12.221,61.605c-0.492,12.633 0,55.962 0,59.808c0,3.842 0.7,8.854 21.417,21.683c20.712,12.829 49.35,28.263 58.2,32.246c6.737,3.033 15.037,3.025 20.737,1.588" style="fill:#25a9e8;fill-rule:nonzero;"/><path d="M1229.35,1190.83c1.904,1.1 7.433,-1.629 8.262,-2.995c0.838,-1.363 1.046,-13.221 -3.079,-19.771c-4.125,-6.554 -29.921,-18.604 -36.292,-17.717c-6.366,0.888 -11.041,5.871 -11.837,7.558c-0.792,1.688 -1.658,12.717 0,14.967c1.662,2.25 7.55,-1.208 8.067,-2.179c0.516,-0.971 -1.942,-9.008 2.22,-10.688c3.775,-1.529 21.717,6.1 29.055,12.246c3.17,2.659 3.012,9.304 2.875,12.592c-0.138,3.287 -0.238,5.429 0.729,5.987" style="fill:#25a9e8;fill-rule:nonzero;"/><g opacity="0.1"><path d="M1229.35,1190.83c1.904,1.1 7.433,-1.629 8.262,-2.995c0.838,-1.363 1.046,-13.221 -3.079,-19.771c-4.125,-6.554 -29.921,-18.604 -36.292,-17.717c-6.366,0.888 -11.041,5.871 -11.837,7.558c-0.792,1.688 -1.658,12.717 0,14.967c1.662,2.25 7.55,-1.208 8.067,-2.179c0.516,-0.971 -1.942,-9.008 2.22,-10.688c3.775,-1.529 21.717,6.1 29.055,12.246c3.17,2.659 3.012,9.304 2.875,12.592c-0.138,3.287 -0.238,5.429 0.729,5.987" style="fill-rule:nonzero;"/></g><g opacity="0.1"><path d="M1234.54,1268.65c-3.708,-35.916 -10.367,-56.866 -45.492,-72.508c-35.121,-15.638 -48.733,-2.317 -53.721,9.654c-6.566,16.792 -11.029,47.663 -11.508,59.863c-0.492,12.629 0,55.962 0,59.804c0,3.846 0.7,8.858 21.413,21.687c20.716,12.83 49.354,28.263 58.204,32.246c6.733,3.033 15.037,3.025 20.737,1.583c0.871,-0.216 2.284,-0.783 4.05,-1.587c10.938,-13.988 9.7,-77.958 6.317,-110.742" style="fill-rule:nonzero;"/></g><g opacity="0.1"><path d="M1152.66,1182.12c9.159,-5.371 24.217,-8.909 46.3,0.933c39.496,17.596 49.521,39.625 53.5,78.208c0.734,7.079 1.792,15.513 2.246,24.588l3.263,-1.971c-0.463,-9.788 -1.405,-18.171 -2.234,-25.729c-4.271,-38.959 -16.033,-60.492 -53.771,-77.296c-20.879,-9.296 -34.62,-8.075 -43.695,-3.504c-1.73,1.329 -3.359,2.637 -5.609,4.771" style="fill-rule:nonzero;"/></g><path d="M1151.29,1183.11c9.154,-5.371 24.217,-8.909 46.3,0.933c39.496,17.596 49.517,39.625 53.5,78.213c0.733,7.075 1.792,15.504 2.246,24.583l3.258,-1.971c-0.458,-9.787 -1.4,-18.171 -2.233,-25.729c-4.271,-38.958 -16.034,-60.492 -53.767,-77.296c-20.883,-9.296 -34.987,-7.754 -44.071,-3.183c-1.729,1.333 -2.983,2.316 -5.233,4.45" style="fill:#fff;fill-rule:nonzero;"/><path d="M1164.07,1217.25l11.933,-6.809c1.225,-0.696 2.787,-0.275 3.492,0.95l12.25,21.288c0.704,1.221 0.287,2.787 -0.934,3.496l-11.787,6.875c-1.217,0.712 -2.775,0.3 -3.484,-0.921l-12.408,-21.409c-0.708,-1.216 -0.287,-2.77 0.938,-3.47" style="fill:#37474f;fill-rule:nonzero;"/><path d="M1176.87,1240.61l-11.759,-20.284c-0.354,-0.612 -0.141,-1.387 0.467,-1.737l10.825,-6.175c0.608,-0.35 1.392,-0.138 1.746,0.475l11.621,20.196c0.35,0.612 0.141,1.396 -0.471,1.75l-10.688,6.233c-0.612,0.358 -1.387,0.15 -1.741,-0.458" style="fill:#455a64;fill-rule:nonzero;"/><path d="M1174.35,1230.91c-0.625,-0.362 -1.133,-1.162 -1.133,-1.787l0,-9.708c0,-0.625 0.508,-0.838 1.133,-0.48c0.625,0.363 1.129,1.163 1.129,1.792l0,9.704c0,0.625 -0.504,0.838 -1.129,0.479" style="fill:#37474f;fill-rule:nonzero;"/><path d="M1180.67,1234.55c-0.62,-0.358 -1.129,-1.158 -1.129,-1.787l0,-9.704c0,-0.625 0.508,-0.842 1.129,-0.48c0.625,0.363 1.134,1.163 1.134,1.788l0,9.704c0,0.629 -0.509,0.842 -1.134,0.479" style="fill:#37474f;fill-rule:nonzero;"/><path d="M1252.57,1279.03c0,0 -2.063,8.009 -1.942,11.43c0.029,0.787 1.054,1.195 1.367,1.204c1.833,0.041 6.275,-2.725 6.65,-3.471c0.375,-0.742 -1.779,-9.742 -1.779,-9.742l-4.296,0.579Z" style="fill:#263238;fill-rule:nonzero;"/><path d="M1250.35,1275.98c0,-2.288 1.854,-4.146 4.146,-4.146c2.292,0 4.146,1.858 4.146,4.146c0,2.291 -1.854,4.145 -4.146,4.145c-2.292,0 -4.146,-1.854 -4.146,-4.145" style="fill:#263238;fill-rule:nonzero;"/><g opacity="0.1"><path d="M1198.25,1159.81c-4.55,-0.438 -8.825,-0.042 -9.92,4.533c-1.096,4.575 -0.696,8.683 0,9.267c2.379,-0.088 5.758,-2.196 6.145,-2.921c0.517,-0.971 -1.941,-9.009 2.221,-10.692c0.379,-0.154 0.913,-0.208 1.554,-0.187" style="fill-rule:nonzero;"/></g><path d="M1244.66,1308.35l24.275,-14.146c1.359,-0.8 3.067,-0.696 4.309,0.283c2.67,2.1 6.983,6.904 9.325,17.025c3.55,15.363 2.583,35.704 -1.346,38.025l-26.254,15.313c-3.934,2.316 -9.521,-2.542 -10.913,-4.221c-2.858,-3.438 -2.146,-39.967 0.604,-52.279" style="fill:#25a9e8;fill-rule:nonzero;"/><g opacity="0.1"><path d="M1244.66,1308.35c0,0 4.963,4.083 8.517,19.445c3.55,15.367 5.717,34.734 1.792,37.055c-3.934,2.316 -9.521,-2.542 -10.913,-4.221c-2.858,-3.438 -2.146,-39.967 0.604,-52.279" style="fill-rule:nonzero;"/></g><g opacity="0.1"><path d="M1271.97,1296.81c2.879,1.429 7.758,5.333 9.966,15.742c0.696,3.287 -0.466,6.487 -2.466,7.904c-2.005,1.412 -11.092,5.75 -16.792,9.146c-4.917,2.929 -7.475,-0.967 -8.554,-3.396l-0.004,0c-1.796,-4.338 -3.392,-7.709 -4.742,-10.296c-2.517,-5.742 -4.721,-7.558 -4.721,-7.558l23.404,-11.367c1.196,-0.704 2.667,-0.792 3.909,-0.175" style="fill-rule:nonzero;"/></g><path d="M1269.27,1294.01c1.192,-0.704 2.667,-0.791 3.908,-0.175c2.884,1.43 7.763,5.334 9.963,15.742c0.696,3.288 -0.459,6.488 -2.463,7.9c-2,1.417 -11.091,5.754 -16.791,9.15c-4.917,2.929 -7.475,-0.967 -8.559,-3.4l0,0.004c-5.941,-12.458 -10.666,-14.883 -10.666,-14.883l24.608,-14.338Z" style="fill:#25a9e8;fill-rule:nonzero;"/><g opacity="0.4"><path d="M1269.27,1294.01c1.192,-0.704 2.667,-0.791 3.908,-0.175c2.884,1.43 7.763,5.334 9.963,15.742c0.696,3.288 -0.459,6.488 -2.463,7.9c-2,1.417 -11.091,5.754 -16.791,9.15c-4.917,2.929 -7.475,-0.967 -8.559,-3.4l0,0.004c-5.941,-12.458 -10.666,-14.883 -10.666,-14.883l24.608,-14.338Z" style="fill:#fff;fill-rule:nonzero;"/></g><path d="M1139.29,1274.52l72.109,41.629l0,4.254l-72.109,-41.629l0,-4.254Z" style="fill:#fff;fill-rule:nonzero;"/><g opacity="0.1"><path d="M1139.29,1281.25l72.109,41.629l0,-2.483l-72.109,-41.629l0,2.483Z" style="fill-rule:nonzero;"/></g><path d="M1213.75,1322.19c0,0 2.062,8.008 1.942,11.425c-0.03,0.791 -1.055,1.195 -1.367,1.204c-1.829,0.046 -6.275,-2.725 -6.65,-3.467c-0.375,-0.746 1.779,-9.746 1.779,-9.746l4.296,0.584Z" style="fill:#263238;fill-rule:nonzero;"/><path d="M1215.96,1319.15c0,-2.292 -1.854,-4.15 -4.146,-4.15c-2.287,0 -4.146,1.858 -4.146,4.15c0,2.287 1.859,4.146 4.146,4.146c2.292,0 4.146,-1.859 4.146,-4.146" style="fill:#263238;fill-rule:nonzero;"/><path d="M1288.77,1695.43l-29.187,-3.016l6.042,-44.588l31.575,2.958l-8.43,44.646Z" style="fill:#ffa8a7;fill-rule:nonzero;"/><path d="M1262.03,1674.34l0.537,-3.942c-2.85,1.083 -19,30.437 -28.85,42.625c-10.195,12.621 -26.512,23.208 -30.137,32.408c-3.771,9.571 20.825,15.638 29.483,14.517c10.063,-1.304 27.679,-7.529 32.329,-13.838c4.642,-6.316 7.125,-15.829 10.871,-20.441c3.75,-4.609 18.225,-14.309 20.492,-22.267c0.883,-3.092 0.137,-15.579 -1.075,-21.262c-1.108,-5.217 -0.633,-10.909 -2.417,-10.509l-0.8,4.234c-2.225,2.245 -9.208,3.204 -15.825,3.15c-4.275,-0.034 -14.791,-1.425 -14.608,-4.675" style="fill:#263238;fill-rule:nonzero;"/><path d="M1190.02,1637.69l-30.834,-3.096l15.888,-48.008l32.721,-0.887l-17.775,51.991Z" style="fill:#ffa8a7;fill-rule:nonzero;"/><path d="M1162.58,1624.31c-1.446,0.05 -3.721,1.587 -7.562,4.954c-4.279,3.746 -26.471,16.879 -32.696,19.996c-10.442,5.225 -30.733,13.262 -39.917,17.404c-5.737,2.583 -5.471,9.512 0.459,13.458c5.933,3.942 20.608,12.304 37.804,8.458c9.366,-2.091 38.971,-18.154 46.687,-17.687c7.721,0.466 22.163,0.358 27.859,-3.571c5.695,-3.925 3.054,-17.833 1.45,-25.042c-1.759,-7.862 -0.255,-16.229 -2.855,-15.691l-1.833,5.358c-3.35,5.075 -31.192,1.117 -30.775,-3.467l1.379,-4.17Z" style="fill:#263238;fill-rule:nonzero;"/><path d="M1445.76,1376.11c6.104,43.079 -2.125,51.35 -43.067,92.612c-22.017,22.188 -68.55,53.079 -68.55,53.079c0,0 4.275,24.463 -4.737,53.971c-9.955,32.6 -34.667,89.967 -34.667,89.967c0,0 -16.354,7.071 -32.704,-1.221c0,0 7.479,-47.896 10.916,-82.133c5.434,-54.046 10.13,-72.329 12.505,-82.329c2.091,-8.817 49.158,-57.93 58.775,-72.692l-95.092,47.783c0,0 -0.479,29.384 -6.229,45.167c-14.871,40.837 -46.329,102.929 -46.329,102.929c0,0 -23.938,2.417 -33.996,-5.408c0,0 30.487,-149.575 34.312,-162.234c6.671,-22.083 87.263,-80.066 103.775,-94.033c9.421,-7.971 19.938,-16.483 19.938,-16.483l125.15,31.025Z" style="fill:#37474f;fill-rule:nonzero;"/><path d="M1445.76,1376.11l-25.209,-6.25l0.759,7.8c0,0 1.946,45.333 -33.825,80.604c-35.767,35.271 -66.263,55.883 -68.075,63.537c-1.821,7.655 -3.846,73.496 -36.063,146.546c6.767,-0.633 11.392,-2.608 11.392,-2.608c0,0 24.712,-57.367 34.667,-89.967c9.012,-29.508 4.737,-53.971 4.737,-53.971c0,0 46.534,-30.891 68.55,-53.079c40.942,-41.262 49.171,-49.533 43.067,-92.612" style="fill:#263238;fill-rule:nonzero;"/><path d="M1344.23,1427.36c0,0 -14.208,-10.504 -20.233,-28.862c0,0 0.754,12.37 3.146,21.954c2.4,9.579 -78.004,54.691 -78.004,54.691l95.091,-47.783Z" style="fill:#263238;fill-rule:nonzero;"/><path d="M1325.89,1264.01c0,0 -56.821,-55.991 -67.2,-65.283c-10.746,-9.629 -32.604,-15.783 -47.296,-13.287c-14.7,2.495 -13.895,13.75 -1.183,19.12c20.85,8.809 27.238,16.925 26.713,17.855c-0.521,0.92 -15.059,-6.005 -21.234,-2.542c-6.175,3.462 -2.933,7.867 0,8.7c2.934,0.837 15.646,6.812 22.417,8.875c6.771,2.067 16.508,2.258 25.937,8.746c9.434,6.483 45.521,62.166 60.767,71.05c15.25,8.883 17.5,-51.979 17.5,-51.979l-16.421,-1.255Z" style="fill:#ffa8a7;fill-rule:nonzero;"/><path d="M1362.88,1177.24c-14.087,-1.858 -24.525,1.137 -32.754,13.846c-8.229,12.712 -13.067,64.233 -13.067,64.233c0,0 2.942,12.579 12.413,16.521c9.475,3.942 33.408,-94.6 33.408,-94.6" style="fill:#470700;fill-rule:nonzero;"/><path d="M1438.06,1201.2c0,0 9.791,8 9.791,33.291l0,54.617l-1.4,91.833c-19.55,21.267 -107.47,13.2 -129.154,-33.171c0,0 3.142,-98.104 6.079,-119.62c3.98,-29.209 11.317,-50.292 39.5,-50.917l43.009,10.004l32.175,13.963Z" style="fill:#77002b;fill-rule:nonzero;"/><path d="M1463.61,1466.55c-3.309,4.15 -7.354,7.792 -12.134,10.104c-6.091,2.946 -13.05,3.596 -19.812,3.371c-2.963,-0.1 -5.988,-0.371 -8.688,-1.6c-2.095,-0.958 -4.891,-3.079 -5.295,-5.538c-0.417,-2.525 2.17,-4.654 3.912,-6.071c3.004,-2.445 5.563,-5.383 8.104,-8.304c1.259,-1.446 2.517,-2.891 3.63,-4.45c1.354,-1.887 2.491,-3.925 3.766,-5.841c0.696,-1.05 2.496,-4.021 0.754,-4.942c-0.666,-0.354 -1.475,-0.225 -2.212,-0.058c-2.254,0.521 -4.438,1.337 -6.704,1.804c-2.267,0.466 -4.696,0.571 -6.838,-0.313c-0.996,-0.408 -1.962,-1.091 -2.317,-2.108c-0.345,-1 -0.016,-2.138 0.596,-3c0.613,-0.862 1.479,-1.513 2.329,-2.142c2.592,-1.92 5.184,-3.845 7.78,-5.771c5.145,-3.82 11.237,-6.112 15,-11.612c2.716,-3.967 3.333,-8.904 4.233,-13.517c3,-15.408 6.196,-76.112 6.196,-76.112l-19.846,-70.613c0,0 -18.313,-37.862 1.996,-58.633c9.404,4.363 20.391,3.35 32.425,44.979c8.633,29.842 23.708,70.113 23.704,83.263c0,4.679 -0.362,10.046 -1.625,16.758c-5.525,29.354 -11.125,54.525 -16.05,83.896c-0.421,2.508 -0.362,5.046 -0.8,7.508c-3.125,17.659 -8.8,24.788 -12.104,28.942" style="fill:#ffa8a7;fill-rule:nonzero;"/><path d="M1438.06,1201.2c0,0 11.625,1.62 18.725,9.7c4.112,4.683 13.05,19.991 17.933,38.041c4.879,18.046 12.329,41.138 12.329,41.138c0,0 -15.304,17.362 -41.8,15.075l-14.933,-48.567c0,0 -13.942,-42.775 7.746,-55.387" style="fill:#470700;fill-rule:nonzero;"/><path d="M1398.55,1099.86c0,21.858 -17.716,39.575 -39.571,39.575c-21.858,0 -39.575,-17.717 -39.575,-39.575c0,-21.854 17.717,-39.575 39.575,-39.575c21.855,0 39.571,17.721 39.571,39.575" style="fill:#263238;fill-rule:nonzero;"/><path d="M1423.73,1123.5c0,0 -6.066,28.516 -8.504,33.204c-2.433,4.683 -7.462,6.016 -7.462,6.016l0.425,-20.062l15.541,-19.158Z" style="fill:#263238;fill-rule:nonzero;"/><path d="M1416.11,1082.64c0,0 6.538,-1.121 11.634,4.091c4.995,5.109 2.208,21.1 -4.017,36.763l-11.429,1.312l3.812,-42.166Z" style="fill:#263238;fill-rule:nonzero;"/><path d="M1408.87,1124.82c2.292,1.371 5.563,-3.038 8.392,-5.992c2.825,-2.958 12.054,-7.004 16.662,2.7c4.692,9.888 -4.066,22.95 -11.333,25.229c-12.525,3.934 -14.404,-4.1 -14.404,-4.1l-0.954,45.171c-10.792,12.054 -47.7,9.179 -40.742,-1.196l0.033,-13.746c0,0 -11.345,1.721 -16.879,0.867c-9.212,-1.425 -15.004,-8.692 -17.796,-18.658c-4.487,-16.013 -6.195,-28.942 -2.387,-60.429c4.171,-34.517 44.317,-34.875 65.996,-21.23c21.675,13.642 13.412,51.384 13.412,51.384" style="fill:#ffa8a7;fill-rule:nonzero;"/><path d="M1408.87,1128.68c1.15,0.021 5.538,-7.254 8.392,-9.85c3.954,-3.6 -1.15,-36.183 -1.15,-36.183c0,0 3.8,-8.1 -3.813,-16.479c-5.42,-5.963 -14.47,-6.625 -29.929,-9.054c-8.112,-1.275 -20.404,-3.546 -28.5,-5.05c-9.671,-1.8 -17.679,-3.7 -24.508,2.229c-5.313,4.621 -7.6,12.779 -4.742,19.212c0.671,1.513 1.646,2.875 2.746,4.1c1.958,2.179 4.175,3.892 6.963,4.796c0,0 4.216,3.742 18.887,5.525c14.667,1.788 37.513,-0.342 40.638,-0.767c4.254,-0.583 5.166,3.538 7.458,14.8c2.012,9.888 3.679,26.646 7.558,26.721" style="fill:#263238;fill-rule:nonzero;"/><path d="M1416.09,1085.18l13.862,-7.442c-1.971,-3.971 -6.666,-5.525 -10.491,-3.471c-3.83,2.058 -5.342,6.942 -3.371,10.913" style="fill:#263238;fill-rule:nonzero;"/><path d="M1366.52,1172.88c0,0 20.558,-4.141 27.746,-7.962c4.808,-2.554 8.775,-6.988 9.933,-9.829c0,0 -1.341,6.1 -5.646,11.595c-5.25,6.717 -32.033,11.667 -32.033,11.667l0,-5.471Z" style="fill:#f28f8f;fill-rule:nonzero;"/><path d="M1371.46,1119.68c0,2.362 1.846,4.275 4.121,4.266c2.275,-0.004 4.121,-1.925 4.121,-4.291c0,-2.363 -1.846,-4.275 -4.121,-4.267c-2.275,0.008 -4.121,1.929 -4.121,4.292" style="fill:#263238;fill-rule:nonzero;"/><path d="M1378.08,1102.62l8.813,4.862c1.304,-2.529 0.383,-5.671 -2.05,-7.017c-2.438,-1.341 -5.463,-0.375 -6.763,2.155" style="fill:#263238;fill-rule:nonzero;"/><path d="M1368.38,1148.14l-9.404,3.529c0.929,2.696 3.787,4.092 6.387,3.117c2.596,-0.975 3.95,-3.95 3.017,-6.646" style="fill:#f28f8f;fill-rule:nonzero;"/><path d="M1333.67,1106.25l8.038,-6.188c-1.642,-2.304 -4.771,-2.783 -6.988,-1.075c-2.216,1.709 -2.691,4.963 -1.05,7.263" style="fill:#263238;fill-rule:nonzero;"/><path d="M1337.2,1118.51c0,2.362 1.841,4.275 4.121,4.266c2.275,-0.004 4.12,-1.925 4.12,-4.287c0,-2.367 -1.845,-4.275 -4.12,-4.271c-2.28,0.008 -4.121,1.929 -4.121,4.292" style="fill:#263238;fill-rule:nonzero;"/><path d="M1357.56,1115.2l-0.479,24.983l-14.766,-3.254l15.245,-21.729Z" style="fill:#f28f8f;fill-rule:nonzero;"/></g><g id="Cloud"><path d="M1633.37,568.939l30.459,17.584c-0.155,-1.359 -0.259,-2.709 -0.259,-4.034l0,-8.821c0,-15.7 11.025,-22.066 24.621,-14.212c5.508,3.175 10.571,8.212 14.675,14.108c2.225,-19.741 17.717,-27.1 36.529,-16.237c20.346,11.746 36.838,40.312 36.838,63.8l0,13.2c0,6.087 -1.125,11.208 -3.121,15.291l25.296,14.609c7.546,4.354 13.662,14.946 13.662,23.654c0,8.708 -6.116,12.237 -13.662,7.883l-165.038,-95.283c-7.546,-4.359 -13.658,-14.946 -13.658,-23.659c0,-8.708 6.112,-12.237 13.658,-7.883" style="fill:#ebebeb;fill-rule:nonzero;"/></g><path d="M1419.28,1398.29c-0.975,-2.252 -2.805,-4.024 -5.086,-4.926c-2.282,-0.902 -4.828,-0.862 -7.08,0.114c-6.615,2.865 -15.758,6.825 -22.373,9.69c-2.252,0.975 -4.023,2.805 -4.926,5.087c-0.902,2.281 -0.861,4.828 0.114,7.079c6.345,14.649 19.278,44.509 25.623,59.157c0.975,2.252 2.805,4.024 5.086,4.926c2.282,0.903 4.828,0.862 7.08,-0.113c6.615,-2.866 15.758,-6.826 22.373,-9.691c2.251,-0.975 4.023,-2.805 4.926,-5.086c0.902,-2.282 0.861,-4.829 -0.114,-7.08c-6.345,-14.649 -19.278,-44.509 -25.623,-59.157Z" style="fill:#a11b00;"/><path d="M1409.33,1410.13l5.184,3.599l-2.592,3.409l4.194,1.302l-1.98,5.823l-4.194,-1.302l0,4.213l-6.408,0l0,-4.213l-4.194,1.302l-1.98,-5.823l4.194,-1.302l-2.592,-3.409l5.184,-3.599l2.592,3.409l2.592,-3.409Z" style="fill:#fff;fill-opacity:0.45;"/><path d="M1463.61,1466.55c-3.309,4.15 -7.354,7.792 -12.134,10.104c-6.091,2.946 -13.05,3.596 -19.812,3.371c-2.963,-0.1 -5.988,-0.371 -8.688,-1.6c-2.095,-0.958 -4.891,-3.079 -5.295,-5.538c-0.417,-2.525 2.17,-4.654 3.912,-6.071c3.004,-2.445 5.563,-5.383 8.104,-8.304c1.259,-1.446 2.517,-2.891 3.63,-4.45c1.354,-1.887 2.491,-3.925 3.766,-5.841c0.696,-1.05 1.318,-2.396 0.825,-6.899c-0.419,-3.823 11.78,-0.835 9.638,-1.718c-0.996,-0.408 -1.721,1.017 -2.075,0c-0.346,-1 2.248,-1.367 3.098,-1.996c2.592,-1.921 4.738,3.921 7.333,1.996c5.146,-3.821 -14.194,-14.025 -10.431,-19.525c2.716,-3.967 3.333,-8.904 4.233,-13.517c3,-15.408 6.196,-76.112 6.196,-76.112c0,0 38.283,-14.154 38.279,-1.004c0,4.679 -0.362,10.046 -1.625,16.758c-5.525,29.354 -11.125,54.525 -16.05,83.896c-0.421,2.508 -0.362,5.046 -0.8,7.508c-3.125,17.659 -8.8,24.788 -12.104,28.942" style="fill:#ffa8a7;fill-rule:nonzero;"/></svg>