<svg width="39" height="39" viewBox="0 0 39 39" fill="none" xmlns="http://www.w3.org/2000/svg">
<g clip-path="url(#clip0)">
<path d="M32.6792 15.737L19.4783 15.695L24.4812 1.35902C24.6073 0.98065 24.5232 0.5182 24.1869 0.223913C23.7665 -0.112414 23.1359 -0.0703734 22.7996 0.350036C20.8657 2.70433 18.9318 5.05862 17.0399 7.41291C13.1722 12.1635 9.30441 16.9142 5.43665 21.6648C5.31052 21.833 5.22644 22.0432 5.22644 22.2954C5.22644 22.8419 5.64685 23.2623 6.19338 23.2623L19.3942 23.3044L14.3914 37.6403C14.2652 38.0187 14.3493 38.4812 14.6857 38.7754C15.1061 39.1118 15.7367 39.0697 16.073 38.6493C18.091 36.1689 20.0248 33.8567 21.9587 31.5444C25.8685 26.8358 29.7783 22.1272 33.478 17.3346C33.6041 17.1664 33.6882 16.9562 33.6882 16.746C33.6881 16.1995 33.2257 15.737 32.6792 15.737ZM20.4453 30.2411C19.6885 31.166 18.8897 32.0909 18.133 33.0158L21.7485 22.6738C21.9167 22.1693 21.6644 21.5807 21.1179 21.4125C20.9918 21.3705 20.8657 21.3705 20.7395 21.3705L8.29543 21.3285C11.7428 17.1244 15.1481 12.9203 18.5955 8.71618L20.7816 6.02556L17.1661 16.3256C16.9979 16.8301 17.2501 17.4187 17.7967 17.5868C17.9228 17.6289 18.0489 17.6289 18.175 17.6289L30.7032 17.6709C27.382 21.917 23.9347 26.0791 20.4453 30.2411Z" fill="white"/>
<path d="M16.6195 2.62055C16.4934 2.07402 15.9469 1.73769 15.4424 1.86382C11.3224 2.78872 7.91704 5.05893 5.47867 8.12791C3.04029 11.1969 1.6109 15.0647 1.6109 19.2267C1.6109 22.5059 2.49376 25.659 4.13336 28.3916C5.77295 31.1243 8.0852 33.3945 10.986 34.95C11.4905 35.2023 12.0791 35.0341 12.3313 34.5296C12.5836 34.0251 12.4154 33.4366 11.9109 33.1843C9.34643 31.797 7.28643 29.779 5.81499 27.3406C4.3856 24.9443 3.58682 22.1275 3.58682 19.2267C3.58682 15.5271 4.84805 12.1218 7.03418 9.38914C9.17827 6.65648 12.2473 4.63852 15.8628 3.7977C16.4093 3.67158 16.7455 3.12505 16.6195 2.62055Z" fill="white"/>
<path d="M34.9493 10.1458C33.3517 7.45521 31.0395 5.14296 28.1807 3.58744C27.7182 3.3352 27.0876 3.50336 26.8354 3.96581C26.5831 4.42826 26.7513 5.05888 27.2137 5.31112C29.7362 6.69847 31.7962 8.71644 33.2256 11.1128C34.655 13.5091 35.4117 16.2838 35.4117 19.1846C35.4117 22.9263 34.1085 26.3736 31.9223 29.1063C29.7362 31.8389 26.6252 33.8569 22.9676 34.6557C22.4211 34.7818 22.0847 35.2863 22.2109 35.8328C22.337 36.3794 22.8415 36.7157 23.388 36.5896C27.466 35.6647 30.9554 33.4365 33.4358 30.3255C35.9162 27.2565 37.3877 23.3467 37.3877 19.1426C37.4298 15.9475 36.5469 12.8364 34.9493 10.1458Z" fill="white"/>
</g>
<defs>
<clipPath id="clip0">
<rect width="39" height="39" fill="white"/>
</clipPath>
</defs>
</svg>
