<svg width="39" height="39" viewBox="0 0 39 39" fill="none" xmlns="http://www.w3.org/2000/svg">
<path d="M30.0949 24.4938L25.9921 23.4144C25.5198 22.7736 24.8286 22.3289 24.05 22.1648V20.869C26.2596 19.5896 27.8316 17.4428 28.3842 14.9497H28.6C29.6255 14.9545 30.5573 14.3527 30.975 13.4161C31.393 12.4795 31.2184 11.3843 30.5297 10.6241C30.5411 10.5499 30.5478 10.4749 30.55 10.3997V7.14971C30.55 6.07283 29.6769 5.19971 28.6 5.19971H27.7094C26.2085 2.02491 23.0115 0 19.5 0C15.9881 0 12.7911 2.02491 11.2902 5.19971H10.3999C9.32275 5.19971 8.44994 6.07283 8.44994 7.14971V10.3997C8.45184 10.4749 8.45883 10.5499 8.46994 10.6241C7.78153 11.3843 7.60697 12.4795 8.02465 13.4161C8.44264 14.3527 9.37416 14.9545 10.3999 14.9497H10.6158C11.168 17.4428 12.7403 19.5896 14.95 20.869V22.1648C14.1702 22.3283 13.4779 22.7726 13.005 23.4134L8.90475 24.4938C5.19009 25.4663 2.5996 28.8226 2.59991 32.6623V38.3498C2.59991 38.7091 2.89096 38.9999 3.24992 38.9999H35.7501C36.109 38.9999 36.4001 38.7091 36.4001 38.3498V32.6623C36.4004 28.8226 33.8096 25.4663 30.0949 24.4938ZM25.35 25.3498V26.1112C24.9292 25.963 24.4705 25.963 24.05 26.1112V23.5112C24.8286 23.7876 25.3491 24.5236 25.35 25.3498ZM28.6 13.6497V11.0497C29.318 11.0497 29.9 11.6318 29.9 12.3497C29.9 13.068 29.318 13.6497 28.6 13.6497ZM28.6 6.49971C28.959 6.49971 29.25 6.79075 29.25 7.14971V9.84208C29.038 9.78369 28.8197 9.75258 28.6 9.74973V9.09972C28.5994 8.2193 28.4702 7.34332 28.2163 6.49971H28.6ZM10.3999 6.49971H10.7833C10.5298 7.34332 10.4006 8.2193 10.3999 9.09972V9.74973C10.18 9.75258 9.96164 9.78369 9.74995 9.84208V7.14971C9.74995 6.79075 10.041 6.49971 10.3999 6.49971ZM10.3999 13.6497C9.68203 13.6497 9.09994 13.068 9.09994 12.3497C9.09994 11.6318 9.68203 11.0497 10.3999 11.0497V13.6497ZM11.7 12.9997V9.09972C11.7 4.79218 15.1921 1.29969 19.5 1.29969C23.8078 1.29969 27.3 4.79218 27.3 9.09972V12.9997C27.3 17.3076 23.8078 20.7998 19.5 20.7998C15.1921 20.7998 11.7 17.3076 11.7 12.9997ZM19.5 22.0998C20.6115 22.0982 21.7134 21.8913 22.75 21.4894V25.731L19.5 28.981L16.25 25.731V21.4894C17.2866 21.8913 18.3882 22.0982 19.5 22.0998ZM13.65 25.3498C13.6509 24.5236 14.1714 23.7876 14.95 23.5112V26.1112C14.5291 25.963 14.0705 25.963 13.65 26.1112V25.3498ZM35.1001 37.6998H29.25V33.1498H27.95V37.6998H11.05V33.1498H9.74995V37.6998H3.89992V32.6623C3.89897 29.4149 6.0886 26.5755 9.22975 25.751L12.3903 24.9197C12.3671 25.0619 12.3538 25.2057 12.35 25.3498V27.9498C12.35 28.3091 12.641 28.5998 13 28.5998C13.3589 28.5998 13.65 28.3091 13.65 27.9498C13.65 27.5908 13.941 27.2998 14.3 27.2998C14.6589 27.2998 14.95 27.5908 14.95 27.9498C14.95 28.3091 15.241 28.5998 15.6 28.5998C15.9589 28.5998 16.25 28.3091 16.25 27.9498V27.5689L19.0404 30.3594C19.2943 30.6133 19.7057 30.6133 19.9596 30.3594L22.75 27.5689V27.9498C22.75 28.3091 23.041 28.5998 23.4 28.5998C23.759 28.5998 24.05 28.3091 24.05 27.9498C24.05 27.5908 24.341 27.2998 24.7 27.2998C25.059 27.2998 25.35 27.5908 25.35 27.9498C25.35 28.3091 25.6411 28.5998 26 28.5998C26.359 28.5998 26.65 28.3091 26.65 27.9498V25.3498C26.6449 25.2054 26.6303 25.0616 26.6065 24.9191L29.768 25.751C32.9098 26.5746 35.1007 29.4142 35.1001 32.6623V37.6998Z" fill="white"/>
<path d="M22.9385 9.93826C22.9106 9.96937 22.8843 10.0017 22.8604 10.036C22.8357 10.0722 22.816 10.1116 22.8021 10.1528C22.783 10.1896 22.77 10.2293 22.763 10.2699C22.7554 10.3128 22.751 10.3563 22.75 10.3997C22.751 10.4848 22.7687 10.5686 22.8021 10.647C22.8347 10.7257 22.8811 10.7981 22.9385 10.8615C23.0629 10.9799 23.228 11.0475 23.4 11.0498C23.4847 11.0488 23.5689 11.0313 23.6469 10.998C23.8101 10.9387 23.9389 10.8101 23.998 10.647C24.0313 10.5686 24.0487 10.4848 24.05 10.3997C24.0475 10.2277 23.9802 10.063 23.8615 9.93826C23.7983 9.88113 23.7256 9.83479 23.6469 9.80178C23.4041 9.7072 23.1286 9.76021 22.9385 9.93826Z" fill="white"/>
<path d="M15.1385 9.93822C14.8862 10.1928 14.8872 10.6035 15.1411 10.8564C15.3946 11.1094 15.8053 11.1094 16.0589 10.8564C16.3125 10.6035 16.3138 10.1928 16.0615 9.93822C15.8003 9.69922 15.3997 9.69922 15.1385 9.93822Z" fill="white"/>
<path d="M24.05 16.8997V15.5997C24.0481 14.056 22.962 12.7258 21.45 12.4148V10.3997H20.15V12.9997C20.15 13.359 19.8589 13.6497 19.5 13.6497C19.141 13.6497 18.85 13.359 18.85 12.9997V10.3997H17.55V12.4148C16.0376 12.7258 14.9519 14.056 14.95 15.5997V16.8997C14.95 17.259 15.241 17.5497 15.6 17.5497H23.4C23.7589 17.5497 24.05 17.259 24.05 16.8997ZM22.75 16.2497H16.25V15.5997C16.2538 14.7212 16.8444 13.9538 17.6928 13.7253C17.988 14.4648 18.7037 14.9501 19.5 14.9501C20.296 14.9501 21.012 14.4648 21.3068 13.7253C22.1552 13.9538 22.7462 14.7212 22.75 15.5997V16.2497Z" fill="white"/>
<path d="M14.3 7.14972H24.7V8.44973H14.3V7.14972Z" fill="white"/>
<path d="M16.9 5.19971H22.1V6.49971H16.9V5.19971Z" fill="white"/>
</svg>
