<svg width="27" height="39" viewBox="0 0 27 39" fill="none" xmlns="http://www.w3.org/2000/svg">
<path d="M13.5 0C6.20174 0 0.264099 5.93756 0.264099 13.2358C0.264099 16.1686 1.99076 20.6289 5.69804 27.2724C8.22782 31.8054 10.7459 35.6343 10.8522 35.7956L12.6722 38.5544C12.8557 38.8326 13.1666 39 13.5 39C13.8334 39 14.1443 38.8326 14.3278 38.5544L16.1477 35.7958C16.2529 35.6363 18.7527 31.8405 21.3019 27.2724C25.0092 20.6292 26.7359 16.1689 26.7359 13.2358C26.7359 5.93756 20.7982 0 13.5 0ZM19.57 26.3058C17.0563 30.8101 14.596 34.5463 14.4923 34.7033L13.5 36.2075L12.508 34.7037C12.4037 34.5455 9.92457 30.7757 7.42994 26.3058C3.99113 20.1433 2.24749 15.7459 2.24749 13.2358C2.24749 7.0312 7.2953 1.98339 13.5 1.98339C19.7047 1.98339 24.7525 7.0312 24.7525 13.2358C24.7525 15.7462 23.0089 20.1435 19.57 26.3058Z" fill="white"/>
<path d="M13.5 5.81458C9.45348 5.81458 6.16144 9.10669 6.16144 13.1531C6.16144 17.1996 9.45348 20.4917 13.5 20.4917C17.5465 20.4917 20.8386 17.1996 20.8386 13.1531C20.8386 9.10669 17.5465 5.81458 13.5 5.81458ZM13.5 18.5083C10.5471 18.5083 8.14483 16.106 8.14483 13.1531C8.14483 10.2002 10.5471 7.79797 13.5 7.79797C16.453 7.79797 18.8552 10.2002 18.8552 13.1531C18.8552 16.106 16.453 18.5083 13.5 18.5083Z" fill="white"/>
</svg>
