<svg width="39" height="37" viewBox="0 0 39 37" fill="none" xmlns="http://www.w3.org/2000/svg">
<path d="M4.05916 5.49943C4.50777 5.49943 4.87144 5.13576 4.87144 4.68715C4.87144 4.23855 4.50777 3.87488 4.05916 3.87488C3.61055 3.87488 3.24689 4.23855 3.24689 4.68715C3.24689 5.13576 3.61055 5.49943 4.05916 5.49943Z" fill="white"/>
<path d="M7.31069 5.49943C7.7593 5.49943 8.12296 5.13576 8.12296 4.68715C8.12296 4.23855 7.7593 3.87488 7.31069 3.87488C6.86208 3.87488 6.49841 4.23855 6.49841 4.68715C6.49841 5.13576 6.86208 5.49943 7.31069 5.49943Z" fill="white"/>
<path d="M10.5576 5.49943C11.0062 5.49943 11.3698 5.13576 11.3698 4.68715C11.3698 4.23855 11.0062 3.87488 10.5576 3.87488C10.109 3.87488 9.7453 4.23855 9.7453 4.68715C9.7453 5.13576 10.109 5.49943 10.5576 5.49943Z" fill="white"/>
<path d="M8.9341 16.8775H26.8035C27.2525 16.8775 27.6158 16.5142 27.6158 16.0652C27.6158 15.6162 27.2525 15.2529 26.8035 15.2529H8.9341C8.48513 15.2529 8.12183 15.6162 8.12183 16.0652C8.12183 16.5142 8.4852 16.8775 8.9341 16.8775Z" fill="white"/>
<path d="M18.681 24.9935H8.93408C8.48513 24.9935 8.12183 25.3568 8.12183 25.8058C8.12183 26.2548 8.48513 26.6181 8.9341 26.6181H18.681C19.13 26.6181 19.4933 26.2548 19.4933 25.8058C19.4933 25.3568 19.13 24.9935 18.681 24.9935Z" fill="white"/>
<path d="M35.8785 10.375C35.8314 10.375 35.7858 10.3868 35.7389 10.389V3.87708C35.7389 2.08523 34.2809 0.628052 32.4899 0.628052H3.24901C1.45793 0.628052 0 2.08523 0 3.87708V33.1179C0 34.9098 1.45793 36.367 3.24901 36.367H32.4899C34.2809 36.367 35.7389 34.9099 35.7389 33.1179V18.0212L38.0772 15.6832V15.6825C38.6563 15.1034 38.9878 14.3023 38.9878 13.4845C38.9878 11.7695 37.5934 10.375 35.8785 10.375ZM1.62444 3.87708C1.62444 2.98158 2.35265 2.2526 3.24892 2.2526H32.4898C33.3862 2.2526 34.1143 2.98158 34.1143 3.87708V7.12608H1.62444V3.87708ZM34.1143 33.1179C34.1143 34.0134 33.3861 34.7424 32.4898 34.7424H3.24899C2.35265 34.7424 1.62453 34.0134 1.62453 33.1179V8.75062H34.1144V10.93C33.9602 11.036 33.8127 11.1526 33.6798 11.2857L24.842 20.1221H8.93475C8.48579 20.1221 8.12249 20.4854 8.12249 20.9344C8.12249 21.3834 8.48579 21.7467 8.93475 21.7467H23.5388L22.7588 25.6485C22.7049 25.915 22.789 26.1903 22.981 26.3822C23.1348 26.5361 23.3427 26.6201 23.5553 26.6201C23.6076 26.6201 23.6616 26.6146 23.7139 26.6043L27.7736 25.792C27.9322 25.7603 28.0765 25.6834 28.1892 25.5699L34.1144 19.6456V33.118L34.1143 33.1179ZM27.215 24.2475L24.5911 24.7726L25.1162 22.1455L32.4895 14.7722L34.5902 16.8729L27.215 24.2475ZM36.9286 14.5346L35.7388 15.7244L33.6379 13.6236L34.8281 12.4334C35.1042 12.1581 35.4865 11.9995 35.8784 11.9995C36.6969 11.9995 37.3633 12.6658 37.3633 13.4844C37.3633 13.8747 37.2046 14.2578 36.9286 14.5346Z" fill="white"/>
</svg>
