<svg width="39" height="23" viewBox="0 0 39 23" fill="none" xmlns="http://www.w3.org/2000/svg">
<path d="M6.064 22.4914C2.72017 22.4914 0 19.7709 0 16.4274C0 13.0835 2.72017 10.3634 6.064 10.3634H7.71776C8.29351 4.84657 12.9712 0.53125 18.638 0.53125C23.0994 0.53125 27.1002 3.25767 28.7814 7.30162C33.8373 5.64518 39 9.43533 39 14.7022C39 16.7306 38.2243 18.6509 36.8157 20.1098C35.4131 21.5627 33.5317 22.4057 31.517 22.4836C31.29 22.4949 33.0038 22.4914 6.064 22.4914ZM6.064 12.6941C4.00557 12.6941 2.33068 14.3686 2.33068 16.4274C2.33068 18.4858 4.00557 20.1607 6.064 20.1607C6.73526 20.1607 31.1945 20.1637 31.4212 20.155C34.3639 20.0437 36.6693 17.6485 36.6693 14.7022C36.6693 10.5809 32.2543 7.95176 28.6397 9.8867C27.9836 10.2378 27.1687 9.89117 26.9678 9.17348C25.9273 5.45743 22.5019 2.86193 18.638 2.86193C13.7455 2.86193 9.93894 6.916 9.98893 11.5289C9.98893 12.1725 9.46733 12.6941 8.82374 12.6941H6.064Z" fill="white"/>
</svg>
