<svg width="12" height="12" viewBox="0 0 12 12" fill="none" xmlns="http://www.w3.org/2000/svg">
<path d="M9.21432 6.85711H8.78571C8.72311 6.85711 8.67174 6.87717 8.63177 6.91746C8.59148 6.95752 8.57143 7.00886 8.57143 7.07139V9.21423C8.57143 9.50889 8.46658 9.76108 8.25678 9.97093C8.04698 10.1807 7.7947 10.2855 7.50004 10.2855H1.92853C1.6339 10.2855 1.38164 10.1807 1.17179 9.97093C0.961992 9.7611 0.857103 9.50892 0.857103 9.21423V3.6428C0.857103 3.34816 0.961968 3.096 1.17179 2.88617C1.38164 2.67632 1.6339 2.57146 1.92853 2.57146H6.64277C6.70537 2.57146 6.75674 2.55131 6.79687 2.51118C6.837 2.471 6.85706 2.41971 6.85706 2.35715V1.92852C6.85706 1.86608 6.837 1.81469 6.79687 1.77459C6.75674 1.73441 6.70537 1.71436 6.64277 1.71436H1.92853C1.39733 1.71436 0.943064 1.90298 0.565773 2.2802C0.188622 2.6574 0 3.11167 0 3.64287V9.21433C0 9.7455 0.188622 10.1998 0.565796 10.5769C0.943087 10.9542 1.39736 11.1429 1.92856 11.1429H7.50004C8.03122 11.1429 8.48553 10.9542 8.86278 10.5769C9.24005 10.1998 9.42867 9.74553 9.42867 9.21433V7.07156C9.42867 7.00896 9.40859 6.95759 9.3683 6.91746C9.32812 6.87717 9.27675 6.85711 9.21432 6.85711Z" fill="#BBE7FF"/>
<path d="M11.8729 0.984396C11.788 0.89956 11.6875 0.857178 11.5715 0.857178H8.14294C8.02689 0.857178 7.92638 0.89956 7.84162 0.984396C7.75678 1.06918 7.71431 1.16964 7.71431 1.28572C7.71431 1.40179 7.75678 1.50227 7.84162 1.58711L9.02014 2.76566L4.65414 7.13176C4.60944 7.17639 4.58716 7.22776 4.58716 7.28569C4.58716 7.34384 4.60951 7.39518 4.65414 7.43981L5.41754 8.20312C5.46218 8.24776 5.51354 8.27001 5.57157 8.27001C5.6296 8.27001 5.68099 8.24778 5.7256 8.20312L10.0916 3.83709L11.2702 5.01564C11.355 5.10047 11.4555 5.1429 11.5716 5.1429C11.6876 5.1429 11.7881 5.10047 11.873 5.01564C11.9578 4.93083 12.0002 4.83039 12.0002 4.71432V1.28572C12.0002 1.16957 11.9576 1.06918 11.8729 0.984396Z" fill="#BBE7FF"/>
</svg>
