<?xml version="1.0" encoding="UTF-8" standalone="no"?><!DOCTYPE svg PUBLIC "-//W3C//DTD SVG 1.1//EN" "http://www.w3.org/Graphics/SVG/1.1/DTD/svg11.dtd"><svg width="100%" height="100%" viewBox="0 0 2134 2134" version="1.1" xmlns="http://www.w3.org/2000/svg" xmlns:xlink="http://www.w3.org/1999/xlink" xml:space="preserve" xmlns:serif="http://www.serif.com/" style="fill-rule:evenodd;clip-rule:evenodd;stroke-linejoin:round;stroke-miterlimit:2;"><g><path d="M2112.31,5.475c-12.996,-7.417 -28.98,-7.292 -41.855,0.325l-763.558,451.517c-19.808,11.712 -26.371,37.262 -14.658,57.071c11.708,19.804 37.258,26.366 57.071,14.658l547.841,-323.954l-1020.44,1058.8l-507.534,-155.275l662.354,-391.667c19.809,-11.716 26.371,-37.266 14.659,-57.075c-11.709,-19.804 -37.263,-26.375 -57.071,-14.658l-743.663,439.746c-14.208,8.404 -22.12,24.4 -20.166,40.795c1.954,16.396 13.4,30.088 29.183,34.917l606.121,185.434l267.404,486.72c0.279,0.505 0.567,0.93 0.863,1.309c4.462,7.441 11.149,13.521 19.491,17.029c5.221,2.196 10.709,3.267 16.159,3.267c10.679,0 21.191,-4.109 29.129,-11.871l307.475,-300.5l578.358,176.941c4,1.221 8.104,1.825 12.187,1.825c8.817,0 17.525,-2.8 24.784,-8.17c10.621,-7.859 16.887,-20.288 16.887,-33.496l0,-1637.5c0,-14.963 -8.025,-28.779 -21.021,-36.192Zm-982.041,1366.32c-4.825,6.971 -7.413,15.246 -7.413,23.725l0,254.879l-182.596,-332.354l808.005,-838.375l-617.996,892.125Zm75.921,341.996l0,-261.946l204.125,62.45l-204.125,199.496Zm843.808,-90.942l-818.746,-250.483l818.746,-1181.93l0,1432.41Z" style="fill:#fff;fill-rule:nonzero;"/><path d="M685.096,1448.24c-16.275,-16.271 -42.65,-16.271 -58.929,0l-388.967,388.966c-16.271,16.271 -16.271,42.654 0,58.929c8.142,8.134 18.804,12.2 29.467,12.2c10.662,0 21.325,-4.066 29.462,-12.204l388.967,-388.967c16.271,-16.266 16.271,-42.65 0,-58.925Z" style="fill:#fff;fill-rule:nonzero;"/><path d="M166.963,1966.37c-16.275,-16.263 -42.65,-16.263 -58.926,0.004l-95.833,95.833c-16.271,16.271 -16.271,42.654 0,58.929c8.138,8.134 18.8,12.2 29.463,12.2c10.662,0 21.325,-4.07 29.462,-12.204l95.834,-95.833c16.27,-16.271 16.27,-42.654 0,-58.929Z" style="fill:#fff;fill-rule:nonzero;"/><path d="M594.371,2059.75c-7.746,-7.75 -18.496,-12.208 -29.454,-12.208c-11.004,0 -21.709,4.458 -29.459,12.208c-7.75,7.75 -12.208,18.458 -12.208,29.458c0,10.959 4.454,21.709 12.208,29.459c7.75,7.75 18.5,12.208 29.459,12.208c10.958,0 21.708,-4.458 29.454,-12.208c7.75,-7.75 12.212,-18.5 12.212,-29.459c0,-11 -4.458,-21.708 -12.212,-29.458Z" style="fill:#fff;fill-rule:nonzero;"/><path d="M904.379,1749.73c-16.262,-16.271 -42.637,-16.271 -58.925,0l-206.025,206.021c-16.271,16.271 -16.271,42.654 0,58.925c8.138,8.138 18.8,12.204 29.463,12.204c10.662,0 21.325,-4.071 29.462,-12.204l206.025,-206.021c16.271,-16.271 16.271,-42.654 0,-58.925Z" style="fill:#fff;fill-rule:nonzero;"/><path d="M1615.43,1733.91c-16.275,-16.267 -42.65,-16.267 -58.925,0l-206.583,206.583c-16.271,16.271 -16.271,42.654 0,58.929c8.138,8.133 18.8,12.204 29.463,12.204c10.662,0 21.325,-4.071 29.462,-12.204l206.583,-206.583c16.271,-16.271 16.271,-42.654 0,-58.929Z" style="fill:#fff;fill-rule:nonzero;"/><path d="M1181.25,567.958c-7.75,-7.75 -18.5,-12.208 -29.458,-12.208c-10.959,0 -21.709,4.458 -29.459,12.208c-7.745,7.75 -12.208,18.5 -12.208,29.5c0,10.959 4.458,21.667 12.208,29.417c7.75,7.792 18.5,12.208 29.459,12.208c10.958,0 21.708,-4.416 29.458,-12.208c7.746,-7.75 12.208,-18.458 12.208,-29.417c0,-11 -4.458,-21.75 -12.208,-29.5Z" style="fill:#fff;fill-rule:nonzero;"/></g></svg>