<svg width="29" height="29" viewBox="0 0 29 29" fill="none" xmlns="http://www.w3.org/2000/svg">
<circle cx="14.5" cy="14.5" r="14" fill="white" stroke="#0E5DA4"/>
<path d="M11.28 20V8.64H16.048C16.56 8.64 17.0293 8.74667 17.456 8.96C17.8933 9.17333 18.2667 9.456 18.576 9.808C18.8853 10.1493 19.1253 10.544 19.296 10.992C19.4773 11.4293 19.568 11.8773 19.568 12.336C19.568 12.816 19.4827 13.28 19.312 13.728C19.152 14.1653 18.9227 14.56 18.624 14.912C18.3253 15.2533 17.9627 15.5307 17.536 15.744C17.12 15.9467 16.656 16.048 16.144 16.048H13.072V20H11.28ZM13.072 14.464H16.032C16.288 14.464 16.5173 14.4107 16.72 14.304C16.9333 14.1973 17.1147 14.048 17.264 13.856C17.4133 13.664 17.5307 13.44 17.616 13.184C17.7013 12.928 17.744 12.6453 17.744 12.336C17.744 12.016 17.696 11.728 17.6 11.472C17.504 11.216 17.3707 10.9973 17.2 10.816C17.0293 10.624 16.832 10.48 16.608 10.384C16.3947 10.2773 16.1707 10.224 15.936 10.224H13.072V14.464Z" fill="#0E5DA4"/>
</svg>
