<?xml version="1.0" encoding="UTF-8" standalone="no"?><!DOCTYPE svg PUBLIC "-//W3C//DTD SVG 1.1//EN" "http://www.w3.org/Graphics/SVG/1.1/DTD/svg11.dtd"><svg width="100%" height="100%" viewBox="0 0 2134 2134" version="1.1" xmlns="http://www.w3.org/2000/svg" xmlns:xlink="http://www.w3.org/1999/xlink" xml:space="preserve" xmlns:serif="http://www.serif.com/" style="fill-rule:evenodd;clip-rule:evenodd;stroke-linejoin:round;stroke-miterlimit:2;"><path d="M1783.21,173.3l-104.13,0c-15.545,0 -25.387,9.846 -25.387,20.725l-0.004,0l0,336.746c0,13.987 16.579,21.242 33.675,21.242c16.579,0 33.675,-7.25 33.675,-21.242l0,-120.192l58.029,0c68.383,0 121.746,-32.641 121.746,-117.604l0,-3.104c0,-84.967 -51.809,-116.571 -117.605,-116.571Zm50.25,124.858c0,40.409 -20.72,59.579 -54.395,59.579l-58.025,0l0,-125.375l58.025,0c33.675,0 54.395,19.171 54.395,59.58l0,6.216Z" style="fill:#fff;fill-rule:nonzero;"/><path d="M1495.51,1145.62c-13.15,-7.238 -26.125,-15.163 -38.558,-23.563l-201.021,-135.8c-61.008,-41.216 -132.175,-63 -205.8,-63l-368.962,0c-97.938,0 -190.088,38.071 -259.48,107.196c-35.666,35.538 -76.3,65.263 -120.77,88.354c-26.3,13.659 -42.638,40.538 -42.638,70.15c0,43.609 35.475,79.084 79.083,79.084l125.792,0c16.783,0 30.392,-13.609 30.392,-30.392c0,-16.783 -13.609,-30.392 -30.392,-30.392l-125.792,0c-10.091,0 -18.304,-8.212 -18.304,-18.304c0,-6.837 3.779,-13.046 9.867,-16.204c49.962,-25.942 95.608,-59.333 135.658,-99.237c57.917,-57.7 134.834,-89.475 216.579,-89.475l82.605,0l0,223.22l-100.967,0c-16.783,0 -30.392,13.609 -30.392,30.392c0,16.783 13.609,30.392 30.392,30.392l833.325,0c24.983,0 45.308,-20.325 45.308,-45.309c0,-31.991 -17.6,-61.541 -45.925,-77.112Zm-670.95,61.642l0,-223.221l225.575,0c61.454,0 120.854,18.183 171.775,52.583l201.021,135.8c13.958,9.429 28.521,18.329 43.296,26.454c3.825,2.104 7.029,4.996 9.437,8.383l-651.104,0Z" style="fill:#fff;fill-rule:nonzero;"/><path d="M899.858,1314.24l-93.875,0c-16.783,0 -30.391,13.608 -30.391,30.391c0,16.784 13.608,30.392 30.391,30.392l93.875,0c16.784,0 30.392,-13.608 30.392,-30.392c0,-16.783 -13.608,-30.391 -30.392,-30.391Z" style="fill:#fff;fill-rule:nonzero;"/><path d="M2107.12,1288.73l-9.6,-15.933c-36.179,-60.037 -96.358,-102.313 -165.104,-115.987l-78.463,-15.605l0,-397.695l203.05,0c41.809,0 75.817,-34.013 75.817,-75.817l0,-591.879c0,-41.809 -34.013,-75.817 -75.817,-75.817l-591.879,0c-41.808,0 -75.817,34.013 -75.817,75.817l0,224.521c0,16.783 13.604,30.391 30.392,30.391c16.787,0 30.392,-13.608 30.392,-30.391l0,-224.521c0,-8.292 6.745,-15.038 15.037,-15.038l591.883,0c8.292,0 15.038,6.746 15.038,15.038l0,591.883c0,8.292 -6.746,15.038 -15.038,15.038l-591.887,0c-8.292,0 -15.038,-6.746 -15.038,-15.038l0,-169.787c0,-16.784 -13.604,-30.392 -30.391,-30.392c-16.788,0 -30.392,13.608 -30.392,30.392l0,169.787c0,41.808 34.013,75.817 75.817,75.817l230.254,0l0,366.162l-40.333,-8.021c-55.667,-11.071 -109.938,-44.666 -145.921,-68.979l-201.017,-135.796c-76.479,-51.662 -165.683,-78.971 -257.975,-78.971l-368.958,0c-122.771,0 -238.283,47.721 -325.254,134.367c-55.034,54.829 -124.309,92.225 -200.338,108.15l-43.633,9.138c-64.867,13.583 -111.946,71.55 -111.946,137.825l0,294.333c0,35.108 20.729,67.012 52.817,81.271l121.05,53.8c7.321,38.279 25.762,74.833 55.337,104.408c39.304,39.304 90.934,58.958 142.567,58.958c51.633,0 103.258,-19.654 142.567,-58.958c25.279,-25.279 42.379,-55.667 51.4,-87.862l1009.32,0c9.021,32.196 26.125,62.583 51.404,87.862c38.084,38.079 88.709,59.054 142.567,59.054c53.854,0 104.488,-20.971 142.571,-59.054c25.279,-25.279 42.379,-55.667 51.4,-87.862l57.654,0c62.138,0 112.692,-50.554 112.692,-112.692l0,-157.633c-0.009,-33.225 -9.075,-65.825 -26.221,-94.284Zm-350.963,-545.22l37.017,0l0,385.608l-37.017,-7.363l0,-378.245Zm-1284.8,954.716c-26.6,26.6 -61.966,41.25 -99.587,41.25c-37.621,0 -72.988,-14.65 -99.588,-41.25c-42.671,-42.671 -52.162,-106.125 -28.521,-158.066c0.192,-0.417 0.375,-0.838 0.567,-1.255c0.721,-1.541 1.483,-3.066 2.263,-4.583c0.366,-0.717 0.733,-1.429 1.116,-2.137c0.704,-1.317 1.438,-2.625 2.188,-3.925c0.516,-0.896 1.046,-1.784 1.583,-2.667c0.696,-1.146 1.4,-2.288 2.133,-3.417c0.663,-1.021 1.346,-2.029 2.038,-3.033c0.683,-0.996 1.362,-1.996 2.071,-2.975c0.812,-1.121 1.658,-2.221 2.508,-3.321c0.663,-0.858 1.308,-1.725 1.992,-2.571c1,-1.237 2.046,-2.446 3.087,-3.654c0.596,-0.688 1.167,-1.392 1.775,-2.071c1.55,-1.721 3.146,-3.408 4.788,-5.062c0.141,-0.142 0.271,-0.292 0.412,-0.434c0.313,-0.312 0.642,-0.604 0.959,-0.912c1.391,-1.367 2.791,-2.717 4.22,-4.013c0.371,-0.337 0.763,-0.65 1.138,-0.983c1.425,-1.263 2.858,-2.517 4.325,-3.713c0.137,-0.112 0.283,-0.216 0.421,-0.329c51.512,-41.687 125.808,-41.637 177.258,0.167c0.058,0.05 0.121,0.092 0.183,0.142c1.571,1.279 3.109,2.62 4.638,3.979c0.275,0.241 0.558,0.471 0.829,0.716c1.767,1.596 3.5,3.242 5.2,4.942c1.833,1.833 3.6,3.721 5.317,5.633c0.754,0.842 1.466,1.705 2.196,2.559c0.891,1.041 1.787,2.087 2.645,3.15c0.963,1.196 1.892,2.412 2.809,3.629c0.516,0.679 1.029,1.362 1.529,2.05c1.112,1.533 2.196,3.083 3.242,4.654c0.179,0.267 0.354,0.538 0.529,0.804c35.75,54.604 29.666,128.763 -18.263,176.696Zm1397.25,0c-26.604,26.6 -61.97,41.25 -99.591,41.25c-37.621,0 -72.984,-14.65 -99.584,-41.25c-47.937,-47.933 -54.02,-122.104 -18.266,-176.704c0.171,-0.263 0.341,-0.525 0.516,-0.783c1.046,-1.575 2.134,-3.13 3.25,-4.671c0.496,-0.684 1.005,-1.359 1.517,-2.029c0.921,-1.225 1.854,-2.446 2.825,-3.65c0.854,-1.054 1.738,-2.088 2.625,-3.121c0.738,-0.863 1.458,-1.738 2.221,-2.583c1.717,-1.913 3.483,-3.796 5.317,-5.63c26.6,-26.6 61.962,-41.25 99.583,-41.25c37.621,0 72.987,14.65 99.587,41.25c1.834,1.834 3.6,3.721 5.317,5.634c0.758,0.841 1.471,1.708 2.204,2.566c0.892,1.038 1.784,2.08 2.638,3.138c0.966,1.2 1.896,2.416 2.816,3.637c0.513,0.679 1.025,1.359 1.525,2.046c1.113,1.538 2.2,3.083 3.242,4.654c0.179,0.267 0.354,0.534 0.529,0.8c35.742,54.6 29.659,128.767 -18.271,176.696Zm203.955,-157.579l-0.009,0c0,28.625 -23.287,51.913 -51.912,51.913l-50.034,0c-1.191,-44.08 -16.75,-86.134 -44.75,-120.613c-0.187,-0.233 -0.366,-0.475 -0.558,-0.708c-1.733,-2.113 -3.529,-4.184 -5.354,-6.242c-0.467,-0.525 -0.909,-1.067 -1.379,-1.592c-1.934,-2.129 -3.934,-4.216 -5.967,-6.275c-0.346,-0.35 -0.662,-0.716 -1.013,-1.062c-26.183,-26.179 -58.295,-44.275 -93.308,-53.025c-15.917,-3.979 -32.429,-6.025 -49.262,-6.025c-13.463,0 -26.725,1.312 -39.642,3.871c-38.746,7.683 -74.362,26.621 -102.925,55.179c-0.342,0.342 -0.654,0.7 -0.992,1.046c-2.041,2.071 -4.05,4.162 -5.987,6.3c-0.459,0.504 -0.884,1.029 -1.334,1.537c-1.841,2.075 -3.658,4.167 -5.404,6.3c-0.175,0.213 -0.337,0.434 -0.512,0.65c-28.021,34.484 -43.596,76.563 -44.792,120.663l-994.075,0c-1.196,-44.154 -16.804,-86.284 -44.896,-120.796c-0.129,-0.163 -0.254,-0.325 -0.383,-0.488c-1.833,-2.241 -3.738,-4.437 -5.675,-6.612c-0.358,-0.4 -0.692,-0.813 -1.054,-1.213c-2.271,-2.504 -4.604,-4.97 -7.017,-7.383c-9.825,-9.825 -20.425,-18.425 -31.596,-25.796c-33.525,-22.108 -72.246,-33.162 -110.966,-33.162c-51.63,0 -103.263,19.654 -142.567,58.958c-2.246,2.246 -4.417,4.55 -6.542,6.883c-0.629,0.692 -1.233,1.396 -1.854,2.092c-1.5,1.696 -2.975,3.408 -4.412,5.142c-0.638,0.771 -1.275,1.546 -1.9,2.329c-1.488,1.854 -2.938,3.729 -4.355,5.625c-0.441,0.592 -0.895,1.171 -1.325,1.767c-3.808,5.212 -7.341,10.587 -10.608,16.1c-0.092,0.154 -0.179,0.312 -0.271,0.466c-1.596,2.713 -3.125,5.463 -4.587,8.242c-0.042,0.079 -0.084,0.162 -0.129,0.242c-10.596,20.162 -17.721,41.97 -20.988,64.591l-94.721,-42.1c-10.158,-4.516 -16.721,-14.616 -16.721,-25.729l0,-294.333c0,-37.671 26.763,-70.617 63.634,-78.342l43.633,-9.137c87.583,-18.346 167.383,-61.425 230.775,-124.58c75.5,-75.22 175.775,-116.645 282.354,-116.645l368.959,0c80.12,0 157.558,23.708 223.95,68.554l201.016,135.796c40.338,27.254 101.65,65.012 168.088,78.229l277.375,55.158c52.008,10.346 97.529,42.325 124.9,87.742l9.6,15.933c11.446,18.988 17.491,40.746 17.491,62.917l0,157.633Z" style="fill:#fff;fill-rule:nonzero;"/><path d="M437.013,1533.4c-17.434,-17.429 -40.601,-27.025 -65.246,-27.025c-24.646,0 -47.817,9.6 -65.242,27.025c-17.425,17.425 -27.025,40.596 -27.025,65.242c0,24.646 9.6,47.816 27.025,65.241c17.425,17.425 40.596,27.025 65.246,27.025c24.646,0 47.816,-9.596 65.241,-27.025c35.976,-35.975 35.976,-94.508 0,-130.483Zm-42.983,87.504c-5.946,5.946 -13.854,9.221 -22.262,9.221c-8.413,0 -16.317,-3.275 -22.263,-9.225c-5.946,-5.946 -9.225,-13.85 -9.225,-22.262c0,-8.413 3.275,-16.317 9.225,-22.263c5.946,-5.946 13.85,-9.225 22.263,-9.225c8.408,0 16.316,3.275 22.262,9.225c12.275,12.279 12.275,32.254 0,44.529Z" style="fill:#fff;fill-rule:nonzero;"/><path d="M1834.26,1533.4c-17.426,-17.429 -40.596,-27.029 -65.246,-27.029c-24.646,0 -47.813,9.596 -65.246,27.025c-35.971,35.975 -35.971,94.508 0,130.483c17.429,17.429 40.6,27.025 65.246,27.025c24.65,0 47.816,-9.596 65.241,-27.021c17.43,-17.425 27.025,-40.595 27.025,-65.241c0,-24.646 -9.596,-47.817 -27.02,-65.242Zm-42.984,87.504c-5.946,5.946 -13.85,9.221 -22.262,9.221c-8.409,0 -16.317,-3.275 -22.263,-9.221c-12.275,-12.275 -12.275,-32.25 0,-44.525c5.946,-5.946 13.854,-9.225 22.263,-9.225c8.412,0 16.316,3.275 22.266,9.225c5.946,5.946 9.221,13.85 9.221,22.263c0,8.404 -3.271,16.312 -9.225,22.262Z" style="fill:#fff;fill-rule:nonzero;"/><clipPath id="_clip1"><rect x="570.833" y="1638.77" width="774.911" height="344.783"/></clipPath><g clip-path="url(#_clip1)"><path d="M600.638,1566.29l29.804,0l0,208.63c0,49.378 40.035,89.413 89.413,89.413l241.417,0c14.262,69.344 75.253,119.13 146.038,119.217l119.217,0c16.46,0 29.805,-13.345 29.805,-29.804l0,-29.805l89.413,0l0,-59.608l-89.413,0l0,-59.609l89.413,0l0,-59.608l-89.413,0l0,-29.804c0,-16.46 -13.345,-29.805 -29.805,-29.805l-119.217,0c-70.785,0.088 -131.776,49.873 -146.038,119.217l-241.417,0c-16.46,0 -29.805,-13.345 -29.805,-29.804l0,-208.63l35.291,0c12.443,35.713 46.118,59.638 83.927,59.638c37.808,0 71.483,-23.925 83.926,-59.638l159.994,0c12.443,35.713 46.118,59.638 83.927,59.638c37.808,0 71.483,-23.925 83.926,-59.638l94.899,0c16.46,0 29.805,-13.345 29.805,-29.804l0,-178.826c0,-13.665 -9.3,-25.584 -22.557,-28.916l-103.369,-25.832l-54.414,-163.297c-4.06,-12.181 -15.455,-20.389 -28.29,-20.389l-387.456,0c-12.836,0 -24.231,8.208 -28.291,20.389l-52.812,158.437l-67.918,0c-16.46,0 -29.805,13.345 -29.805,29.804l0,208.63c0,16.459 13.345,29.804 29.805,29.804Zm506.672,178.826l89.413,0l0,178.825l-89.413,0c-49.378,0 -89.413,-40.035 -89.413,-89.412c0,-49.378 40.035,-89.413 89.413,-89.413Zm-298.042,-178.826c-16.46,0 -29.805,-13.345 -29.805,-29.804c0,-16.459 13.345,-29.804 29.805,-29.804c16.459,0 29.804,13.345 29.804,29.804c0,16.459 -13.345,29.804 -29.804,29.804Zm327.847,0c-16.46,0 -29.805,-13.345 -29.805,-29.804c0,-16.459 13.345,-29.804 29.805,-29.804c16.459,0 29.804,13.345 29.804,29.804c0,16.459 -13.345,29.804 -29.804,29.804Zm-506.673,-208.63l59.608,0c12.836,0 24.231,-8.208 28.291,-20.388l52.813,-158.437l344.466,0l52.812,158.437c3.231,9.663 11.162,17.026 21.044,19.5l96.66,24.158l0,125.752l-65.095,0c-12.443,-35.713 -46.118,-59.638 -83.926,-59.638c-37.809,0 -71.484,23.925 -83.927,59.638l-159.994,0c-12.443,-35.713 -46.118,-59.638 -83.926,-59.638c-37.809,0 -71.484,23.925 -83.927,59.638l-94.899,0l0,-149.022Z" style="fill:#fff;fill-rule:nonzero;"/></g><path d="M1146.36,1768.55l-20.465,-10.216l-42.565,85.136l46.886,0l-27.459,64.09l21.011,9.01l41.136,-95.965l-44.574,0l26.03,-52.055Z" style="fill:#fff;fill-rule:nonzero;"/></svg>