<?xml version="1.0"?>
<svg xmlns="http://www.w3.org/2000/svg" viewBox="0 0 512 512" width="512px" height="512px" class=""><g><g id="outline"><path d="M24,496H488a8,8,0,0,0,7.761-9.94L471.28,388.136A511.353,511.353,0,0,1,456,264a8,8,0,0,0-8-8V240c0-8.887,7.289-15.916,16.594-16a63.431,63.431,0,0,0,26.843-6.235l-6.875-14.447A47.552,47.552,0,0,1,464.444,208C446.251,208.167,432,222.225,432,240v16H368V216a24.027,24.027,0,0,1,24-24,8,8,0,0,0,8-8,40.045,40.045,0,0,1,40-40V128a56.087,56.087,0,0,0-55.528,48.71A40.111,40.111,0,0,0,352.814,208H320a32.036,32.036,0,0,0-32,32v16H224V232a23.913,23.913,0,0,1,23.3-23.922c.067,0,.134-.014.2-.017.211-.01.42-.026.629-.053.051-.006.1-.005.155-.013A8,8,0,0,0,256,200v-8a32.228,32.228,0,0,1,12.837-25.628A31.417,31.417,0,0,1,288,160V144a47.258,47.258,0,0,0-28.808,9.606A48.29,48.29,0,0,0,240,192v.852a39.854,39.854,0,0,0-23.379,14.366C213.786,207.736,176,208,176,208a32.036,32.036,0,0,0-32,32v16H80v-8a23.958,23.958,0,0,1,24-24,8,8,0,0,0,8-8,56.064,56.064,0,0,1,56-56h40a8,8,0,0,0,8-8,56.064,56.064,0,0,1,56-56h8a8,8,0,0,0,8-8,56.064,56.064,0,0,1,56-56h24V16H344a72.107,72.107,0,0,0-71.559,64H272a72.107,72.107,0,0,0-71.559,64H168a72.106,72.106,0,0,0-71.636,64.73,40.193,40.193,0,0,0-20.621,10.934c-.027.026-.053.052-.079.079A40.041,40.041,0,0,0,64,248v8a8,8,0,0,0-8,8A512.3,512.3,0,0,1,40.716,388.148L16.239,486.06A8,8,0,0,0,24,496ZM440,272h.061q.12,8.005.49,16H376v16h65.526a526.393,526.393,0,0,0,14.233,88.021l14,55.979H368v16H473.754l4,16H350.246l-14-56,7.994-31.976A527.223,527.223,0,0,0,359.939,272H440ZM304,240a16.019,16.019,0,0,1,16-16h32v32a8,8,0,0,0-8,8,511.362,511.362,0,0,1-15.281,124.14L328,391.015l-.72-2.879A511.353,511.353,0,0,1,312,264a8,8,0,0,0-8-8Zm-8,32h.061q.12,8.005.49,16H232v16h65.526a526.393,526.393,0,0,0,14.233,88.021l14,55.979H224v16H329.754l4,16H206.246l-14-56,7.994-31.976A527.223,527.223,0,0,0,215.939,272H296ZM160,240a16.019,16.019,0,0,1,16-16h32c.273,0,.546-.009.82-.012A40.3,40.3,0,0,0,208,232v24a8,8,0,0,0-8,8,511.362,511.362,0,0,1-15.281,124.14L184,391.014l-.716-2.866A512.3,512.3,0,0,1,168,264a8,8,0,0,0-8-8ZM56.239,392.029A528.371,528.371,0,0,0,71.939,272h80.122q.121,8,.492,16H88v16h65.53a528.348,528.348,0,0,0,14.231,88.029L181.754,448H64v16H185.754l4,16H34.246Z" data-original="#000000" class="active-path" data-old_color="#000000" fill="#FFFFFF"/><path d="M376,104a32.036,32.036,0,0,1,32-32h16a8,8,0,0,0,8-8,32.036,32.036,0,0,1,32-32h32V16H464a48.078,48.078,0,0,0-47.333,40H408a48.055,48.055,0,0,0-48,48Z" data-original="#000000" class="active-path" data-old_color="#000000" fill="#FFFFFF"/><rect x="320" y="120" width="16" height="16" data-original="#000000" class="active-path" data-old_color="#000000" fill="#FFFFFF"/><rect x="464" y="80" width="16" height="16" data-original="#000000" class="active-path" data-old_color="#000000" fill="#FFFFFF"/><rect x="480" y="160" width="16" height="16" data-original="#000000" class="active-path" data-old_color="#000000" fill="#FFFFFF"/></g></g> </svg>
