<svg width="105" height="105" viewBox="0 0 105 105" fill="none" xmlns="http://www.w3.org/2000/svg">
<path d="M81.0248 65.9449L69.9787 63.0387C68.7072 61.3135 66.8461 60.1164 64.7501 59.6746V56.1857C70.6991 52.7412 74.9314 46.9614 76.4191 40.2493H77.0001C79.761 40.2621 82.2698 38.642 83.3943 36.1204C84.5197 33.5988 84.0497 30.6499 82.1955 28.6034C82.2262 28.4034 82.2442 28.2018 82.2502 27.9993V19.2492C82.2502 16.3499 79.8994 13.9992 77.0001 13.9992H74.6024C70.5615 5.45168 61.9542 0 52.5 0C43.045 0 34.4377 5.45168 30.3968 13.9992H27.9999C25.0998 13.9992 22.7499 16.3499 22.7499 19.2492V27.9993C22.755 28.2018 22.7738 28.4034 22.8037 28.6034C20.9503 30.6499 20.4803 33.5988 21.6049 36.1204C22.7302 38.642 25.2382 40.2621 27.9999 40.2493H28.581C30.0678 46.9614 34.301 52.7412 40.25 56.1857V59.6746C38.1505 60.1146 36.2868 61.3109 35.0136 63.0362L23.9744 65.9449C13.9734 68.563 6.99896 77.5993 6.99982 87.937V103.25C6.99982 104.217 7.78339 105 8.74982 105H96.2502C97.2166 105 98.0002 104.217 98.0002 103.25V87.937C98.0011 77.5993 91.0258 68.563 81.0248 65.9449ZM68.2501 68.2494V70.2994C67.117 69.9003 65.8823 69.9003 64.7501 70.2994V63.2993C66.8461 64.0436 68.2475 66.0252 68.2501 68.2494ZM77.0001 36.7493V29.7493C78.933 29.7493 80.5001 31.3164 80.5001 33.2493C80.5001 35.183 78.933 36.7493 77.0001 36.7493ZM77.0001 17.4992C77.9666 17.4992 78.7501 18.2828 78.7501 19.2492V26.4979C78.1793 26.3407 77.5914 26.257 77.0001 26.2493V24.4993C76.9984 22.1289 76.6506 19.7705 75.967 17.4992H77.0001ZM27.9999 17.4992H29.0321C28.3494 19.7705 28.0016 22.1289 27.9999 24.4993V26.2493C27.4077 26.257 26.8199 26.3407 26.2499 26.4979V19.2492C26.2499 18.2828 27.0335 17.4992 27.9999 17.4992ZM27.9999 36.7493C26.067 36.7493 24.4999 35.183 24.4999 33.2493C24.4999 31.3164 26.067 29.7493 27.9999 29.7493V36.7493ZM31.4999 34.9993V24.4993C31.4999 12.902 40.9019 3.49916 52.5 3.49916C64.0981 3.49916 73.5001 12.902 73.5001 24.4993V34.9993C73.5001 46.5974 64.0981 55.9994 52.5 55.9994C40.9019 55.9994 31.4999 46.5974 31.4999 34.9993ZM52.5 59.4994C55.4925 59.4951 58.4593 58.938 61.2501 57.8562V69.2757L52.5 78.0257L43.75 69.2757V57.8562C46.5408 58.938 49.5067 59.4951 52.5 59.4994ZM36.7499 68.2494C36.7525 66.0252 38.1539 64.0436 40.25 63.2993V70.2994C39.1169 69.9003 37.8822 69.9003 36.7499 70.2994V68.2494ZM94.5002 101.5H78.7501V89.2495H75.2501V101.5H29.7499V89.2495H26.2499V101.5H10.4998V87.937C10.4973 79.1938 16.3924 71.5495 24.8494 69.3295L33.3585 67.0916C33.2961 67.4744 33.2602 67.8615 33.2499 68.2494V75.2495C33.2499 76.2168 34.0335 76.9995 34.9999 76.9995C35.9664 76.9995 36.7499 76.2168 36.7499 75.2495C36.7499 74.283 37.5335 73.4995 38.5 73.4995C39.4664 73.4995 40.25 74.283 40.25 75.2495C40.25 76.2168 41.0335 76.9995 42 76.9995C42.9664 76.9995 43.75 76.2168 43.75 75.2495V74.2241L51.2627 81.7368C51.9463 82.4204 53.0537 82.4204 53.7373 81.7368L61.2501 74.2241V75.2495C61.2501 76.2168 62.0336 76.9995 63.0001 76.9995C63.9665 76.9995 64.7501 76.2168 64.7501 75.2495C64.7501 74.283 65.5336 73.4995 66.5001 73.4995C67.4665 73.4995 68.2501 74.283 68.2501 75.2495C68.2501 76.2168 69.0337 76.9995 70.0001 76.9995C70.9665 76.9995 71.7501 76.2168 71.7501 75.2495V68.2494C71.7364 67.8606 71.6971 67.4736 71.633 67.0899L80.1447 69.3295C88.6033 71.5469 94.5019 79.1921 94.5002 87.937V101.5Z" fill="white"/>
<path d="M61.7576 26.7569C61.6824 26.8407 61.6115 26.9278 61.5474 27.0201C61.4808 27.1175 61.4278 27.2235 61.3902 27.3346C61.3389 27.4337 61.3039 27.5405 61.2851 27.6499C61.2646 27.7652 61.2526 27.8823 61.2501 27.9994C61.2526 28.2284 61.3005 28.4539 61.3902 28.665C61.4782 28.8769 61.603 29.0717 61.7576 29.2426C62.0926 29.5614 62.5369 29.7434 63.0001 29.7494C63.2282 29.7468 63.4547 29.6998 63.6649 29.6101C64.1041 29.4503 64.451 29.1042 64.6099 28.665C64.6997 28.4539 64.7467 28.2284 64.7501 27.9994C64.7432 27.5362 64.5621 27.0927 64.2425 26.7569C64.0725 26.6031 63.8768 26.4783 63.6649 26.3895C63.0112 26.1348 62.2695 26.2775 61.7576 26.7569Z" fill="white"/>
<path d="M40.7575 26.7569C40.0782 27.4422 40.0808 28.5479 40.7644 29.2289C41.4471 29.91 42.5528 29.91 43.2356 29.2289C43.9183 28.5479 43.9217 27.4422 43.2424 26.7569C42.5392 26.1134 41.4608 26.1134 40.7575 26.7569Z" fill="white"/>
<path d="M64.75 45.4993V41.9993C64.7449 37.8431 61.8208 34.2619 57.75 33.4245V27.9993H54.25V34.9993C54.25 35.9666 53.4664 36.7493 52.5 36.7493C51.5336 36.7493 50.75 35.9666 50.75 34.9993V27.9993H47.25V33.4245C43.1783 34.2619 40.2551 37.8431 40.2499 41.9993V45.4993C40.2499 46.4666 41.0335 47.2494 41.9999 47.2494H63C63.9665 47.2494 64.75 46.4666 64.75 45.4993ZM61.25 43.7493H43.75V41.9993C43.7602 39.6341 45.3504 37.5679 47.6345 36.9527C48.4292 38.9437 50.3561 40.2502 52.5 40.2502C54.6431 40.2502 56.5708 38.9437 57.3646 36.9527C59.6487 37.5679 61.2398 39.6341 61.25 41.9993V43.7493Z" fill="white"/>
<path d="M38.4999 19.2491H66.5001V22.7492H38.4999V19.2491Z" fill="white"/>
<path d="M45.5 13.9991H59.5V17.4992H45.5V13.9991Z" fill="white"/>
</svg>
