<svg width="361" height="269" viewBox="0 0 361 269" fill="none" xmlns="http://www.w3.org/2000/svg">
<path d="M189.722 254.155C206.971 254.155 221.652 257.377 237.324 264.601C252.21 271.463 269.388 270.24 283.277 261.328C297.085 252.469 305.358 237.455 305.472 221.117C337.071 214.629 360.923 186.565 360.944 153.029L361 69.5805C361.01 51.0391 353.782 33.5779 340.648 20.4143C327.513 7.25077 310.084 0 291.573 0H69.427C50.9215 0 33.4981 7.2452 20.3643 20.4014C7.23059 33.5575 -0.000925604 51.0103 8.88612e-08 69.5462L0.00833133 152.996C0.0111084 186.567 23.8894 214.657 55.5268 221.126C55.6443 237.461 63.9163 252.47 77.7212 261.328C85.6535 266.418 94.6586 269 103.698 269C110.485 269 117.292 267.544 123.675 264.601C139.347 257.376 154.029 254.155 171.277 254.155H189.722ZM27.7791 152.993L27.7708 69.5434C27.7699 58.4382 32.1132 47.971 40.0011 40.0684C47.8898 32.1676 58.34 27.8153 69.427 27.8153H291.573C302.663 27.8153 313.115 32.1695 321.005 40.0767C328.893 47.9839 333.236 58.4558 333.229 69.5647L333.173 153.013C333.159 176.006 314.473 194.714 291.517 194.714H253.676C247.369 194.714 242.287 190.966 240.416 184.932C235.852 170.216 221.921 132.557 219.495 125.61C213.607 108.755 198.681 98.284 180.539 98.284C162.398 98.284 147.472 108.754 141.585 125.607C139.159 132.551 125.225 170.209 120.659 184.932C118.789 190.965 113.708 194.714 107.399 194.714H69.4353C46.468 194.714 27.781 175.998 27.7791 152.993ZM112.065 239.332C105.725 242.253 98.6669 241.733 92.7017 237.905C87.2207 234.388 83.89 228.851 83.3679 222.529H107.399C125.75 222.529 141.737 210.735 147.18 193.182C151.524 179.175 165.287 141.978 167.797 134.793C170.439 127.229 176.914 126.099 180.539 126.099C184.164 126.099 190.639 127.229 193.281 134.794C195.792 141.982 209.552 179.18 213.896 193.184C219.34 210.736 235.326 222.529 253.676 222.529H277.631C277.109 228.851 273.778 234.388 268.297 237.905C262.331 241.733 255.274 242.253 248.934 239.332C229.44 230.345 211.178 226.338 189.722 226.338H171.277C149.822 226.339 131.56 230.346 112.065 239.332Z" fill="white" fill-opacity="0.3"/>
</svg>
