<svg
            width="41"
            height="41"
            viewBox="0 0 41 41"
            fill="none"
            xmlns="http://www.w3.org/2000/svg"
          >
            <path
              d="M20.4999 34.2787C12.9022 34.2787 6.72119 28.0977 6.72119 20.4999C6.72119 12.9022 12.9022 6.72119 20.4999 6.72119C28.0977 6.72119 34.2787 12.9022 34.2787 20.4999C34.2787 28.0977 28.0977 34.2787 20.4999 34.2787ZM20.4999 9.24178C14.292 9.24178 9.24178 14.292 9.24178 20.4999C9.24178 26.7079 14.292 31.7581 20.4999 31.7581C26.7079 31.7581 31.7581 26.7079 31.7581 20.4999C31.7581 14.292 26.7079 9.24178 20.4999 9.24178Z"
              fill="#F8EB09"
            />
            <path
              d="M39.7397 21.7603H37.3033C36.6073 21.7603 36.043 21.196 36.043 20.5C36.043 19.804 36.6073 19.2397 37.3033 19.2397H39.7397C40.4357 19.2397 41 19.804 41 20.5C41 21.196 40.4357 21.7603 39.7397 21.7603Z"
              fill="#F8EB09"
            />
            <path
              d="M3.69673 21.7603H1.26029C0.564301 21.7603 0 21.196 0 20.5C0 19.804 0.564301 19.2397 1.26029 19.2397H3.69673C4.39272 19.2397 4.95702 19.804 4.95702 20.5C4.95702 21.196 4.39272 21.7603 3.69673 21.7603Z"
              fill="#F8EB09"
            />
            <path
              d="M31.4908 9.50927C30.9985 9.01723 30.9985 8.21926 31.4908 7.72722L33.2135 6.00429C33.7055 5.51224 34.5038 5.51224 34.9958 6.00429C35.4879 6.49633 35.4879 7.29429 34.9958 7.78665L33.2729 9.50927C32.7809 10.0016 31.9829 10.0016 31.4908 9.50927Z"
              fill="#F8EB09"
            />
            <path
              d="M6.89547 35.3648C6.57297 35.3648 6.25046 35.2419 6.00429 34.9957C5.51224 34.5037 5.51224 33.7057 6.00429 33.2133L7.72722 31.4907C8.21926 30.9984 9.01723 30.9984 9.50958 31.4907C10.0016 31.9828 10.0016 32.7807 9.50958 33.2728L7.78665 34.9957C7.54047 35.2419 7.21797 35.3648 6.89547 35.3648Z"
              fill="#F8EB09"
            />
            <path
              d="M20.5 4.95702C19.804 4.95702 19.2397 4.39272 19.2397 3.69673V1.26029C19.2397 0.564301 19.804 0 20.5 0C21.196 0 21.7603 0.564301 21.7603 1.26029V3.69673C21.7603 4.39272 21.196 4.95702 20.5 4.95702Z"
              fill="#F8EB09"
            />
            <path
              d="M20.5 41C19.804 41 19.2397 40.4357 19.2397 39.7397V37.3033C19.2397 36.6073 19.804 36.043 20.5 36.043C21.196 36.043 21.7603 36.6073 21.7603 37.3033V39.7397C21.7603 40.4357 21.196 41 20.5 41Z"
              fill="#F8EB09"
            />
            <path
              d="M33.2135 34.9957L31.4908 33.2728C30.9985 32.7807 30.9985 31.9828 31.4908 31.4907C31.9829 30.9984 32.7809 30.9984 33.2729 31.4907L34.9958 33.2133C35.4879 33.7057 35.4879 34.5037 34.9958 34.9957C34.5038 35.4878 33.7058 35.4881 33.2135 34.9957Z"
              fill="#F8EB09"
            />
            <path
              d="M7.72722 9.50927L6.00429 7.78665C5.51224 7.29429 5.51224 6.49633 6.00429 6.00429C6.49633 5.51224 7.29429 5.51224 7.78665 6.00429L9.50927 7.72722C10.0016 8.21926 10.0016 9.01723 9.50927 9.50927C9.01723 10.0016 8.21926 10.0016 7.72722 9.50927Z"
              fill="#F8EB09"
            />
            <path
              d="M15.7112 19.6886C15.0152 19.6886 14.4512 19.1247 14.4512 18.4287V17.2234C14.4512 16.5274 15.0152 15.9631 15.7112 15.9631C16.4071 15.9631 16.9714 16.5274 16.9714 17.2234V18.4287C16.9714 19.1247 16.4071 19.6886 15.7112 19.6886Z"
              fill="#F8EB09"
            />
            <path
              d="M25.2891 19.6886C24.5931 19.6886 24.0288 19.1247 24.0288 18.4287V17.2234C24.0288 16.5274 24.5931 15.9631 25.2891 15.9631C25.9851 15.9631 26.5491 16.5274 26.5491 17.2234V18.4287C26.5491 19.1247 25.9851 19.6886 25.2891 19.6886Z"
              fill="#F8EB09"
            />
            <path
              d="M19.4639 27.8935H18.904C16.4487 27.8935 14.4512 25.8959 14.4512 23.4407C14.4512 22.7447 15.0152 22.1804 15.7112 22.1804C16.4071 22.1804 16.9714 22.7447 16.9714 23.4407C16.9714 24.5061 17.8385 25.3729 18.904 25.3729H19.4639C20.1599 25.3729 20.7242 25.9372 20.7242 26.6332C20.7242 27.3292 20.1599 27.8935 19.4639 27.8935Z"
              fill="#F8EB09"
            />
          </svg>
