<?xml version="1.0" encoding="utf-8"?>
<!-- Generator: Adobe Illustrator 16.0.0, SVG Export Plug-In . SVG Version: 6.00 Build 0)  -->
<!DOCTYPE svg PUBLIC "-//W3C//DTD SVG 1.1//EN" "http://www.w3.org/Graphics/SVG/1.1/DTD/svg11.dtd">
<svg version="1.1" xmlns="http://www.w3.org/2000/svg" xmlns:xlink="http://www.w3.org/1999/xlink" x="0px" y="0px"
	 width="595.281px" height="841.891px" viewBox="0 0 595.281 841.891" enable-background="new 0 0 595.281 841.891"
	 xml:space="preserve">
<g id="Calque_1">
	<g opacity="0.3">
		<image overflow="visible" width="561" height="636" xlink:href="5888D0A9.png"  transform="matrix(1 0 0 1 26.1406 123.4456)">
		</image>
	</g>
</g>
<g id="Calque_1_-_copie">
	<g id="Calque_2_-_copie">
		<g>
			<defs>
				<rect id="SVGID_1_" x="238.343" y="445.365" width="118.196" height="132.08"/>
			</defs>
			<use xlink:href="#SVGID_1_"  overflow="visible" fill="#F7CBA4"/>
			<clipPath id="SVGID_2_">
				<use xlink:href="#SVGID_1_"  overflow="visible"/>
			</clipPath>
			
				<ellipse clip-path="url(#SVGID_2_)" fill="#DABC94" enable-background="new    " cx="297.131" cy="409.959" rx="103" ry="68.486"/>
		</g>
		<path fill="#B2B2B2" enable-background="new    " d="M238.343,306.594c0,12.524-10.153,22.677-22.677,22.677h-51.848
			c-12.524,0-22.677-10.153-22.677-22.677v-49.646c0-12.524,10.153-22.677,22.677-22.677h51.848
			c12.524,0,22.677,10.153,22.677,22.677V306.594z"/>
		<path fill="#B2B2B2" enable-background="new    " d="M454.342,306.594c0,12.524-10.153,22.677-22.678,22.677h-51.848
			c-12.524,0-22.678-10.153-22.678-22.677v-49.646c0-12.524,10.153-22.677,22.678-22.677h51.848
			c12.524,0,22.678,10.153,22.678,22.677V306.594z"/>
		<g>
			<defs>
				<path id="SVGID_3_" d="M423.141,255.835c-19.422-58.732-68.166-100.389-125.236-100.389
					c-58.642,0-108.493,43.984-126.772,105.281v103.438c18.28,61.297,68.13,105.281,126.772,105.281
					c57.07,0,105.814-41.657,125.236-100.389V255.835z"/>
			</defs>
			<use xlink:href="#SVGID_3_"  overflow="visible" fill="#DABC94" enable-background="new    "/>
			<clipPath id="SVGID_4_">
				<use xlink:href="#SVGID_3_"  overflow="visible" enable-background="new    "/>
			</clipPath>
			<ellipse clip-path="url(#SVGID_4_)" fill="#F7CBA4" cx="309.141" cy="312.446" rx="133" ry="157"/>
		</g>
		<circle fill="#F7CBA4" enable-background="new    " cx="159.941" cy="331.246" r="29.8"/>
		<circle fill="#F7CBA4" enable-background="new    " cx="432.141" cy="331.246" r="29.801"/>
		<circle cx="238.065" cy="301.946" r="10.5"/>
		<circle cx="357.139" cy="301.946" r="10.5"/>
		<rect x="260.141" y="223.446" fill="#E8C18C" enable-background="new    " width="74" height="17"/>
		<rect x="221.141" y="254.446" fill="#E8C18C" enable-background="new    " width="154" height="19"/>
		<path fill="#A2A2A2" enable-background="new    " d="M320.967,342.02c-2.951,15.076-11.157,25.925-20.826,25.925
			c-9.786,0-18.076-11.112-20.933-26.473c-22.994,0.561-41.465,19.363-41.465,42.493v10.48h118.796v-10.48
			C356.539,362.849,341.144,345.338,320.967,342.02z"/>
		<path fill="none" stroke="#F0C8A4" stroke-width="17" enable-background="new    " d="M318.141,301.446v39.601
			c0,11.046-8.954,20-20,20l0,0c-11.046,0-20-8.954-20-20v-39.601"/>
	</g>
	<g id="Calque_2_2_">
		<path fill="#1C5EBD" d="M53.14,718.467c0,0,0-27.017,0-89.021c0-27,26-89,79-107s72-18,72-18s27.811,38,96.405,38
			s91.595-38,91.595-38s36,6,82,25s65,63,66,94s0,95.021,0,95.021H53.14z"/>
		<g>
			<g>
				<g>
					<g>
						<defs>
							<rect id="SVGID_5_" y="99.445" width="595.281" height="619.021"/>
						</defs>
						<clipPath id="SVGID_6_">
							<use xlink:href="#SVGID_5_"  overflow="visible"/>
						</clipPath>
						
							<line opacity="0.5" clip-path="url(#SVGID_6_)" fill="none" stroke="#000083" stroke-width="18" stroke-linecap="round" stroke-miterlimit="10" enable-background="new    " x1="162.14" y1="760.445" x2="162.14" y2="662.445"/>
					</g>
				</g>
			</g>
			<g>
				<g>
					<g>
						<defs>
							<rect id="SVGID_7_" y="99.445" width="595.281" height="619.021"/>
						</defs>
						<clipPath id="SVGID_8_">
							<use xlink:href="#SVGID_7_"  overflow="visible"/>
						</clipPath>
						
							<line opacity="0.5" clip-path="url(#SVGID_8_)" fill="none" stroke="#000083" stroke-width="18" stroke-linecap="round" stroke-miterlimit="10" enable-background="new    " x1="432.14" y1="760.445" x2="432.14" y2="662.445"/>
					</g>
				</g>
			</g>
		</g>
		<path fill="#DC0900" d="M357.14,485.445v46.131c0,0,49.404-27.182,108.202-5.653C465.342,525.92,435.14,474.445,357.14,485.445z"
			/>
		<path fill="#DC0900" d="M238.343,485.445v46.131c0,0-49.404-27.182-108.202-5.653C130.141,525.92,160.343,474.445,238.343,485.445
			z"/>
		<path fill="#FFDE00" d="M296.902,572.882h-0.074c-15.455,13.809-29.189,21.412-52.042,23.646
			c-2.438,8.654-1.062,17.791-1.062,17.791c0,35.438,53.104,89.146,53.104,89.146s53.1-56.627,53.1-89.146h0.074
			c0,0,1.375-9.137-1.063-17.791C326.091,594.294,312.356,586.69,296.902,572.882z M296.826,646.353
			c-14.591,0-26.417-9.931-26.417-22.175c0-12.247,11.826-22.396,26.417-22.396c14.593,0,26.419,10.148,26.419,22.396
			C323.246,636.423,311.419,646.353,296.826,646.353z M359.876,594.356l-1.816-6.433l-7.815-0.767
			c-18.193-1.782-30.008-7.209-45.148-20.735l-3.333-2.979h-9.793l-3.332,2.979c-15.139,13.526-26.953,18.953-45.15,20.732
			l-7.82,0.77l-1.816,6.433c-2.535,8.985-1.684,17.961-1.363,20.526c0.518,38.363,53.429,92.313,55.692,94.604l8.88,8.979l8.6-9.17
			c5.617-5.986,54.354-58.942,55.49-93.757l0.006-0.037C361.32,614.392,362.703,604.378,359.876,594.356z"/>
		<path fill="#DC0900" d="M296.902,572.882h-0.074c-15.455,13.809-29.189,21.412-52.042,23.646
			c-2.438,8.654-1.062,17.791-1.062,17.791c0,35.438,53.104,89.146,53.104,89.146s53.1-56.627,53.1-89.146h0.074
			c0,0,1.375-9.137-1.063-17.791C326.091,594.294,312.356,586.69,296.902,572.882z M296.826,646.353
			c-14.591,0-26.417-9.931-26.417-22.175c0-12.247,11.826-22.396,26.417-22.396c14.593,0,26.419,10.148,26.419,22.396
			C323.246,636.423,311.419,646.353,296.826,646.353z M359.876,594.356l-1.816-6.433l-7.815-0.767
			c-18.193-1.782-30.008-7.209-45.148-20.735l-3.333-2.979h-9.793l-3.332,2.979c-15.139,13.526-26.953,18.953-45.15,20.732
			l-7.82,0.77l-1.816,6.433c-2.535,8.985-1.684,17.961-1.363,20.526c0.518,38.363,53.429,92.313,55.692,94.604l8.88,8.979l8.6-9.17
			c5.617-5.986,54.354-58.942,55.49-93.757l0.006-0.037C361.32,614.392,362.703,604.378,359.876,594.356z M356.507,615.009
			l-0.033,0.214c-0.903,34.104-52.288,89.291-54.492,91.645l-5.016,5.351l-5.183-5.238c-2.222-2.248-54.305-55.349-54.613-92.331
			c-0.251-1.922-1.193-10.777,1.236-19.384l1.061-3.752l4.56-0.445c22.038-2.155,34.295-9.683,48.025-21.951l1.938-1.731h5.75
			l1.94,1.731c13.729,12.271,25.986,19.796,48.021,21.951l4.557,0.445l1.063,3.752C358.003,604.775,356.568,614.595,356.507,615.009
			z"/>
	</g>
</g>
</svg>
