<?xml version="1.0" encoding="UTF-8" standalone="no"?><!DOCTYPE svg PUBLIC "-//W3C//DTD SVG 1.1//EN" "http://www.w3.org/Graphics/SVG/1.1/DTD/svg11.dtd"><svg width="100%" height="100%" viewBox="0 0 188 188" version="1.1" xmlns="http://www.w3.org/2000/svg" xmlns:xlink="http://www.w3.org/1999/xlink" xml:space="preserve" xmlns:serif="http://www.serif.com/" style="fill-rule:evenodd;clip-rule:evenodd;stroke-linejoin:round;stroke-miterlimit:2;"><path d="M118.611,27.224l5.914,-1.045l18.047,102.158l-5.914,1.045l-18.047,-102.158Z" style="fill:#ededed;fill-rule:nonzero;"/><path d="M128.709,96.354l10.02,-1.77l5.899,33.394l-10.02,1.77l-5.899,-33.394Z" style="fill:#0e5da4;fill-rule:nonzero;"/><path d="M40.495,131.942c-8.844,0 -16.014,7.17 -16.014,16.015c0,8.844 7.17,16.014 16.014,16.014c8.845,0 16.015,-7.17 16.015,-16.014c0,-8.845 -7.17,-16.015 -16.015,-16.015Z" style="fill:#344d5b;fill-rule:nonzero;"/><path d="M40.495,137.661c-5.686,0 -10.295,4.609 -10.295,10.296c0,5.686 4.609,10.295 10.295,10.295c5.686,0 10.296,-4.609 10.296,-10.295c0,-5.687 -4.61,-10.296 -10.296,-10.296Z" style="fill:#ededed;fill-rule:nonzero;"/><path d="M147.004,131.942c-8.844,0 -16.014,7.17 -16.014,16.015c0,8.844 7.17,16.014 16.014,16.014c8.844,0 16.014,-7.17 16.014,-16.014c0,-8.845 -7.17,-16.015 -16.014,-16.015Z" style="fill:#344d5b;fill-rule:nonzero;"/><path d="M147.004,137.661c-5.686,0 -10.295,4.609 -10.295,10.296c0,5.686 4.609,10.295 10.295,10.295c5.686,0 10.296,-4.609 10.296,-10.295c0,-5.687 -4.61,-10.296 -10.296,-10.296Z" style="fill:#ededed;fill-rule:nonzero;"/><path d="M125.771,24.825c-0.151,-0.853 -0.966,-1.423 -1.819,-1.272l-5.743,1.017c-0.853,0.152 -1.422,0.966 -1.271,1.82l2.73,15.412c0.151,0.853 0.965,1.423 1.819,1.271l5.742,-1.017c0.854,-0.151 1.423,-0.965 1.272,-1.819l-2.73,-15.412Z" style="fill:#344d5b;fill-rule:nonzero;"/><path d="M90.076,50.092c-0.533,0 -1.071,-0.15 -1.549,-0.467c-1.295,-0.857 -1.651,-2.602 -0.794,-3.898l3.559,-5.378c2.983,-4.51 7.749,-7.644 13.075,-8.6l17.856,-3.199c1.527,-0.266 2.99,0.743 3.265,2.272c0.274,1.529 -0.744,2.99 -2.273,3.265l-17.856,3.199c-3.819,0.685 -7.237,2.933 -9.376,6.167l-3.559,5.38c-0.541,0.816 -1.436,1.259 -2.348,1.259Z" style="fill:#344d5b;fill-rule:nonzero;"/><path d="M63.052,149.595l-21.215,0c-1.256,0 -2.279,-1.023 -2.279,-2.279l0,-20.588l1.875,-0.001l0,20.589c0,0.223 0.182,0.404 0.404,0.404l21.215,0l0,1.875Z" style="fill:#0e5da4;fill-rule:nonzero;"/><path d="M145.095,149.595l-24.601,0l0,-1.875l24.601,0c0.535,0 0.971,-0.435 0.971,-0.972l0,-20.02l1.875,0l0,20.02c0,1.569 -1.277,2.847 -2.846,2.847Z" style="fill:#0e5da4;fill-rule:nonzero;"/><path d="M147.143,124.062c-12.548,0 -22.908,9.533 -24.226,21.736l-57.237,0c-1.407,-12.323 -11.9,-21.926 -24.593,-21.926c-1.561,0 -2.826,1.266 -2.826,2.826c0,1.561 1.265,2.826 2.826,2.826c10.532,0 19.101,8.569 19.101,19.1c0,1.561 1.265,2.826 2.826,2.826l62.584,0c1.561,0 2.826,-1.265 2.826,-2.826c0,-0.033 -0.008,-0.063 -0.009,-0.095c0.001,-0.033 0.009,-0.063 0.009,-0.096c0,-10.322 8.398,-18.719 18.719,-18.719c1.561,0 2.827,-1.265 2.827,-2.826c0,-1.56 -1.266,-2.826 -2.827,-2.826Z" style="fill:#1c2b33;fill-rule:nonzero;"/><path d="M147.178,143.523c-2.189,0 -3.963,1.775 -3.963,3.964c0,2.189 1.774,3.963 3.963,3.963c2.189,0 3.963,-1.774 3.963,-3.963c0,-2.189 -1.774,-3.964 -3.963,-3.964Z" style="fill-rule:nonzero;"/><path d="M44.093,146.228c-0.356,-0.829 -1.041,-1.513 -1.87,-1.868c-3.487,-1.495 -6.818,1.836 -5.324,5.324c0.355,0.829 1.039,1.513 1.868,1.869c3.488,1.495 6.82,-1.837 5.325,-5.325Z" style="fill-rule:nonzero;"/></svg>