<svg width="45" height="45" viewBox="0 0 45 45" fill="none" xmlns="http://www.w3.org/2000/svg">
<path d="M28.4667 6.53381L29.8861 6.28307L34.2172 30.801L32.7978 31.0517L28.4667 6.53381Z" fill="#EDEDED"/>
<path d="M30.8902 23.125L33.2949 22.7002L34.7107 30.7148L32.306 31.1396L30.8902 23.125Z" fill="#0E5DA4"/>
<path d="M9.71897 31.6661C7.5963 31.6661 5.87555 33.3869 5.87555 35.5096C5.87555 37.6322 7.5963 39.353 9.71897 39.353C11.8416 39.353 13.5624 37.6322 13.5624 35.5096C13.5624 33.3869 11.8416 31.6661 9.71897 31.6661Z" fill="#344D5B"/>
<path d="M9.71897 33.0386C8.35431 33.0386 7.24802 34.1449 7.24802 35.5095C7.24802 36.8742 8.35431 37.9805 9.71897 37.9805C11.0836 37.9805 12.1899 36.8742 12.1899 35.5095C12.1899 34.1449 11.0836 33.0386 9.71897 33.0386Z" fill="#EDEDED"/>
<path d="M35.281 31.6661C33.1584 31.6661 31.4376 33.3869 31.4376 35.5096C31.4376 37.6322 33.1584 39.353 35.281 39.353C37.4037 39.353 39.1245 37.6322 39.1245 35.5096C39.1245 33.3869 37.4037 31.6661 35.281 31.6661Z" fill="#344D5B"/>
<path d="M35.281 33.0386C33.9164 33.0386 32.8101 34.1449 32.8101 35.5095C32.8101 36.8742 33.9164 37.9805 35.281 37.9805C36.6457 37.9805 37.752 36.8742 37.752 35.5095C37.752 34.1449 36.6457 33.0386 35.281 33.0386Z" fill="#EDEDED"/>
<path d="M30.1851 5.958C30.1488 5.75316 29.9533 5.61655 29.7485 5.6528L28.3703 5.89692C28.1655 5.93328 28.0289 6.12873 28.0651 6.33351L28.7204 10.0324C28.7567 10.2373 28.9521 10.3739 29.157 10.3376L30.5351 10.0935C30.74 10.0572 30.8766 9.86177 30.8403 9.65688L30.1851 5.958Z" fill="#344D5B"/>
<path d="M21.6183 12.0221C21.4904 12.0221 21.3612 11.9861 21.2466 11.9101C20.9356 11.7044 20.8504 11.2856 21.056 10.9745L21.9101 9.6838C22.626 8.60143 23.7699 7.84909 25.048 7.61969L29.3336 6.85197C29.7001 6.78825 30.0512 7.03039 30.1171 7.39733C30.1828 7.76427 29.9387 8.11496 29.5718 8.18087L25.2862 8.9486C24.3697 9.11295 23.5495 9.6526 23.036 10.4287L22.1819 11.7198C22.0521 11.9158 21.8372 12.0221 21.6183 12.0221Z" fill="#344D5B"/>
<path d="M15.1325 35.9029H10.041C9.73951 35.9029 9.49408 35.6572 9.49408 35.3558V30.4146H9.94408V35.3558C9.94408 35.4094 9.98758 35.4529 10.041 35.4529H15.1325V35.9029Z" fill="#0E5DA4"/>
<path d="M34.8228 35.9029H28.9186V35.4529H34.8228C34.9514 35.4529 35.056 35.3483 35.056 35.2195V30.4146H35.506V35.2195C35.506 35.5961 35.1994 35.9029 34.8228 35.9029Z" fill="#0E5DA4"/>
<path d="M35.3145 29.7747C32.303 29.7747 29.8165 32.0626 29.5001 34.9914H15.7632C15.4256 32.034 12.9074 29.7291 9.86104 29.7291C9.48639 29.7291 9.18272 30.0329 9.18272 30.4074C9.18272 30.782 9.48639 31.0858 9.86104 31.0858C12.3887 31.0858 14.4451 33.1421 14.4451 35.6697C14.4451 36.0443 14.7488 36.348 15.1234 36.348H30.1436C30.5183 36.348 30.822 36.0443 30.822 35.6697C30.822 35.6619 30.8199 35.6546 30.8196 35.6468C30.8199 35.639 30.822 35.6318 30.822 35.6239C30.822 33.1467 32.8373 31.1314 35.3145 31.1314C35.6891 31.1314 35.9928 30.8276 35.9928 30.4531C35.9928 30.0785 35.6891 29.7747 35.3145 29.7747Z" fill="#25A9E8"/>
<path d="M35.3227 34.4456C34.7974 34.4456 34.3715 34.8714 34.3715 35.3968C34.3715 35.9222 34.7974 36.3481 35.3227 36.3481C35.8481 36.3481 36.274 35.9222 36.274 35.3968C36.274 34.8714 35.8481 34.4456 35.3227 34.4456Z" fill="black"/>
<path d="M10.5822 35.0948C10.4969 34.8958 10.3327 34.7316 10.1336 34.6463C9.29665 34.2878 8.49717 35.0872 8.85569 35.9242C8.94094 36.1232 9.10516 36.2875 9.30415 36.3728C10.1412 36.7315 10.9409 35.9319 10.5822 35.0948Z" fill="black"/>
</svg>
