<svg width="45" height="45" viewBox="0 0 45 45" fill="none" xmlns="http://www.w3.org/2000/svg">
<path d="M28.4667 6.53375L29.8861 6.28301L34.2172 30.8009L32.7978 31.0517L28.4667 6.53375Z" fill="#EDEDED"/>
<path d="M30.8901 23.1249L33.2949 22.7001L34.7107 30.7148L32.3059 31.1396L30.8901 23.1249Z" fill="#0E5DA4"/>
<path d="M9.71891 31.6661C7.59624 31.6661 5.87549 33.3869 5.87549 35.5096C5.87549 37.6322 7.59624 39.353 9.71891 39.353C11.8416 39.353 13.5623 37.6322 13.5623 35.5096C13.5623 33.3869 11.8416 31.6661 9.71891 31.6661Z" fill="#344D5B"/>
<path d="M9.71887 33.0386C8.35421 33.0386 7.24792 34.1449 7.24792 35.5096C7.24792 36.8743 8.35421 37.9805 9.71887 37.9805C11.0835 37.9805 12.1898 36.8743 12.1898 35.5096C12.1898 34.1449 11.0835 33.0386 9.71887 33.0386Z" fill="#EDEDED"/>
<path d="M35.2809 31.6661C33.1583 31.6661 31.4375 33.3869 31.4375 35.5096C31.4375 37.6322 33.1583 39.353 35.2809 39.353C37.4036 39.353 39.1243 37.6322 39.1243 35.5096C39.1243 33.3869 37.4036 31.6661 35.2809 31.6661Z" fill="#344D5B"/>
<path d="M35.281 33.0386C33.9163 33.0386 32.8101 34.1449 32.8101 35.5096C32.8101 36.8743 33.9163 37.9805 35.281 37.9805C36.6457 37.9805 37.752 36.8743 37.752 35.5096C37.752 34.1449 36.6457 33.0386 35.281 33.0386Z" fill="#EDEDED"/>
<path d="M30.185 5.958C30.1487 5.75316 29.9532 5.61655 29.7484 5.6528L28.3702 5.89692C28.1654 5.93328 28.0288 6.12873 28.065 6.33351L28.7203 10.0324C28.7566 10.2373 28.952 10.3739 29.1569 10.3376L30.535 10.0935C30.7399 10.0572 30.8765 9.86177 30.8402 9.65688L30.185 5.958Z" fill="#344D5B"/>
<path d="M21.6182 12.0221C21.4904 12.0221 21.3612 11.9861 21.2465 11.9101C20.9356 11.7044 20.8503 11.2856 21.056 10.9745L21.91 9.6838C22.6259 8.60143 23.7698 7.84909 25.048 7.61969L29.3335 6.85197C29.7 6.78825 30.0511 7.03039 30.1171 7.39733C30.1828 7.76427 29.9386 8.11496 29.5717 8.18087L25.2861 8.9486C24.3697 9.11295 23.5494 9.6526 23.0359 10.4287L22.1818 11.7198C22.052 11.9158 21.8371 12.0221 21.6182 12.0221Z" fill="#344D5B"/>
<path d="M15.1324 35.9029H10.0409C9.73945 35.9029 9.49402 35.6572 9.49402 35.3558V30.4146H9.94402V35.3558C9.94402 35.4094 9.98752 35.4529 10.0409 35.4529H15.1324V35.9029Z" fill="#0E5DA4"/>
<path d="M34.8227 35.9029H28.9185V35.4529H34.8227C34.9513 35.4529 35.0559 35.3483 35.0559 35.2195V30.4146H35.5059V35.2195C35.5059 35.5961 35.1993 35.9029 34.8227 35.9029Z" fill="#0E5DA4"/>
<path d="M35.3144 29.7748C32.3029 29.7748 29.8164 32.0627 29.5 34.9915H15.7631C15.4255 32.034 12.9073 29.7292 9.86094 29.7292C9.48629 29.7292 9.18262 30.033 9.18262 30.4075C9.18262 30.7821 9.48629 31.0858 9.86094 31.0858C12.3885 31.0858 14.445 33.1422 14.445 35.6698C14.445 36.0443 14.7487 36.3481 15.1233 36.3481H30.1435C30.5182 36.3481 30.8218 36.0443 30.8218 35.6698C30.8218 35.6619 30.8198 35.6547 30.8195 35.6469C30.8198 35.6391 30.8218 35.6318 30.8218 35.624C30.8218 33.1467 32.8372 31.1314 35.3144 31.1314C35.689 31.1314 35.9927 30.8277 35.9927 30.4531C35.9927 30.0786 35.689 29.7748 35.3144 29.7748Z" fill="#25A9E8"/>
<path d="M35.3227 34.4456C34.7973 34.4456 34.3715 34.8714 34.3715 35.3968C34.3715 35.9222 34.7973 36.3481 35.3227 36.3481C35.848 36.3481 36.2739 35.9222 36.2739 35.3968C36.2739 34.8714 35.848 34.4456 35.3227 34.4456Z" fill="black"/>
<path d="M10.5822 35.0947C10.4969 34.8957 10.3326 34.7315 10.1336 34.6463C9.29662 34.2877 8.49714 35.0871 8.85565 35.9242C8.94091 36.1231 9.10513 36.2874 9.30412 36.3727C10.1412 36.7315 10.9409 35.9319 10.5822 35.0947Z" fill="black"/>
</svg>
