<?xml version="1.0" encoding="UTF-8" standalone="no"?><!DOCTYPE svg PUBLIC "-//W3C//DTD SVG 1.1//EN" "http://www.w3.org/Graphics/SVG/1.1/DTD/svg11.dtd"><svg width="100%" height="100%" viewBox="0 0 1417 709" version="1.1" xmlns="http://www.w3.org/2000/svg" xmlns:xlink="http://www.w3.org/1999/xlink" xml:space="preserve" xmlns:serif="http://www.serif.com/" style="fill-rule:evenodd;clip-rule:evenodd;stroke-linejoin:round;stroke-miterlimit:2;"><path d="M1381.89,582.25l-651.818,-554.354c-9.313,-7.929 -20.027,-11.9 -32.147,-11.9c-12.119,0 -22.853,3.971 -32.171,11.9l-651.764,554.354c-9.337,7.942 -13.991,17.054 -13.991,27.367c0,10.308 4.669,19.433 13.991,27.358l69.917,59.462c9.323,7.93 20.052,11.892 32.171,11.892c12.12,0 22.849,-3.962 32.171,-11.892l549.676,-467.508l549.696,467.538c9.318,7.929 20.051,11.866 32.152,11.866c12.139,0 22.868,-3.962 32.185,-11.866l69.927,-59.488c9.318,-7.925 13.947,-17.054 13.947,-27.358c0.005,-10.317 -4.624,-19.442 -13.942,-27.371Z" style="fill:#fff;fill-rule:nonzero;"/></svg>