<svg width="45" height="45" viewBox="0 0 45 45" fill="none" xmlns="http://www.w3.org/2000/svg">
<g clip-path="url(#clip0)">
<path d="M43.7691 22.8807C43.1022 21.3162 41.6359 20.1449 39.825 19.9375L32.9572 19.1528L29.2935 13.1982C28.3569 11.6755 26.6969 10.7477 24.9094 10.7477H13.0801C9.99766 10.7477 7.29396 12.8069 6.47613 15.7793L6.38364 16.1152C6.12466 17.0586 5.62715 17.8988 4.96023 18.5696C4.29331 19.2414 3.45504 19.7428 2.51454 20.0086C1.49809 20.2948 0.795151 21.2227 0.795151 22.2781V28.8872L4.53477 28.0126C4.61363 27.8296 4.7032 27.6514 4.80251 27.4781C5.73619 25.8609 7.47408 24.8562 9.3395 24.8562C11.2049 24.8562 12.9418 25.8609 13.8746 27.4781C13.9739 27.6514 14.0644 27.8296 14.1423 28.0126H30.0198C30.0968 27.8315 30.1853 27.6553 30.2837 27.4839C31.2164 25.8629 32.9562 24.8562 34.8246 24.8562C36.69 24.8562 38.4269 25.8609 39.3596 27.4781C39.4589 27.6514 39.5495 27.8296 39.6274 28.0126H43.7963L43.8226 28.0155L44.1264 25.3479C44.139 25.2388 44.1478 25.1307 44.1527 25.0227C44.1887 24.2672 44.0495 23.5389 43.7691 22.8807Z" fill="#0E5DA4"/>
<path d="M45 29.1879C45 29.8357 44.4748 30.3609 43.827 30.3609H40.0499C40.0548 30.2713 40.0577 30.1808 40.0577 30.0902C40.0577 29.3727 39.9107 28.6639 39.6274 28.0126L43.8277 28.0149C44.4752 28.0152 45 28.5403 45 29.1879Z" fill="#CCCCCC"/>
<path d="M38.9867 30.0903C38.9867 30.1808 38.9838 30.2713 38.9779 30.3609C38.8387 32.533 37.0327 34.2524 34.8246 34.2524C32.6154 34.2524 30.8094 32.533 30.6702 30.3609C30.6643 30.2713 30.6614 30.1808 30.6614 30.0903C30.6614 29.3357 30.862 28.6279 31.2125 28.0175C31.931 26.7683 33.2794 25.9271 34.8246 25.9271C36.3667 25.9271 37.7132 26.7664 38.4318 28.0126C38.7852 28.624 38.9867 29.3338 38.9867 30.0903ZM36.5313 30.0903C36.5313 29.1488 35.766 28.3826 34.8246 28.3826C33.8821 28.3826 33.1169 29.1488 33.1169 30.0903C33.1169 31.0317 33.8821 31.798 34.8246 31.798C35.766 31.798 36.5313 31.0317 36.5313 30.0903Z" fill="#666666"/>
<path d="M34.8246 28.3826C35.766 28.3826 36.5313 29.1488 36.5313 30.0903C36.5313 31.0317 35.766 31.798 34.8246 31.798C33.8821 31.798 33.1169 31.0317 33.1169 30.0903C33.1169 29.1488 33.8821 28.3826 34.8246 28.3826Z" fill="#E6E6E6"/>
<path d="M29.5905 30.0902C29.5905 30.1808 29.5934 30.2723 29.5983 30.3609H14.5648C14.5697 30.2704 14.5726 30.1798 14.5726 30.0902C14.5726 29.3727 14.4256 28.6639 14.1423 28.0126H30.0198C29.7375 28.6659 29.5905 29.3737 29.5905 30.0902Z" fill="#CCCCCC"/>
<path d="M11.2906 13.4738V19.1528H8.03194C8.03194 19.1528 8.41164 17.6116 8.65212 16.7392L8.74461 16.4033C8.79329 16.2252 8.85268 16.0528 8.92181 15.8854C9.37162 14.793 10.2323 13.9343 11.2906 13.4738Z" fill="#25A9E8"/>
<path d="M19.4747 13.0999V19.1528H12.751V13.1125C12.8601 13.1037 12.9701 13.0999 13.0801 13.0999H19.4747Z" fill="#25A9E8"/>
<path d="M30.1951 19.1528H20.9351V13.0999H24.9094C25.8723 13.0999 26.7855 13.61 27.2898 14.4308L30.1951 19.1528Z" fill="#25A9E8"/>
<path d="M13.4929 30.3609C13.3537 32.533 11.5476 34.2524 9.3395 34.2524C7.13039 34.2524 5.32435 32.533 5.18512 30.3609C5.17928 30.2713 5.17636 30.1808 5.17636 30.0903C5.17636 29.3338 5.3779 28.624 5.73034 28.0126C6.44984 26.7664 7.79633 25.9271 9.3395 25.9271C10.8817 25.9271 12.2282 26.7664 12.9467 28.0126C13.3001 28.624 13.5017 29.3338 13.5017 30.0903C13.5017 30.1808 13.4987 30.2713 13.4929 30.3609ZM11.0472 30.0903C11.0472 29.1488 10.281 28.3826 9.3395 28.3826C8.39705 28.3826 7.63179 29.1488 7.63179 30.0903C7.63179 31.0317 8.39705 31.798 9.3395 31.798C10.281 31.798 11.0472 31.0317 11.0472 30.0903Z" fill="#666666"/>
<path d="M9.33949 28.3826C10.281 28.3826 11.0472 29.1488 11.0472 30.0903C11.0472 31.0317 10.281 31.798 9.33949 31.798C8.39704 31.798 7.63179 31.0317 7.63179 30.0903C7.63179 29.1488 8.39704 28.3826 9.33949 28.3826Z" fill="#E6E6E6"/>
<path d="M4.1054 30.0902C4.1054 30.1808 4.10832 30.2713 4.11319 30.3609H1.17417C0.525649 30.3609 0 29.8353 0 29.1867C0 28.5382 0.525649 28.0126 1.17417 28.0126H4.53476C4.25241 28.6649 4.1054 29.3727 4.1054 30.0902Z" fill="#CCCCCC"/>
<path d="M24.9473 22.357H23.4129C23.0903 22.357 22.8287 22.0955 22.8287 21.7729C22.8287 21.4502 23.0903 21.1887 23.4129 21.1887H24.9473C25.2698 21.1887 25.5314 21.4502 25.5314 21.7729C25.5314 22.0955 25.2699 22.357 24.9473 22.357Z" fill="#CCCCCC"/>
<path d="M14.411 22.357H12.8766C12.554 22.357 12.2924 22.0955 12.2924 21.7729C12.2924 21.4502 12.554 21.1887 12.8766 21.1887H14.411C14.7336 21.1887 14.9952 21.4502 14.9952 21.7729C14.9952 22.0955 14.7336 22.357 14.411 22.357Z" fill="#CCCCCC"/>
<path d="M44.1527 25.0227H42.9795C41.7966 25.0227 40.8376 24.0637 40.8376 22.8807H43.7691C44.0913 23.5851 44.2374 24.2788 44.1527 25.0227Z" fill="white"/>
<path d="M19.4747 13.1125V19.1528H18.7903L12.751 13.1125H19.4747Z" fill="#92D4F3"/>
<path d="M30.1951 19.1528H26.988L20.9351 13.0999H24.9094C25.8723 13.0999 26.7855 13.61 27.2898 14.4308L30.1951 19.1528Z" fill="#92D4F3"/>
<path d="M11.2906 13.4738V18.2541L8.92183 15.8854C9.37163 14.793 10.2323 13.9343 11.2906 13.4738Z" fill="#92D4F3"/>
</g>
<defs>
<clipPath id="clip0">
<rect width="45" height="45" fill="white"/>
</clipPath>
</defs>
</svg>
