<?xml version="1.0" encoding="UTF-8" standalone="no"?><!DOCTYPE svg PUBLIC "-//W3C//DTD SVG 1.1//EN" "http://www.w3.org/Graphics/SVG/1.1/DTD/svg11.dtd"><svg width="100%" height="100%" viewBox="0 0 188 188" version="1.1" xmlns="http://www.w3.org/2000/svg" xmlns:xlink="http://www.w3.org/1999/xlink" xml:space="preserve" xmlns:serif="http://www.serif.com/" style="fill-rule:evenodd;clip-rule:evenodd;stroke-linejoin:round;stroke-miterlimit:2;"><g><path d="M88.989,31.179c-4.851,-10.424 -1.107,-22.446 8.366,-26.858c9.474,-4.413 24.911,-0.403 27.36,10.825c2.429,11.155 0.152,28.144 -9.802,27.679c-2.752,-0.131 -5.525,-0.35 -8.21,-0.778c-0.35,1.311 -0.272,3.979 0.225,6.512c1.927,9.734 -11.338,14.361 -13.255,4.611c-1.117,-5.708 1.013,-10.136 1.949,-14.293c-2.7,-1.797 -5.014,-4.225 -6.633,-7.698Z" style="fill:#f3d2a2;fill-rule:nonzero;"/><path d="M86.519,8.932c6.001,-7.959 14.701,-11.641 30.29,-6.68c13.615,4.33 9.332,16.059 6.768,13.542c-4.084,-4.006 -9.176,-2.392 -9.176,-2.392l-3.3,12.09c0,0 -1.843,1.264 -2.883,-2.715c-1.045,-3.98 -6.471,-4.063 -8.048,-0.716c-2.449,5.197 1.217,5.943 1.729,8.935c1.614,9.453 -8.946,9.73 -8.946,9.73c0,0 -2.001,0.935 -5.932,-5.761c-3.928,-6.695 -6.46,-18.132 -0.502,-26.033Z" style="fill:#ffe51e;fill-rule:nonzero;"/><path d="M72.649,109.619c2.888,0 5.223,-2.335 5.223,-5.223c0,-23.605 24.341,-48.291 24.587,-48.536c2.031,-2.042 2.031,-5.348 -0.011,-7.384c-2.042,-2.037 -5.342,-2.032 -7.379,0c-1.129,1.133 -27.642,27.97 -27.642,55.92c0,2.888 2.334,5.223 5.222,5.223Z" style="fill:#e2c196;fill-rule:nonzero;"/><path d="M114.428,182.732c5.77,0 10.445,-4.679 10.445,-10.445l0,-36.556c0,-1.817 -0.475,-3.604 -1.379,-5.181l-20.89,-36.556c-2.856,-5.009 -9.243,-6.758 -14.246,-3.886c-5.008,2.857 -6.747,9.238 -3.886,14.247l19.511,34.149l0,33.783c0,5.766 4.679,10.445 10.445,10.445Z" style="fill:#87230c;fill-rule:nonzero;"/><path d="M67.421,167.065c3.066,0 6.1,-1.343 8.157,-3.923l20.89,-26.112c1.049,-1.3 1.76,-2.835 2.088,-4.47l5.223,-26.112c1.133,-5.655 -2.532,-11.165 -8.188,-12.293c-5.682,-1.143 -11.166,2.538 -12.293,8.189l-4.727,23.625l-19.301,24.128c-3.604,4.501 -2.873,11.076 1.634,14.68c1.921,1.535 4.224,2.288 6.517,2.288Z" style="fill:#87230c;fill-rule:nonzero;"/><path d="M77.871,99.174c0,0 0,5.222 10.445,5.222l20.889,0c10.445,-31.334 1.875,-62.668 -10.444,-62.668c-15.668,0 -15.668,20.889 -20.89,47.001" style="fill:#0e5da4;fill-rule:nonzero;"/><path d="M103.983,62.618c0.005,0.235 0.344,23.772 18.8,37.616l-0.052,0.073c1.269,0.951 2.141,2.397 2.141,4.105c0,2.888 -2.34,5.222 -5.222,5.222c-1.175,0 -2.21,-0.459 -3.082,-1.117l-0.052,0.073c-22.717,-17.041 -22.978,-44.787 -22.978,-45.957l10.445,-0.015Z" style="fill:#f3d2a2;fill-rule:nonzero;"/><path d="M50.809,162.145c-1.415,-1.415 -0.836,-3.53 0.674,-4.909c2.418,-2.209 3.514,-2.997 3.514,-2.997c1.332,-0.878 4.56,-2.179 5.901,-0.842c9.782,9.74 17.255,23.663 17.527,28.515c0.162,2.861 -3.369,4.465 -5.374,2.459c-5.917,-5.916 -17.114,-17.103 -22.242,-22.226Z" style="fill:#838383;fill-rule:nonzero;"/><path d="M104.422,187.5c-2.001,0.016 -3.102,-1.886 -3.019,-3.932c0.125,-3.269 0.334,-4.601 0.334,-4.601c0.309,-1.567 1.646,-4.779 3.547,-4.795c13.797,-0.12 28.963,4.34 32.603,7.552c2.151,1.901 0.814,5.535 -2.022,5.557c-8.371,0.051 -24.195,0.166 -31.443,0.219Z" style="fill:#838383;fill-rule:nonzero;"/></g></svg>