<?xml version="1.0" encoding="UTF-8" standalone="no"?><!DOCTYPE svg PUBLIC "-//W3C//DTD SVG 1.1//EN" "http://www.w3.org/Graphics/SVG/1.1/DTD/svg11.dtd"><svg width="100%" height="100%" viewBox="0 0 784 834" version="1.1" xmlns="http://www.w3.org/2000/svg" xmlns:xlink="http://www.w3.org/1999/xlink" xml:space="preserve" xmlns:serif="http://www.serif.com/" style="fill-rule:evenodd;clip-rule:evenodd;stroke-linejoin:round;stroke-miterlimit:2;"><g><path d="M370.76,118.827c-18.488,-39.727 -4.219,-85.544 31.883,-102.359c36.107,-16.818 94.939,-1.536 104.272,41.255c9.258,42.513 0.58,107.26 -37.356,105.488c-10.488,-0.499 -21.057,-1.334 -31.289,-2.965c-1.334,4.996 -1.037,15.164 0.857,24.818c7.344,37.097 -43.21,54.731 -50.516,17.573c-4.257,-21.754 3.861,-38.629 7.428,-54.472c-10.29,-6.849 -19.109,-16.102 -25.279,-29.338Z" style="fill:#f3d2a2;fill-rule:nonzero;"/><path d="M361.346,34.041c22.871,-30.333 56.027,-44.365 115.439,-25.458c51.888,16.502 35.565,61.202 25.793,51.61c-15.564,-15.267 -34.97,-9.116 -34.97,-9.116l-12.577,46.076c0,0 -7.024,4.817 -10.988,-10.347c-3.982,-15.168 -24.661,-15.485 -30.671,-2.729c-9.334,19.806 4.638,22.65 6.589,34.052c6.151,36.027 -34.094,37.083 -34.094,37.083c0,0 -7.626,3.563 -22.608,-21.956c-14.97,-25.516 -24.619,-69.103 -1.913,-99.215Z" style="fill:#ffe51e;fill-rule:nonzero;"/><path d="M308.486,417.77c11.007,0 19.906,-8.899 19.906,-19.905c0,-89.961 92.766,-184.042 93.703,-184.976c7.741,-7.782 7.741,-20.382 -0.042,-28.141c-7.782,-7.764 -20.359,-7.745 -28.122,0c-4.303,4.318 -105.347,106.596 -105.347,213.117c0,11.006 8.896,19.905 19.902,19.905Z" style="fill:#e2c196;fill-rule:nonzero;"/><path d="M467.71,696.412c21.991,0 39.808,-17.832 39.808,-39.807l0,-139.319c0,-6.925 -1.811,-13.735 -5.256,-19.745l-79.614,-139.319c-10.885,-19.09 -35.226,-25.756 -54.293,-14.81c-19.086,10.888 -25.714,35.207 -14.81,54.297l74.358,130.145l0,128.751c0,21.975 17.833,39.807 39.807,39.807Z" style="fill:#87230c;fill-rule:nonzero;"/><path d="M288.562,636.703c11.684,0 23.247,-5.118 31.087,-14.951l79.614,-99.515c3.998,-4.955 6.707,-10.805 7.958,-17.036l19.905,-99.516c4.318,-21.552 -9.65,-42.551 -31.205,-46.85c-21.655,-4.356 -42.555,9.673 -46.85,31.209l-18.015,90.038l-73.559,91.954c-13.735,17.154 -10.949,42.212 6.228,55.948c7.321,5.85 16.098,8.719 24.837,8.719Z" style="fill:#87230c;fill-rule:nonzero;"/><path d="M328.388,377.963c0,0 0,19.902 39.807,19.902l79.61,0c39.807,-119.417 7.146,-238.835 -39.803,-238.835c-59.713,0 -59.713,79.611 -79.614,179.126" style="fill:#0e5da4;fill-rule:nonzero;"/><path d="M427.903,238.644c0.019,0.896 1.311,90.598 71.649,143.359l-0.198,0.278c4.836,3.625 8.16,9.135 8.16,15.645c0,11.006 -8.918,19.901 -19.902,19.901c-4.478,0 -8.422,-1.749 -11.746,-4.257l-0.198,0.279c-86.577,-64.945 -87.572,-170.688 -87.572,-175.147l39.807,-0.058Z" style="fill:#f3d2a2;fill-rule:nonzero;"/><path d="M225.251,617.953c-5.392,-5.393 -3.186,-13.454 2.569,-18.709c9.215,-8.419 13.392,-11.422 13.392,-11.422c5.077,-3.346 17.379,-8.304 22.49,-3.209c37.28,37.12 65.76,90.182 66.797,108.674c0.617,10.903 -12.84,17.016 -20.481,9.371c-22.55,-22.546 -65.223,-65.181 -84.767,-84.705Z" style="fill:#838383;fill-rule:nonzero;"/><path d="M429.577,714.583c-7.627,0.061 -11.823,-7.187 -11.506,-14.985c0.476,-12.458 1.273,-17.535 1.273,-17.535c1.177,-5.972 6.273,-18.213 13.518,-18.274c52.582,-0.457 110.381,16.54 124.253,28.781c8.198,7.245 3.103,21.095 -7.706,21.179c-31.903,0.194 -92.21,0.632 -119.832,0.834Z" style="fill:#838383;fill-rule:nonzero;"/></g></svg>