<svg width="36" height="36" viewBox="0 0 36 36" fill="none" xmlns="http://www.w3.org/2000/svg">
<g clip-path="url(#clip0)">
<path d="M16.9468 5.98636C16.0153 3.98499 16.7342 1.67676 18.5531 0.829501C20.372 -0.0177546 23.3359 0.752302 23.8062 2.90807C24.2725 5.04983 23.8353 8.3116 21.9241 8.22232C21.3957 8.1973 20.8633 8.15517 20.3479 8.07295C20.2807 8.32464 20.2957 8.83701 20.391 9.3233C20.761 11.1923 18.2142 12.0807 17.8461 10.2087C17.6316 9.11276 18.0406 8.26251 18.2202 7.46434C17.7018 7.11932 17.2576 6.65313 16.9468 5.98636Z" fill="#F3D2A2"/>
<path d="M16.4725 1.71483C17.6246 0.186707 19.2951 -0.520162 22.2881 0.432406C24.9022 1.26362 24.0799 3.51572 23.5877 3.03243C22.8036 2.26334 21.8259 2.57319 21.8259 2.57319L21.1922 4.89447C21.1922 4.89447 20.8383 5.13708 20.6387 4.37311C20.4381 3.60904 19.3963 3.593 19.0935 4.23572C18.6233 5.23341 19.3271 5.37679 19.4254 5.95129C19.7353 7.76618 17.7078 7.81932 17.7078 7.81932C17.7078 7.81932 17.3237 7.99884 16.5688 6.71333C15.8147 5.42781 15.3285 3.23195 16.4725 1.71483Z" fill="#FFE51E"/>
<path d="M13.8095 21.0468C14.364 21.0468 14.8122 20.5986 14.8122 20.0441C14.8122 15.5119 19.4858 10.7722 19.5329 10.7251C19.923 10.333 19.923 9.69831 19.5309 9.30729C19.1388 8.91627 18.5052 8.91724 18.1141 9.30729C17.8974 9.52487 12.8068 14.6777 12.8068 20.0441C12.8068 20.5986 13.255 21.0468 13.8095 21.0468Z" fill="#E2C196"/>
<path d="M21.831 35.0845C22.9389 35.0845 23.8364 34.1862 23.8364 33.0791V26.0603C23.8364 25.7114 23.7452 25.3684 23.5717 25.0656L19.5609 18.0468C19.0124 17.0852 17.7861 16.7493 16.8255 17.3008C15.864 17.8493 15.5301 19.0745 16.0795 20.0362L19.8256 26.5928V33.0792C19.8256 34.1861 20.724 35.0845 21.831 35.0845Z" fill="#25A9E8"/>
<path d="M12.8057 32.0764C13.3943 32.0764 13.9768 31.8187 14.3719 31.3233L18.3827 26.3098C18.5842 26.0602 18.7206 25.7654 18.7837 25.4516L19.7865 20.4381C20.004 19.3522 19.3002 18.2943 18.2143 18.0778C17.1233 17.8582 16.0705 18.5651 15.854 19.65L14.9465 24.1861L11.2406 28.8186C10.5487 29.6829 10.6891 30.9452 11.5544 31.6371C11.9233 31.932 12.3655 32.0764 12.8057 32.0764Z" fill="#25A9E8"/>
<path d="M14.8121 19.0414C14.8121 19.0414 14.8121 20.0441 16.8175 20.0441H20.8283C22.8337 14.0279 21.1883 8.01179 18.8229 8.01179C15.8148 8.01179 15.8148 12.0225 14.8121 17.036" fill="#0E5DA4"/>
<path d="M19.8255 12.0226C19.8265 12.0677 19.8917 16.5869 23.4352 19.245L23.4252 19.259C23.6689 19.4415 23.8363 19.7192 23.8363 20.0471C23.8363 20.6016 23.3871 21.0498 22.8336 21.0498C22.608 21.0498 22.4094 20.9616 22.242 20.8352L22.2319 20.8492C17.8703 17.5774 17.8201 12.2501 17.8201 12.0256L19.8255 12.0226Z" fill="#F3D2A2"/>
<path d="M9.61613 31.1319C9.34444 30.8602 9.45574 30.4541 9.7455 30.1893C10.2098 29.7652 10.4203 29.6138 10.4203 29.6138C10.676 29.4454 11.2957 29.1956 11.5533 29.4523C13.4314 31.3224 14.8662 33.9956 14.9184 34.9271C14.9495 35.4765 14.2716 35.7844 13.8866 35.3993C12.7506 34.2633 10.6008 32.1155 9.61613 31.1319Z" fill="#838383"/>
<path d="M19.9098 36C19.5257 36.003 19.3142 35.638 19.3303 35.245C19.3543 34.6174 19.3944 34.3616 19.3944 34.3616C19.4536 34.0608 19.7103 33.4441 20.0753 33.4411C22.7244 33.418 25.6362 34.2744 26.3351 34.891C26.7482 35.256 26.4915 35.9538 25.947 35.9579C24.3397 35.9678 21.3015 35.9899 19.9098 36Z" fill="#838383"/>
</g>
<defs>
<clipPath id="clip0">
<rect width="36" height="36" fill="white" transform="matrix(-1 0 0 1 36 0)"/>
</clipPath>
</defs>
</svg>
