<svg width="219" height="47" viewBox="0 0 219 47" fill="none" xmlns="http://www.w3.org/2000/svg">
<rect width="219" height="47" rx="23.5" fill="white"/>
<path d="M51.6316 29V17.64H55.6636C56.5809 17.64 57.3809 17.7893 58.0636 18.088C58.7569 18.3867 59.3329 18.792 59.7916 19.304C60.2609 19.816 60.6129 20.4187 60.8476 21.112C61.0822 21.7947 61.1996 22.5253 61.1996 23.304C61.1996 24.168 61.0662 24.952 60.7996 25.656C60.5436 26.3493 60.1756 26.9467 59.6956 27.448C59.2156 27.9387 58.6342 28.3227 57.9516 28.6C57.2689 28.8667 56.5062 29 55.6636 29H51.6316ZM59.3756 23.304C59.3756 22.7067 59.2902 22.1573 59.1196 21.656C58.9596 21.1547 58.7196 20.728 58.3996 20.376C58.0796 20.0133 57.6902 19.7307 57.2316 19.528C56.7729 19.3253 56.2502 19.224 55.6636 19.224H53.4236V27.416H55.6636C56.2609 27.416 56.7889 27.3147 57.2476 27.112C57.7169 26.8987 58.1062 26.6107 58.4156 26.248C58.7356 25.8747 58.9756 25.4373 59.1356 24.936C59.2956 24.4347 59.3756 23.8907 59.3756 23.304ZM62.9407 21.144L63.2767 19.256H62.7167V17.272H64.4447V19.272L63.9167 21.144H62.9407ZM71.1641 29.08C70.3534 29.08 69.6121 28.92 68.9401 28.6C68.2787 28.2693 67.7081 27.8373 67.2281 27.304C66.7481 26.76 66.3747 26.1413 66.1081 25.448C65.8521 24.7547 65.7241 24.0453 65.7241 23.32C65.7241 22.5627 65.8627 21.8373 66.1401 21.144C66.4174 20.4507 66.7961 19.8373 67.2761 19.304C67.7667 18.7707 68.3427 18.3493 69.0041 18.04C69.6761 17.72 70.4067 17.56 71.1961 17.56C72.0067 17.56 72.7427 17.7307 73.4041 18.072C74.0761 18.4027 74.6467 18.84 75.1161 19.384C75.5961 19.928 75.9641 20.5467 76.2201 21.24C76.4867 21.9227 76.6201 22.6213 76.6201 23.336C76.6201 24.0933 76.4814 24.8187 76.2041 25.512C75.9374 26.2053 75.5587 26.8187 75.0681 27.352C74.5774 27.8747 73.9961 28.296 73.3241 28.616C72.6627 28.9253 71.9427 29.08 71.1641 29.08ZM67.5481 23.32C67.5481 23.8533 67.6334 24.3707 67.8041 24.872C67.9747 25.3733 68.2147 25.816 68.5241 26.2C68.8441 26.584 69.2281 26.8933 69.6761 27.128C70.1241 27.352 70.6254 27.464 71.1801 27.464C71.7561 27.464 72.2627 27.3467 72.7001 27.112C73.1481 26.8667 73.5267 26.5467 73.8361 26.152C74.1454 25.7573 74.3801 25.3147 74.5401 24.824C74.7001 24.3333 74.7801 23.832 74.7801 23.32C74.7801 22.776 74.6947 22.2587 74.5241 21.768C74.3534 21.2667 74.1081 20.8293 73.7881 20.456C73.4787 20.072 73.1001 19.768 72.6521 19.544C72.2147 19.3093 71.7241 19.192 71.1801 19.192C70.6041 19.192 70.0921 19.3147 69.6441 19.56C69.1961 19.7947 68.8174 20.104 68.5081 20.488C68.1987 20.872 67.9587 21.3147 67.7881 21.816C67.6281 22.3067 67.5481 22.808 67.5481 23.32ZM83.2113 27.464C83.8086 27.464 84.3046 27.3467 84.6993 27.112C85.094 26.8773 85.4086 26.5733 85.6433 26.2C85.8886 25.816 86.0593 25.384 86.1553 24.904C86.262 24.4133 86.3153 23.912 86.3153 23.4V17.64H88.1233V23.4C88.1233 24.1787 88.0326 24.9147 87.8513 25.608C87.67 26.2907 87.382 26.8933 86.9873 27.416C86.5926 27.928 86.0806 28.3333 85.4513 28.632C84.8326 28.9307 84.086 29.08 83.2113 29.08C82.3046 29.08 81.5366 28.9253 80.9073 28.616C80.2886 28.296 79.7873 27.8747 79.4033 27.352C79.0193 26.8187 78.742 26.2107 78.5713 25.528C78.4006 24.8453 78.3153 24.136 78.3153 23.4V17.64H80.1073V23.4C80.1073 23.9227 80.1553 24.4293 80.2513 24.92C80.358 25.4 80.5286 25.832 80.7633 26.216C81.0086 26.5893 81.3286 26.8933 81.7233 27.128C82.1286 27.352 82.6246 27.464 83.2113 27.464ZM81.3713 14.328H83.0513L83.9633 16.088L82.8433 16.44L81.3713 14.328ZM94.4597 29V17.64H99.2277C99.7397 17.64 100.209 17.7467 100.636 17.96C101.073 18.1733 101.446 18.456 101.756 18.808C102.065 19.1493 102.305 19.544 102.476 19.992C102.657 20.4293 102.748 20.8773 102.748 21.336C102.748 21.816 102.662 22.28 102.492 22.728C102.332 23.1653 102.102 23.56 101.804 23.912C101.505 24.2533 101.142 24.5307 100.716 24.744C100.3 24.9467 99.8357 25.048 99.3237 25.048H96.2517V29H94.4597ZM96.2517 23.464H99.2117C99.4677 23.464 99.697 23.4107 99.8997 23.304C100.113 23.1973 100.294 23.048 100.444 22.856C100.593 22.664 100.71 22.44 100.796 22.184C100.881 21.928 100.924 21.6453 100.924 21.336C100.924 21.016 100.876 20.728 100.78 20.472C100.684 20.216 100.55 19.9973 100.38 19.816C100.209 19.624 100.012 19.48 99.7877 19.384C99.5744 19.2773 99.3504 19.224 99.1157 19.224H96.2517V23.464ZM107.054 17.64H108.622L113.102 29H111.214L110.014 25.912H105.63L104.446 29H102.542L107.054 17.64ZM109.662 24.584L107.838 19.704L105.95 24.584H109.662ZM114.507 29V17.64H119.451C119.963 17.64 120.432 17.7467 120.859 17.96C121.296 18.1733 121.669 18.456 121.979 18.808C122.288 19.1493 122.528 19.544 122.699 19.992C122.88 20.4293 122.971 20.8773 122.971 21.336C122.971 21.72 122.917 22.088 122.811 22.44C122.704 22.792 122.555 23.1173 122.363 23.416C122.171 23.7147 121.936 23.976 121.659 24.2C121.381 24.4133 121.077 24.5733 120.747 24.68L123.419 29H121.387L118.923 25.048H116.299V29H114.507ZM116.299 23.464H119.435C119.691 23.464 119.92 23.4107 120.123 23.304C120.336 23.1867 120.517 23.032 120.667 22.84C120.816 22.6373 120.933 22.408 121.019 22.152C121.104 21.896 121.147 21.624 121.147 21.336C121.147 21.048 121.093 20.776 120.987 20.52C120.891 20.264 120.757 20.04 120.587 19.848C120.427 19.656 120.235 19.5067 120.011 19.4C119.797 19.2827 119.573 19.224 119.339 19.224H116.299V23.464ZM131.805 20.312C131.698 20.1947 131.543 20.072 131.341 19.944C131.138 19.8053 130.898 19.6773 130.621 19.56C130.354 19.4427 130.055 19.3467 129.725 19.272C129.405 19.1973 129.074 19.16 128.733 19.16C127.975 19.16 127.415 19.2987 127.053 19.576C126.701 19.8533 126.525 20.2373 126.525 20.728C126.525 21.0053 126.578 21.2347 126.685 21.416C126.802 21.5867 126.978 21.7413 127.213 21.88C127.447 22.008 127.741 22.1253 128.093 22.232C128.445 22.328 128.855 22.4347 129.325 22.552C129.901 22.6907 130.418 22.8453 130.877 23.016C131.346 23.1867 131.741 23.3947 132.061 23.64C132.381 23.8853 132.626 24.1893 132.797 24.552C132.978 24.904 133.069 25.336 133.069 25.848C133.069 26.424 132.957 26.92 132.733 27.336C132.519 27.752 132.221 28.0933 131.837 28.36C131.463 28.616 131.026 28.808 130.525 28.936C130.023 29.0533 129.485 29.112 128.909 29.112C128.045 29.112 127.207 28.984 126.397 28.728C125.597 28.4613 124.871 28.0773 124.221 27.576L125.037 26.04C125.175 26.1787 125.373 26.3333 125.629 26.504C125.895 26.6747 126.199 26.8347 126.541 26.984C126.893 27.1227 127.271 27.2453 127.677 27.352C128.082 27.448 128.503 27.496 128.941 27.496C129.645 27.496 130.189 27.3733 130.573 27.128C130.957 26.8827 131.149 26.52 131.149 26.04C131.149 25.752 131.074 25.512 130.925 25.32C130.786 25.128 130.583 24.9627 130.317 24.824C130.05 24.6747 129.725 24.5413 129.341 24.424C128.957 24.3067 128.519 24.184 128.029 24.056C127.463 23.9067 126.967 23.752 126.541 23.592C126.125 23.4213 125.778 23.2187 125.501 22.984C125.223 22.7493 125.01 22.4773 124.861 22.168C124.722 21.848 124.653 21.464 124.653 21.016C124.653 20.4613 124.759 19.9707 124.973 19.544C125.186 19.1067 125.474 18.744 125.837 18.456C126.21 18.1573 126.647 17.9333 127.149 17.784C127.65 17.6347 128.194 17.56 128.781 17.56C129.549 17.56 130.258 17.6827 130.909 17.928C131.559 18.1733 132.13 18.4773 132.621 18.84L131.805 20.312ZM146.702 19.224H142.926V29H141.118V19.224H137.326V17.64H146.702V19.224ZM152.961 27.464C153.559 27.464 154.055 27.3467 154.449 27.112C154.844 26.8773 155.159 26.5733 155.393 26.2C155.639 25.816 155.809 25.384 155.905 24.904C156.012 24.4133 156.065 23.912 156.065 23.4V17.64H157.873V23.4C157.873 24.1787 157.783 24.9147 157.601 25.608C157.42 26.2907 157.132 26.8933 156.737 27.416C156.343 27.928 155.831 28.3333 155.201 28.632C154.583 28.9307 153.836 29.08 152.961 29.08C152.055 29.08 151.287 28.9253 150.657 28.616C150.039 28.296 149.537 27.8747 149.153 27.352C148.769 26.8187 148.492 26.2107 148.321 25.528C148.151 24.8453 148.065 24.136 148.065 23.4V17.64H149.857V23.4C149.857 23.9227 149.905 24.4293 150.001 24.92C150.108 25.4 150.279 25.832 150.513 26.216C150.759 26.5893 151.079 26.8933 151.473 27.128C151.879 27.352 152.375 27.464 152.961 27.464ZM165.058 25.464C165.058 24.9093 165.148 24.4187 165.33 23.992C165.522 23.5653 165.874 23.1973 166.386 22.888C166.567 22.7813 166.78 22.664 167.026 22.536C167.271 22.3973 167.506 22.2373 167.73 22.056C167.954 21.8747 168.14 21.6613 168.29 21.416C168.45 21.1707 168.53 20.8827 168.53 20.552C168.53 20.296 168.476 20.0667 168.37 19.864C168.274 19.6613 168.146 19.4907 167.986 19.352C167.826 19.2133 167.639 19.112 167.426 19.048C167.212 18.9733 166.994 18.936 166.77 18.936C166.514 18.936 166.279 18.9787 166.066 19.064C165.852 19.1387 165.655 19.2453 165.474 19.384C165.292 19.512 165.127 19.6613 164.978 19.832C164.839 20.0027 164.722 20.1733 164.626 20.344L163.474 19.56C163.762 18.8987 164.21 18.392 164.818 18.04C165.426 17.6773 166.092 17.496 166.818 17.496C167.212 17.496 167.602 17.56 167.986 17.688C168.38 17.8053 168.732 17.992 169.042 18.248C169.351 18.4933 169.596 18.8133 169.778 19.208C169.97 19.6027 170.066 20.072 170.066 20.616C170.066 20.9893 170.018 21.3147 169.922 21.592C169.826 21.8587 169.692 22.104 169.522 22.328C169.362 22.5413 169.164 22.7333 168.93 22.904C168.706 23.064 168.466 23.2133 168.21 23.352C167.996 23.4693 167.788 23.592 167.586 23.72C167.383 23.8373 167.202 23.976 167.042 24.136C166.892 24.296 166.77 24.4827 166.674 24.696C166.578 24.9093 166.53 25.1653 166.53 25.464H165.058ZM165.058 29V26.984H166.53V29H165.058Z" fill="#25A9E8"/>
</svg>
