<?xml version="1.0" encoding="utf-8"?>
<!-- Generator: Adobe Illustrator 16.0.0, SVG Export Plug-In . SVG Version: 6.00 Build 0)  -->
<!DOCTYPE svg PUBLIC "-//W3C//DTD SVG 1.1//EN" "http://www.w3.org/Graphics/SVG/1.1/DTD/svg11.dtd">
<svg version="1.1" id="Calque_1" xmlns="http://www.w3.org/2000/svg" xmlns:xlink="http://www.w3.org/1999/xlink" x="0px" y="0px"
	 width="287px" height="287px" viewBox="0 0 287 287" enable-background="new 0 0 287 287" xml:space="preserve">
<g>
	<path fill="#25A9E8" d="M-221.064,67.824c-34.852-4.066-55.809-17.879-79.383-42.976l-0.105,0.243v-0.243
		c-23.578,25.097-44.53,38.91-79.383,42.976c-3.723,15.725-1.615,32.328-1.615,32.328c0,64.4,80.998,161.999,80.998,161.999
		s81-102.908,81-161.999h0.104C-219.448,100.152-217.341,83.549-221.064,67.824z"/>
	<path fill="#FFFFFF" d="M-260.254,118.066c0,22.254-18.047,40.3-40.299,40.3c-22.26,0-40.297-18.045-40.297-40.3
		c0-22.254,18.037-40.697,40.297-40.697C-278.301,77.369-260.254,95.813-260.254,118.066z"/>
</g>
<g>
	<path fill="#FFFFFF" d="M-531.415,396.373c-34.856-4.066-55.809-17.879-79.378-42.976l-0.114,0.243v-0.243
		c-23.574,25.097-44.525,38.909-79.38,42.976c-3.722,15.725-1.615,32.328-1.615,32.328c0,64.4,80.995,161.999,80.995,161.999
		s81.004-102.908,81.004-161.999h0.104C-529.799,428.701-527.691,412.098-531.415,396.373z"/>
	<path fill="#25A9E8" d="M-570.604,446.615c0,22.254-18.046,40.3-40.303,40.3s-40.293-18.046-40.293-40.3
		s18.036-40.697,40.293-40.697S-570.604,424.361-570.604,446.615z"/>
</g>
<g>
	<g>
		<path fill="#25A9E8" d="M-577.154,260.083c-3.38-4.072-82.577-100.258-82.974-166.967c-0.355-3.242-1.828-19.257,1.85-34.808
			l1.382-5.846l5.967-0.696c34.042-3.971,52.956-17.795,74.124-40.33l2.539-2.703h7.534l2.539,2.704
			c21.162,22.534,40.072,36.357,74.117,40.329l5.965,0.696l1.385,5.844c4.035,17.04,1.881,34.637,1.787,35.378l-0.064,0.505
			c-1.334,61.503-79.463,161.46-82.816,165.721l-6.56,8.334L-577.154,260.083z"/>
		<path fill="#25A9E8" d="M-570.443,17.306c23.568,25.097,44.527,38.91,79.375,42.976c3.723,15.725,1.625,32.328,1.625,32.328
			h-0.115c0,59.091-80.999,161.999-80.999,161.999s-80.999-97.599-80.999-161.999c0,0-2.099-16.603,1.62-32.328
			c34.854-4.066,55.806-17.879,79.379-42.976H-570.443 M-563.023,0.161h-7.419h-0.114h-7.418l-5.078,5.407
			c-23.094,24.585-41.115,34.446-68.869,37.684l-11.934,1.392l-2.765,11.691c-3.861,16.329-2.567,32.636-2.075,37.293
			c0.324,29.817,14.818,67.896,43.094,113.207c20.626,33.052,40.994,57.689,41.852,58.722l13.547,16.322l13.12-16.668
			c0.852-1.083,21.111-26.908,41.652-60.499c27.789-45.441,42.242-82.389,42.988-109.879l0.01-0.074
			c0.254-2.015,2.363-20.209-1.951-38.429l-2.768-11.687l-11.93-1.392c-27.756-3.238-45.777-13.1-68.863-37.683L-563.023,0.161
			L-563.023,0.161z"/>
		<path fill="#FFFFFF" d="M-570.443,17.306c23.568,25.097,44.527,38.91,79.375,42.976c3.723,15.725,1.625,32.328,1.625,32.328
			h-0.115c0,59.091-80.999,161.999-80.999,161.999s-80.999-97.599-80.999-161.999c0,0-2.099-16.603,1.62-32.328
			c34.854-4.066,55.806-17.879,79.379-42.976H-570.443 M-566.115,7.305h-4.328h-0.114h-4.327l-2.962,3.154
			c-20.941,22.294-39.641,35.968-73.248,39.889l-6.961,0.812l-1.613,6.82c-3.698,15.638-2.264,31.733-1.887,35.218
			c0.465,67.213,79.91,163.712,83.303,167.798l7.901,9.521l7.654-9.723c0.842-1.069,20.848-26.573,41.172-59.809
			c27.26-44.577,41.365-80.459,41.949-106.693l0.055-0.429c0.096-0.751,2.279-18.598-1.814-35.887l-1.615-6.817l-6.959-0.812
			c-33.611-3.922-52.307-17.595-73.242-39.889L-566.115,7.305L-566.115,7.305z"/>
	</g>
	<path fill="#FFFFFF" d="M-530.256,110.523c0,22.254-18.041,40.3-40.301,40.3c-22.252,0-40.293-18.045-40.293-40.3
		c0-22.254,18.041-40.697,40.293-40.697C-548.297,69.826-530.256,88.27-530.256,110.523z"/>
</g>
<g>
	<g>
		<path fill="#FFFFFF" d="M-413.858,658.604c-3.379-4.072-82.567-100.257-82.974-166.965c-0.357-3.247-1.836-19.262,1.846-34.812
			l1.384-5.845l5.965-0.695c34.047-3.972,52.962-17.795,74.128-40.33l2.539-2.703h7.532l2.54,2.703
			c21.164,22.535,40.076,36.359,74.115,40.33l5.965,0.695l1.384,5.845c4.034,17.04,1.877,34.639,1.783,35.38l-0.059,0.455
			c-1.297,61.499-79.462,161.507-82.815,165.769l-6.56,8.334L-413.858,658.604z"/>
		<path fill="#FFFFFF" d="M-407.147,415.826c23.57,25.097,44.521,38.91,79.371,42.976c3.723,15.726,1.62,32.328,1.62,32.328h-0.109
			c0,59.091-80.996,161.999-80.996,161.999s-80.999-97.599-80.999-161.999c0,0-2.106-16.603,1.616-32.328
			c34.854-4.065,55.811-17.879,79.383-42.976H-407.147 M-399.729,398.682h-7.419h-0.114h-7.418l-5.079,5.406
			c-23.091,24.585-41.113,34.446-68.872,37.685l-11.931,1.392l-2.767,11.688c-3.865,16.33-2.567,32.638-2.072,37.301
			c0.326,29.816,14.82,67.896,43.094,113.204c20.626,33.052,40.995,57.689,41.852,58.722l13.547,16.322l13.119-16.668
			c0.852-1.083,21.111-26.908,41.652-60.5c27.803-45.466,42.256-82.433,42.986-109.928l0.003-0.021
			c0.255-2.014,2.368-20.21-1.945-38.432l-2.767-11.688l-11.931-1.392c-27.751-3.237-45.771-13.099-68.86-37.684L-399.729,398.682
			L-399.729,398.682z"/>
		<path fill="#25A9E8" d="M-407.147,415.826c23.57,25.097,44.521,38.91,79.371,42.976c3.723,15.726,1.62,32.328,1.62,32.328h-0.109
			c0,59.091-80.996,161.999-80.996,161.999s-80.999-97.599-80.999-161.999c0,0-2.106-16.603,1.616-32.328
			c34.854-4.065,55.811-17.879,79.383-42.976H-407.147 M-402.82,405.825h-4.327h-0.114h-4.327l-2.963,3.153
			c-20.939,22.295-39.638,35.969-73.252,39.89l-6.959,0.812l-1.614,6.818c-3.701,15.638-2.263,31.732-1.883,35.222
			c0.466,67.213,79.91,163.71,83.302,167.796l7.902,9.521l7.652-9.723c0.842-1.069,20.849-26.573,41.172-59.809
			c27.276-44.604,41.382-80.503,41.949-106.741l0.048-0.378c0.095-0.752,2.283-18.6-1.81-35.889l-1.614-6.818l-6.959-0.812
			c-33.605-3.921-52.303-17.595-73.24-39.889L-402.82,405.825L-402.82,405.825z"/>
	</g>
	<path fill="#25A9E8" d="M-366.964,509.044c0,22.255-18.041,40.3-40.298,40.3c-22.26,0-40.297-18.045-40.297-40.3
		c0-22.254,18.037-40.697,40.297-40.697C-385.005,468.347-366.964,486.79-366.964,509.044z"/>
</g>
<path fill="#FFFFFF" d="M-221.117,713.822c-34.856-4.065-55.809-17.879-79.378-42.976l-0.114,0.245v-0.245
	c-23.574,25.097-44.525,38.91-79.38,42.976c-3.722,15.729-1.615,32.333-1.615,32.333c0,64.397,80.995,161.998,80.995,161.998
	s81.004-102.908,81.004-161.998h0.104C-219.5,746.155-217.393,729.551-221.117,713.822z M-300.609,804.366
	c-22.257,0-40.293-18.045-40.293-40.297c0-22.257,18.036-40.701,40.293-40.701s40.303,18.444,40.303,40.701
	C-260.306,786.321-278.352,804.366-300.609,804.366z"/>
<path fill="#FFFFFF" d="M-37.799,585.217l-1.616-6.828l-6.968-0.809c-33.664-3.934-52.382-17.623-73.348-39.945l-2.968-3.156h-8.776
	l-2.965,3.156c-20.969,22.322-39.695,36.021-73.35,39.945l-6.973,0.809l-1.615,6.832c-3.701,15.656-2.266,31.771-1.879,35.266
	c0.46,67.301,80.016,163.93,83.404,168.021l7.916,9.533l7.663-9.734c3.37-4.279,81.886-104.734,83.237-166.805l0.049-0.35
	C-35.896,620.398-33.699,602.529-37.799,585.217z M-45.923,619.898h-0.109c0,59.168-81.109,162.213-81.109,162.213
	s-81.104-97.732-81.104-162.213c0,0-2.107-16.627,1.616-32.377c34.897-4.066,55.885-17.9,79.488-43.029h0.11
	c23.599,25.129,44.587,38.963,79.484,43.029C-43.815,603.271-45.923,619.898-45.923,619.898z M-127.142,597.084
	c-22.286,0-40.347,18.467-40.347,40.754c0,22.279,18.061,40.352,40.347,40.352c22.287,0,40.358-18.072,40.358-40.352
	C-86.783,615.551-104.854,597.084-127.142,597.084z"/>
<path fill="#FFFFFF" d="M-553.151,721.002h-0.114c-23.604,25.127-44.582,38.963-79.487,43.029
	c-3.724,15.748-1.621,32.375-1.621,32.375c0,64.482,81.108,162.215,81.108,162.215s81.105-103.045,81.105-162.215h0.113
	c0,0,2.099-16.627-1.624-32.375C-508.568,759.965-529.546,746.129-553.151,721.002z M-553.265,854.697
	c-22.287,0-40.35-18.07-40.35-40.35c0-22.287,18.063-40.754,40.35-40.754s40.351,18.467,40.351,40.754
	C-512.915,836.627-530.978,854.697-553.265,854.697z M-456.967,760.078l-2.771-11.705l-11.943-1.389
	c-27.788-3.248-45.834-13.119-68.959-37.736l-5.089-5.418h-14.959l-5.089,5.418c-23.122,24.617-41.166,34.488-68.96,37.729
	l-11.942,1.396l-2.775,11.705c-3.872,16.352-2.572,32.684-2.081,37.352c0.791,69.816,81.605,167.986,85.061,172.158l13.563,16.338
	l13.136-16.689c8.58-10.893,83.02-107.258,84.753-170.607l0.01-0.072C-454.759,796.539-452.648,778.316-456.967,760.078z
	 M-462.111,797.662l-0.051,0.387c-1.385,62.066-79.863,162.486-83.234,166.768l-7.658,9.732l-7.916-9.531
	c-3.394-4.092-82.943-100.721-83.414-168.021c-0.383-3.496-1.822-19.609,1.888-35.271l1.62-6.828l6.964-0.807
	c33.659-3.926,52.38-17.625,73.352-39.947l2.959-3.156h8.781l2.968,3.156c20.97,22.322,39.691,36.021,73.343,39.947l6.962,0.807
	l1.621,6.828C-459.826,779.037-462.018,796.908-462.111,797.662z"/>
<path fill="#25A9E8" d="M1119.6,532.548c-34.856-4.065-55.809-17.879-79.378-42.976l-0.114,0.245v-0.245
	c-23.574,25.097-44.525,38.91-79.38,42.976c-3.722,15.729-1.615,32.333-1.615,32.333c0,64.397,80.995,161.998,80.995,161.998
	s81.004-102.908,81.004-161.998h0.104C1121.216,564.881,1123.323,548.276,1119.6,532.548z M1040.107,623.092
	c-22.257,0-40.293-18.045-40.293-40.297c0-22.257,18.036-40.701,40.293-40.701s40.303,18.444,40.303,40.701
	C1080.41,605.047,1062.364,623.092,1040.107,623.092z"/>
<path fill="#25A9E8" d="M232.787,54.911l-1.616-6.828l-6.968-0.808c-33.664-3.935-52.382-17.624-73.348-39.946l-2.968-3.156h-8.776
	l-2.965,3.156c-20.969,22.322-39.695,36.021-73.35,39.946l-6.973,0.808l-1.615,6.833c-3.701,15.656-2.266,31.771-1.879,35.266
	c0.46,67.301,80.016,163.93,83.404,168.022l7.916,9.531l7.663-9.732c3.37-4.281,81.886-104.736,83.237-166.806l0.049-0.349
	C234.69,90.093,236.887,72.223,232.787,54.911z M224.663,89.592h-0.109c0,59.169-81.109,162.214-81.109,162.214
	S62.34,154.074,62.34,89.592c0,0-2.107-16.627,1.616-32.376c34.897-4.066,55.885-17.901,79.488-43.029h0.11
	c23.599,25.128,44.587,38.963,79.484,43.029C226.771,72.965,224.663,89.592,224.663,89.592z M143.444,66.779
	c-22.286,0-40.347,18.467-40.347,40.754c0,22.279,18.061,40.35,40.347,40.35c22.287,0,40.358-18.071,40.358-40.35
	C183.803,85.246,165.731,66.779,143.444,66.779z"/>
<path fill="#25A9E8" d="M1327.771,489.221h-0.114c-23.604,25.128-44.582,38.963-79.487,43.029
	c-3.724,15.749-1.621,32.376-1.621,32.376c0,64.481,81.108,162.214,81.108,162.214s81.105-103.045,81.105-162.214h0.113
	c0,0,2.099-16.627-1.624-32.376C1372.354,528.184,1351.375,514.349,1327.771,489.221z M1327.656,622.917
	c-22.287,0-40.35-18.071-40.35-40.351c0-22.287,18.063-40.754,40.35-40.754s40.351,18.467,40.351,40.754
	C1368.007,604.846,1349.943,622.917,1327.656,622.917z M1423.954,528.298l-2.771-11.706l-11.943-1.388
	c-27.788-3.248-45.834-13.119-68.959-37.737l-5.089-5.418h-14.959l-5.089,5.418c-23.122,24.618-41.166,34.489-68.96,37.729
	l-11.942,1.396l-2.775,11.706c-3.872,16.351-2.572,32.684-2.081,37.352c0.791,69.816,81.605,167.986,85.061,172.158l13.563,16.337
	l13.136-16.688c8.58-10.894,83.02-107.259,84.753-170.608l0.01-0.071C1426.162,564.758,1428.273,546.536,1423.954,528.298z
	 M1418.811,565.881l-0.051,0.388c-1.385,62.065-79.863,162.486-83.234,166.767l-7.658,9.733l-7.916-9.532
	c-3.394-4.092-82.943-100.721-83.414-168.021c-0.383-3.495-1.822-19.609,1.888-35.271l1.62-6.828l6.964-0.808
	c33.659-3.925,52.38-17.624,73.352-39.946l2.959-3.156h8.781l2.968,3.156c20.97,22.322,39.691,36.021,73.343,39.946l6.962,0.808
	l1.621,6.828C1421.096,547.257,1418.903,565.127,1418.811,565.881z"/>
</svg>
